<?xml version="1.0" encoding="UTF-8" standalone="no"?>
<svg
   width="96"
   zoomAndPan="magnify"
   viewBox="0 0 96 96"
   height="96"
   preserveAspectRatio="xMidYMid"
   version="1.0"
   id="svg21"
   sodipodi:docname="Rock.svg"
   inkscape:version="1.4 (86a8ad7, 2024-10-11)"
   xmlns:inkscape="http://www.inkscape.org/namespaces/inkscape"
   xmlns:sodipodi="http://sodipodi.sourceforge.net/DTD/sodipodi-0.dtd"
   xmlns="http://www.w3.org/2000/svg"
   xmlns:svg="http://www.w3.org/2000/svg">
  <sodipodi:namedview
     id="namedview21"
     pagecolor="#ffffff"
     bordercolor="#000000"
     borderopacity="0.25"
     inkscape:showpageshadow="2"
     inkscape:pageopacity="0.0"
     inkscape:pagecheckerboard="0"
     inkscape:deskcolor="#d1d1d1"
     inkscape:zoom="4.6370968"
     inkscape:cx="39.895652"
     inkscape:cy="43.238261"
     inkscape:window-width="1920"
     inkscape:window-height="991"
     inkscape:window-x="-9"
     inkscape:window-y="-9"
     inkscape:window-maximized="1"
     inkscape:current-layer="svg21" />
  <defs
     id="defs1">
    <clipPath
       id="3089119898">
      <path
         d="M 0,3.101562 H 95 V 92 H 0 Z m 0,0"
         clip-rule="nonzero"
         id="path1" />
    </clipPath>
  </defs>
  <path
     fill="#66757f"
     d="m 31.37271,6.6192119 c 0,0 11.121094,-3.0039062 13.902344,-3.0039062 2.78125,0 13.902344,3.0039062 13.902344,3.0039062 0,0 11.125,12.0156251 13.902344,12.0156251 0,0 5.5625,0 11.125,6.003906 5.558593,6.007813 5.558593,18.019532 5.558593,18.019532 0,0 5.5625,12.015624 5.5625,18.019531 0,6.007812 -2.78125,12.015625 -5.5625,15.019531 -2.777343,3.003906 -13.902343,6.007812 -13.902343,6.007812 0,0 -2.78125,6.003907 -8.339844,9.007813 -16.683594,3.007813 -27.804688,0 -27.804688,0 l -5.5625,-6.003906 c 0,0 -19.464844,-3.003907 -22.246094,-3.003907 -2.7812497,0 -11.12109266,-12.015624 -11.12109266,-15.019531 0,-3.003906 0,-12.011719 2.78124996,-21.023437 5.558593,-9.011719 8.3398427,-12.015625 8.3398427,-12.015625 0,0 -2.7812497,-6 0,-12.007813 5.5625,-6.007812 16.683594,-9.011718 16.683594,-9.011718 z m 0,0"
     fill-opacity="1"
     fill-rule="nonzero"
     id="path12" />
  <path
     fill="#99aab5"
     d="m 32.509429,7.5528059 c 0,0 10.101563,-2.855469 12.71875,-2.855469 2.617187,0 13.875,3.210938 13.875,3.210938 0,0 9.9375,11.2421871 12.554687,11.2421871 0,0 5.667969,-0.125 10.902344,5.53125 5.234375,5.65625 4.75,15.699219 4.75,15.699219 0,0 5.234375,11.308594 5.234375,16.964844 0,5.652343 -2.617187,11.308593 -5.230469,14.140624 -2.617187,2.828126 -13.085937,5.652344 -13.085937,5.652344 0,0 -2.617187,5.65625 -7.851563,8.484375 -15.703124,2.828125 -26.171874,0 -26.171874,0 l -5.234376,-5.65625 c 0,0 -18.316406,-2.828125 -20.933593,-2.828125 -2.617188,0 -10.4687497,-11.3125 -10.4687497,-14.140625 0,-2.828125 0,-11.3125 2.617187,-19.792969 5.2343747,-8.484374 7.8515627,-11.308593 7.8515627,-11.308593 0,0 -3.304688,-4.59375 -0.6875,-10.25 5.234375,-5.65625 16.351562,-8.5625 16.351562,-8.5625 z m 0,0"
     fill-opacity="1"
     fill-rule="nonzero"
     id="path13" />
  <path
     fill="#ccd6dd"
     d="m 33.517242,9.8496809 c 0,0 9.449218,-2.496094 11.894531,-2.496094 2.445312,0 12.976562,2.8046881 12.976562,2.8046881 0,0 9.292969,9.8125 11.738281,9.8125 0,0 5.300782,-0.109376 10.199219,4.828124 4.894531,4.9375 4.441407,13.703126 4.441407,13.703126 0,0 0.765624,11.867187 2.75,12.222656 5.03125,0.90625 0.460937,10.378906 -1.984376,12.847656 -2.445312,2.46875 -19.492187,3.570312 -19.492187,3.570312 0,0 0.601563,7.699219 -4.296875,10.167969 -14.683594,2.46875 -21.035156,0.6875 -21.035156,0.6875 l -4.890625,-4.933593 c 0,0 -11.929688,-11.453126 -14.378907,-11.453126 -2.445312,0 -14.9921867,-0.890624 -14.9921867,-3.359374 0,-2.46875 0,-9.875 2.445313,-17.277344 4.8945307,-7.40625 7.3437497,-9.875 7.3437497,-9.875 0,0 -3.089844,-4.011719 -0.644532,-8.945313 4.894532,-4.9375 15.292969,-7.480469 15.292969,-7.480469 z m 0,0"
     fill-opacity="1"
     fill-rule="nonzero"
     id="path14" />
  <path
     fill="#99aab5"
     d="m 15.49771,30.209056 11.066406,5.175781 -5.78125,4.101562 -11.8867177,1.488282 z m 0,0"
     fill-opacity="1"
     fill-rule="nonzero"
     id="path15" />
  <path
     fill="#66757f"
     d="m 2.4469293,56.439525 c 0,0 3.140625,10.527343 3.964844,11.773437 0.824219,1.25 11.3984367,0.359375 12.7187497,0.359375 1.320312,0 7.761719,3.390625 7.761719,3.390625 0,0 -8.589844,2.320313 -11.558594,1.960937 -2.972656,-0.355468 -10.7031247,-1.75 -11.3984377,-3.746093 -0.699218,-1.996094 -1.488281,-13.738281 -1.488281,-13.738281 z m 0,0"
     fill-opacity="1"
     fill-rule="nonzero"
     id="path16" />
  <path
     fill="#e1e8ed"
     d="m 18.302398,21.826243 c 1.363281,-0.433594 10.738281,-4.460937 12.71875,-4.28125 1.984375,0.175782 10.410156,4.992188 8.425781,6.601563 -1.980469,1.605469 -12.882813,0.355469 -16.019531,0.355469 -3.136719,0 -7.929688,-1.785157 -5.125,-2.675782 z m -6.605469,21.589844 c 0.84375,-1.597656 12.058594,-2.144531 12.058594,-2.144531 0,0 14.539062,5.890625 14.539062,6.78125 0,0.894531 -13.214843,6.960937 -14.539062,7.136719 C 22.43521,55.365306 11.036773,44.662181 11.696929,43.416087 Z m 32.542969,10.882812 c -0.261719,-1.414062 5.617187,-9.992187 6.773437,-10.707031 1.15625,-0.710937 16.683594,-4.816406 19.324219,-4.816406 2.640625,0 11.066406,6.242187 11.234375,7.492187 0.164063,1.25 -7.433594,9.8125 -9.417969,10.527344 -1.980468,0.714844 -27.421875,0.179688 -27.914062,-2.496094 z M 59.107085,30.744212 c -0.625,1.5 14.867188,3.570313 16.519531,2.855469 1.652344,-0.714844 4.625,-5.53125 4.128907,-6.78125 -0.496094,-1.25 -5.285157,-4.820313 -7.765625,-4.460938 -2.480469,0.359375 -11.398438,4.820313 -12.882813,8.386719 z M 46.884429,8.7988989 c 1.382813,0.300782 10.570313,2.5000001 11.726563,4.2851571 1.15625,1.78125 -5.449219,7.3125 -7.269532,7.492187 -1.8125,0.179688 -14.203125,-7.492187 -15.523437,-8.386718 -1.324219,-0.890626 8.585937,-3.9257821 11.066406,-3.3906261 z m 0,0"
     fill-opacity="1"
     fill-rule="nonzero"
     id="path17" />
  <path
     fill="#66757f"
     d="m 34.329742,82.666087 c -1.15625,-1.785156 0.660156,-7.671875 1.652343,-6.960938 0.988281,0.710938 3.964844,2.855469 4.128907,4.640626 0.164062,1.78125 3.136718,5.171874 5.285156,6.242187 2.144531,1.070313 13.875,1.070313 15.855468,0.359375 1.984376,-0.714844 6.609376,-4.640625 7.765626,-6.960938 1.15625,-2.320312 2.492187,-2.488281 5.210937,-2.851562 2.71875,-0.359375 5.34375,2.359375 1.632813,4.570312 -3.707032,2.207032 -7.671876,6.132813 -12.292969,7.023438 -4.625,0.894531 -19.65625,1.609375 -22.300781,0.539062 -2.644532,-1.070312 -6.9375,-6.601562 -6.9375,-6.601562 z m 0,0"
     fill-opacity="1"
     fill-rule="nonzero"
     id="path18" />
  <path
     fill="#99aab5"
     d="m 54.173492,69.779368 c -1.394532,-0.75 -1.914063,-6.972656 -1.195313,-7.492187 0.71875,-0.515625 7.414063,0.519531 8.96875,0.777344 1.550781,0.257812 11,-0.519532 11.953125,0.515624 0.957031,1.035157 3.261719,4.824219 4.066406,7.101563 0.804688,2.28125 -4.421875,1.9375 -6.457031,1.421875 -2.03125,-0.519531 -15.421875,-1.289062 -17.335937,-2.324219 z M 33.005523,28.603587 c 1.816406,0 9.414062,-0.179688 11.066406,0 1.652344,0.179688 6.9375,5.171875 4.460937,5.710938 -2.480468,0.535156 -9.085937,2.320312 -10.078124,2.496093 -0.992188,0.179688 -4.625,-3.210937 -5.78125,-4.101562 -1.152344,-0.894531 -1.648438,-4.105469 0.332031,-4.105469 z m 20.816406,-4.996094 c 0.917969,-1.484375 4.457031,-1.960937 4.621094,-0.355468 0.164062,1.605468 -0.824219,5.171874 -2.808594,4.992187 -1.980469,-0.175781 -3.136719,-2.496094 -1.8125,-4.636719 z m -9.582031,37.648438 c 1.648437,-0.199219 4.789062,-0.539063 4.789062,0.890625 0,1.429687 -1.980468,1.960937 -4.296875,1.78125 -2.308593,-0.175781 -1.980469,-2.492188 -0.492187,-2.671875 z m 0,0"
     fill-opacity="1"
     fill-rule="nonzero"
     id="path19" />
  <path
     fill="#e1e8ed"
     d="m 37.794585,41.451243 c 1.445313,-1.246094 6.445313,-1.425781 7.601563,-0.890625 1.15625,0.535157 -1.320313,4.28125 -2.808594,4.460938 -1.488281,0.175781 -6.441406,-2.144531 -4.792969,-3.570313 z m 0,0"
     fill-opacity="1"
     fill-rule="nonzero"
     id="path20" />
  <path
     fill="#66757f"
     d="m 70.833648,68.748118 c 1.648437,-0.445312 5.613281,-0.890625 5.449218,0.359375 -0.164062,1.246094 -1.816406,3.566406 -3.140624,3.390625 -1.324219,-0.179687 -3.632813,-3.390625 -2.308594,-3.75 z M 60.095366,81.240306 c 1.824219,-0.304688 4.625,-1.785157 4.460938,0 -0.164062,1.78125 -2.148438,4.101562 -4.296875,3.746093 -2.144531,-0.355468 -2.308594,-3.390624 -0.164063,-3.746093 z m 0,0"
     fill-opacity="1"
     fill-rule="nonzero"
     id="path21" />
</svg>
