<?xml version="1.0" encoding="UTF-8" standalone="no"?>
<svg
   width="288"
   zoomAndPan="magnify"
   viewBox="0 0 288 96"
   height="96"
   preserveAspectRatio="xMidYMid"
   version="1.0"
   id="svg21"
   sodipodi:docname="Rock_Rolling.svg"
   inkscape:version="1.4 (86a8ad7, 2024-10-11)"
   xmlns:inkscape="http://www.inkscape.org/namespaces/inkscape"
   xmlns:sodipodi="http://sodipodi.sourceforge.net/DTD/sodipodi-0.dtd"
   xmlns="http://www.w3.org/2000/svg"
   xmlns:svg="http://www.w3.org/2000/svg">
  <sodipodi:namedview
     id="namedview21"
     pagecolor="#ffffff"
     bordercolor="#000000"
     borderopacity="0.25"
     inkscape:showpageshadow="2"
     inkscape:pageopacity="0.0"
     inkscape:pagecheckerboard="0"
     inkscape:deskcolor="#d1d1d1"
     inkscape:zoom="4.6370968"
     inkscape:cx="201.63478"
     inkscape:cy="57.686956"
     inkscape:window-width="1920"
     inkscape:window-height="991"
     inkscape:window-x="-9"
     inkscape:window-y="-9"
     inkscape:window-maximized="1"
     inkscape:current-layer="svg21"
     showgrid="true">
    <inkscape:grid
       id="grid1"
       units="px"
       originx="0"
       originy="0"
       spacingx="96"
       spacingy="96"
       empcolor="#0099e5"
       empopacity="0.30196078"
       color="#0099e5"
       opacity="0.14901961"
       empspacing="5"
       enabled="true"
       visible="true" />
  </sodipodi:namedview>
  <defs
     id="defs1">
    <clipPath
       id="3089119898">
      <path
         d="M 0,3.101562 H 95 V 92 H 0 Z m 0,0"
         clip-rule="nonzero"
         id="path1" />
    </clipPath>
  </defs>
  <path
     fill="#66757f"
     d="m 31.37271,6.6192119 c 0,0 11.121094,-3.0039062 13.902344,-3.0039062 2.78125,0 13.902344,3.0039062 13.902344,3.0039062 0,0 11.125,12.0156251 13.902344,12.0156251 0,0 5.5625,0 11.125,6.003906 5.558593,6.007813 5.558593,18.019532 5.558593,18.019532 0,0 5.5625,12.015624 5.5625,18.019531 0,6.007812 -2.78125,12.015625 -5.5625,15.019531 -2.777343,3.003906 -13.902343,6.007812 -13.902343,6.007812 0,0 -2.78125,6.003907 -8.339844,9.007813 -16.683594,3.007813 -27.804688,0 -27.804688,0 l -5.5625,-6.003906 c 0,0 -19.464844,-3.003907 -22.246094,-3.003907 -2.7812497,0 -11.12109266,-12.015624 -11.12109266,-15.019531 0,-3.003906 0,-12.011719 2.78124996,-21.023437 5.558593,-9.011719 8.3398427,-12.015625 8.3398427,-12.015625 0,0 -2.7812497,-6 0,-12.007813 5.5625,-6.007812 16.683594,-9.011718 16.683594,-9.011718 z m 0,0"
     fill-opacity="1"
     fill-rule="nonzero"
     id="path12" />
  <path
     fill="#99aab5"
     d="m 32.509429,7.5528059 c 0,0 10.101563,-2.855469 12.71875,-2.855469 2.617187,0 13.875,3.210938 13.875,3.210938 0,0 9.9375,11.2421871 12.554687,11.2421871 0,0 5.667969,-0.125 10.902344,5.53125 5.234375,5.65625 4.75,15.699219 4.75,15.699219 0,0 5.234375,11.308594 5.234375,16.964844 0,5.652343 -2.617187,11.308593 -5.230469,14.140624 -2.617187,2.828126 -13.085937,5.652344 -13.085937,5.652344 0,0 -2.617187,5.65625 -7.851563,8.484375 -15.703124,2.828125 -26.171874,0 -26.171874,0 l -5.234376,-5.65625 c 0,0 -18.316406,-2.828125 -20.933593,-2.828125 -2.617188,0 -10.4687497,-11.3125 -10.4687497,-14.140625 0,-2.828125 0,-11.3125 2.617187,-19.792969 5.2343747,-8.484374 7.8515627,-11.308593 7.8515627,-11.308593 0,0 -3.304688,-4.59375 -0.6875,-10.25 5.234375,-5.65625 16.351562,-8.5625 16.351562,-8.5625 z m 0,0"
     fill-opacity="1"
     fill-rule="nonzero"
     id="path13" />
  <path
     fill="#ccd6dd"
     d="m 33.517242,9.8496809 c 0,0 9.449218,-2.496094 11.894531,-2.496094 2.445312,0 12.976562,2.8046881 12.976562,2.8046881 0,0 9.292969,9.8125 11.738281,9.8125 0,0 5.300782,-0.109376 10.199219,4.828124 4.894531,4.9375 4.441407,13.703126 4.441407,13.703126 0,0 0.765624,11.867187 2.75,12.222656 5.03125,0.90625 0.460937,10.378906 -1.984376,12.847656 -2.445312,2.46875 -19.492187,3.570312 -19.492187,3.570312 0,0 0.601563,7.699219 -4.296875,10.167969 -14.683594,2.46875 -21.035156,0.6875 -21.035156,0.6875 l -4.890625,-4.933593 c 0,0 -11.929688,-11.453126 -14.378907,-11.453126 -2.445312,0 -14.9921867,-0.890624 -14.9921867,-3.359374 0,-2.46875 0,-9.875 2.445313,-17.277344 4.8945307,-7.40625 7.3437497,-9.875 7.3437497,-9.875 0,0 -3.089844,-4.011719 -0.644532,-8.945313 4.894532,-4.9375 15.292969,-7.480469 15.292969,-7.480469 z m 0,0"
     fill-opacity="1"
     fill-rule="nonzero"
     id="path14" />
  <path
     fill="#99aab5"
     d="m 15.49771,30.209056 11.066406,5.175781 -5.78125,4.101562 -11.8867177,1.488282 z m 0,0"
     fill-opacity="1"
     fill-rule="nonzero"
     id="path15" />
  <path
     fill="#66757f"
     d="m 2.4469293,56.439525 c 0,0 3.140625,10.527343 3.964844,11.773437 0.824219,1.25 11.3984367,0.359375 12.7187497,0.359375 1.320312,0 7.761719,3.390625 7.761719,3.390625 0,0 -8.589844,2.320313 -11.558594,1.960937 -2.972656,-0.355468 -10.7031247,-1.75 -11.3984377,-3.746093 -0.699218,-1.996094 -1.488281,-13.738281 -1.488281,-13.738281 z m 0,0"
     fill-opacity="1"
     fill-rule="nonzero"
     id="path16" />
  <path
     fill="#e1e8ed"
     d="m 18.302398,21.826243 c 1.363281,-0.433594 10.738281,-4.460937 12.71875,-4.28125 1.984375,0.175782 10.410156,4.992188 8.425781,6.601563 -1.980469,1.605469 -12.882813,0.355469 -16.019531,0.355469 -3.136719,0 -7.929688,-1.785157 -5.125,-2.675782 z m -6.605469,21.589844 c 0.84375,-1.597656 12.058594,-2.144531 12.058594,-2.144531 0,0 14.539062,5.890625 14.539062,6.78125 0,0.894531 -13.214843,6.960937 -14.539062,7.136719 C 22.43521,55.365306 11.036773,44.662181 11.696929,43.416087 Z m 32.542969,10.882812 c -0.261719,-1.414062 5.617187,-9.992187 6.773437,-10.707031 1.15625,-0.710937 16.683594,-4.816406 19.324219,-4.816406 2.640625,0 11.066406,6.242187 11.234375,7.492187 0.164063,1.25 -7.433594,9.8125 -9.417969,10.527344 -1.980468,0.714844 -27.421875,0.179688 -27.914062,-2.496094 z M 59.107085,30.744212 c -0.625,1.5 14.867188,3.570313 16.519531,2.855469 1.652344,-0.714844 4.625,-5.53125 4.128907,-6.78125 -0.496094,-1.25 -5.285157,-4.820313 -7.765625,-4.460938 -2.480469,0.359375 -11.398438,4.820313 -12.882813,8.386719 z M 46.884429,8.7988989 c 1.382813,0.300782 10.570313,2.5000001 11.726563,4.2851571 1.15625,1.78125 -5.449219,7.3125 -7.269532,7.492187 -1.8125,0.179688 -14.203125,-7.492187 -15.523437,-8.386718 -1.324219,-0.890626 8.585937,-3.9257821 11.066406,-3.3906261 z m 0,0"
     fill-opacity="1"
     fill-rule="nonzero"
     id="path17" />
  <path
     fill="#66757f"
     d="m 34.329742,82.666087 c -1.15625,-1.785156 0.660156,-7.671875 1.652343,-6.960938 0.988281,0.710938 3.964844,2.855469 4.128907,4.640626 0.164062,1.78125 3.136718,5.171874 5.285156,6.242187 2.144531,1.070313 13.875,1.070313 15.855468,0.359375 1.984376,-0.714844 6.609376,-4.640625 7.765626,-6.960938 1.15625,-2.320312 2.492187,-2.488281 5.210937,-2.851562 2.71875,-0.359375 5.34375,2.359375 1.632813,4.570312 -3.707032,2.207032 -7.671876,6.132813 -12.292969,7.023438 -4.625,0.894531 -19.65625,1.609375 -22.300781,0.539062 -2.644532,-1.070312 -6.9375,-6.601562 -6.9375,-6.601562 z m 0,0"
     fill-opacity="1"
     fill-rule="nonzero"
     id="path18" />
  <path
     fill="#99aab5"
     d="m 54.173492,69.779368 c -1.394532,-0.75 -1.914063,-6.972656 -1.195313,-7.492187 0.71875,-0.515625 7.414063,0.519531 8.96875,0.777344 1.550781,0.257812 11,-0.519532 11.953125,0.515624 0.957031,1.035157 3.261719,4.824219 4.066406,7.101563 0.804688,2.28125 -4.421875,1.9375 -6.457031,1.421875 -2.03125,-0.519531 -15.421875,-1.289062 -17.335937,-2.324219 z M 33.005523,28.603587 c 1.816406,0 9.414062,-0.179688 11.066406,0 1.652344,0.179688 6.9375,5.171875 4.460937,5.710938 -2.480468,0.535156 -9.085937,2.320312 -10.078124,2.496093 -0.992188,0.179688 -4.625,-3.210937 -5.78125,-4.101562 -1.152344,-0.894531 -1.648438,-4.105469 0.332031,-4.105469 z m 20.816406,-4.996094 c 0.917969,-1.484375 4.457031,-1.960937 4.621094,-0.355468 0.164062,1.605468 -0.824219,5.171874 -2.808594,4.992187 -1.980469,-0.175781 -3.136719,-2.496094 -1.8125,-4.636719 z m -9.582031,37.648438 c 1.648437,-0.199219 4.789062,-0.539063 4.789062,0.890625 0,1.429687 -1.980468,1.960937 -4.296875,1.78125 -2.308593,-0.175781 -1.980469,-2.492188 -0.492187,-2.671875 z m 0,0"
     fill-opacity="1"
     fill-rule="nonzero"
     id="path19" />
  <path
     fill="#e1e8ed"
     d="m 37.794585,41.451243 c 1.445313,-1.246094 6.445313,-1.425781 7.601563,-0.890625 1.15625,0.535157 -1.320313,4.28125 -2.808594,4.460938 -1.488281,0.175781 -6.441406,-2.144531 -4.792969,-3.570313 z m 0,0"
     fill-opacity="1"
     fill-rule="nonzero"
     id="path20" />
  <path
     fill="#66757f"
     d="m 70.833648,68.748118 c 1.648437,-0.445312 5.613281,-0.890625 5.449218,0.359375 -0.164062,1.246094 -1.816406,3.566406 -3.140624,3.390625 -1.324219,-0.179687 -3.632813,-3.390625 -2.308594,-3.75 z M 60.095366,81.240306 c 1.824219,-0.304688 4.625,-1.785157 4.460938,0 -0.164062,1.78125 -2.148438,4.101562 -4.296875,3.746093 -2.144531,-0.355468 -2.308594,-3.390624 -0.164063,-3.746093 z m 0,0"
     fill-opacity="1"
     fill-rule="nonzero"
     id="path21" />
  <path
     fill="#66757f"
     d="m 127.37294,6.6189062 c 0,0 11.12109,-3.0039062 13.90234,-3.0039062 2.78125,0 13.90234,3.0039062 13.90234,3.0039062 0,0 11.125,12.0156248 13.90235,12.0156248 0,0 1.90276,1.524891 7.46526,7.528797 5.55859,6.007813 3.42374,12.682413 3.42374,12.682413 0,0 7.54486,6.830994 7.54486,12.834901 0,6.007812 -0.18893,12.473093 -2.97018,15.476999 -2.77734,3.003906 -13.59736,9.66755 -13.59736,9.66755 0,0 -4.30615,7.528798 -9.86475,10.532704 -16.68359,3.007813 -25.36485,3.354761 -25.36485,3.354761 l -5.5625,-6.003906 c 0,0 -19.46485,-3.003907 -22.2461,-3.003907 -2.78125,0 -11.12109,-12.015624 -11.12109,-15.019531 0,-3.003906 0,-12.011719 2.78125,-21.023437 5.55859,-9.011719 8.33984,-12.015625 8.33984,-12.015625 0,0 -3.53603,-10.097391 -0.75478,-16.105204 5.5625,-6.007812 15.38968,-8.0412835 15.38968,-8.0412835 z"
     fill-opacity="1"
     fill-rule="nonzero"
     id="path12-1"
     sodipodi:nodetypes="csccccscccccssccccc" />
  <path
     fill="#99aab5"
     d="m 128.50966,7.5525002 c 0,0 10.10156,-2.855469 12.71875,-2.855469 2.61718,0 5.4881,6.5656978 5.4881,6.5656978 0,0 0.0257,4.990134 2.64289,4.990134 0,0 -3.02391,4.144695 2.21047,9.800945 5.23437,5.65625 -2.72197,17.376599 -2.72197,17.376599 0,0 7.49818,7.546833 7.49818,13.203083 0,5.652343 2.32113,1.937246 -0.29215,4.769277 -2.61718,2.828126 -0.61696,7.653747 -0.61696,7.653747 0,0 5.48903,4.46513 0.25465,7.293255 -15.70312,2.828125 -19.48665,9.273043 -19.48665,9.273043 l -5.23438,-5.65625 c 0,0 -18.3164,-2.828125 -20.93359,-2.828125 -2.61719,0 -10.46875,-11.3125 -10.46875,-14.140625 0,-2.828125 0,-11.3125 2.61719,-19.792969 5.23437,-8.484374 7.85156,-11.308593 7.85156,-11.308593 0,0 -3.08904,-8.691141 -0.47185,-14.347391 5.23438,-5.65625 15.38113,-6.837283 15.38113,-6.837283 z"
     fill-opacity="1"
     fill-rule="nonzero"
     id="path13-5"
     sodipodi:nodetypes="csccscscccccssccccc" />
  <path
     fill="#ccd6dd"
     d="m 127.36095,11.89807 c 0,0 8.15531,-3.8978323 10.60062,-3.8978323 2.44531,0 4.35047,-0.2144426 4.35047,-0.2144426 0,0 -4.43105,7.3726739 -1.98574,7.3726739 0,0 -2.62865,3.855341 2.26979,8.792841 4.89453,4.9375 -1.96314,14.923039 -1.96314,14.923039 0,0 0.76562,8.817405 2.75,9.172874 5.03125,0.90625 5.49309,5.651743 3.04777,8.120493 -2.44531,2.46875 3.53367,8.602453 3.53367,8.602453 0,0 0.60156,7.699219 -4.29688,10.167969 -14.68359,2.46875 -21.03516,0.6875 -21.03516,0.6875 l -4.89062,-4.933593 c 0,0 -2.22534,-5.199213 -4.67456,-5.199213 -2.44531,0 -8.52262,2.344159 -8.52262,-0.124591 0,-2.46875 -6.685216,-6.85587 -4.2399,-14.258214 4.89453,-7.40625 11.44114,-16.128913 11.44114,-16.128913 0,0 -5.67767,-11.343893 -3.23236,-16.277487 4.89454,-4.9375 8.17645,-3.706556 8.17645,-3.706556 z"
     fill-opacity="1"
     fill-rule="nonzero"
     id="path14-2"
     sodipodi:nodetypes="cscccccsccccssccccc" />
  <path
     fill="#99aab5"
     d="m 121.70763,64.60341 c -1.39453,-0.75 -1.91406,-6.972656 -1.19531,-7.492187 0.71875,-0.515625 7.41406,0.519531 8.96875,0.777344 1.55078,0.257812 11,-0.519532 11.95312,0.515624 0.95703,1.035157 3.26172,4.824219 4.06641,7.101563 0.80468,2.28125 -4.42188,1.9375 -6.45703,1.421875 -2.03125,-0.519531 -15.42188,-1.289062 -17.33594,-2.324219 z M 111.32227,27.093716 C 0,0 0,0 111.32227,27.093716 Z m 11.30604,1.353878 c 0.91796,-1.484375 4.07805,-1.821529 4.24211,-0.21606 0.16406,1.605468 0.22339,5.152059 -1.76098,4.972372 -1.98047,-0.175781 -4.45231,1.913009 -2.48113,-4.756312 z m -10.85428,27.632379 c 1.64844,-0.199219 4.78907,-0.539063 4.78907,0.890625 0,1.429687 -1.98047,1.960937 -4.29688,1.78125 -2.30859,-0.175781 -1.98047,-2.492188 -0.49219,-2.671875 z"
     fill-opacity="1"
     fill-rule="nonzero"
     id="path19-2"
     sodipodi:nodetypes="cccccccsscscccscc"
     style="fill:#99aab5;fill-opacity:1" />
  <path
     fill="#e1e8ed"
     d="m 114.88616,20.102461 c 1.44531,-1.246094 6.44531,-1.425781 7.60156,-0.890625 1.15625,0.535157 -1.32031,4.28125 -2.80859,4.460938 -1.48828,0.175781 -6.44141,-2.144531 -4.79297,-3.570313 z m 0,0"
     fill-opacity="1"
     fill-rule="nonzero"
     id="path20-3" />
  <path
     fill="#66757f"
     d="m 217.94466,8.5175583 c 0,0 10.76083,-4.1117579 13.52786,-4.3926596 2.76703,-0.2809018 14.13464,1.5844319 14.13464,1.5844319 0,0 12.28167,10.8305774 15.04482,10.5500694 0,0 5.53406,-0.561803 11.6745,4.849599 6.13695,5.415684 7.35011,17.365982 7.35011,17.365982 0,0 6.74762,11.392379 7.354,17.365586 0.60678,5.977092 -10.53738,24.093518 -15.65835,22.538858 -2.45975,3.269053 -13.16565,3.690304 -13.16565,3.690304 0,0 -3.84599,5.666539 -9.07278,9.216494 -16.29449,4.677449 -29.83141,1.727847 -29.83141,1.727847 l -3.17867,-5.061791 c 0,0 -7.1938,-3.047712 -9.96083,-2.766811 -2.76703,0.280902 -12.27778,-10.830971 -12.58117,-13.819518 -0.30339,-2.988545 -1.21317,-11.950298 0.64369,-21.196837 4.62,-9.527047 7.08364,-12.796494 7.08364,-12.796494 0,0 -3.37302,-5.688418 -1.21277,-11.946412 4.92728,-6.538896 15.68812,-10.650654 15.68812,-10.650654 z"
     fill-opacity="1"
     fill-rule="nonzero"
     id="path12-1-1"
     sodipodi:nodetypes="csccccscccccssccccc" />
  <path
     fill="#99aab5"
     d="m 219.16986,9.3315715 c 0,0 9.76151,-3.8611088 12.36531,-4.1254407 2.6038,-0.264331 14.12835,1.7931664 14.12835,1.7931664 0,0 11.02213,10.1810298 13.62593,9.9166988 0,0 5.62636,-0.696817 11.40525,4.401847 5.77888,5.098664 6.31131,15.1392 6.31131,15.1392 0,0 -2.73643,4.491413 -2.16516,10.11874 0.57088,5.623441 0.93543,7.370064 -1.37846,10.451551 -2.31816,3.077995 -5.75904,17.320827 -5.75904,17.320827 0,0 -9.62013,-2.658771 -14.54211,0.683557 -15.33719,4.399653 -18.45045,11.193746 -18.45045,11.193746 l -5.77888,-5.098663 c 0,0 -18.50838,-0.963737 -21.11219,-0.699405 -2.6038,0.264332 -11.55776,-10.197328 -11.8434,-13.010992 -0.28563,-2.813663 -1.14254,-11.254654 0.60475,-19.956091 4.3507,-8.969653 6.66926,-12.043762 6.66926,-12.043762 0,0 -3.75175,-4.236492 -1.71921,-10.128151 4.63634,-6.155992 15.40315,-10.170198 15.40315,-10.170198 z"
     fill-opacity="1"
     fill-rule="nonzero"
     id="path13-5-6"
     sodipodi:nodetypes="csccscscccccssccccc" />
  <path
     fill="#ccd6dd"
     d="m 213.86888,17.597408 c 0,0 12.31697,-8.5280432 14.74978,-8.7750155 2.4328,-0.2469724 4.30656,-0.6527369 4.30656,-0.6527369 0,0 10.2365,8.8237494 12.66931,8.5767774 0,0 5.26262,-0.644187 10.6347,3.773331 5.36818,4.417913 5.80269,13.184481 5.80269,13.184481 0,0 1.96027,11.729179 3.97041,11.882411 5.09705,0.393468 1.50683,10.27928 -0.67664,12.98238 -2.18347,2.703099 -5.72079,8.30779 -5.72079,8.30779 0,0 -11.11719,3.809374 -15.74124,6.760235 -14.35917,3.939145 -10.06449,6.464214 -10.06449,6.464214 l -23.46812,-6.101802 c 0,0 3.75363,-5.91354 1.31693,-5.666172 -2.4328,0.246972 -8.24228,3.192943 -8.49162,0.736816 -0.24934,-2.456126 -7.34347,-6.145616 -5.65828,-13.757082 4.12149,-7.862719 9.75365,-17.201976 9.75365,-17.201976 0,0 -5.97321,-6.894122 -4.03869,-12.049461 4.37083,-5.406593 7.03715,-7.366268 7.03715,-7.366268 z"
     fill-opacity="1"
     fill-rule="nonzero"
     id="path14-2-8"
     sodipodi:nodetypes="cscccccsccccssccccc" />
  <path
     fill="#e1e8ed"
     d="m 227.85167,42.52288 c 1.31207,-1.385696 6.26835,-2.069456 7.47274,-1.653816 1.20439,0.415641 -0.88116,4.392708 -2.34368,4.721791 -1.46292,0.325196 -6.62507,-1.482993 -5.12906,-3.067975 z m 0,0"
     fill-opacity="1"
     fill-rule="nonzero"
     id="path20-3-6" />
  <path
     fill="#66757f"
     d="m 263.47873,66.343284 c 1.59503,-0.609525 5.49463,-1.453004 5.45765,-0.192825 -0.0374,1.256292 -1.44691,3.731623 -2.78211,3.690485 -1.3356,-0.04502 -3.95669,-3.00638 -2.67554,-3.49766 z m -9.42168,13.512859 c 1.78412,-0.487373 4.42105,-2.243146 4.43813,-0.450548 0.0167,1.788712 -1.72321,4.297578 -3.89655,4.160915 -2.16948,-0.137055 -2.63925,-3.140122 -0.54158,-3.710367 z m 0,0"
     fill-opacity="1"
     fill-rule="nonzero"
     id="path21-2-1" />
  <path
     style="fill:#98a8b4;fill-opacity:1;paint-order:stroke fill markers"
     d="m 231.91599,25.123229 c 0,0 -10.40793,10.712777 -10.64975,11.350418 -0.24181,0.637639 -6.07616,15.637576 -6.07616,15.637576 0,0 -0.3096,6.009073 -0.0832,5.219723 0.22642,-0.78935 6.7292,-15.244053 7.24363,-16.215914 0.51442,-0.97186 9.10185,-11.499824 9.10185,-11.499824 z"
     id="path2" />
  <path
     style="fill:#98a8b4;fill-opacity:1;paint-order:stroke fill markers"
     d="m 227.99138,58.935129 c 0,0 8.50653,-3.775745 9.26508,-3.852751 0.75854,-0.077 4.67449,0.751641 4.67449,0.751641 0,0 2.79468,1.86211 -2.27104,3.296006 -5.06571,1.433896 -9.7225,2.36646 -11.23959,2.520471 -1.5171,0.154012 -0.42894,-2.715367 -0.42894,-2.715367 z"
     id="path3" />
  <path
     style="fill:#98a8b4;fill-opacity:1;paint-order:stroke fill markers"
     d="m 247.97098,26.252278 0.44894,5.932067 5.54084,1.736601 0.57373,-1.897518 z"
     id="path4" />
  <path
     style="fill:#98a8b4;fill-opacity:1;paint-order:stroke fill markers"
     d="m 204.17937,25.18007 c 0,0 4.43268,1.38928 5.34293,1.296873 0.91026,-0.09241 3.97525,-0.09701 5.03491,-1.737314 1.05966,-1.640302 5.1266,-11.402812 5.1266,-11.402812 0,0 -6.27708,3.089598 -6.82231,3.75804 -0.54524,0.668442 -4.9117,2.95099 -5.88127,3.969054 -0.96955,1.018064 -2.80086,4.116159 -2.80086,4.116159 z"
     id="path5" />
  <path
     style="fill:#98a8b4;fill-opacity:1;paint-order:stroke fill markers"
     d="m 210.09198,62.284959 0.67075,2.077728 4.47427,-1.220581 -2.59676,-1.422384 z"
     id="path6" />
  <path
     style="fill:#e1e8ed;fill-opacity:1;paint-order:stroke fill markers"
     d="m 252.02236,46.532829 -0.53833,5.265928 c 0,0 5.31213,0.993454 6.05528,0.764739 0.74314,-0.228716 4.35106,-2.434257 4.35106,-2.434257 l -7.75949,-3.963735 -3.4893,0.354226 z"
     id="path7" />
  <path
     style="fill:#99aab5;fill-opacity:1;paint-order:stroke fill markers"
     d="M 149.66261,8.6260869 153.76,21.349565 c 0,0 2.37217,6.253913 2.58783,7.116522 0.21565,0.862608 1.29391,8.626087 1.29391,10.135652 0,1.509565 -3.45044,6.038261 -3.45044,6.038261 0,0 2.37218,4.96 3.01913,7.763478 0.64696,2.803478 3.01913,7.116522 3.01913,8.410435 0,1.293913 0.21566,8.410434 0.21566,8.410434 0,0 1.29391,2.803479 2.37217,2.803479 1.07826,0 9.27304,-4.528696 9.27304,-4.528696 0,0 1.29392,2.372174 2.15653,-2.156522 0.8626,-4.528695 0.64695,-2.803478 0.4313,-10.135652 -0.21565,-7.332174 1.94087,-10.998261 -0.21565,-16.605217 -2.15652,-5.606957 -2.37218,-8.626087 -6.68522,-13.370435 -4.31304,-4.744348 -7.11652,-7.547826 -9.27304,-9.92 -2.15652,-2.372174 -8.84174,-6.6852171 -8.84174,-6.6852171 z"
     id="path8" />
  <path
     style="fill:#66757f;fill-opacity:1;paint-order:stroke fill markers"
     d="m 197.36221,72.773626 c 0.84635,-2.23174 10.72675,-10.59187 10.72675,-10.59187 0,0 16.05428,-9.446706 19.43579,-10.862899 3.38151,-1.416191 10.91847,-4.173873 13.34582,-4.420291 2.42735,-0.246418 12.27076,-2.931697 14.36389,-3.450732 2.09312,-0.519035 10.32702,-3.960558 11.66161,-4.402589 1.33458,-0.442029 5.93826,-6.427205 6.6506,-6.959338 0.71235,-0.532135 3.42771,-0.961065 3.42771,-0.961065 0,0 1.12818,3.564019 -0.11399,4.916305 -1.24218,1.352285 3.13969,-0.778553 -2.83398,2.280245 -5.97367,3.058797 -3.57481,4.041454 -11.46371,4.842315 -7.88888,0.80086 -6.40259,0.34343 -9.8149,1.456202 -3.41231,1.112774 -6.5366,2.043035 -13.80095,4.466496 -7.26434,2.423459 -9.28277,2.168546 -12.78518,3.903558 -3.50242,1.735013 -3.27601,0.945663 -7.50616,3.061099 -4.23016,2.115438 -12.63507,12.931418 -14.34777,14.178197 -1.71271,1.24678 -3.91134,2.236344 -4.63908,2.616768 -0.72775,0.380425 -2.30645,-0.0724 -2.30645,-0.0724 z"
     id="path9" />
  <path
     style="fill:#99aab5;fill-opacity:1;paint-order:stroke fill markers"
     d="m 199.65556,74.226812 c 0,0 14.57489,-4.39179 15.48514,-4.484197 0.91026,-0.09241 10.54035,-3.369123 16.94065,-5.245046 6.40029,-1.875925 26.23882,-7.261886 29.2707,-9.102404 3.03188,-1.840517 0.65303,0.393524 3.88053,-2.539762 3.2275,-2.933286 5.92517,-5.04642 6.77382,-5.745664 0.84865,-0.699245 4.43886,-4.58899 4.43886,-4.58899 l 1.7058,-5.844265 c 0,0 -1.92832,-0.877151 -2.64065,-0.345018 -0.71235,0.532134 -9.00556,4.899316 -9.00556,4.899316 l -7.97899,1.423098 c 0,0 -10.84607,1.86743 -11.99814,2.597476 -1.15207,0.730047 -9.7972,3.140408 -11.4198,3.764948 -1.6226,0.624542 -10.81297,3.703345 -14.43629,5.757176 -3.62332,2.053832 -12.20455,6.603525 -12.74978,7.271968 -0.54524,0.668442 -4.31566,5.802665 -4.8455,6.622816 -0.52982,0.820151 -5.10731,4.043758 -5.10731,4.043758 z"
     id="path10" />
  <path
     style="fill:#66757f;fill-opacity:1;paint-order:stroke fill markers"
     d="m 195.8359,66.797659 c 0,0 9.22506,-10.286149 12.95619,-11.278016 3.73113,-0.991867 21.68754,-6.79985 26.99506,-8.871385 5.30753,-2.071536 9.86731,-6.979346 15.29804,-7.837206 5.43074,-0.85786 12.27076,-2.931698 14.33308,-3.754151 2.06233,-0.822454 9.58159,-5.264338 9.58159,-5.264338 0,0 1.62491,0.907953 1.70191,1.666499 0.077,0.758548 -1.05737,3.1728 -3.2845,5.391439 -2.22714,2.218641 -16.08508,9.143288 -18.29912,9.981142 -2.21404,0.837856 -17.86629,5.185745 -19.17008,5.931193 -1.30378,0.745448 -14.6034,5.620867 -16.49861,6.57963 -1.89522,0.958761 -7.09493,4.092261 -8.64052,5.475349 -1.5456,1.383088 -5.34913,4.681397 -6.4858,5.563154 -1.13668,0.881756 -7.53697,2.75768 -7.53697,2.75768 z"
     id="path11" />
  <path
     style="fill:#99aab5;fill-opacity:1;paint-order:stroke fill markers"
     d="m 276.51465,28.106056 c 0,0 -7.34365,0.132417 -9.40598,0.954871 -2.06233,0.822454 -7.99439,1.271389 -10.01051,2.548971 -2.01613,1.277582 -0.65075,1.138972 -6.83773,3.606332 -6.18697,2.467362 -4.74689,1.554803 -9.59928,3.580135 -4.8524,2.025331 -9.751,3.595535 -13.90646,4.937024 -4.15545,1.341488 -8.0691,2.045338 -10.10062,3.171209 -2.03153,1.125873 -7.38525,2.74228 -7.38525,2.74228 0,0 -8.1415,4.35178 -8.80764,5.339042 -0.66615,0.987263 -4.18165,4.10306 -4.18165,4.10306 l -1.6488,3.386111 0.14321,4.430375 c 0,0 -0.84634,2.231739 3.64103,-0.369627 4.48737,-2.601367 9.80339,-9.118679 9.80339,-9.118679 0,0 4.04995,-0.870958 4.7777,-1.251383 0.72774,-0.380424 4.80619,-2.480461 6.47499,-2.649873 1.66881,-0.169413 11.95194,-3.052605 13.28652,-3.494633 1.33458,-0.442029 11.34049,-6.055991 11.34049,-6.055991 0,0 4.16856,-2.722274 5.38224,-2.845482 1.21367,-0.123209 4.76229,-1.403094 6.09687,-1.845122 1.33458,-0.44203 7.36985,-2.89399 8.85614,-3.35142 1.4863,-0.45743 8.19001,-2.364157 8.19001,-2.364157 l 2.21174,-2.370351 1.51709,-0.154011 z"
     id="path22" />
  <path
     style="fill:#66757f;fill-opacity:1;paint-order:stroke fill markers"
     d="m 243.56998,5.5474024 c 0,0 4.33408,6.4572946 5.32135,7.1234326 0.98725,0.666141 7.22965,4.783887 7.22965,4.783887 l 10.23303,4.172446 c 0,0 1.70421,3.198996 2.07154,5.307526 0.36733,2.10853 1.54401,7.660172 1.54401,7.660172 0,0 1.64951,7.189644 2.42576,8.796842 0.77624,1.607198 4.93011,9.30897 4.84001,9.931208 -0.0901,0.622239 4.26168,8.763737 4.26168,8.763737 0,0 1.75129,-15.964891 1.49177,-17.011455 -0.25952,-1.046565 -3.62404,-8.521923 -3.86816,-9.416777 -0.24412,-0.894856 -2.91168,-9.054058 -3.1558,-9.948913 -0.24412,-0.894856 -2.58597,-4.335665 -2.58597,-4.335665 l -7.19885,-4.480468 -6.10148,-1.219868 -2.15474,-0.0878 z"
     id="path23" />
</svg>
