<?xml version="1.0" encoding="UTF-8" standalone="no"?>
<!-- Created with Inkscape (http://www.inkscape.org/) -->

<svg
   version="1.1"
   id="svg1"
   width="1024"
   height="256"
   viewBox="0 0 1024 256"
   sodipodi:docname="EnemyWalking.svg"
   inkscape:version="1.4 (86a8ad7, 2024-10-11)"
   xmlns:inkscape="http://www.inkscape.org/namespaces/inkscape"
   xmlns:sodipodi="http://sodipodi.sourceforge.net/DTD/sodipodi-0.dtd"
   xmlns="http://www.w3.org/2000/svg"
   xmlns:svg="http://www.w3.org/2000/svg">
  <defs
     id="defs1" />
  <sodipodi:namedview
     id="namedview1"
     pagecolor="#72d2e0"
     bordercolor="#000000"
     borderopacity="0.25"
     inkscape:showpageshadow="2"
     inkscape:pageopacity="0.0"
     inkscape:pagecheckerboard="0"
     inkscape:deskcolor="#d1d1d1"
     showgrid="true"
     inkscape:zoom="0.61975423"
     inkscape:cx="370.30808"
     inkscape:cy="-81.483913"
     inkscape:window-width="1920"
     inkscape:window-height="991"
     inkscape:window-x="-9"
     inkscape:window-y="-9"
     inkscape:window-maximized="1"
     inkscape:current-layer="layer5">
    <inkscape:grid
       id="grid1"
       units="px"
       originx="0"
       originy="0"
       spacingx="256"
       spacingy="256"
       empcolor="#0099e5"
       empopacity="0.30196078"
       color="#0099e5"
       opacity="0.14901961"
       empspacing="5"
       enabled="true"
       visible="true" />
  </sodipodi:namedview>
  <g
     inkscape:groupmode="layer"
     id="layer3"
     inkscape:label="Butt"
     style="display:inline">
    <path
       style="fill:#fe89c6;fill-opacity:1;stroke-width:1.00157;paint-order:stroke fill markers"
       d="m 62.324234,84.002229 -11.552089,5.27688 -4.991644,5.847353 -1.283565,4.278552 v 7.701396 l 1.426184,6.84568 1.283565,6.84568 1.426184,4.27855 -0.713092,7.84401 -4.135933,16.2585 -1.568802,6.13259 c 0,0 -0.142619,4.42117 0.570473,5.13426 0.713092,0.71309 2.70975,3.8507 3.850697,4.13594 1.140947,0.28523 7.416156,5.98997 7.416156,5.98997 l 10.125905,1.85404 8.271866,-11.69471 c 0,0 5.134262,-23.67465 5.419499,-24.95822 0.285237,-1.28356 -0.998329,-26.95487 -1.426184,-27.52535 -0.427855,-0.57047 -8.129248,-18.112531 -8.129248,-18.112531 z"
       id="path33" />
    <path
       style="fill:#fe89c6;fill-opacity:1;stroke-width:1.00157;paint-order:stroke fill markers"
       d="m 324.72549,84.206766 -12.80749,4.23555 -6.35333,3.731318 -5.6474,5.849093 -1.61354,9.076183 2.8237,7.86602 1.41185,17.24474 1.10931,6.25247 -1.10931,10.58888 -0.40339,8.06771 0.2017,5.8491 5.24401,5.6474 c 0,0 3.32793,2.11777 4.3364,2.72285 1.00846,0.60508 8.67279,1.5127 8.67279,1.5127 0,0 7.76518,-1.10932 11.09311,-2.52117 3.32793,-1.41185 14.82442,-14.92527 15.63119,-16.33712 0.80678,-1.41185 5.54656,-16.53881 5.14317,-17.84981 -0.40338,-1.31101 -0.80677,-9.58041 -0.80677,-9.58041 l -5.04232,-24.30399 c 0,0 -6.9584,-12.303267 -7.36179,-12.605807 -0.40339,-0.302539 -14.52189,-5.445707 -14.52189,-5.445707 z"
       id="path34" />
    <path
       style="fill:#fe89c6;fill-opacity:1;stroke-width:1.00157;paint-order:stroke fill markers"
       d="m 576.43818,83.904227 -8.26941,1.815236 -6.65587,3.630471 -7.05925,5.849093 -1.00846,2.016928 0.80677,5.244015 2.21862,5.84909 2.62201,5.44571 1.00846,5.04232 -0.40338,9.47956 -1.81524,8.4711 -1.61354,9.88295 v 5.6474 l 1.41185,7.05925 3.42878,6.25248 3.63047,2.01693 c 0,0 6.65586,0.60508 8.06771,0.60508 1.41185,0 15.93374,-8.4711 17.34559,-11.49649 1.41185,-3.0254 7.05925,-25.4133 7.66433,-27.83362 0.60508,-2.42031 0.80677,-18.35405 0.60508,-20.97605 -0.2017,-2.62201 -4.84063,-15.530353 -8.26941,-17.748974 -3.42878,-2.218622 -13.71511,-6.252479 -13.71511,-6.252479 z"
       id="path35" />
    <path
       style="fill:#fe89c6;fill-opacity:1;stroke-width:1.00157;paint-order:stroke fill markers"
       d="m 842.26936,83.904227 -16.53882,1.613543 -8.4711,2.420314 -3.63047,3.630471 -1.61354,6.050786 0.80677,12.504959 2.01693,9.27787 0.40338,8.87448 -3.63047,12.50496 -0.40338,8.06772 3.22708,12.90834 c 0,0 7.26095,5.24401 8.87449,5.6474 1.61354,0.40338 7.66433,-0.40339 12.10157,-1.61354 4.43724,-1.21016 14.52188,-4.84063 16.9422,-12.90835 2.42031,-8.06771 4.43724,-34.28778 4.43724,-38.32164 0,-4.03386 -14.52188,-30.657313 -14.52188,-30.657313 z"
       id="path36" />
  </g>
  <g
     inkscape:groupmode="layer"
     id="layer2"
     inkscape:label="Cores"
     style="display:inline">
    <g
       inkscape:groupmode="layer"
       id="layer1"
       inkscape:label="Core">
      <path
         style="fill:#594f2f;fill-opacity:1;stroke-width:1.00157;paint-order:stroke fill markers"
         id="path1"
         sodipodi:type="arc"
         sodipodi:cx="60.507854"
         sodipodi:cy="127.77242"
         sodipodi:rx="25.11076"
         sodipodi:ry="25.11076"
         sodipodi:start="0"
         sodipodi:end="6.277348"
         sodipodi:open="true"
         sodipodi:arc-type="arc"
         d="M 85.618614,127.77242 A 25.11076,25.11076 0 0 1 60.544499,152.88316 25.11076,25.11076 0 0 1 35.397202,127.84571 25.11076,25.11076 0 0 1 60.39792,102.6619 25.11076,25.11076 0 0 1 85.618186,127.62584" />
      <path
         style="fill:#871212;fill-opacity:1;stroke-width:0.522947;paint-order:stroke fill markers"
         id="path2"
         sodipodi:type="arc"
         sodipodi:cx="60.507614"
         sodipodi:cy="127.77242"
         sodipodi:rx="13.111"
         sodipodi:ry="13.111"
         sodipodi:start="0"
         sodipodi:end="6.277348"
         sodipodi:open="true"
         sodipodi:arc-type="arc"
         d="M 73.618614,127.77242 A 13.111,13.111 0 0 1 60.526747,140.88341 13.111,13.111 0 0 1 47.39667,127.81069 13.111,13.111 0 0 1 60.450215,114.66155 13.111,13.111 0 0 1 73.618391,127.69589" />
      <path
         style="fill:#c31b1b;fill-opacity:1;stroke-width:0.323516;paint-order:stroke fill markers"
         id="path3"
         sodipodi:type="arc"
         sodipodi:cx="60.507614"
         sodipodi:cy="127.77242"
         sodipodi:rx="8.1110001"
         sodipodi:ry="8.1110001"
         sodipodi:start="0"
         sodipodi:end="6.277348"
         sodipodi:open="true"
         sodipodi:arc-type="arc"
         d="m 68.618614,127.77242 a 8.1110001,8.1110001 0 0 1 -8.099163,8.11099 8.1110001,8.1110001 0 0 1 -8.122802,-8.08731 8.1110001,8.1110001 0 0 1 8.075455,-8.1346 8.1110001,8.1110001 0 0 1 8.146372,8.06358" />
      <path
         style="fill:#e54848;fill-opacity:1;stroke-width:0.124086;paint-order:stroke fill markers"
         id="path4"
         sodipodi:type="arc"
         sodipodi:cx="60.507614"
         sodipodi:cy="127.77242"
         sodipodi:rx="3.1110001"
         sodipodi:ry="3.1110001"
         sodipodi:start="0"
         sodipodi:end="6.277348"
         sodipodi:open="true"
         sodipodi:arc-type="arc"
         d="m 63.618614,127.77242 a 3.1110001,3.1110001 0 0 1 -3.10646,3.111 3.1110001,3.1110001 0 0 1 -3.115527,-3.10192 3.1110001,3.1110001 0 0 1 3.097367,-3.12005 3.1110001,3.1110001 0 0 1 3.124567,3.09281" />
      <path
         style="fill:#871212;fill-opacity:1;stroke-width:1.00157;paint-order:stroke fill markers"
         d="m 49.26348,131.15078 -7.866022,-0.20169 0.453809,4.63893 -5.546553,-6.50459 5.395284,-8.37026 -0.554656,5.79867 8.370254,-1.26058 z"
         id="path5" />
      <path
         style="fill:#871212;fill-opacity:1;stroke-width:1.00157;paint-order:stroke fill markers"
         d="m 61.711792,137.49932 -1.069954,7.79552 4.660665,0.0618 -7.077838,4.79355 -7.722577,-6.28746 5.701823,1.19224 -0.327617,-8.45831 z"
         id="path6" />
      <path
         style="fill:#871212;fill-opacity:1;stroke-width:1.00157;paint-order:stroke fill markers"
         d="m 71.908863,125.21603 7.778924,1.18459 0.130404,-4.65925 4.688837,7.14764 -6.400464,7.62918 1.276048,-5.68365 -8.462216,0.20307 z"
         id="path7" />
      <path
         style="fill:#871212;fill-opacity:1;stroke-width:1.00157;paint-order:stroke fill markers"
         d="m 63.397122,116.44743 -1.484485,-7.7273 4.650724,-0.31047 -7.323594,-4.40896 -7.375994,6.69067 5.63006,-1.49486 0.124283,8.46374 z"
         id="path8" />
    </g>
    <g
       inkscape:groupmode="layer"
       id="g16"
       inkscape:label="Core"
       transform="translate(255.85738,0.28523677)">
      <path
         style="fill:#594f2f;fill-opacity:1;stroke-width:1.00157;paint-order:stroke fill markers"
         id="path9"
         sodipodi:type="arc"
         sodipodi:cx="60.507854"
         sodipodi:cy="127.77242"
         sodipodi:rx="25.11076"
         sodipodi:ry="25.11076"
         sodipodi:start="0"
         sodipodi:end="6.277348"
         sodipodi:open="true"
         sodipodi:arc-type="arc"
         d="M 85.618614,127.77242 A 25.11076,25.11076 0 0 1 60.544499,152.88316 25.11076,25.11076 0 0 1 35.397202,127.84571 25.11076,25.11076 0 0 1 60.39792,102.6619 25.11076,25.11076 0 0 1 85.618186,127.62584" />
      <path
         style="fill:#871212;fill-opacity:1;stroke-width:0.522947;paint-order:stroke fill markers"
         id="path10"
         sodipodi:type="arc"
         sodipodi:cx="60.507614"
         sodipodi:cy="127.77242"
         sodipodi:rx="13.111"
         sodipodi:ry="13.111"
         sodipodi:start="0"
         sodipodi:end="6.277348"
         sodipodi:open="true"
         sodipodi:arc-type="arc"
         d="M 73.618614,127.77242 A 13.111,13.111 0 0 1 60.526747,140.88341 13.111,13.111 0 0 1 47.39667,127.81069 13.111,13.111 0 0 1 60.450215,114.66155 13.111,13.111 0 0 1 73.618391,127.69589" />
      <path
         style="fill:#c31b1b;fill-opacity:1;stroke-width:0.323516;paint-order:stroke fill markers"
         id="path11"
         sodipodi:type="arc"
         sodipodi:cx="60.507614"
         sodipodi:cy="127.77242"
         sodipodi:rx="8.1110001"
         sodipodi:ry="8.1110001"
         sodipodi:start="0"
         sodipodi:end="6.277348"
         sodipodi:open="true"
         sodipodi:arc-type="arc"
         d="m 68.618614,127.77242 a 8.1110001,8.1110001 0 0 1 -8.099163,8.11099 8.1110001,8.1110001 0 0 1 -8.122802,-8.08731 8.1110001,8.1110001 0 0 1 8.075455,-8.1346 8.1110001,8.1110001 0 0 1 8.146372,8.06358" />
      <path
         style="fill:#e54848;fill-opacity:1;stroke-width:0.124086;paint-order:stroke fill markers"
         id="path12"
         sodipodi:type="arc"
         sodipodi:cx="60.507614"
         sodipodi:cy="127.77242"
         sodipodi:rx="3.1110001"
         sodipodi:ry="3.1110001"
         sodipodi:start="0"
         sodipodi:end="6.277348"
         sodipodi:open="true"
         sodipodi:arc-type="arc"
         d="m 63.618614,127.77242 a 3.1110001,3.1110001 0 0 1 -3.10646,3.111 3.1110001,3.1110001 0 0 1 -3.115527,-3.10192 3.1110001,3.1110001 0 0 1 3.097367,-3.12005 3.1110001,3.1110001 0 0 1 3.124567,3.09281" />
      <path
         style="fill:#871212;fill-opacity:1;stroke-width:1.00157;paint-order:stroke fill markers"
         d="m 49.26348,131.15078 -7.866022,-0.20169 0.453809,4.63893 -5.546553,-6.50459 5.395284,-8.37026 -0.554656,5.79867 8.370254,-1.26058 z"
         id="path13" />
      <path
         style="fill:#871212;fill-opacity:1;stroke-width:1.00157;paint-order:stroke fill markers"
         d="m 61.711792,137.49932 -1.069954,7.79552 4.660665,0.0618 -7.077838,4.79355 -7.722577,-6.28746 5.701823,1.19224 -0.327617,-8.45831 z"
         id="path14" />
      <path
         style="fill:#871212;fill-opacity:1;stroke-width:1.00157;paint-order:stroke fill markers"
         d="m 71.908863,125.21603 7.778924,1.18459 0.130404,-4.65925 4.688837,7.14764 -6.400464,7.62918 1.276048,-5.68365 -8.462216,0.20307 z"
         id="path15" />
      <path
         style="fill:#871212;fill-opacity:1;stroke-width:1.00157;paint-order:stroke fill markers"
         d="m 63.397122,116.44743 -1.484485,-7.7273 4.650724,-0.31047 -7.323594,-4.40896 -7.375994,6.69067 5.63006,-1.49486 0.124283,8.46374 z"
         id="path16" />
    </g>
    <g
       inkscape:groupmode="layer"
       id="g24"
       inkscape:label="Core"
       transform="translate(510.85905,1.4261838)">
      <path
         style="fill:#594f2f;fill-opacity:1;stroke-width:1.00157;paint-order:stroke fill markers"
         id="path17"
         sodipodi:type="arc"
         sodipodi:cx="60.507854"
         sodipodi:cy="127.77242"
         sodipodi:rx="25.11076"
         sodipodi:ry="25.11076"
         sodipodi:start="0"
         sodipodi:end="6.277348"
         sodipodi:open="true"
         sodipodi:arc-type="arc"
         d="M 85.618614,127.77242 A 25.11076,25.11076 0 0 1 60.544499,152.88316 25.11076,25.11076 0 0 1 35.397202,127.84571 25.11076,25.11076 0 0 1 60.39792,102.6619 25.11076,25.11076 0 0 1 85.618186,127.62584" />
      <path
         style="fill:#871212;fill-opacity:1;stroke-width:0.522947;paint-order:stroke fill markers"
         id="path18"
         sodipodi:type="arc"
         sodipodi:cx="60.507614"
         sodipodi:cy="127.77242"
         sodipodi:rx="13.111"
         sodipodi:ry="13.111"
         sodipodi:start="0"
         sodipodi:end="6.277348"
         sodipodi:open="true"
         sodipodi:arc-type="arc"
         d="M 73.618614,127.77242 A 13.111,13.111 0 0 1 60.526747,140.88341 13.111,13.111 0 0 1 47.39667,127.81069 13.111,13.111 0 0 1 60.450215,114.66155 13.111,13.111 0 0 1 73.618391,127.69589" />
      <path
         style="fill:#c31b1b;fill-opacity:1;stroke-width:0.323516;paint-order:stroke fill markers"
         id="path19"
         sodipodi:type="arc"
         sodipodi:cx="60.507614"
         sodipodi:cy="127.77242"
         sodipodi:rx="8.1110001"
         sodipodi:ry="8.1110001"
         sodipodi:start="0"
         sodipodi:end="6.277348"
         sodipodi:open="true"
         sodipodi:arc-type="arc"
         d="m 68.618614,127.77242 a 8.1110001,8.1110001 0 0 1 -8.099163,8.11099 8.1110001,8.1110001 0 0 1 -8.122802,-8.08731 8.1110001,8.1110001 0 0 1 8.075455,-8.1346 8.1110001,8.1110001 0 0 1 8.146372,8.06358" />
      <path
         style="fill:#e54848;fill-opacity:1;stroke-width:0.124086;paint-order:stroke fill markers"
         id="path20"
         sodipodi:type="arc"
         sodipodi:cx="60.507614"
         sodipodi:cy="127.77242"
         sodipodi:rx="3.1110001"
         sodipodi:ry="3.1110001"
         sodipodi:start="0"
         sodipodi:end="6.277348"
         sodipodi:open="true"
         sodipodi:arc-type="arc"
         d="m 63.618614,127.77242 a 3.1110001,3.1110001 0 0 1 -3.10646,3.111 3.1110001,3.1110001 0 0 1 -3.115527,-3.10192 3.1110001,3.1110001 0 0 1 3.097367,-3.12005 3.1110001,3.1110001 0 0 1 3.124567,3.09281" />
      <path
         style="fill:#871212;fill-opacity:1;stroke-width:1.00157;paint-order:stroke fill markers"
         d="m 49.26348,131.15078 -7.866022,-0.20169 0.453809,4.63893 -5.546553,-6.50459 5.395284,-8.37026 -0.554656,5.79867 8.370254,-1.26058 z"
         id="path21" />
      <path
         style="fill:#871212;fill-opacity:1;stroke-width:1.00157;paint-order:stroke fill markers"
         d="m 61.711792,137.49932 -1.069954,7.79552 4.660665,0.0618 -7.077838,4.79355 -7.722577,-6.28746 5.701823,1.19224 -0.327617,-8.45831 z"
         id="path22" />
      <path
         style="fill:#871212;fill-opacity:1;stroke-width:1.00157;paint-order:stroke fill markers"
         d="m 71.908863,125.21603 7.778924,1.18459 0.130404,-4.65925 4.688837,7.14764 -6.400464,7.62918 1.276048,-5.68365 -8.462216,0.20307 z"
         id="path23" />
      <path
         style="fill:#871212;fill-opacity:1;stroke-width:1.00157;paint-order:stroke fill markers"
         d="m 63.397122,116.44743 -1.484485,-7.7273 4.650724,-0.31047 -7.323594,-4.40896 -7.375994,6.69067 5.63006,-1.49486 0.124283,8.46374 z"
         id="path24" />
    </g>
    <g
       inkscape:groupmode="layer"
       id="g32"
       inkscape:label="Core"
       transform="translate(767.00167,-0.85571035)">
      <path
         style="fill:#594f2f;fill-opacity:1;stroke-width:1.00157;paint-order:stroke fill markers"
         id="path25"
         sodipodi:type="arc"
         sodipodi:cx="60.507854"
         sodipodi:cy="127.77242"
         sodipodi:rx="25.11076"
         sodipodi:ry="25.11076"
         sodipodi:start="0"
         sodipodi:end="6.277348"
         sodipodi:open="true"
         sodipodi:arc-type="arc"
         d="M 85.618614,127.77242 A 25.11076,25.11076 0 0 1 60.544499,152.88316 25.11076,25.11076 0 0 1 35.397202,127.84571 25.11076,25.11076 0 0 1 60.39792,102.6619 25.11076,25.11076 0 0 1 85.618186,127.62584" />
      <path
         style="fill:#871212;fill-opacity:1;stroke-width:0.522947;paint-order:stroke fill markers"
         id="path26"
         sodipodi:type="arc"
         sodipodi:cx="60.507614"
         sodipodi:cy="127.77242"
         sodipodi:rx="13.111"
         sodipodi:ry="13.111"
         sodipodi:start="0"
         sodipodi:end="6.277348"
         sodipodi:open="true"
         sodipodi:arc-type="arc"
         d="M 73.618614,127.77242 A 13.111,13.111 0 0 1 60.526747,140.88341 13.111,13.111 0 0 1 47.39667,127.81069 13.111,13.111 0 0 1 60.450215,114.66155 13.111,13.111 0 0 1 73.618391,127.69589" />
      <path
         style="fill:#c31b1b;fill-opacity:1;stroke-width:0.323516;paint-order:stroke fill markers"
         id="path27"
         sodipodi:type="arc"
         sodipodi:cx="60.507614"
         sodipodi:cy="127.77242"
         sodipodi:rx="8.1110001"
         sodipodi:ry="8.1110001"
         sodipodi:start="0"
         sodipodi:end="6.277348"
         sodipodi:open="true"
         sodipodi:arc-type="arc"
         d="m 68.618614,127.77242 a 8.1110001,8.1110001 0 0 1 -8.099163,8.11099 8.1110001,8.1110001 0 0 1 -8.122802,-8.08731 8.1110001,8.1110001 0 0 1 8.075455,-8.1346 8.1110001,8.1110001 0 0 1 8.146372,8.06358" />
      <path
         style="fill:#e54848;fill-opacity:1;stroke-width:0.124086;paint-order:stroke fill markers"
         id="path28"
         sodipodi:type="arc"
         sodipodi:cx="60.507614"
         sodipodi:cy="127.77242"
         sodipodi:rx="3.1110001"
         sodipodi:ry="3.1110001"
         sodipodi:start="0"
         sodipodi:end="6.277348"
         sodipodi:open="true"
         sodipodi:arc-type="arc"
         d="m 63.618614,127.77242 a 3.1110001,3.1110001 0 0 1 -3.10646,3.111 3.1110001,3.1110001 0 0 1 -3.115527,-3.10192 3.1110001,3.1110001 0 0 1 3.097367,-3.12005 3.1110001,3.1110001 0 0 1 3.124567,3.09281" />
      <path
         style="fill:#871212;fill-opacity:1;stroke-width:1.00157;paint-order:stroke fill markers"
         d="m 49.26348,131.15078 -7.866022,-0.20169 0.453809,4.63893 -5.546553,-6.50459 5.395284,-8.37026 -0.554656,5.79867 8.370254,-1.26058 z"
         id="path29" />
      <path
         style="fill:#871212;fill-opacity:1;stroke-width:1.00157;paint-order:stroke fill markers"
         d="m 61.711792,137.49932 -1.069954,7.79552 4.660665,0.0618 -7.077838,4.79355 -7.722577,-6.28746 5.701823,1.19224 -0.327617,-8.45831 z"
         id="path30" />
      <path
         style="fill:#871212;fill-opacity:1;stroke-width:1.00157;paint-order:stroke fill markers"
         d="m 71.908863,125.21603 7.778924,1.18459 0.130404,-4.65925 4.688837,7.14764 -6.400464,7.62918 1.276048,-5.68365 -8.462216,0.20307 z"
         id="path31" />
      <path
         style="fill:#871212;fill-opacity:1;stroke-width:1.00157;paint-order:stroke fill markers"
         d="m 63.397122,116.44743 -1.484485,-7.7273 4.650724,-0.31047 -7.323594,-4.40896 -7.375994,6.69067 5.63006,-1.49486 0.124283,8.46374 z"
         id="path32" />
    </g>
  </g>
  <g
     inkscape:groupmode="layer"
     id="layer4"
     inkscape:label="Skin"
     style="display:inline">
    <path
       style="fill:#feb3d9;fill-opacity:1;stroke-width:1.00157;paint-order:stroke fill markers"
       d="m 105.28367,48.002899 -11.899879,-2.218621 -10.488028,0.201693 -8.672793,1.815235 -8.672793,5.445707 -6.252478,4.437243 -3.630471,4.638936 -3.025393,7.664328 -1.41185,6.454172 1.613543,6.454171 1.41185,6.050785 2.8237,6.454172 1.41185,7.05925 1.008464,6.05079 0.806771,6.65586 v 4.63894 4.03385 l 0.201693,5.04232 v 7.05925 l -0.605078,6.85756 -2.016929,9.68126 -1.815236,8.4711 -1.210157,6.45417 -1.41185,6.05078 -3.630471,8.6728 0.605078,7.05925 1.613543,5.04232 3.428779,3.63047 4.437243,3.22709 5.244014,3.42877 6.655864,2.01693 7.664328,3.22709 17.143893,0.20169 h 5.647403 c 1.41185,0 10.68972,-1.61354 10.68972,-1.61354 l 12.50495,-5.44571 4.84063,-2.01693 6.05079,-2.21862 4.63893,-0.40338 c 0,0 6.25248,13.51342 6.45418,14.52188 0.20169,1.00846 10.48802,15.93374 10.48802,15.93374 l 4.23555,3.22708 4.03386,1.21016 11.09311,2.8237 h 2.8237 c 0,0 10.48803,-0.20169 13.31173,0.40338 2.8237,0.60508 12.30326,2.8237 14.1185,3.42878 1.81523,0.60508 9.88295,-0.20169 9.88295,-0.20169 l 6.65586,-3.42878 3.63047,-7.05925 1.21016,-10.68972 v -4.84063 l -3.63047,-9.47956 -5.6474,-6.05079 h -3.0254 l -3.02539,2.42032 -2.21862,3.22708 -2.62201,3.63047 -4.03385,2.01693 -3.22709,1.00847 -2.42031,-0.2017 -2.21862,-5.4457 -0.2017,-6.05079 -1.21015,-1.00846 h -2.42032 l -3.83216,1.41185 -2.42032,4.43724 -2.21862,1.61354 -4.43724,0.80677 -3.22709,0.2017 h -4.23555 -3.42878 l -1.81523,-0.60508 -3.22709,-6.85756 -2.42031,-10.48803 0.40338,-4.23555 4.63894,-5.84909 10.48803,-5.04232 4.43724,-5.04232 3.63047,-4.03386 2.01693,-9.47956 2.01693,-9.47957 -0.60508,-7.05925 -1.61354,-8.67279 -1.61354,-7.66433 4.23555,-12.50496 V 98.627805 l -3.63048,-8.269407 -6.25247,-8.672792 -8.6728,-10.488029 -6.85755,-3.428778 4.63893,-3.630472 3.83217,-3.227085 -1.41185,-7.664329 -4.63894,-4.437242 -8.67279,-4.437243 -9.88295,-3.025393 -6.65587,0.403386 -8.67279,1.008464 -8.67279,3.025393 -6.85756,4.638935"
       id="path37"
       sodipodi:nodetypes="cccccccccccccccccccccccccccccccccscccccscccccsscccccccccccccccccccccccccccccccccccccccccccccccccccccc" />
    <path
       style="fill:#feb3d9;fill-opacity:1;stroke-width:1.00157;paint-order:stroke fill markers"
       d="m 377.36825,55.62117 1.71142,-3.993315 4.27855,-4.278551 10.55376,-2.852368 8.84234,-1.711421 12.26518,1.711421 4.27855,6.275209 2.85237,5.989972 -1.14095,3.137604 -1.14095,3.137605 v 2.281894 l 8.27187,7.130919 6.27521,7.701393 3.99331,5.419499 2.56713,5.704735 1.71143,4.563788 1.71142,4.563786 0.28523,5.4195 -1.14094,6.56045 -1.99666,7.13092 1.14095,5.98997 1.14094,7.41615 1.71142,5.70474 0.28524,5.70474 -0.85571,7.13091 -1.14095,4.56379 -3.42284,5.70474 -6.27521,6.84568 -0.85571,3.1376 3.70808,4.27856 5.13426,4.27855 c 0,0 4.84903,1.71142 6.84568,1.99666 1.99666,0.28523 8.27187,0.28523 8.27187,0.28523 l 7.70139,-5.13426 9.41282,-7.13092 6.27521,-4.27855 4.27855,-1.42618 2.56713,1.71142 -1.42619,4.84902 -3.1376,5.70474 -0.28524,1.99665 4.27855,1.14095 5.4195,1.42619 4.84903,-3.42285 3.1376,-5.13426 5.4195,-3.99331 2.85237,6.27521 1.42618,6.27521 0.28524,5.98997 -1.71142,5.70473 -4.56379,9.69805 -3.42284,5.98997 -4.84903,3.99332 -6.84568,3.70808 -11.12423,3.42284 -13.12089,2.28189 -13.12089,-1.99665 -7.7014,-2.85237 -9.41281,-2.2819 -7.13092,-3.99331 -20.53705,-5.98997 -9.41281,-3.99332 c 0,0 -6.27521,0.57048 -7.98663,1.14095 -1.71142,0.57047 -9.12758,2.28189 -9.12758,2.28189 l -8.27186,2.85237 -8.84234,2.56713 -8.27187,0.28524 h -9.41281 l -9.69805,-2.2819 -7.41616,-1.71142 -7.70139,-2.56713 -8.84234,-7.41615 -1.42619,-7.41616 0.57048,-7.98663 0.57047,-12.55042 1.99666,-13.9766 1.71142,-12.83565 2.28189,-10.26853 -0.28523,-11.40947 -2.56713,-12.55041 -2.56713,-13.406133 -2.56714,-18.255153 0.85571,-8.557103 1.99666,-8.557103 4.27855,-5.134262 11.12424,-4.849025 9.98328,-1.711421 17.39945,2.852368 13.40613,1.426184 z"
       id="path38" />
    <path
       style="fill:#feb3d9;fill-opacity:1;stroke-width:1.00157;paint-order:stroke fill markers"
       d="m 676.58162,74.446797 -3.28023,-4.135933 0.57048,-3.280223 2.70975,-8.271867 1.42618,-6.417827 2.28189,-2.852368 5.56212,-1.140947 c 0,0 5.4195,0.855711 6.56045,1.140947 1.14094,0.285237 6.56044,2.139276 6.56044,2.139276 l 2.70975,3.850697 c 0,0 1.5688,2.852367 2.70975,3.280222 1.14095,0.427856 3.42284,1.140948 4.13593,1.140948 0.7131,0 3.28023,-0.713092 3.28023,-0.713092 l 0.14262,-3.56546 -0.99833,-5.419499 -0.14262,-2.709749 1.5688,-2.281894 3.56546,0.570473 4.99164,2.567131 c 0,0 1.28357,3.137605 1.99666,3.708078 0.71309,0.570474 3.56546,5.704736 4.13593,5.704736 0.57048,0 1.42619,0 2.99499,0 1.5688,0 6.70306,-3.850697 6.70306,-3.850697 0,0 2.56714,-5.134261 2.99499,-5.847353 0.42786,-0.713092 1.14095,-7.13092 1.14095,-7.13092 l 0.28523,-9.555431 -3.1376,-7.701393 -4.27855,-5.704736 -5.84736,-3.280222 -8.5571,-0.998329 -10.41114,2.139276 c 0,0 -13.12089,1.996657 -13.69137,1.996657 -0.57047,0 -18.683,0.285237 -18.683,0.285237 l -5.84736,2.994986 -6.13259,6.275209 -2.70975,7.701393 -3.28022,8.699721 -4.84903,8.984958 -1.42618,3.280223 -10.26852,-4.135933 -15.68803,-3.137604 -19.53871,-2.852368 -16.97159,0.998329 -18.11254,7.701392 -9.41281,9.127577 -0.42785,10.411142 c 0,0 0.85571,5.134262 0.99832,5.704735 0.14262,0.570474 1.99666,7.13092 1.99666,7.13092 l 2.70975,11.266852 1.28357,8.984963 1.5688,17.1142 1.14095,7.84401 -0.99833,9.12758 -0.7131,15.68802 c 0,0 -1.71142,7.55878 -2.13927,8.12925 -0.42786,0.57047 -2.70975,8.27187 -2.70975,8.27187 l -1.14095,7.84401 2.42452,12.4078 5.70473,7.70139 11.97994,5.27688 c 0,0 8.55711,2.42451 10.12591,2.70975 1.5688,0.28524 19.3961,-0.42786 19.3961,-0.42786 l 9.69805,-2.42451 4.99164,-0.99833 c 0,0 4.84903,1.85404 5.98998,2.56713 1.14094,0.71309 6.41782,3.99332 8.12924,4.42117 1.71142,0.42786 2.85237,0.57048 7.27354,1.14095 4.42117,0.57047 12.55042,-0.14262 12.55042,-0.14262 l 12.69304,-5.70473 6.9883,-4.56379 2.13927,-5.98997 -0.71309,-4.99165 -5.98997,-2.42451 6.41783,-4.84903 9.27019,-10.69637 5.84735,-9.41282 3.42285,-8.84234 0.71309,-5.27688 -2.42452,-8.12925 -2.28189,-11.40947 2.99499,-8.69972 0.85571,-9.12757 -2.42452,-13.691369 -5.84735,-14.261839 -5.70473,-3.708078 z"
       id="path39" />
    <path
       style="fill:#feb3d9;fill-opacity:1;stroke-width:1.00157;paint-order:stroke fill markers"
       d="m 888.05455,200.0167 1.71142,3.99332 4.27855,4.27855 10.55376,2.85237 8.84234,1.71142 12.26518,-1.71142 4.27855,-6.27521 2.85237,-5.98997 -1.14095,-3.13761 -1.14095,-3.1376 v -2.2819 l 8.27187,-7.13091 6.27521,-7.7014 3.99331,-5.4195 2.56713,-5.70473 1.71143,-4.56379 1.71142,-4.56379 0.28523,-5.4195 -1.14094,-6.56045 -1.99666,-7.13092 1.14095,-5.98997 1.14094,-7.41615 1.71142,-5.70474 0.28524,-5.70474 -0.85571,-7.13091 -1.14095,-4.563791 -3.42284,-5.70474 -6.27521,-6.845675 -0.85571,-3.1376 3.70808,-4.27856 5.13426,-4.27855 c 0,0 4.84903,-1.71142 6.84568,-1.99666 1.99666,-0.28523 8.27187,-0.28523 8.27187,-0.28523 l 7.70139,5.13426 9.41282,7.13092 6.27521,4.27855 4.27855,1.426175 2.56713,-1.711415 -1.42619,-4.84902 -3.1376,-5.70474 -0.28524,-1.99665 4.27855,-1.14095 5.41954,-1.42619 4.849,3.42285 3.1376,5.13426 5.4195,3.99331 2.8524,-6.27521 1.4261,-6.27521 0.2853,-5.98997 -1.7114,-5.70473 -4.5638,-9.69805 -3.4229,-5.98997 -4.849,-3.99332 -6.84568,-3.70808 -11.12423,-3.42284 -13.12089,-2.28189 -13.12089,1.99665 -7.7014,2.85237 -9.41281,2.2819 -7.13092,3.99331 -20.53705,5.98997 -9.41281,3.99332 c 0,0 -6.27521,-0.57048 -7.98663,-1.14095 -1.71142,-0.57047 -9.12758,-2.28189 -9.12758,-2.28189 l -8.27186,-2.85237 -8.84234,-2.56713 -8.27187,-0.28524 h -9.41281 l -9.69805,2.2819 -7.41616,1.71142 -7.70139,2.56713 -8.84234,7.41615 -1.42619,7.41616 0.57048,7.98663 0.57047,12.55042 1.99666,13.976596 1.71142,12.83565 2.28189,10.26853 -0.28523,11.40947 -2.56713,12.55041 -2.56713,13.40614 -2.56714,18.25515 0.85571,8.5571 1.99666,8.55711 4.27855,5.13426 11.12424,4.84902 9.98328,1.71142 17.39945,-2.85236 13.40613,-1.42619 z"
       id="path40" />
  </g>
  <g
     inkscape:groupmode="layer"
     id="layer6"
     inkscape:label="Skin 1">
    <path
       style="fill:#fe89c6;fill-opacity:1;stroke-width:1.00157;paint-order:stroke fill markers"
       d="m 116.98186,50.423213 5.24401,3.227086 c 0,0 4.1347,4.134704 4.53809,4.23555 0.40338,0.100846 7.86602,6.555018 7.86602,6.555018 l 5.74825,2.117775 1.00846,-0.605079 -4.1347,-1.916082 -5.8491,-5.6474 -2.52116,-6.857557 -2.72285,-6.353325 -2.01693,0.605079 -1.10931,0.705925 -2.72285,2.016928 z"
       id="path49" />
    <path
       style="fill:#fe89c6;fill-opacity:1;stroke-width:1.00157;paint-order:stroke fill markers"
       d="m 164.27883,67.768799 -3.02539,-0.705925 c 0,0 -3.78174,-1.764813 -4.18513,-1.916082 -0.40339,-0.15127 -1.81524,-1.008464 -2.92455,-1.210157 -1.10931,-0.201693 -4.63893,-0.907618 -4.63893,-0.907618 l -3.98344,-0.806772 c 0,0 -3.78174,-0.705925 -3.58004,-0.705925 0.20169,0 3.98343,-0.201692 3.98343,-0.201692 0,0 2.42031,0 2.62201,0.05042 0.20169,0.05042 1.51269,0.352962 2.01693,0.352962 0.50423,0 3.58004,0.655502 3.83216,0.705925 0.25212,0.05042 3.32793,0.655502 3.83216,0.806772 0.50424,0.151269 3.58005,1.159734 3.58005,1.159734 l 2.67243,1.613542 1.00847,0.907618 z"
       id="path50" />
    <path
       style="fill:#fe89c6;fill-opacity:1;stroke-width:1.00157;paint-order:stroke fill markers"
       d="m 377.26648,55.616804 1.15974,1.966506 1.41185,2.016928 2.97497,2.067352 3.32793,1.966505 6.40375,2.319468 5.4457,0.655502 -2.26904,-0.605079 -2.52116,-0.504232 -3.58005,-1.159734 -2.87412,-1.563119 -3.93301,-3.479202 -3.73132,-5.294437 -0.70593,-1.109311 z"
       id="path51" />
    <path
       style="fill:#fe89c6;fill-opacity:1;stroke-width:1.00157;paint-order:stroke fill markers"
       d="m 401.11666,58.591774 c 0,0 3.0254,0.756348 3.27751,0.857195 0.25212,0.100846 3.83217,0.907618 4.03386,1.008464 0.20169,0.100846 2.87412,1.462273 3.37835,1.714389 0.50424,0.252116 4.38682,1.865659 4.73979,2.067352 0.35296,0.201693 3.37835,1.361427 3.37835,1.361427 l -0.10084,-0.504232 -2.57159,-1.916083 -2.62201,-1.008464 c 0,0 -1.76481,-1.210157 -2.47073,-1.563119 -0.70593,-0.352963 -1.41185,-0.605079 -1.86566,-0.806772 -0.45381,-0.201693 -3.63047,-1.462273 -3.63047,-1.462273 l -3.93301,-0.15127 z"
       id="path52" />
    <path
       style="fill:#fe89c6;fill-opacity:1;stroke-width:1.00157;paint-order:stroke fill markers"
       d="m 628.02006,205.44178 4.20724,-1.92535 3.70808,-2.28189 2.85236,-2.70975 c 0,0 1.35488,-1.85404 1.85404,-2.13927 0.49917,-0.28524 5.13427,-2.70975 5.13427,-2.70975 l 5.84735,-2.42452 2.42451,-1.06963 -2.42451,0.14261 -5.4195,1.71142 -4.06462,1.56881 -5.13427,2.85236 -8.48579,6.41783 -1.5688,1.85404 -1.85404,1.35488 z"
       id="path53" />
    <path
       style="fill:#fe89c6;fill-opacity:1;stroke-width:1.00157;paint-order:stroke fill markers"
       d="m 677.2234,189.75376 -2.85237,1.14095 -5.49081,2.21058 -6.48913,1.71142 -7.55878,0.21393 -0.99833,-0.28524 6.34652,-1.42618 c 0,0 4.06463,-0.42785 4.70641,-0.71309 0.64178,-0.28524 6.9883,-2.85237 6.9883,-2.85237 0,0 3.8507,-1.64011 4.13593,-1.71142 0.28524,-0.0713 4.99165,-1.85404 5.27688,-1.99666 0.28524,-0.14262 2.13928,-0.85571 2.13928,-0.85571 z"
       id="path54" />
    <path
       style="fill:#fe89c6;fill-opacity:1;stroke-width:1.00157;paint-order:stroke fill markers"
       d="m 888.15599,200.09359 2.28189,-2.21058 1.56881,-1.92535 3.49415,-2.42451 6.56044,-2.63844 5.77605,-1.4975 1.71142,-0.21392 -1.14095,-0.42786 -7.05961,0.14262 -6.70306,2.99499 -6.9883,4.84902 -1.28357,3.13761 -0.57047,1.28356 z"
       id="path55" />
    <path
       style="fill:#fe89c6;fill-opacity:1;stroke-width:1.00157;paint-order:stroke fill markers"
       d="m 930.65627,190.18162 c -0.42786,0.14261 -5.20557,3.42284 -5.20557,3.42284 l -5.06295,2.21058 -5.20558,1.42619 -5.27688,0.49916 7.13092,-2.56713 c 0,0 6.06128,-2.28189 6.70307,-2.56713 0.64178,-0.28524 6.77437,-3.70808 6.77437,-3.70808 l 2.63844,-1.71142 0.99833,-0.92702 -2.70975,3.20891 z"
       id="path56" />
  </g>
  <g
     inkscape:groupmode="layer"
     id="layer5"
     inkscape:label="Mouth">
    <path
       style="fill:#ffffff;fill-opacity:1;stroke-width:1.00157;paint-order:stroke fill markers"
       d="m 157.32043,85.316077 2.01692,7.462636 2.21863,4.638935 1.00846,4.840632 0.80677,8.4711 -1.61354,9.88295 -1.00847,8.87448 -1.61354,12.30327 0.40339,14.32019 v 9.68126 l -0.40339,5.24401 7.26094,-8.4711 c 0,0 5.8491,-6.45417 6.85756,-7.26094 1.00847,-0.80677 5.04232,-6.25248 5.04232,-6.25248 l 1.61355,-5.24402 1.41185,-8.2694 v -12.50496 l -0.2017,-16.33712 -3.63047,-6.65586 -9.88295,-8.067719 z"
       id="path41" />
    <path
       style="fill:#ffffff;fill-opacity:1;stroke-width:1.00157;paint-order:stroke fill markers"
       d="m 669.0152,171.23723 2.01692,-7.46264 2.21863,-4.63893 1.00846,-4.84063 0.80677,-8.4711 -1.61354,-9.88295 -1.00847,-8.87448 -1.61354,-12.30327 0.40339,-14.32019 v -9.68126 l -0.40339,-5.24401 7.26094,8.4711 c 0,0 5.8491,6.45417 6.85756,7.26094 1.00847,0.80677 5.04232,6.25248 5.04232,6.25248 l 1.61355,5.24402 1.41185,8.2694 v 12.50496 l -0.2017,16.33712 -3.63047,6.65586 -9.88295,8.06772 z"
       id="path42" />
    <path
       style="fill:#ffffff;fill-opacity:1;stroke-width:1.00157;paint-order:stroke fill markers"
       d="m 416.29405,93.182098 -0.60508,50.221522 1.21016,18.95913 12.30326,-4.43725 5.8491,-4.23555 1.41185,-4.03385 0.60507,-7.26095 -0.40338,-19.76589 -2.01693,-13.91681 -4.23555,-9.07618 -6.65586,-3.630472 z"
       id="path43" />
    <path
       style="fill:#ffffff;fill-opacity:1;stroke-width:1.00157;paint-order:stroke fill markers"
       d="m 927.15311,162.93322 -0.60508,-50.22152 1.21016,-18.959128 12.30326,4.43725 5.8491,4.235548 1.41185,4.03385 0.60507,7.26095 -0.40338,19.76589 -2.01693,13.91681 -4.23555,9.07618 -6.65586,3.63047 z"
       id="path44" />
    <path
       style="fill:#000000;fill-opacity:1;stroke-width:1.00157;paint-order:stroke fill markers"
       d="m 168.71755,94.698607 c 0.65834,1.508896 1.29753,3.078791 1.5688,4.706407 0.0313,0.187571 -0.085,0.400391 0,0.570474 0.1063,0.212602 0.35269,0.344972 0.42786,0.570472 0.16591,0.49773 0,3.26436 0,4.13593 0,0.52294 0,1.04587 0,1.56881 0,0.25455 0.18169,0.55093 0.14261,0.57047 -1.21236,0.60618 -0.10784,-0.0711 -0.85571,0.14262 -0.24354,0.0696 -2.56713,0.95688 -2.56713,0.99833 0,0.0475 0.1001,-0.0213 0.14262,0 0.15331,0.0767 0.29073,0.18239 0.42786,0.28523 0.31373,0.2353 0.70612,0.6493 0.85571,0.99833 0.3203,0.74737 0.30197,1.38395 0.42785,2.13928 -0.27742,0.39623 0.23368,0.36422 0.28524,0.57047 0.11885,0.4754 -0.0792,0.31693 0,0.71309 0.24016,1.2008 0.002,0.004 0.28524,0.57048 0.0638,0.12756 -0.028,0.288 0,0.42785 0.14415,0.72075 0.14261,1.39508 0.14261,2.13928 0,0.5185 -0.1454,1.70306 0,2.13927 0.0213,0.0638 0.12136,0.0788 0.14262,0.14262 0.18117,0.5435 -0.31651,0.0244 0.14262,0.71309 0.0264,0.0396 0.12136,-0.0425 0.14262,0 0.0571,0.1141 -0.0571,0.31376 0,0.42786 0.33673,0.67347 -0.075,-0.87049 0.28524,0.57047 0.12438,0.49753 0,1.214 0,1.71142 0,1.42619 0,2.85237 0,4.27856 0,0.92821 0.17136,3.30784 0,3.99331 -0.0475,0.14262 -0.0951,0.28524 -0.14262,0.42786 0,0.0951 0.0231,0.19299 0,0.28523 -0.017,0.0678 -0.26828,0.36001 -0.28524,0.42786 -0.12219,0.48878 -0.0443,1.07731 -0.14262,1.5688 -0.0132,0.0659 -0.12136,0.0788 -0.14262,0.14262 -0.0914,0.27433 -0.10172,0.56944 -0.14261,0.85571 -0.0202,0.14118 0.0451,0.29255 0,0.42785 -0.31611,0.94832 -0.22601,0.007 -0.42786,0.7131 -0.1077,0.37693 -0.20835,0.75653 -0.28524,1.14094 -0.0606,0.30302 0.0974,0.70605 0,0.99833 -0.0425,0.12756 -0.24271,0.15768 -0.28523,0.28524 -0.01,0.0288 0.0474,0.52302 0,0.57047 -0.0336,0.0336 -0.0951,0 -0.14262,0 -0.0951,0.0951 -0.2251,0.16497 -0.28524,0.28524 -0.0977,0.19539 -0.0442,0.51624 -0.14262,0.71309 -0.21868,0.43737 -1.02931,-0.11164 -1.28356,0.14262 -0.0239,0.0239 0,2.29363 0,2.56713 0,1.85404 0,3.70808 0,5.56212 0,2.07779 -0.0691,4.00235 0.42785,5.98997 0.081,0.32381 -0.15423,0.97509 0,1.28356 0.0213,0.0425 0.0951,0 0.14262,0 0,0.0475 -0.0115,0.0965 0,0.14262 0.0234,0.51052 0.30748,0.94468 0.42786,1.42619 0.042,0.16781 -0.0757,0.419 0,0.57047 0.10635,0.2127 0.31907,0.35292 0.42785,0.57047 0.0394,0.0789 0.12161,0.50745 0.14262,0.57048 0.015,0.0451 0,0.0951 0,0.14261 0.0951,0.0951 0.21065,0.17336 0.28524,0.28524 0.0264,0.0396 -0.0475,0.14262 0,0.14262 0.3044,0 0.35523,-0.49785 0.57047,-0.71309 0.1063,-0.1063 0.32155,-0.0363 0.42786,-0.14262 0.0951,-0.14262 0.19015,-0.28524 0.28523,-0.42786 0.0475,0 0.10901,0.0336 0.14262,0 0.10085,-0.10084 0.0202,-0.28667 0,-0.42785 -0.052,-0.3639 -0.0831,-0.69512 -0.28524,-0.99833 -0.0373,-0.0559 -0.12135,-0.0788 -0.14261,-0.14262 -0.18007,-0.54018 -0.1475,-1.16046 -0.28524,-1.71142 -0.0163,-0.0652 -0.11765,-0.0802 -0.14262,-0.14262 -0.19101,-0.47752 -0.12188,-0.93611 -0.28524,-1.42618 -0.0213,-0.0638 -0.12135,-0.0788 -0.14261,-0.14262 -0.062,-0.18595 -0.0806,-0.38452 -0.14262,-0.57047 -0.14254,-0.42761 0.0648,-0.97268 0,-1.42619 0.51458,-0.5477 -0.23503,-0.46205 -0.28524,-0.71309 -0.13157,-0.65785 0.17678,-1.35787 -0.14262,-1.99666 -0.0213,-0.0425 -0.12758,0.0451 -0.14262,0 -0.16145,-0.48435 0,-2.46629 0,-3.1376 0,-0.51149 0.16156,-1.36937 0,-1.85404 -0.0596,-0.17884 -0.33267,-0.38073 -0.28523,-0.57047 0.0839,-0.33576 0.1489,-0.68022 0.28523,-0.99833 0.0482,-0.1125 0.76,0.0957 0.85571,0 0.23083,-0.23083 0.4235,-1.84095 0.57048,-2.2819 0.16256,-0.48767 0.11829,-0.10613 0.42785,-0.57047 0.101,-0.15149 0.0434,-0.65717 0.14262,-0.85571 0.0301,-0.0601 0.0951,-0.0951 0.14262,-0.14262 0.0951,-0.19016 0.21801,-0.36878 0.28524,-0.57047 0.16868,-0.50606 -0.23112,-0.0722 0.14261,-0.57047 0.0807,-0.10757 0.21066,-0.17336 0.28524,-0.28524 0.0527,-0.0791 -0.0186,-0.19201 0,-0.28524 0.0384,-0.1922 0.0698,-0.38848 0.14262,-0.57047 0.025,-0.0624 0.0951,-0.0951 0.14262,-0.14262 0.0951,-0.2377 0.20428,-0.47022 0.28524,-0.71309 0.0752,-0.2255 -0.0336,-0.47779 0,-0.71309 0.10125,-0.70881 0.40073,-1.46033 0.57047,-2.13928 0.0336,-0.13423 -0.0336,-0.29363 0,-0.42785 0.27186,-1.08743 0.0185,0.33551 0.28524,-0.99833 0.0455,-0.22755 -0.0561,-0.48884 0,-0.7131 0.10817,-0.4327 0.23188,-0.51814 0.28523,-0.99832 0.15467,-1.39205 0,-2.87247 0,-4.27856 0,-0.83883 0.18403,-2.54413 0,-3.28022 -0.0516,-0.20625 -0.23367,-0.36422 -0.28523,-0.57047 -0.0781,-0.31221 0.0884,-0.68905 0,-0.99833 -0.0584,-0.20442 -0.19016,-0.38032 -0.28524,-0.57047 -0.0951,-0.28524 -0.21232,-0.56403 -0.28524,-0.85571 -0.11411,-0.45645 -0.0845,-0.9609 -0.14262,-1.42619 -0.0601,-0.48114 -0.21664,-0.94601 -0.28523,-1.42618 -0.0202,-0.14119 0.0346,-0.2895 0,-0.42786 -0.0621,-0.24836 -0.22315,-0.46473 -0.28524,-0.71309 -0.11294,-0.45175 -0.0841,-0.88127 -0.28524,-1.28356 -0.0762,-0.15236 -0.0941,-1.04125 -0.14262,-1.28357 -0.24016,-1.2008 -0.002,-0.004 -0.28523,-0.57047 -0.0951,-0.19016 0.0951,-0.52294 0,-0.7131 -0.0601,-0.12026 -0.28524,-0.15077 -0.28524,-0.28523 0,-0.24244 0.69972,-0.13995 0.71309,-0.14262 0.10424,-0.0209 0.18211,-0.11684 0.28524,-0.14262 0.30534,-0.0763 0.70033,0.0993 0.99833,0 0.31069,0.0533 0.0475,-0.2377 0.14262,-0.28524 0.31311,-0.15655 0.25072,0.069 0.42785,-0.28523 0.23937,-0.47874 -0.1637,-4.89119 -0.28523,-5.13426 -0.10876,-0.21751 -0.41624,-0.70147 -0.57048,-0.85572 -0.0336,-0.0336 -0.11625,0.0396 -0.14262,0 -0.0834,-0.12508 -0.0754,-0.29339 -0.14261,-0.42785 -0.1418,-0.28359 -0.449,-0.552 -0.57048,-0.85571 -0.34419,-0.860474 -0.32559,-1.079043 -0.71309,-1.85404 -0.0684,-0.136835 0.008,-0.269247 -0.14262,-0.570473 -0.10032,-0.200643 0.0513,-0.650694 0,-0.85571 -0.0163,-0.06522 -0.12136,-0.07884 -0.14262,-0.142619 -0.16788,-0.503656 0.009,-1.47158 -0.42785,-1.854039 -0.30777,-0.269295 -0.66555,-0.475394 -0.99833,-0.713092 z"
       id="path45" />
    <path
       style="fill:#000000;fill-opacity:1;stroke-width:1.00157;paint-order:stroke fill markers"
       d="m 423.29137,96.552646 c 0,2.020078 -0.10631,-0.478356 0.28523,1.283566 0.0516,0.232037 -0.0361,0.478158 0,0.713092 0.0894,0.581193 0.22139,1.16083 0.42786,1.711416 0.1493,0.39814 0.41255,0.74616 0.57047,1.14095 0.15675,0.39189 0.23152,0.89089 0.42786,1.28357 0.0856,0.17114 0.34228,0.25671 0.42785,0.42785 0.0425,0.085 -0.0231,0.193 0,0.28524 0.009,0.0353 0.25828,0.54352 0.28524,0.57047 0.0336,0.0336 0.109,-0.0336 0.14262,0 0.0378,0.0378 0,0.36913 0,0.42786 0,0.49877 0.14211,1.71292 0,2.13927 -0.0213,0.0638 -0.11256,0.0825 -0.14262,0.14262 -0.59639,1.19278 -0.70562,1.36465 -1.99666,2.13928 -0.0577,0.0346 -0.0788,0.12136 -0.14262,0.14262 -0.0902,0.0301 -0.19016,0 -0.28523,0 -0.14262,0.0475 -0.28828,0.0868 -0.42786,0.14261 -0.26441,0.10577 -0.47701,0.30982 -0.71309,0.42786 -0.13446,0.0672 -0.30759,0.0524 -0.42786,0.14262 -0.085,0.0638 -0.0675,0.21007 -0.14262,0.28523 -0.0876,0.0876 -0.33234,0.0942 -0.42785,0.28524 -0.0638,0.12756 0,0.28524 0,0.42786 0,1.09056 0.22452,1.7326 0.71309,2.70975 0.12397,0.24793 0.32491,0.45571 0.42786,0.71309 0.0353,0.0883 -0.0527,0.20612 0,0.28523 0.059,0.0884 0.21007,0.0675 0.28523,0.14262 0.3682,0.3682 0.56655,0.99244 0.85571,1.42619 0.11188,0.16782 0.31598,0.26003 0.42786,0.42785 0.0264,0.0396 -0.0336,0.109 0,0.14262 0.0336,0.0336 0.109,-0.0336 0.14262,0 0.18972,0.18972 0.15994,0.57913 0.42785,0.71309 0.0425,0.0213 0.10901,-0.0336 0.14262,0 0.1063,0.1063 0.0592,0.30277 0.14262,0.42786 0.20621,0.30931 0.45645,0.74168 0.71309,0.99833 0.0752,0.0752 0.21007,0.0674 0.28524,0.14261 0.0442,0.0442 0.0266,0.77585 0,0.85571 -0.0584,0.17523 -0.48332,0.43975 -0.57048,0.57048 -0.10872,0.16309 -0.055,0.39515 -0.14261,0.57047 -0.0708,0.14149 -0.236,0.28013 -0.28524,0.42786 -0.0301,0.0902 0.0425,0.20019 0,0.28523 -0.0213,0.0425 -0.109,-0.0336 -0.14262,0 -0.16808,0.16808 -0.21525,0.46418 -0.42785,0.57048 -0.0425,0.0213 -0.10901,-0.0336 -0.14262,0 -0.0336,0.0336 0.0336,0.109 0,0.14262 -0.22446,0.22445 -0.61317,0.18531 -0.85571,0.42785 -0.0336,0.0336 0.0336,0.109 0,0.14262 -0.0336,0.0336 -0.11625,-0.0396 -0.14262,0 -0.4557,0.68355 -0.28524,1.6214 -0.28524,2.42451 0,1.13557 -0.0696,2.35826 0.28524,3.42284 0.0451,0.1353 -0.0451,0.29256 0,0.42786 0.0213,0.0638 0.0951,0.0951 0.14262,0.14262 0.0475,0.14261 0.11313,0.28044 0.14262,0.42785 0.11992,0.59964 0.0419,1.25002 0.14261,1.85404 0.0399,0.23911 0.066,0.48313 0.14262,0.71309 0.0425,0.12756 0.24272,0.15768 0.28524,0.28524 0.16703,0.50109 0,2.48382 0,3.1376 0,0.30667 0.14121,1.00116 0,1.28357 -0.0475,0.0951 -0.2377,0.0475 -0.28524,0.14262 -0.35562,0.71125 -0.18993,0.33255 -0.57047,0.71309 -0.0752,0.0752 -0.0576,0.22146 -0.14262,0.28524 -0.12027,0.0902 -0.30759,0.0524 -0.42785,0.14261 -0.085,0.0638 -0.0951,0.19016 -0.14262,0.28524 -0.0951,0.0951 -0.17336,0.21065 -0.28524,0.28524 -0.0396,0.0264 -0.109,-0.0336 -0.14262,0 -0.0165,0.0165 0,2.11896 0,2.28189 0,0.81998 -0.11578,1.75664 0,2.56713 0.015,0.10524 0.12177,0.181 0.14262,0.28524 0.17402,0.87009 -0.14601,1.83367 0,2.70975 0.13699,0.82191 0.30329,1.76559 0.57047,2.56713 0.0817,0.24497 0.3462,0.61074 0.42786,0.85571 0.0601,0.1804 -0.0461,0.38599 0,0.57047 0.17623,0.70494 0.14262,-0.29846 0.14262,0.28524 0,0.83873 0.40912,1.47516 0.57047,2.2819 0.10978,0.54891 0.14986,1.16992 0.28524,1.71142 0.0258,0.10312 0.12177,0.181 0.14262,0.28523 0.13758,0.68793 -0.0168,1.67784 0.28523,2.2819 0.0571,0.11409 -0.057,0.31376 0,0.42785 0.0475,0.0951 0.2377,0.0475 0.28524,0.14262 0.17895,0.35791 -0.12188,0.57047 0.42785,0.57047 0.0951,0 0.20613,0.0527 0.28524,0 0.2242,-0.14946 0.28524,-1.14386 0.28524,-1.42618 0,-0.41101 0.12565,-1.04924 0,-1.42618 -0.0213,-0.0638 -0.12415,-0.078 -0.14262,-0.14262 -0.23913,-0.83697 -0.28692,-1.86416 -0.42786,-2.70975 -0.0815,-0.48927 -0.372,-0.92349 -0.42785,-1.42619 -0.0263,-0.23624 0.0391,-0.47862 0,-0.71309 -0.035,-0.20971 -0.24354,-0.362 -0.28524,-0.57047 -0.0388,-0.19425 0.0884,-0.53639 0,-0.71309 -0.0301,-0.0601 -0.11255,-0.0825 -0.14262,-0.14262 -0.12925,-0.25851 0.005,-1.20549 -0.14261,-1.42619 -0.0746,-0.11187 -0.22511,-0.16497 -0.28524,-0.28523 -0.13311,-0.26622 0.13311,-0.73211 0,-0.99833 -0.0213,-0.0425 -0.109,0.0336 -0.14262,0 -0.24582,-0.24582 -0.55784,-0.97307 -0.71309,-1.28357 -0.085,-0.17008 0.0461,-0.38599 0,-0.57047 -0.0163,-0.0652 -0.12631,-0.0774 -0.14262,-0.14262 -0.0752,-0.30093 0.0987,-0.70235 0,-0.99833 -0.0336,-0.10084 -0.11684,-0.18211 -0.14262,-0.28523 -0.0481,-0.19229 -0.10142,-2.79215 0,-2.99499 0.0301,-0.0601 0.11255,-0.0825 0.14262,-0.14262 0.0638,-0.12756 -0.0451,-0.29255 0,-0.42785 0.0521,-0.1563 0.33538,-0.28915 0.42786,-0.42786 0.15651,-0.23477 0.27133,-0.47831 0.42785,-0.71309 0.25585,-0.38377 0.72122,-0.62885 0.99833,-0.99833 0.18395,-0.24526 0.59143,-0.89763 0.71309,-1.14095 0.1141,-0.22819 0.45638,-0.34228 0.57047,-0.57047 0.24679,-0.49357 -0.28523,-0.9977 -0.28523,-1.42618 0,-0.61865 0.12217,-1.38581 0,-1.99666 -0.077,-0.38519 -0.2207,-0.75374 -0.28524,-1.14095 -0.0234,-0.14068 0.0451,-0.29255 0,-0.42785 -0.0542,-0.16261 -0.22158,-0.26871 -0.28524,-0.42786 -0.14655,-0.36637 0.0102,-1.74709 -0.14261,-2.28189 -0.0185,-0.0647 -0.12136,-0.0788 -0.14262,-0.14262 -0.26193,-0.78579 -0.42786,-2.29027 -0.42786,-3.13761 0,-0.59823 -0.17685,-1.89396 0,-2.42451 0.0542,-0.16261 0.20858,-0.27454 0.28524,-0.42785 0.14262,-0.28524 0.25096,-0.59037 0.42785,-0.85571 0.15979,-0.23969 0.44378,-0.45969 0.57048,-0.7131 0.0213,-0.0425 -0.0336,-0.109 0,-0.14261 0.0752,-0.0752 0.21007,-0.0675 0.28523,-0.14262 0.37166,-0.37166 0.91945,-1.26842 1.14095,-1.71142 0.004,-0.008 -0.13198,-0.82381 -0.14262,-0.85571 -0.015,-0.0451 -0.109,0.0336 -0.14262,0 -0.0752,-0.0752 -0.0675,-0.21007 -0.14261,-0.28524 -0.0336,-0.0336 -0.11625,0.0396 -0.14262,0 -0.0834,-0.12508 -0.0754,-0.29339 -0.14262,-0.42785 -0.21934,-0.43869 -0.63553,-0.84321 -0.85571,-1.28357 -0.0881,-0.17619 -0.0377,-0.55577 -0.14262,-0.71309 -0.0746,-0.11188 -0.2251,-0.16497 -0.28524,-0.28524 -0.22594,-0.45189 0.29514,-0.13272 -0.14261,-0.57047 -0.0336,-0.0336 -0.10901,0.0336 -0.14262,0 -0.38195,-0.38195 -0.82603,-1.19453 -0.99833,-1.71142 -0.0301,-0.0902 0.0301,-0.19504 0,-0.28524 -0.11096,-0.33288 -0.57808,-0.66079 -0.71309,-0.99833 -0.19722,-0.49305 -0.28524,-0.90989 -0.28524,-1.42618 0,-0.0475 -0.0466,-0.1333 0,-0.14262 0.23308,-0.0466 0.47778,0.0336 0.71309,0 0.10524,-0.015 0.18211,-0.11684 0.28524,-0.14262 0.0815,-0.0204 0.88105,-0.11916 0.99833,-0.14262 0.18646,-0.0373 0.39007,0.0601 0.57047,0 0.44516,-0.14838 -0.0475,-0.0951 0.14262,-0.28523 0.0442,-0.0442 0.40055,-0.14872 0.42785,-0.28524 0.0373,-0.18647 -0.0706,-0.39392 0,-0.57047 0.0395,-0.0987 0.21007,-0.0675 0.28524,-0.14262 0.11039,-0.11039 0.0625,-0.55296 0.14262,-0.71309 0.0301,-0.0601 0.12136,-0.0788 0.14262,-0.14262 0.0451,-0.1353 -0.0638,-0.3003 0,-0.42786 0.0766,-0.15331 0.22158,-0.26871 0.28523,-0.42785 0.14576,-0.3644 0,-1.61211 0,-1.99666 0,-0.87799 0.21843,-2.41552 -0.14261,-3.13761 -0.0553,-0.1107 0.0634,-0.32222 0,-0.42785 -1.2008,-2.001327 0.17019,0.71073 -0.57048,-1.140948 -0.14466,-0.361661 -0.67285,-0.963573 -0.85571,-1.283565 -0.0498,-0.08718 -0.98814,-1.564984 -0.99833,-1.568802 -0.31475,-0.118032 -0.66555,-0.09508 -0.99832,-0.142619 z"
       id="path46" />
    <path
       style="fill:#000000;fill-opacity:1;stroke-width:1.00157;paint-order:stroke fill markers"
       d="m 680.41084,98.728652 c 0,1.075695 0,2.151388 0,3.227088 0,1.16866 0.0897,2.38628 -0.10084,3.52962 -0.0401,0.24064 0.0775,0.57422 0,0.80677 -0.0832,0.24947 -0.23675,0.44274 -0.30254,0.70593 -0.0312,0.12495 0.0405,0.28188 0,0.40338 -0.0716,0.21471 -0.13013,0.39038 -0.2017,0.60508 -0.10631,0.31895 -0.0378,0.84141 -0.20169,1.21016 -0.19125,0.43031 -0.42092,0.78046 -0.60508,1.21016 -0.0659,0.15384 -0.10357,0.54238 -0.20169,0.70592 -0.0978,0.16306 -0.3026,0.24213 -0.40339,0.40339 -0.4001,0.64017 -0.66539,1.20918 -0.80677,1.91608 -0.11928,0.5964 -0.0646,0.0101 -0.30254,0.60508 -0.11929,0.29823 0.0152,0.95317 0.10085,1.21016 0.0481,0.14439 -0.0674,0.36951 0,0.50423 0.0353,0.0706 0.42753,0.0817 0.50423,0.10084 0.0979,0.0245 0.32032,0.18785 0.40339,0.2017 0.23342,0.0389 0.76263,-0.0983 1.00846,0 0.13958,0.0558 0.26381,0.14586 0.40339,0.20169 0.0624,0.025 0.13791,-0.0213 0.20169,0 0.37715,0.12572 0.76154,0.2295 1.10931,0.40339 0.0301,0.015 0.0771,-0.0238 0.10085,0 0.0238,0.0238 -0.0125,0.0696 0,0.10084 0.0838,0.20937 0.24059,0.38826 0.30254,0.60508 0.14064,0.49224 0.11892,1.01609 0.20169,1.5127 0.11088,0.6653 0.31837,1.36642 0.50423,2.01693 0.0207,0.0723 0.0902,0.12728 0.10085,0.20169 0.0859,0.60162 0,1.30572 0,1.91608 0,1.41185 0,2.8237 0,4.23555 0,3.52963 0,7.05925 0,10.58888 0,1.24377 0,2.48754 0,3.73131 0,0.44805 0.10861,1.07825 0,1.5127 -0.0115,0.0461 -0.0832,0.0567 -0.10085,0.10085 -0.46769,1.16922 0.0692,-0.0751 -0.10085,0.60507 -0.0365,0.14585 -0.15415,0.26077 -0.20169,0.40339 -0.0504,0.15127 0.10085,0.10085 0,0.30254 -0.0752,0.15033 -0.21915,0.25745 -0.30254,0.40339 -0.11482,0.20094 -0.10622,0.51499 -0.20169,0.70592 -0.0542,0.10841 -0.15914,0.18905 -0.20169,0.30254 -0.0602,0.16049 -0.0466,0.34162 -0.10085,0.50423 -0.0832,0.24954 -0.25308,0.40919 -0.30254,0.70593 -0.0276,0.16579 0.0531,0.34478 0,0.50423 -0.015,0.0451 -0.0858,0.0557 -0.10085,0.10085 -0.005,0.0146 -0.0298,0.47444 0,0.50423 0.12339,0.12338 0.62928,-0.0592 0.80678,0 0.33316,0.11105 1.20058,0.67719 1.311,1.00846 0.0903,0.27099 0.0391,2.87538 0,3.22709 -0.0256,0.2304 -0.11242,0.42652 -0.20169,0.60508 -0.1424,0.2848 0.0511,0.90374 0,1.21015 -0.0444,0.26617 -0.2368,0.5438 -0.30254,0.80677 -0.0326,0.13045 0.0264,0.27154 0,0.40339 -0.11275,0.56375 -0.29288,1.08516 -0.50423,1.61354 -0.12505,0.31262 0.009,0.88889 -0.10085,1.10931 -0.0425,0.085 -0.14465,0.12563 -0.20169,0.2017 -0.13429,0.17904 -0.1372,0.41159 -0.2017,0.60508 -0.0727,0.21804 -0.9066,1.24309 -1.00846,1.311 -0.23874,0.15916 -0.25422,0.0525 -0.50423,0.30254 -0.0531,0.0532 -0.0383,0.16 -0.10085,0.20169 -0.0559,0.0373 -0.14156,-0.0301 -0.20169,0 -0.31763,0.15881 -0.58802,0.54612 -0.90762,0.70593 -0.88044,0.44022 -0.1602,-0.005 -1.00846,0.50423 -0.0288,0.0173 -0.10085,-0.0336 -0.10085,0 0,0.0336 0.0672,0 0.10085,0 0.10084,0 0.20169,0 0.30253,0 0.23531,0 0.47062,0 0.70593,0 0.16808,0 0.34117,0.0408 0.50423,0 0.11759,-0.0294 0.19413,-0.14749 0.30254,-0.20169 0.22372,-0.11187 0.8542,-0.14828 1.00847,-0.30254 0.0458,-0.0458 0.25674,-0.45844 0.30253,-0.50424 0.0475,-0.0475 0.15416,0.0475 0.2017,0 0.0532,-0.0531 0.0592,-0.13915 0.10084,-0.20169 0.15446,-0.23168 0.0576,0.0432 0.30254,-0.20169 0.0531,-0.0531 0.0477,-0.14854 0.10085,-0.20169 0.0238,-0.0238 0.0771,0.0238 0.10085,0 0.0238,-0.0238 -0.015,-0.0708 0,-0.10085 0.0596,-0.11914 0.22837,-0.19129 0.30254,-0.30254 0.18733,-0.28101 0.46614,-0.52891 0.60507,-0.80677 0.12476,-0.24952 0.43421,-0.4258 0.50424,-0.70593 0.0769,-0.30744 -0.14279,-0.13878 0.10084,-0.50423 0.0186,-0.028 0.0672,0 0.10085,0 0.0672,-0.13446 0.14586,-0.2638 0.20169,-0.40338 0.025,-0.0624 -0.0185,-0.13705 0,-0.2017 0.0964,-0.33745 0.19156,-0.67552 0.30254,-1.00846 0.17652,-0.52957 0.49785,-0.99251 0.70593,-1.5127 0.14224,-0.3556 0.14123,-0.64571 0.20169,-1.00846 0.0336,-0.20174 0.23797,-0.31054 0.30254,-0.50423 0.0302,-0.0908 -0.0303,-0.21178 0,-0.30254 0.1768,-0.53041 0.18207,-0.2633 0.40338,-0.70593 0.16051,-0.32102 0.20477,-0.7671 0.30254,-1.10931 -0.20253,-0.17956 0.16808,-0.30254 0.2017,-0.40339 0.12117,-0.36352 0,-1.34585 0,-1.71438 0,-0.27382 0.10983,-0.88964 0,-1.10932 -0.31395,-0.6279 -1.99661,-0.6047 -2.11778,-0.90761 -0.0499,-0.12485 0.0167,-0.26997 0,-0.40339 -0.0344,-0.27506 -0.14733,-0.53495 -0.20169,-0.80677 -0.074,-0.36986 0.0399,-0.84439 0.10084,-1.21016 0.11567,-0.69399 0.15045,-0.0231 0.30254,-0.40338 0.16802,-0.42004 0.25991,-0.88056 0.40339,-1.31101 0.2182,-0.6546 -0.0427,0.41634 0.30254,-0.50423 0.56941,-1.51844 -0.48283,0.65777 0.30254,-1.10931 0.12151,-0.2734 0.28968,-0.52251 0.40338,-0.80677 0.0722,-0.18056 0.15108,-0.70554 0.2017,-0.80677 0.0213,-0.0425 0.0858,-0.0557 0.10084,-0.10085 0.11533,-0.34598 0,-2.16339 0,-2.62201 0,-0.80677 0,-1.61354 0,-2.42031 0,-0.39267 0.0553,-0.82296 0,-1.21016 -0.0777,-0.54416 -0.34271,-1.06748 -0.40338,-1.61354 -0.0476,-0.42825 -0.007,-0.88761 -0.10085,-1.311 -0.0761,-0.3426 -0.25291,-0.66104 -0.30254,-1.00847 -0.019,-0.13311 0.0326,-0.27294 0,-0.40338 -0.0365,-0.14585 -0.15415,-0.26077 -0.20169,-0.40339 -0.10475,-0.31424 0,-1.27894 0,-1.61354 0,-1.00847 0,-2.01693 0,-3.02539 0,-0.78624 0.12338,-2.08343 0,-2.8237 -0.16745,-1.00471 -0.0454,0.54465 -0.20169,-0.70593 -0.0597,-0.47791 -0.0949,-0.93107 -0.2017,-1.41185 -0.0908,-0.40843 -0.32388,-0.81266 -0.40338,-1.21016 -0.0975,-0.48776 -0.0815,-1.13264 -0.2017,-1.61354 -0.0165,-0.0659 -0.15211,-0.45466 -0.20169,-0.50423 -0.0238,-0.0238 -0.0771,0.0238 -0.10084,0 -0.0515,-0.0515 -0.3464,-0.79363 -0.40339,-0.90762 -0.12782,-0.25563 -0.48633,-0.29359 -0.70593,-0.40339 -0.26047,-0.13023 -0.25661,-0.3536 -0.60507,-0.40338 -0.0954,-0.0136 -1.58223,0.0313 -1.61355,0 -0.0238,-0.0238 0.0238,-0.0771 0,-0.10085 -0.0531,-0.0532 -0.14854,-0.0477 -0.20169,-0.10084 -0.0713,-0.0713 0,-0.2017 0,-0.30254 0,-0.90418 0.30155,-1.66249 0.80677,-2.42032 0.1194,-0.17909 0.28931,-0.3217 0.40339,-0.50423 0.11261,-0.18019 0.14077,-0.62401 0.20169,-0.80677 0.0755,-0.22642 0.18747,-0.27409 0.30254,-0.50423 0.11352,-0.22704 0,-1.33354 0,-1.61355 0,-1.24377 0,-2.48754 0,-3.73131 0,-0.94124 0,-1.88247 0,-2.8237 0,-0.34842 0.083,-0.77719 0,-1.10931 -0.0543,-0.217139 -0.15509,-0.372063 -0.20169,-0.605083 -0.0132,-0.06593 0.0475,-0.154154 0,-0.201693 -0.20448,-0.204475 -0.47062,-0.336155 -0.70593,-0.504232 z"
       id="path47" />
    <path
       style="fill:#000000;fill-opacity:1;stroke-width:1.00157;paint-order:stroke fill markers"
       d="m 935.29137,97.97883 c 0.19015,0.332776 0.43949,0.638129 0.57047,0.998329 0.065,0.178709 -0.0236,0.381784 0,0.570473 0.0243,0.194497 0.12097,0.375663 0.14262,0.570478 0.11629,1.04659 -0.20776,2.24142 0,3.28022 0.14968,0.74843 0.32054,2.28328 0.14262,2.99498 -0.0258,0.10313 -0.0951,0.19016 -0.14262,0.28524 -0.0475,0.2377 -0.10277,0.47399 -0.14262,0.71309 -0.0377,0.22601 0.0714,0.4988 0,0.7131 -0.13932,0.41795 -0.18061,0.34221 -0.42786,0.71309 -0.1604,0.2406 -0.0512,0.58138 -0.14261,0.85571 -0.0828,0.24839 -0.40913,0.89893 -0.57048,1.14094 -0.21177,0.31766 -0.421,0.48204 -0.57047,0.85572 -0.19826,0.49563 -0.12274,1.08131 -0.28524,1.5688 -0.16256,0.48767 -0.11829,0.10613 -0.42785,0.57047 -0.0299,0.0448 -0.12084,0.88941 -0.14262,0.99833 -0.0475,0.19016 -0.0951,0.38032 -0.14262,0.57047 -0.0475,0 -0.109,-0.0336 -0.14262,0 -0.0575,0.0575 -0.41407,1.86783 -0.28524,1.99666 0.0672,0.0672 0.19504,-0.0301 0.28524,0 0.2255,0.0752 0.25978,0.4024 0.42786,0.57047 0.1386,0.1386 0.38848,0.0698 0.57047,0.14262 0.28795,0.11518 0.75931,0.37926 0.99833,0.57048 0.15749,0.12599 0.2549,0.32408 0.42785,0.42785 0.0815,0.0489 0.2002,-0.0425 0.28524,0 0.0965,0.0482 0.14262,0.55639 0.14262,0.71309 0,1.99028 0.10314,4.02388 -0.14262,5.98998 -0.0942,0.754 -0.46564,1.40546 -0.57047,2.13927 -0.0924,0.64715 -0.006,1.4385 -0.28524,1.99666 -0.0951,0.19016 0.0951,0.52293 0,0.71309 -0.0766,0.15331 -0.20858,0.27455 -0.28524,0.42786 -0.12843,0.25687 0.0793,0.72078 0,0.99832 -0.0584,0.20443 -0.20627,0.37308 -0.28523,0.57048 -0.0731,0.18282 0,0.68647 0,0.85571 0,1.30183 -0.084,2.07482 0.71309,3.1376 0.0499,0.0665 0.40492,0.69016 0.42785,0.71309 0.21229,0.21229 1.06781,0.4242 1.14095,0.57048 0.39777,0.79554 -0.72597,1.45193 -0.99833,1.99666 -0.11311,0.22621 -0.27263,0.66168 -0.42785,0.85571 -0.21,0.26249 -0.56276,0.41242 -0.71309,0.71309 -0.0877,0.17531 -0.055,0.39515 -0.14262,0.57047 -0.0909,0.18179 -0.36502,0.38195 -0.42786,0.57047 -0.0301,0.0902 0.0231,0.193 0,0.28524 -0.0664,0.26577 -0.35211,0.48585 -0.42785,0.71309 -0.0713,0.21393 0.0713,0.49917 0,0.7131 -0.15059,0.45176 -0.89159,1.35442 -0.57048,1.99665 0.23549,0.47098 0.62368,0.16036 0.99833,0.28524 0.25013,-0.0649 0.27031,0.21772 0.42786,0.28524 0.27635,0.11843 0.58678,0.15077 0.85571,0.28523 0.0425,0.0213 0,0.0951 0,0.14262 0.0475,0.0475 0.0788,0.12136 0.14262,0.14262 0.0902,0.0301 0.20019,-0.0425 0.28523,0 0.0425,0.0213 -0.0264,0.10306 0,0.14262 0.38184,0.57276 0.28524,0.15151 0.28524,0.99833 0,1.47372 0,2.94744 0,4.42117 0,0.45695 0.0734,0.98557 0,1.42618 -0.0111,0.0663 -0.11255,0.0825 -0.14262,0.14262 -0.18638,0.37275 0.11547,1.02205 0,1.42618 -0.0584,0.20443 -0.20628,0.37308 -0.28524,0.57048 -0.053,0.13241 0.028,0.288 0,0.42785 -0.1,0.49988 -0.2603,0.63831 -0.42785,1.14095 -0.0902,0.12798 0.0451,0.29255 0,0.42785 -0.004,0.0121 -0.53233,0.83029 -0.14262,0.57048 0.76939,-0.51293 -0.0982,-0.0444 0.42786,-0.57048 0.0336,-0.0336 0.10009,0.0213 0.14261,0 0.2298,-0.1149 0.74082,-0.62591 0.85571,-0.85571 0.17564,-0.35126 -0.41398,0.12875 0.14262,-0.42785 0.15519,-0.15518 0.18632,0.25308 0.28524,-0.14262 0.0346,-0.13836 -0.0451,-0.29256 0,-0.42786 0.1576,-0.47278 0.55793,-0.96069 0.71309,-1.42618 0.16958,-0.50872 0.12705,-1.09423 0.28524,-1.5688 0.17804,-0.53412 0.54103,-0.8534 0.71309,-1.28357 0.0993,-0.24828 0.13512,-0.91577 0.28524,-1.14094 0.0746,-0.11188 0.2251,-0.16497 0.28523,-0.28524 0.15333,-0.30665 -0.043,-2.12582 -0.14261,-2.42451 -0.17719,-0.53155 -1.3385,-3.16507 -1.85404,-3.42284 -0.25111,-0.12556 -0.61537,-0.0224 -0.85571,-0.14262 -0.15483,-0.0774 -1.06112,-0.77588 -1.14095,-0.85571 -0.24971,-0.24971 0.46687,-0.75659 0.57047,-0.99833 0.11844,-0.27636 0.11846,-0.60554 0.28524,-0.85571 0.0746,-0.11188 0.2251,-0.16497 0.28524,-0.28524 0.0425,-0.085 -0.0425,-0.20019 0,-0.28524 0.0601,-0.12026 0.20456,-0.17766 0.28523,-0.28523 0.35506,-0.47341 0.69145,-1.05733 0.99833,-1.5688 0.21736,-0.36227 0.33641,-0.78985 0.57048,-1.14095 0.11258,-0.16888 0.36616,-0.3854 0.42785,-0.57048 0.0765,-0.22951 0.0873,-1.3112 -0.14262,-1.42618 -0.27619,-0.1381 -0.76446,-0.19399 -0.99833,-0.42785 -0.0672,-0.0672 0.0231,-0.193 0,-0.28524 -0.19863,-0.79454 -0.0242,-0.10768 -0.42785,-0.71309 -0.10955,-0.16432 0.0889,-0.5352 0,-0.71309 -0.0213,-0.0425 -0.109,0.0336 -0.14262,0 -0.0968,-0.0968 0.0653,-0.43996 0,-0.57048 -0.2645,-0.529 -0.22885,-1.25704 -0.42786,-1.85404 -0.10753,-0.32262 -0.094,-2.57037 0,-2.85237 0.0974,-0.29209 0.21097,-0.55862 0.28524,-0.85571 0.0419,-0.16755 -0.0769,-0.55926 0,-0.71309 0.0601,-0.12026 0.25607,-0.15397 0.28524,-0.28523 0.0722,-0.32486 -0.0331,-0.66721 0,-0.99833 0.0695,-0.69552 0.15082,-0.17544 0.28523,-0.71309 0.0461,-0.18449 -0.0373,-0.38401 0,-0.57048 0.11771,-0.58853 0.31329,-1.13859 0.42786,-1.71142 0.0466,-0.23308 -0.0752,-0.48759 0,-0.71309 0.0672,-0.20169 0.20628,-0.37308 0.28524,-0.57047 0.16081,-0.40203 0,-2.73251 0,-3.28023 0,-0.32255 0.075,-0.92335 -0.14262,-1.14094 -0.0672,-0.0672 -0.21801,0.0672 -0.28524,0 -0.0752,-0.0752 -0.0675,-0.21007 -0.14262,-0.28524 -0.1063,-0.1063 -0.31046,-0.0487 -0.42785,-0.14262 -0.1575,-0.126 -0.2665,-0.30684 -0.42786,-0.42785 -0.15133,-0.1135 -0.40958,-0.0622 -0.57047,-0.14262 -0.4205,-0.21025 -1.12966,-0.61562 -0.99833,-1.14095 0.13111,-0.52444 0.43671,-1.03376 0.57047,-1.5688 0.12313,-0.4925 0.0196,-1.07672 0.14262,-1.5688 0.13039,-0.52157 0.33482,-0.95487 0.57048,-1.42619 0.0425,-0.085 -0.0489,-0.20371 0,-0.28524 0.12229,-0.20382 0.32155,-0.35787 0.42785,-0.57047 0.0699,-0.13971 -0.0308,-0.55911 0,-0.71309 0.33182,-1.65907 -0.0683,1.33403 0.28524,-1.14095 0.0269,-0.18824 -0.0522,-0.38763 0,-0.57047 0.0703,-0.24616 0.2149,-0.46694 0.28523,-0.71309 0.0911,-0.31887 0,-0.81421 0,-1.14095 0,-0.99833 0,-1.99666 0,-2.99499 0,-0.35551 0.15868,-3.042209 0,-3.280219 -0.40578,-0.608683 -1.36087,-1.28871 -1.85403,-1.711421 z"
       id="path48" />
    <path
       style="display:inline;fill:#fe8bc6;stroke-width:1.00157;paint-order:stroke fill markers"
       d="m 415.28559,91.366863 -0.60508,72.811117 3.83216,-0.60507 -0.60508,-10.68973 0.2017,-60.104467 z"
       id="path57" />
    <path
       style="fill:#fe8bc6;stroke-width:1.00157;paint-order:stroke fill markers"
       d="m 154.69842,84.10592 4.03386,10.286336 3.22708,10.488024 -0.80677,8.6728 -1.81523,13.9168 -2.42032,13.71512 0.80677,16.53881 -0.20169,12.70665 0.20169,3.22709 4.03386,-3.22709 -1.21016,-5.84909 -0.20169,-14.92527 0.40339,-10.68972 4.23555,-27.83362 -2.01693,-12.504954 -1.61355,-5.244014 -3.02539,-8.672793 z"
       id="path58" />
    <path
       style="fill:#fe8bc6;stroke-width:1.00157;paint-order:stroke fill markers"
       d="m 670.30641,85.143176 0.14262,9.270195 -0.28524,15.973259 0.42786,9.41281 3.56546,26.66964 -2.42452,15.26017 -3.28022,10.26852 2.13928,-0.42785 2.85237,-8.98496 2.85236,-14.83231 -0.99833,-7.55878 -2.85236,-21.39276 c 0,0 -0.42786,-1.42618 -0.42786,-8.41448 0,-6.9883 0.28524,-20.251811 0.28524,-20.251811 z"
       id="path59" />
    <path
       style="fill:#fe8bc6;stroke-width:1.00157;paint-order:stroke fill markers"
       d="m 926.37528,92.980406 -0.20169,46.389354 v 24.80822 l 2.42031,-4.23555 -0.60508,-22.5896 c 0,0 0.80678,-22.3879 0.80678,-24.40483 0,-2.01693 0.20169,-17.54728 0.20169,-17.54728 z"
       id="path60" />
  </g>
</svg>
