<?xml version="1.0" encoding="UTF-8" standalone="no"?>
<!-- Created with Inkscape (http://www.inkscape.org/) -->

<svg
   version="1.1"
   id="svg1"
   width="2048"
   height="256"
   viewBox="0 0 2048 256"
   sodipodi:docname="EnemyPunchFX.svg"
   xml:space="preserve"
   inkscape:version="1.4 (86a8ad7, 2024-10-11)"
   xmlns:inkscape="http://www.inkscape.org/namespaces/inkscape"
   xmlns:sodipodi="http://sodipodi.sourceforge.net/DTD/sodipodi-0.dtd"
   xmlns="http://www.w3.org/2000/svg"
   xmlns:svg="http://www.w3.org/2000/svg"><defs
     id="defs1" /><sodipodi:namedview
     id="namedview1"
     pagecolor="#ffffff"
     bordercolor="#000000"
     borderopacity="0.25"
     inkscape:showpageshadow="2"
     inkscape:pageopacity="0.0"
     inkscape:pagecheckerboard="0"
     inkscape:deskcolor="#d1d1d1"
     showgrid="true"
     inkscape:zoom="0.38818359"
     inkscape:cx="1058.7774"
     inkscape:cy="-32.201258"
     inkscape:window-width="1920"
     inkscape:window-height="991"
     inkscape:window-x="-9"
     inkscape:window-y="-9"
     inkscape:window-maximized="1"
     inkscape:current-layer="svg1"><inkscape:grid
       id="grid1"
       units="px"
       originx="0"
       originy="0"
       spacingx="256"
       spacingy="256"
       empcolor="#0099e5"
       empopacity="0.30196078"
       color="#0099e5"
       opacity="0.14901961"
       empspacing="5"
       enabled="true"
       visible="true" /></sodipodi:namedview><g
     inkscape:groupmode="layer"
     id="layer1"
     inkscape:label="Image 1"><path
       style="fill:#fdb4d9;fill-opacity:1;stroke-width:1.00157;paint-order:stroke fill markers"
       d="m 52.48805,187.73333 2.254088,25.439 -16.100629,11.91446 h 21.896856 l 18.032704,-2.89811 21.574841,-5.79623 c 0,0 5.1522,-3.22012 9.01635,-4.50817 3.86416,-1.28805 20.93082,-7.08428 22.21887,-7.40629 1.28805,-0.32202 16.74466,-3.22013 16.74466,-3.22013 l 8.37232,5.1522 c 0,0 7.40629,1.61007 10.94843,0.96604 3.54214,-0.64402 12.23648,-1.93207 16.10063,-3.54214 3.86415,-1.61006 18.67673,-10.62641 21.57484,-12.23648 2.89812,-1.61006 15.77862,-19.96478 15.77862,-19.96478 0,0 7.40629,-11.27044 7.40629,-14.49056 0,-3.22013 1.61006,-5.1522 0,-8.05032 -1.61006,-2.89811 -14.16856,-7.7283 -14.16856,-7.7283 l -16.10062,-1.28805 -2.89812,2.5761 1.93208,3.86415 1.28805,1.28805 -5.1522,4.18617 c 0,0 -2.89812,-2.89812 -4.18617,-3.54214 -1.28805,-0.64403 -4.83019,-1.61006 -7.7283,-1.28805 -2.89811,0.32201 -11.59245,3.54214 -11.59245,3.54214 l -12.55849,9.01635 -2.5761,13.20251 -0.64403,4.50818 c 0,0 -18.0327,3.86415 -20.93082,3.86415 -2.89811,0 -38.641504,-0.32201 -38.641504,-0.32201 l -43.471699,-2.25409 -19.320754,-1.61006 z"
       id="path1" /><path
       style="fill:#fdb4d9;fill-opacity:1;stroke-width:1.00157;paint-order:stroke fill markers"
       d="M 37.353459,89.519497 C 40.251572,86.943396 76.316981,62.47044 76.316981,62.47044 c 0,0 59.572329,-13.846541 61.504399,-13.846541 1.93208,0 21.25283,-1.28805 21.25283,-1.28805 0,0 7.08428,12.880503 8.37233,14.168554 1.28805,1.28805 10.94843,11.27044 12.23648,11.27044 1.28805,0 21.89685,-5.796227 21.89685,-5.796227 0,0 26.40504,-5.474213 28.65912,-7.084276 2.25409,-1.610063 11.59246,-14.812579 11.59246,-14.812579 L 238.61132,34.455346 212.20629,20.930818 186.7673,15.134591 161.65031,20.608805 c 0,0 -10.62641,3.220126 -22.86289,4.186164 -12.23648,0.966037 -64.724527,3.86415 -64.724527,3.86415 l -52.48805,11.592453 -4.830189,4.508176 42.183648,-1.932075 4.508176,9.338365 z"
       id="path2" /><path
       style="fill:#fdb4d9;fill-opacity:1;stroke-width:1.00157;paint-order:stroke fill markers"
       d="m 295.60755,124.29686 40.25157,-13.84655 c 0,0 45.72579,-4.18616 47.33585,-4.83018 1.61006,-0.64403 61.82641,-4.50818 61.82641,-4.50818 l 15.13459,-14.168554 8.37233,-1.932075 3.86415,2.898113 8.69434,-6.440252 13.52453,1.932076 4.50818,8.372327 v 9.660375 l -5.1522,8.05032 c 0,0 -13.52453,6.44025 -15.1346,6.76226 -1.61006,0.32201 -15.13459,3.86415 -16.74465,3.86415 -1.61006,0 -11.59245,-1.93207 -11.59245,-1.93207 l -9.33837,-2.5761 -50.55597,18.35471 -71.48679,18.99874 36.38742,-17.71069 -3.54214,-12.8805 z"
       id="path3" /><path
       style="fill:#fdb4d9;fill-opacity:1;stroke-width:1.00157;paint-order:stroke fill markers"
       d="m 807.86994,66.032211 49.18261,0.455394 26.86828,2.276973 c 0,0 19.12657,-4.553946 21.40355,-4.553946 2.27697,0 18.67117,5.00934 18.67117,5.00934 l 10.47408,10.018681 -1.36619,10.474074 -20.94814,1.821579 0.45539,3.643156 c 0,0 -0.45539,4.553946 -3.64316,1.366184 -3.18776,-3.187762 -16.8496,-6.830919 -16.8496,-6.830919 l -10.92946,-0.455394 -42.80709,0.910789 -41.44091,7.741707 32.33302,-16.849598 v -5.920129 z"
       id="path4" /><path
       style="fill:#fdb4d9;fill-opacity:1;stroke-width:1.00157;paint-order:stroke fill markers"
       d="m 869.8036,222.91564 78.55556,-86.98037 4.55395,-14.57262 6.14783,-8.1971 c 0,0 2.27697,-0.91079 2.27697,-2.04928 0,-1.13848 3.18776,-13.434138 3.18776,-13.434138 l 10.92947,-15.02802 15.93881,0.455394 11.38485,12.295653 c 0,0 0.4554,8.197101 0.4554,9.107891 0,0.91079 -6.60321,21.63124 -6.60321,21.63124 0,0 -14.34493,16.6219 -15.71112,17.0773 -1.36618,0.45539 -22.31433,8.65249 -22.31433,8.65249 l -54.64735,77.41708 7.05862,-22.76973 -4.55395,-10.92947 z"
       id="path5" /><path
       style="fill:#fdb4d9;fill-opacity:1;stroke-width:1.00157;paint-order:stroke fill markers"
       d="m 1100.6886,209.2538 40.5302,-35.52078 1.3661,-17.30499 -53.0534,3.87085 c 0,0 71.9523,-17.07729 74.9124,-17.30499 2.96,-0.2277 35.2931,-5.92013 35.2931,-5.92013 l 9.5632,-10.70177 16.3942,-6.83092 17.305,3.87085 4.0986,5.69244 -1.1385,6.37552 -5.6924,4.78164 -3.4155,1.36619 -0.6831,8.1971 -5.0093,7.51401 -13.2065,4.78164 -20.265,2.04928 -11.6126,1.36618 -53.5088,28.46216 z"
       id="path6" /><path
       style="fill:#fdb4d9;fill-opacity:1;stroke-width:1.00157;paint-order:stroke fill markers"
       d="m 1585.2284,64.666027 31.4223,5.464735 46.4502,4.553945 34.1546,-3.187762 c 0,0 16.3942,0.455395 19.1266,1.366184 2.7323,0.910789 13.6618,0.910789 13.6618,0.910789 l 4.554,-5.00934 0.9108,-4.553946 18.2157,-9.563285 2.7324,-6.830919 -3.6432,-7.286313 c 0,0 -10.474,-7.741707 -13.2064,-7.741707 -2.7324,0 -24.1359,3.187762 -24.1359,3.187762 l -12.7511,6.375524 -12.2956,-5.92013 -18.2158,-5.464734 -36.887,-2.732368 -34.6099,-4.553945 38.2531,19.581966 0.9108,16.849598 z"
       id="path7" /><path
       style="fill:#fdb4d9;fill-opacity:1;stroke-width:1.00157;paint-order:stroke fill markers"
       d="m 1579.3083,186.71177 49.1826,-6.83092 38.2532,-5.92013 9.5633,-6.83092 v -10.92947 c 0,0 2.2769,-10.01868 5.0093,-10.01868 2.7324,0 12.2957,-2.27697 12.2957,-2.27697 l 6.8309,-1.82158 c 0,0 6.3755,-3.64316 8.6525,-3.64316 2.2769,0 18.2158,0.91079 18.2158,0.91079 l 5.4647,12.75105 5.0093,15.93881 -4.0985,6.37552 c 0,0 -31.8776,9.56329 -35.0654,10.92947 -3.1878,1.36619 -14.1172,8.6525 -17.7604,10.01868 -3.6432,1.36619 -51.4596,26.41289 -51.4596,26.41289 l -22.3143,2.27697 -26.8683,2.27697 54.192,-36.43156 c 0,0 0.4554,-4.09855 -1.3662,-4.09855 -1.8216,0 -53.7366,0.91079 -53.7366,0.91079 z"
       id="path8" /><path
       style="fill:#fdb4d9;fill-opacity:1;stroke-width:1.00157;paint-order:stroke fill markers"
       d="m 56.352201,183.86918 c -2.686788,1.46552 -1.760576,1.13222 -5.796226,2.09308 -23.031163,5.48361 7.04574,-2.03623 -24.31195,4.66919 -3.640999,0.77858 -7.222319,1.82428 -10.787421,2.89811 -0.897458,0.27032 -1.705854,0.77895 -2.576101,1.12704 -0.205455,0.0822 -0.785686,-0.009 -0.644025,0.16101 0.353736,0.42448 0.908639,0.68986 1.449057,0.80503 2.761593,0.58854 5.553477,1.12417 8.372327,1.28805 44.273147,2.57402 -0.760301,-1.44134 32.040251,0.96604 1.619954,0.1189 3.222203,0.41431 4.830189,0.64402 0.270908,0.0387 0.718493,-0.0986 0.805031,0.16101 0.0759,0.2277 -0.411783,0.26143 -0.644025,0.32201 -2.242065,0.58489 -4.50091,1.10487 -6.762264,1.61007 -1.799438,0.402 -13.124146,2.77776 -15.456604,3.22012 -0.745698,0.14143 -1.517758,0.13793 -2.254088,0.32201 -0.312398,0.0781 0.646697,0.0414 0.966038,0 2.581749,-0.33467 5.139256,-0.85451 7.728302,-1.12704 0.32598,-0.0343 13.805066,-1.00751 14.490566,-0.32201 0.05367,0.0537 -0.09008,0.13398 -0.161006,0.161 -1.062719,0.40485 -2.152136,0.73632 -3.220126,1.12705 -4.183311,1.53048 -2.848419,1.11843 -7.245283,2.89811 -0.718179,0.29069 -4.004012,1.26691 -4.830189,2.09308 -0.03795,0.0379 0.107338,0 0.161006,0 0.966038,0 1.932076,0 2.898114,0 1.932075,0 3.864151,0 5.796226,0 6.815933,0 13.631866,0 20.447799,0 0.214675,0 -0.430572,-0.0229 -0.644025,0 -2.793305,0.29929 -5.597205,0.52922 -8.372327,0.96604 -3.02563,0.47626 -6.010902,1.18071 -9.016353,1.77107 -0.935586,0.18378 -12.043477,2.33732 -14.490566,2.89811 -2.355579,0.53982 -4.696927,1.28007 -6.92327,2.25409 -0.213542,0.0934 -1.579033,0.61349 -0.644025,0.48302 5.30764,-0.7406 13.164276,-2.06317 18.032704,-2.25409 9.868051,-0.38698 19.749816,-0.24575 29.625157,-0.32201 4.025038,-0.0311 8.050315,0 12.075472,0 1.985744,0 3.971489,0 5.957233,0 0.536687,0 1.073375,0 1.610063,0 0.161006,0 0.393708,0.13397 0.483019,0 0.347693,-0.52154 0.161006,-2.12748 0.161006,-2.25409 0,-0.9597 0.02915,-1.74827 -0.161006,-2.7371 -0.667133,-3.4691 -0.815036,-1.52211 -1.127044,-5.47422 -0.205878,-2.60778 0,-5.5642 0,-8.21132 0,-0.4993 0.05276,-1.74469 0,-1.77107 -0.394576,-0.19729 -2.30312,0.009 -2.576101,0 -1.07412,-0.0358 -2.157641,6.8e-4 -3.220126,-0.161 -1.415763,-0.21545 -2.783024,-0.67969 -4.186163,-0.96604 -1.227607,-0.25053 -2.473549,-0.40345 -3.703145,-0.64403 -3.34694,-0.65483 -6.620863,-1.51351 -9.98239,-2.09308 -1.329918,-0.2293 -2.684459,-0.65606 -4.025157,-0.80503 -1.325357,-0.14726 -2.699801,0.14726 -4.025157,0 -0.596366,-0.0663 -1.182687,-0.20434 -1.77107,-0.32201 -2.133814,-0.42677 -3.728191,-0.90522 -5.63522,-1.93208 -0.65647,-0.35348 -1.243838,-0.84028 -1.932075,-1.12704 -0.36066,-0.15028 -0.759853,-0.18849 -1.127044,-0.32202 -2.20617,-0.80224 0.675581,0.12853 -1.127044,-0.64402 -0.210196,-0.0901 -0.661614,-0.0352 -0.805032,-0.32201 -0.232747,-0.4655 0.288005,-1.62006 0.483019,-1.93208 0.120679,-0.19309 0.346401,-0.30086 0.483019,-0.48302 0.199877,-0.2665 -0.320618,-0.0812 0.161006,-0.32201 0.196749,-0.0984 1.315092,-0.10941 1.288051,0.16101 -0.04836,0.48358 -0.107338,0.96603 -0.161007,1.44905 z"
       id="path9" /><path
       style="fill:#fdb4d9;fill-opacity:1;stroke-width:1.00157;paint-order:stroke fill markers"
       d="m 58.284277,38.641509 c -8.332688,7.326049 -17.669378,13.376026 -26.083019,20.608805 -2.590639,2.227041 -4.990599,4.668587 -7.406289,7.084277 -0.806819,0.806819 -1.49604,1.723297 -2.254088,2.576101 -0.10085,0.113455 -0.468462,0.361953 -0.322013,0.322012 3.871654,-1.055905 6.021979,-2.279986 9.98239,-3.864151 3.849524,-1.539809 7.713926,-3.042954 11.592453,-4.508176 0.952585,-0.359865 1.922765,-0.673433 2.898113,-0.966037 0.102811,-0.03084 0.27401,-0.09601 0.322012,0 0.433376,0.86675 -0.911698,1.300125 -1.28805,1.610063 -1.411005,1.162004 -2.767511,2.389483 -4.186163,3.542138 -3.083454,2.505306 -6.03268,5.202499 -9.338365,7.406289 -0.48095,0.320634 -1.723424,1.210831 -1.610063,0.644025 0.194077,-0.970385 1.162222,-1.632283 1.932075,-2.254088 2.038551,-1.646521 4.156338,-3.223474 6.440252,-4.508176 6.590547,-3.707183 13.779469,-6.338666 21.25283,-7.406289 0.318776,-0.04554 0.998079,-0.320415 0.966038,0 -0.330399,3.303993 -2.737998,5.691264 -3.864151,8.69434 -0.03769,0.100503 -0.0759,0.397911 0,0.322012 0.169716,-0.169715 0.180843,-0.449917 0.322013,-0.644025 1.578322,-2.170193 3.047409,-4.434625 4.830188,-6.440252 1.664776,-1.872873 3.646125,-3.438368 5.474214,-5.152201 2.51397,-2.356847 5.183256,-5.060471 8.050315,-7.084277 2.616743,-1.847113 1.425588,-0.904546 3.542138,-1.610063 0.326269,-0.108756 1.373464,-0.729439 1.610063,-0.966037 0.169715,-0.169716 0.130001,-0.500017 0.322012,-0.644025 0.271545,-0.203659 0.683614,-0.133731 0.966038,-0.322013 0.520764,-0.347176 -0.378747,-1.393693 -0.966038,-1.610063 -3.105325,-1.144067 -5.061461,-0.966038 -8.050314,-0.966038 -2.161521,0 -4.347565,0.09652 -6.440252,-0.322012 -2.912705,-0.582541 0.87466,-0.03046 -0.966037,-0.644025 -0.979445,-0.326482 -5.982581,0 -7.40629,0 -0.374811,0 -1.374875,0.1374 -1.28805,-0.644026 0.09027,-0.812458 0.644025,-1.502725 0.966038,-2.254088 z"
       id="path10" /><path
       style="fill:#fdb4d9;fill-opacity:1;stroke-width:1.00157;paint-order:stroke fill markers"
       d="m 355.20775,114.30403 c -0.75899,1.06259 -1.16964,2.49568 -2.27697,3.18777 -2.65372,1.65857 -5.76954,2.4259 -8.6525,3.64315 -12.35886,5.21819 -10.09649,4.51975 -21.85893,8.6525 -2.26444,0.79561 -4.54219,1.55421 -6.83092,2.27697 -0.59683,0.18847 -1.20786,0.33265 -1.82158,0.4554 -0.14885,0.0298 -0.4554,-0.1518 -0.4554,0 0,1.77675 3.2623,1.49805 5.00934,1.82157 5.54725,1.02727 9.85246,1.84383 15.48342,2.27698 1.36216,0.10478 2.80247,-0.43203 4.09855,0 0.87597,0.29199 -1.82158,0.30359 -2.73237,0.45539 -1.82158,0.3036 -3.63423,0.66672 -5.46473,0.91079 -0.59329,0.0791 -2.77554,0.19532 -1.82158,0.91079 1.50594,1.12946 4.39015,1.60301 5.92013,1.82158 0.90163,0.1288 1.91773,-0.40732 2.73237,0 1.8364,0.9182 -2.95093,0.47367 -2.27698,1.82158 0.13578,0.27154 0.61133,0.0499 0.91079,0 1.52698,-0.2545 3.03325,-0.62114 4.55395,-0.91079 6.03194,-1.14894 8.4004,-1.19897 15.02802,-4.09855 3.71241,-1.62418 10.75383,-7.84583 12.75105,-11.84026 1.19467,-2.38934 -3.57685,-5.39842 -4.55395,-6.37553 -0.83833,-0.83833 -1.56562,-1.7839 -2.27697,-2.73236 -0.65678,-0.87571 -0.81115,-2.31136 -1.82158,-2.73237 -1.12969,-0.47071 -2.84669,1.3846 -3.64316,0.45539 -0.81463,-0.9504 0.91079,-2.39139 0.91079,-3.64315 0,-0.3036 -0.60719,0 -0.91079,0 -0.91079,0 -1.82157,0 -2.73236,0"
       id="path11" /><path
       style="fill:#fdb4d9;fill-opacity:1;stroke-width:1.00157;paint-order:stroke fill markers"
       d="m 559.22451,212.66926 c 4.54515,-7.73712 13.05165,-10.60404 20.49276,-14.57263 7.91024,-4.21879 5.20408,-3.71143 12.75105,-7.28631 1.73528,-0.82197 3.68195,-1.10847 5.46473,-1.82158 6.07127,-2.4285 12.15259,-4.81612 18.21578,-7.28631 5.14527,-2.09622 10.17429,-5.19734 15.48342,-6.83092 0.88252,-0.27155 1.84796,-0.19007 2.73237,-0.4554 2.78539,-0.83561 5.38619,-2.94042 8.1971,-3.64315 1.17813,-0.29453 2.45235,0.23816 3.64315,0 0.94142,-0.18828 1.80098,-0.67794 2.73237,-0.91079 4.22458,-1.05615 8.47965,-1.56507 12.75105,-2.27697 3.37813,-0.56302 6.66594,-1.57849 10.01868,-2.27698 4.0099,-0.83539 7.9761,-1.44431 11.84026,-2.73236 1.21495,-0.40499 2.9132,0.47414 4.09855,0 0.5842,-0.23368 1.23738,-1.13251 1.82158,-1.36619 1.16223,-0.46489 2.52355,-0.35098 3.64315,-0.91079 0.38403,-0.19201 0.51215,-0.75133 0.91079,-0.91079 0.56377,-0.2255 1.31637,0.33681 1.82158,0 0.35724,-0.23816 0.54263,-0.68989 0.91079,-0.91078 0.54821,-0.32893 2.74117,-0.76193 3.18776,-0.91079 1.5572,-0.51907 0.33888,-0.37772 1.82158,-1.36619 0.37891,-0.2526 0.91079,0 1.36618,0 0.3036,0 -0.60719,0 -0.91078,0 -1.06259,0 -2.12954,-0.0962 -3.18777,0 -3.60245,0.3275 -4.08304,0.53467 -7.7417,1.36619 -3.51848,0.79965 -6.9518,1.94963 -10.47408,2.73236 -4.6187,1.02638 -9.49189,1.24912 -14.11723,2.27698 -2.15758,0.47946 -4.20823,1.38812 -6.37552,1.82157 -34.27638,4.89663 8.04944,-1.65723 -15.48342,3.18777 -1.01966,0.20993 -11.78347,1.52604 -14.57262,2.27697 -7.35559,1.98035 -14.13476,5.56107 -21.40355,7.74171 -5.75454,1.72636 -11.92132,2.29568 -17.76039,3.64315 -1.79941,0.41525 -3.6831,0.42489 -5.46473,0.91079 -5.65887,1.54333 -10.12026,5.17694 -15.02802,8.1971 -1.06259,0.6072 -2.12518,1.21439 -3.18776,1.82158 -0.75899,0.3036 -1.56239,0.5138 -2.27698,0.91079 -5.11033,2.83908 0.65525,-0.0906 -2.73236,2.73237 -0.52152,0.4346 -1.29148,0.48671 -1.82158,0.91079 -1.08412,0.86729 -2.93193,5.55175 -3.18776,6.83092 -0.18767,0.93834 0.26277,2.26805 0,3.18776 -0.1865,0.65274 -0.69612,1.17755 -0.91079,1.82158 -0.72703,2.18108 -0.91079,5.02327 -0.91079,7.28631"
       id="path12" /><path
       style="fill:#fdb4d9;fill-opacity:1;stroke-width:1.00157;paint-order:stroke fill markers"
       d="m 723.56226,134.27925 c 0,2.46876 0,4.93752 0,7.40628 0,1.23439 0.15632,2.4787 0,3.70315 -0.16812,1.317 -0.69404,2.56462 -0.96603,3.86415 -0.21149,1.01044 -0.28056,2.04683 -0.48302,3.05912 -0.27475,1.37372 -1.30265,5.04419 -2.09308,6.27925 -0.7537,1.17765 -2.78287,3.65982 -4.02516,4.66918 -0.45055,0.36607 -1.0083,0.58824 -1.44906,0.96604 -0.31825,0.27279 -0.53669,0.64402 -0.80503,0.96603 -0.59036,0.48302 -1.17238,0.97641 -1.77107,1.44906 -0.42124,0.33255 -0.86897,0.63077 -1.28805,0.96604 -0.38637,0.3091 -0.70564,0.70671 -1.12704,0.96603 -0.28908,0.1779 -0.66244,0.17022 -0.96604,0.32202 -1.94949,0.97474 0.35033,0.15157 -1.12704,0.64402 -0.25104,0.0837 -0.94696,0.071 -1.12705,0.16101 -0.141,0.0705 0.18871,0.16101 -0.48302,0.16101 -0.21467,0 -0.42935,0 -0.64402,0 -0.0537,0 -0.21468,0 -0.16101,0 1.02232,0 6.14513,-3.68866 6.92327,-4.18617 2.55928,-1.63626 6.96072,-3.9684 9.49937,-6.44025 1.77658,-1.72982 4.59411,-4.79808 6.11824,-7.08428 0.72004,-1.08006 1.30168,-2.24641 1.93208,-3.38113 0.39358,-0.70845 1.65936,-2.76017 1.77107,-3.54214 0.0683,-0.47816 0,-0.96603 0,-1.44905 0,-1.05404 0.0895,-2.30731 0,-3.38114 -0.0542,-0.65065 -0.25705,-1.2824 -0.32202,-1.93207 -0.0214,-0.21361 0.0521,-0.43576 0,-0.64403 -0.10568,-0.42274 -0.70663,-1.66074 -0.96603,-2.09308 -0.0781,-0.13016 -0.25413,-0.18624 -0.32202,-0.32201 -0.048,-0.096 0.0595,-0.2327 0,-0.32201 -0.1684,-0.25261 -0.46756,-0.39698 -0.64402,-0.64403 -0.0987,-0.1381 -0.0592,-0.34724 -0.16101,-0.48302 -0.3134,-0.41787 -1.55583,-0.71097 -1.93207,-0.80503 -0.1562,-0.0391 -0.36917,0.11385 -0.48302,0 -0.038,-0.0379 0.038,-0.12306 0,-0.161 -0.11385,-0.11385 -0.36917,-0.11385 -0.48302,0 -0.12001,0.12 -0.055,0.35049 -0.16101,0.48301 -0.18984,0.23731 -0.674,0.52799 -0.96604,0.96604 -0.0666,0.0999 -0.0419,0.3369 -0.161,0.32201 -0.40557,-0.0507 -0.96604,-0.8587 -1.12705,-0.48301 -0.22769,0.53129 0.50384,1.04929 0.64403,1.61006 0.14318,0.57273 0.0732,1.18527 0,1.77107 -0.29263,2.34105 -0.81093,4.80525 -1.44906,7.08427 -0.56757,2.02704 -1.47274,4.00388 -2.25408,5.95724 -0.74162,1.85402 -1.73899,3.42818 -2.73711,5.1522 -0.51724,0.89341 -0.89482,1.86616 -1.44906,2.73711 -0.49572,0.77899 -1.14032,1.45914 -1.61006,2.25408 -0.23328,0.39478 -0.27795,0.87792 -0.48302,1.28805 -0.29297,0.58595 -0.80889,1.0374 -1.12704,1.61007 -0.0824,0.14835 -0.0624,0.34491 -0.16101,0.48302 -0.17646,0.24704 -0.47562,0.39141 -0.64403,0.64402 -0.0595,0.0893 0.0595,0.2327 0,0.32201 -0.14885,0.22328 -0.47223,0.27687 -0.64402,0.48302 -0.29556,0.35467 -0.47858,0.80059 -0.80503,1.12705 -0.6073,0.60729 -1.38625,1.13883 -2.09308,1.61006 -0.1137,0.0758 -0.64403,0.34744 -0.64403,0.48302 0,0.0537 0.10734,0 0.16101,0 0.161,0 0.32201,0 0.48302,0 1.62639,0 1.37479,0.10413 3.22012,-0.48302 3.34712,-1.06499 4.47257,-4.05515 6.76227,-6.44025 0.65755,-0.68496 1.42168,-1.26068 2.09308,-1.93208 1.55554,-1.55554 3.26277,-3.3256 4.50817,-5.1522 0.57045,-0.83665 1.04837,-1.73355 1.61007,-2.5761 0.19062,-0.28593 0.46189,-0.51362 0.64402,-0.80503 0.22907,-0.3665 0.25317,-1.38058 0.32201,-1.61006 0.0556,-0.18535 0.25015,-0.30336 0.32202,-0.48302 0.30391,-0.75979 0.31072,-1.18544 0.48302,-1.93208 0.50198,-2.17524 0.48301,-3.59502 0.48301,-5.79623 0,-0.59035 0.10561,-1.19023 0,-1.77106 -0.0626,-0.34416 -1.25059,-2.80075 -1.61006,-3.22013 -0.12593,-0.14692 -0.36214,-0.17091 -0.48302,-0.32201 -0.18638,-0.23298 -0.38341,-0.86644 -0.64402,-1.12705 -0.038,-0.0379 -0.11301,0.024 -0.16101,0 -0.24294,-0.12147 -0.34365,-0.22189 -0.64402,-0.32201 -0.23988,-0.08 -0.5706,0.0938 -0.80504,0 -0.44569,-0.17828 -0.8587,-0.42935 -1.28805,-0.64402 z"
       id="path13" /><path
       style="fill:#fdb4d9;fill-opacity:1;stroke-width:1.00157;paint-order:stroke fill markers"
       d="m 551.92956,153.92201 c 7.16664,-3.07142 25.63621,-11.05457 29.62516,-12.23648 107.17262,-31.75485 40.50764,-7.2806 113.99245,-33.16729 19.25744,-6.78387 12.07944,-4.44088 23.50692,-9.338366 0.35271,-0.151161 1.26125,-0.147609 1.61006,-0.322012 0.69231,-0.346153 1.19777,-1.043283 1.93208,-1.288051 0.6194,-0.206468 1.30217,-0.150221 1.93207,-0.322012 1.05434,-0.287547 1.46057,-0.701531 2.25409,-0.966038 1.80683,-0.602278 2.51952,-1.8755 3.86415,-3.220126 0.0905,-0.82541 0.69449,-0.118354 0.96604,-0.322012 1.39581,-1.046857 2.77918,-2.164893 4.18616,-3.220126 0.69411,-0.520579 1.65509,-1.011062 2.25409,-1.610063 0.16972,-0.169716 0.1523,-0.47431 0.32201,-0.644025 0.24002,-0.240014 1.30547,-0.322013 0.96604,-0.322013 -4.36709,0 -8.35117,2.578452 -12.23648,4.186164 -1.69481,0.701303 -3.4492,1.250876 -5.1522,1.932075 -2.05455,0.821821 -4.0001,1.935734 -6.11824,2.576101 -4.24271,1.282681 -13.82135,2.490875 -17.71069,3.220126 -3.55893,0.667299 -7.08811,1.484888 -10.62641,2.254088 -7.83856,1.70403 -15.70768,3.27643 -23.50692,5.1522 -4.53103,1.08974 -9.01636,2.36143 -13.52453,3.54214 -5.47422,1.39539 -10.92986,2.86578 -16.42264,4.18616 -16.35727,3.93204 -33.14927,6.91951 -48.94591,12.88051 -2.42689,0.9158 -4.69363,2.21353 -7.08428,3.22012 -2.84832,1.19929 -5.85372,2.00272 -8.69434,3.22013 -1.10304,0.47273 -2.12349,1.12267 -3.22013,1.61006 -3.34588,1.48706 -2.36998,0.49373 -6.11824,2.5761 -2.9906,1.66145 -5.91641,4.04443 -7.7283,6.76227 -0.13821,0.20732 0.0801,0.72563 0,0.96603 -0.26573,0.79719 -0.36544,1.81001 -0.64402,2.5761 -0.3281,0.90226 -1.09977,1.63469 -1.28805,2.5761 -0.0632,0.31576 0.10183,0.66055 0,0.96604 -0.034,0.10183 -0.21468,0 -0.32202,0 -0.10733,0.32201 -0.23968,0.63674 -0.32201,0.96604 -0.0583,0.23321 -1.01834,4.80679 -0.64402,4.83019 3.31831,0.20739 6.72061,0.0308 9.98239,-0.64403 3.06089,-0.63328 5.96002,-1.92117 9.01635,-2.5761 1.48428,-0.31806 3.03877,-0.26307 4.50817,-0.64402 2.99787,-0.77723 7.70177,-2.83633 10.62642,-4.18617 0.78573,-0.36264 1.43311,-1.01439 2.25409,-1.28805 1.42061,-0.47353 0.51809,0.49697 1.61006,-0.32201 0.24288,-0.18216 0.37248,-0.50825 0.64403,-0.64402 0.39584,-0.19792 0.8587,-0.21468 1.28805,-0.32202 0.64402,-0.42935 1.2757,-0.87782 1.93207,-1.28805 0.65637,-0.41023 1.26836,-0.88982 1.93208,-1.28805 0.092,-0.0552 0.42935,0 0.32201,0 -6.15019,0 -11.71371,2.12977 -17.71069,3.22013 -0.95631,0.17387 -1.94278,0.14289 -2.89812,0.32201 -0.76804,0.14401 -1.50272,0.42935 -2.25408,0.64403 -1.28805,0.21467 -2.57278,0.45032 -3.86415,0.64402 -2.15057,0.32259 -4.05761,0.53873 -6.11824,1.28805 -0.90226,0.32809 -1.67718,0.95095 -2.5761,1.28805 -2.07633,0.77862 -3.7135,1.53474 -5.79623,2.5761 z"
       id="path14" /><path
       style="fill:#fdb4d9;fill-opacity:1;stroke-width:1.00157;paint-order:stroke fill markers"
       d="m 530.99874,60.538365 c 1.07338,-0.42935 2.09858,-1.007665 3.22013,-1.288051 36.6598,-9.164951 74.93878,-7.728301 112.38239,-7.728301 14.91936,0 15.81489,-0.561062 28.3371,0.966037 2.91334,0.355286 5.74181,1.399168 8.69434,1.610063 2.24836,0.160597 4.50885,-0.05496 6.76227,0 5.81938,0.141936 11.57257,0.322013 17.38868,0.322013 2.79077,0 5.58155,0 8.37232,0 0.74967,0 2.11091,0.196802 2.89812,0 0.76003,-0.190008 1.45396,-0.483999 2.25409,-0.644025 0.42101,-0.0842 0.86703,0.0842 1.28805,0 1.8936,-0.378722 3.87123,-1.095552 5.79622,-1.288051 0.0683,-0.0068 5.65413,0.464115 6.44025,-0.322012 0.0759,-0.0759 -0.21467,0 -0.32201,0 -0.64402,0 -1.28805,0 -1.93207,0 -1.61007,0 -3.22013,0 -4.83019,0 -3.4348,0 -6.87833,0.244719 -10.3044,0 -2.48335,-0.177382 -4.92213,-0.800427 -7.40629,-0.966038 -7.80227,-0.520151 -15.69711,0.411043 -23.50692,0 -0.54656,-0.02877 -1.06464,-0.27656 -1.61007,-0.322013 -0.74876,-0.0624 -1.50418,0.04687 -2.25408,0 -2.86622,-0.179138 -4.3419,-0.669483 -7.40629,-0.966037 -1.8194,-0.176071 -3.66116,-0.08957 -5.47422,-0.322013 -8.97747,-1.150958 -5.15461,-1.523228 -14.16855,-2.254088 -3.10261,-0.251563 -6.22558,0 -9.33836,0 -10.19707,0 -20.39413,0 -30.5912,0 -2.002,0 -12.11347,-0.306814 -12.8805,0 -0.4457,0.178278 -0.81735,0.549884 -1.28805,0.644025 -0.63152,0.126304 -1.28905,-0.03572 -1.93208,0 -3.16246,0.175693 -4.61283,0.366909 -7.7283,0.966038 -1.50919,0.290228 -3.00545,0.644025 -4.50818,0.966038 -2.68343,0.322012 -5.38294,0.530548 -8.05031,0.966037 -4.21749,0.68857 -8.35836,1.788576 -12.55849,2.576101 -6.11222,1.14604 -12.32897,1.979907 -18.35472,3.542138 -11.80351,3.06017 4.36675,-0.486934 -9.33836,2.254088 -2.70877,0.541754 -5.32775,0.858171 -8.05032,1.288051 -1.08124,0.170721 -2.14315,0.448211 -3.22012,0.644025 -0.21122,0.0384 -0.79583,0.151798 -0.64403,0 0.92335,-0.923352 2.58814,-0.366631 3.86415,-0.644025 1.22507,-0.266319 6.06614,-1.589223 7.7283,-2.254088 0.0997,-0.03986 -0.21575,-0.01518 -0.32201,0 -2.07781,0.296829 -1.85739,0.257769 -3.86415,0.966037 -1.18473,0.41814 -2.36143,0.858701 -3.54214,1.288051 z"
       id="path15" /><path
       style="fill:#fdb4d9;fill-opacity:1;stroke-width:1.00157;paint-order:stroke fill markers"
       d="m 1039.4566,95.637736 c 0.5367,-0.107338 1.094,-0.139855 1.6101,-0.322013 11.5582,-4.079362 -8.8168,1.198802 16.7446,-6.440251 4.9643,-1.483569 10.0897,-2.361426 15.1346,-3.542139 6.7623,-1.7174 13.6078,-3.135058 20.2868,-5.152201 9.3257,-2.816487 18.5151,-6.072569 27.6931,-9.338365 25.934,-9.22807 21.9736,-8.533295 46.3698,-18.032704 4.9052,-1.909982 9.793,-3.889083 14.8126,-5.474214 3.1531,-0.995728 6.4525,-1.452114 9.6604,-2.254088 1.9453,-0.48634 3.8616,-1.082452 5.7962,-1.610063 0.6299,-0.171792 1.4704,-0.783689 1.9321,-0.322012 1.0112,1.011205 -2.312,4.311215 -3.2202,4.830188 -3.564,2.03657 -7.537,3.206986 -11.2704,4.830189 -1.8495,0.804106 -3.5486,1.97701 -5.4742,2.576101 -2.9349,0.913087 -6.0137,1.275239 -9.0164,1.932075 -14.7916,3.235676 -29.6156,6.243641 -44.4377,9.338365 -8.6293,1.801725 -17.6946,3.322108 -26.083,6.118239 -3.7874,1.262455 -7.5729,3.377585 -11.2705,4.830188 -2.782,1.092933 -6.9323,2.19484 -9.9824,2.576101 -2.1075,0.263439 -0.483,-0.375679 -2.5761,0.322013 -3.2648,1.088289 0.1416,0.235577 -3.5421,1.28805 -0.8511,0.243163 -1.7543,0.315297 -2.5761,0.644025 -3.481,1.392395 -6.846,3.060491 -10.3044,4.508176 -1.1589,0.485126 -2.4318,0.700218 -3.5421,1.288051 -0.741,0.392245 -1.2212,1.165747 -1.9321,1.610062 -0.1821,0.113778 -0.4358,-0.05207 -0.644,0 -0.5508,0.137689 -1.7912,0.705641 -2.2541,0.966038 -1.4281,0.803262 -2.8009,1.701187 -4.1862,2.576101 -0.8383,0.52948 -4.338,3.011731 -5.4742,2.898113 -0.7776,-0.07775 -1.5027,-0.42935 -2.2541,-0.644025 z"
       id="path16" /><path
       style="fill:#fdb4d9;fill-opacity:1;stroke-width:1.00157;paint-order:stroke fill markers"
       d="m 1145.3173,151.41869 c -0.9867,0.68309 -1.8828,1.52044 -2.9601,2.04928 -3.1132,1.52833 -6.3524,2.78746 -9.5632,4.09855 -38.8439,15.86122 2.4101,-1.15232 -33.9269,12.97874 -1.4872,0.57835 -2.8711,1.39446 -4.3263,2.04928 -0.069,0.0311 -0.2997,0.024 -0.2277,0 17.6453,-5.88175 31.1603,-6.26833 49.8657,-7.28632 2.4252,-0.13198 4.8576,0 7.2863,0 0.5313,0 1.0785,-0.12885 1.5939,0 0.2329,0.0582 -0.4622,0.13389 -0.6831,0.2277 -52.7152,22.59225 4.819,-1.60159 -23.2251,9.33559 -5.2001,2.02803 -10.2739,4.37186 -15.4834,6.37552 -0.7224,0.27786 -1.5235,0.27812 -2.277,0.4554 -0.5379,0.12655 -1.0413,0.45539 -1.5939,0.45539 -0.48,0 0.9186,-0.2821 1.3662,-0.45539 1.9059,-0.73775 3.8173,-1.46441 5.6924,-2.27697 1.7035,-0.73818 2.5728,-1.90074 -1.1384,0.91078 -2.0857,1.58001 -7.1891,5.95292 -9.3356,7.74171 -0.3194,0.26617 -3.1107,2.2806 -2.9601,2.73237 0.072,0.21601 0.4622,0.0552 0.6831,0 1.0015,-0.25038 2.0027,-0.52449 2.9601,-0.91079 3.3733,-1.36118 6.6412,-2.97527 10.0186,-4.32625 9.7554,-3.90213 2.2025,0.0644 12.068,-5.00934 0.6368,-0.32747 1.2715,-0.68009 1.8216,-1.13848 0.5309,-0.44247 1.454,-1.99928 1.8216,-2.50467 1.0401,-1.43015 2.1435,-3.36683 3.4154,-4.55395 0.5235,-0.48856 1.2258,-0.7413 1.8216,-1.13849 0.7709,-0.51391 1.5115,-1.07197 2.277,-1.59388 2.9282,-1.9965 5.8759,-4.04247 8.8802,-5.92013 0.064,-0.0402 0.2277,0.0759 0.2277,0 0,-0.0759 -0.1518,0 -0.2277,0 -0.6831,0 -1.3673,-0.0379 -2.0493,0 -4.4673,0.24818 0.5753,0.1414 -4.554,0.91079 -1.0168,0.15253 -2.3377,0 -3.4154,0 -0.24,0 -0.6831,0.46771 -0.6831,0.2277 0,-0.60983 2.9279,-1.85375 2.7324,-2.04928 -0.1698,-0.16971 -0.4767,0.10534 -0.6831,0.2277 -5.4699,3.24142 -10.836,6.78155 -16.1665,10.24638 -1.2357,0.80314 -2.4514,1.63788 -3.6432,2.50467 -0.4794,0.34866 -0.9201,0.74813 -1.3662,1.13849 -0.1615,0.14136 -0.3875,0.25173 -0.4554,0.45539 -0.099,0.29688 0.5979,0.2277 0.9108,0.2277 4.2004,0 8.3626,0.139 12.5234,-0.4554 0.4248,-0.0607 0.9549,0.1175 1.3661,0 1.1171,-0.31916 2.0858,-0.99883 3.1878,-1.36618 0.5938,-0.19792 1.2356,-0.23563 1.8216,-0.4554 0.682,-0.25576 1.3427,-0.99718 2.0493,-1.13848 1.615,-0.323 3.98,0.0865 5.237,-0.2277 1.1647,-0.29117 5.0396,-2.60834 5.9201,-3.41546 0.4035,-0.36983 0.5993,-0.91618 0.9108,-1.36618 0.3973,-0.57385 2.58,-3.57617 2.7324,-3.87086 3.1873,-6.16218 0.9928,-2.26616 2.277,-6.37552 0.1724,-0.55172 0.5341,-1.03537 0.6831,-1.59388 0.3346,-1.25496 0.6868,-4.19147 0.4553,-5.46474 -0.1929,-1.06125 -1.7196,-1.22345 -2.5046,-1.36618 -1.6815,-0.30572 -5.5754,-1.11082 -7.2863,-0.68309 -0.7295,0.18236 -3.4595,1.41104 -3.8709,1.59388 z"
       id="path17" /><path
       style="fill:#fdb4d9;fill-opacity:1;stroke-width:1.00157;paint-order:stroke fill markers"
       d="m 902.59201,197.18584 c -1.97338,1.36619 -4.18726,2.43788 -5.92013,4.09855 -1.95131,1.87001 -3.35679,4.23693 -5.00934,6.37553 -0.92817,1.20115 -2.00548,2.31052 -2.73237,3.64315 -3.39198,6.21863 -1.97317,5.57813 -4.55394,11.38487 -1.10285,2.48141 -2.27492,4.94076 -3.64316,7.28631 -0.87208,1.495 -2.41374,2.55051 -3.18776,4.09855 -0.13748,0.27496 0.21051,1.15567 0,1.36619 -1.06273,1.06272 -3.53585,1.72876 -4.55395,2.27697 -0.96379,0.51896 -1.79372,1.25839 -2.73236,1.82158 -0.6072,0.30359 -1.21439,0.60719 -1.82158,0.91079 -0.1518,0 -0.31962,-0.0679 -0.4554,0 -1.01443,0.50721 -2.14222,1.2988 -3.18776,1.82157 -0.30359,0.1518 -1.01813,0.77741 -0.91079,0.4554 2.42116,-7.26348 9.18144,-10.76931 15.48342,-14.11723 8.94273,-4.75083 4.75333,-2.60841 12.75104,-5.46474 0.31966,-0.11416 0.57136,-0.45539 0.91079,-0.45539 0.21468,0 -0.25922,0.3682 -0.45539,0.45539 -1.18518,0.52675 -2.43116,0.90447 -3.64316,1.36619 -3.51417,1.33873 -7.93312,3.00066 -11.38486,4.55394 -4.00328,1.80148 -7.55483,4.2624 -11.38486,6.37553 -15.74858,8.68887 -1.90828,0.20959 -15.93881,9.56328 -1.47295,0.98196 -3.11343,1.70343 -4.55395,2.73237 -0.34938,0.24955 -0.52677,0.71878 -0.91079,0.91079 -0.40732,0.20366 -1.51019,0.43202 -1.36618,0 0.17307,-0.51923 0.49248,-1.01324 0.91079,-1.36619 4.45726,-3.76082 8.76131,-7.76784 13.66183,-10.92947 14.16722,-9.14014 31.1476,-12.83515 47.36104,-16.3942 3.05694,-0.67104 5.71123,-0.84116 8.65249,-1.82158 2.39418,-0.79806 3.88629,-5.33969 5.00934,-7.28631 15.4488,-26.77792 -3.27468,6.8284 7.74171,-15.93881 1.15658,-2.39027 2.84462,-4.49025 4.09855,-6.83092 1.02634,-1.91582 1.84047,-3.93814 2.73237,-5.92013 1.42598,-3.16884 1.36618,-2.0525 1.36618,-3.64315 0,-0.1518 0.1518,-0.4554 0,-0.4554 -4.27499,0 -9.83846,7.56149 -12.29565,10.01868 -3.27751,3.27751 -11.51394,10.9766 -15.48341,13.66184 -2.41851,1.63604 -5.19409,2.67188 -7.74171,4.09855 -1.96922,1.10276 -6.77603,4.126 -6.83092,4.09855 -0.4976,-0.2488 0.42056,-1.75887 0.45539,-1.82158 1.55764,-2.80373 3.28243,-7.12961 5.92013,-9.10789 1.08618,-0.81463 2.42877,-1.21438 3.64316,-1.82158 z"
       id="path18" /><path
       style="fill:#fdb4d9;fill-opacity:1;stroke-width:1.00157;paint-order:stroke fill markers"
       d="m 835.42131,74.570859 c -0.80824,0 -1.12197,-0.0101 -2.16312,0.113848 -1.02856,0.122448 -2.04585,0.328864 -3.07391,0.455395 -2.11367,0.260144 -9.44773,0.938018 -10.81562,1.138486 -3.07074,0.450022 -9.1978,1.788626 -12.40951,2.390822 -10.09587,1.892977 1.1687,-0.392663 -5.35088,1.024637 -0.71003,0.154354 -0.8411,0.0727 -1.59388,0.341546 -0.23975,0.08562 -0.44603,0.24878 -0.6831,0.341546 -0.6371,0.249302 -1.2978,0.435126 -1.93542,0.683092 -0.72916,0.28356 -1.41908,0.668976 -2.16313,0.910789 -0.7791,0.253209 -1.58943,0.399252 -2.39082,0.569243 -0.65797,0.13957 -1.49219,0.173814 -2.16312,0.341546 -0.62691,0.156728 -1.20183,0.37855 -1.82158,0.569243 -1.66625,0.512694 -2.81677,0.757155 -4.55395,1.138487 -0.71971,0.157985 -1.44058,0.310887 -2.16312,0.455394 -0.41605,0.08321 -0.83382,0.157945 -1.25233,0.227698 -0.0858,0.01429 -0.74451,-0.08763 -0.34155,0.113848 0.53451,0.267254 2.52495,-0.516791 2.84622,-0.569243 1.20377,-0.196534 2.43547,-0.170648 3.64315,-0.341546 8.99835,-1.273351 10.79136,-1.874425 20.60661,-3.984702 3.52934,-0.75881 7.05987,-1.512151 10.58792,-2.276973 1.89875,-0.411617 3.79313,-0.843255 5.69243,-1.252335 0.5675,-0.122231 1.14455,-0.20075 1.70773,-0.341546 0.0521,-0.01302 0.16507,-0.129857 0.11385,-0.113849 -4.28446,1.338893 -8.49201,2.920249 -12.8649,3.984703 -10.27968,2.502291 -10.11588,1.692329 -20.15121,4.440097 -3.14864,0.862129 -6.23639,1.934275 -9.33558,2.960064 -4.72668,1.564463 -6.63956,2.265144 -10.81563,3.984703 -0.61284,0.252346 -1.21719,0.524967 -1.82157,0.79694 -0.15477,0.06964 -0.3795,0.0759 -0.4554,0.227697 -0.0509,0.10183 0.23018,0.02363 0.34155,0 1.14362,-0.242586 2.27175,-0.554744 3.41546,-0.79694 2.08238,-0.440975 4.17864,-0.814426 6.26167,-1.252335 18.58236,-3.906518 16.91677,-4.252769 40.75781,-6.147827 5.78914,-0.460162 11.61183,-0.275053 17.41885,-0.341545 4.13623,-0.04736 8.273,0 12.4095,0 0.45539,0 0.91213,-0.03493 1.36618,0 0.0535,0.0041 0.15679,0.08165 0.11385,0.113848 -0.16349,0.122619 -0.38116,0.147762 -0.56924,0.227697 -1.32995,0.565228 -2.65476,1.142502 -3.9847,1.70773 -1.70603,0.725061 -3.40207,1.474674 -5.12319,2.163124 -2.26413,0.905649 -4.60388,1.625164 -6.83092,2.618519 -3.05346,1.361974 -5.99248,2.967279 -8.99404,4.440097 -3.10833,1.525205 -6.24929,2.984641 -9.33559,4.553943 -3.63156,1.84655 -7.25723,3.70855 -10.81562,5.69243 -0.73597,0.41032 -1.36782,0.98443 -2.04928,1.48004 -0.15345,0.1116 -0.30723,0.22301 -0.45539,0.34154 -0.0419,0.0335 -0.11385,0.0602 -0.11385,0.11385 0,0.0379 0.0759,0 0.11385,0 0.18974,0 0.37969,0.009 0.56924,0 0.64559,-0.0293 1.3055,0.0305 1.93543,-0.11385 1.20489,-0.27612 2.35966,-0.73854 3.5293,-1.13848 4.71276,-1.61146 9.34352,-3.47475 14.11724,-4.8955 4.799,-1.42827 9.70905,-2.45313 14.57262,-3.643152 9.40556,-2.301359 18.81708,-4.578468 28.23446,-6.830918 7.24254,-1.73227 14.50617,-3.375863 21.74509,-5.123189 0.46663,-0.112634 0.90049,-0.571818 1.36619,-0.455394 0.34732,0.08683 -0.59649,0.397806 -0.91079,0.569243 -0.52148,0.28444 -1.06628,0.524041 -1.59388,0.79694 -0.57303,0.296393 -1.10094,0.69167 -1.70773,0.910789 -2.62367,0.947434 -5.91192,1.124897 -8.6525,0.910789 -1.3002,-0.101578 -2.60081,-0.272898 -3.87085,-0.569243 -1.01682,-0.237257 -1.98381,-0.654332 -2.96007,-1.024637 -1.09886,-0.416811 -0.24276,-2.28329 -0.11385,-2.960065 0.1112,-0.583757 0.23646,-1.751521 -0.11384,-2.276973 -1.16372,-1.745571 -6.0296,-1.464971 -7.40017,-1.480032 -2.12504,-0.02335 -4.25035,0 -6.37552,0 -5.69243,0 -11.38728,0.165729 -17.0773,0 -0.80469,-0.02344 -1.59674,-0.2092 -2.39082,-0.341546 -0.11837,-0.01973 -0.39982,-0.0089 -0.34154,-0.113849 1.18607,-2.134938 8.8598,-4.340692 10.01868,-4.667794 4.16792,-1.176431 10.80692,-2.372278 15.14187,-3.187762 1.44107,-0.271092 2.89165,-0.493467 4.32624,-0.79694 0.5406,-0.114356 1.06648,-0.290582 1.59389,-0.455395 0.11454,-0.03579 0.46155,-0.113848 0.34154,-0.113848 -5.29809,0 -10.43444,-1.077685 -15.71111,-1.593881 -8.02151,-0.784714 -12.80906,-0.923856 -20.72045,-1.024638 -2.73215,-0.03481 -5.46474,0 -8.1971,0 -1.44209,0 -2.88417,0 -4.32625,0 -0.5313,0 -1.06259,0 -1.59388,0 -0.15834,0 -0.55338,-0.03706 -0.6831,0 -0.58529,0.167227 -1.09172,0.55989 -1.70773,0.683092 -0.5954,0.11908 -1.21438,0 -1.82157,0 -2.01133,0 -4.02266,0 -6.03398,0 -1.72554,0 -2.87099,0.117688 -4.6678,0.227697 -1.02342,0.06266 -2.05278,0.02102 -3.07391,0.113849 -1.06897,0.09718 -2.12298,0.319876 -3.18776,0.455394 -1.40101,0.178311 -2.8193,0.223212 -4.2124,0.455395 -0.30868,0.05145 -0.6053,0.159811 -0.91079,0.227697 -0.0371,0.0082 -0.1518,0 -0.11385,0 3.18032,0 6.24057,0.877106 9.33559,1.480032 2.8316,0.551611 5.64163,1.04229 8.4248,1.821578 2.4105,0.67494 4.71607,1.537528 7.17246,2.049276 2.37773,0.495359 4.7504,0.683092 7.17247,0.683092 0.53129,0 1.06669,0.0659 1.59388,0 0.20279,-0.02535 0.36646,-0.202349 0.56924,-0.227697 0.87998,-0.109998 1.84682,0 2.73237,0 1.51798,0 3.03596,0 4.55394,0 0.66685,0 1.85516,0.25944 2.50467,-0.227698 0.12089,-0.09066 0.49446,-0.393491 0.4554,-0.569243 -0.0627,-0.282133 -0.2277,-0.531294 -0.34155,-0.79694 z"
       id="path19" /><path
       style="fill:#fdb4d9;fill-opacity:1;stroke-width:1.00157;paint-order:stroke fill markers"
       d="m 336.19503,137.52916 c -12.01852,7.66016 -9.67344,6.51699 -23.22512,13.54798 -4.74537,2.46204 -9.63722,4.63917 -14.34493,7.17247 -3.75982,2.02322 -7.41199,4.24368 -11.04332,6.48937 -2.1395,1.32311 -4.21673,2.74737 -6.26167,4.2124 -0.5022,0.35978 -0.89714,0.85029 -1.36619,1.25234 -0.0644,0.0552 -0.22769,0.029 -0.22769,0.11384 0,0.0849 0.14641,0.13824 0.22769,0.11385 1.34139,-0.40241 3.41417,-2.63895 3.87086,-2.96006 6.23394,-4.38324 12.35229,-8.96399 18.89887,-12.8649 11.16862,-6.65505 19.79683,-10.17697 31.08068,-15.14187"
       id="path20" /><path
       style="fill:#fdb4d9;fill-opacity:1;stroke-width:1.00157;paint-order:stroke fill markers"
       d="m 326.5179,114.53173 c -3.78715,0.41292 -7.0383,2.70962 -10.47408,4.09855 -1.93604,0.78266 -3.99143,1.24869 -5.92013,2.04928 -2.10065,0.87197 -4.07725,2.01889 -6.14782,2.96006 -6.10798,2.77636 -12.32484,5.33812 -18.67118,7.51401 -0.3092,1.91713 -1.22782,0.25748 -1.82158,0.4554 -0.65547,0.21849 -1.20412,0.65351 -1.82158,0.91079 -0.66465,0.27694 -1.37258,0.43702 -2.04927,0.68309 -0.319,0.116 -0.58878,0.34805 -0.91079,0.45539 -0.072,0.024 -0.28137,-0.0537 -0.2277,0 1.23555,1.23555 3.48971,0.2277 5.23704,0.2277 2.04927,0 4.10563,0.17018 6.14782,0 2.52451,-0.21038 5.00325,-0.80168 7.51402,-1.13849 3.71356,-0.49816 7.44075,-0.88972 11.15716,-1.36618 2.20388,-0.28255 4.4008,-0.61713 6.60322,-0.91079 0.0752,-0.01 0.3036,0 0.2277,0 -1.12175,0 0.10481,-0.0417 -2.04928,0.45539 -3.714,0.85708 -7.42851,1.71375 -11.15716,2.50467 -2.72296,0.5776 -5.51809,0.83827 -8.1971,1.59389 -3.25786,0.91888 -6.39703,2.21846 -9.56329,3.41546 -3.05856,1.15628 -6.08958,2.38552 -9.10789,3.64315 -0.62664,0.2611 -1.21439,0.60719 -1.82158,0.91079 -0.55872,0.27936 -0.85925,0.41136 -0.68309,0.4554 5.74118,1.43529 11.68929,-1.9952 16.8496,-3.41546 5.04079,-1.38738 10.17048,-2.42877 15.25572,-3.64316 5.08523,-1.21439 10.13307,-2.59772 15.25571,-3.64316 2.32447,-0.47438 4.72356,-0.49167 7.05862,-0.91079 0.63828,-0.11456 1.21948,-0.92393 1.82158,-0.68309 0.41091,0.16437 -0.39383,0.80355 -0.6831,1.13849 -1.15813,1.341 -2.43869,2.5713 -3.64315,3.87085 -4.27578,4.61334 -6.64808,7.6665 -11.84026,11.61256 -1.74609,1.32703 -16.9605,11.22061 -19.35427,12.75105 -1.57936,1.00976 -3.16897,2.00441 -4.78164,2.96007 -0.43802,0.25956 -0.92412,0.43048 -1.36619,0.68309 -0.0932,0.0533 -0.33503,0.22769 -0.22769,0.22769 0.24001,0 0.46422,-0.1292 0.68309,-0.22769 1.30041,-0.58519 2.60848,-1.1583 3.87085,-1.82158 3.21738,-1.69048 6.24454,-3.75545 9.56329,-5.23704 5.19982,-2.32135 10.45612,-4.60932 15.93881,-6.14782 9.43224,-2.64681 19.09817,-4.38245 28.68986,-6.37553 2.10185,-0.43675 4.24642,-0.63607 6.37552,-0.91079 1.87973,-0.24254 0.27708,1.33086 -0.4554,2.27698 -1.32073,1.70595 -2.774,3.30634 -4.09855,5.00934 -12.96128,16.6645 2.37893,-2.30039 -11.61256,14.80032 -1.36618,1.66978 -2.76562,3.31289 -4.09855,5.00934 -0.33814,0.43036 -0.59267,0.92081 -0.91079,1.36618 -0.0624,0.0874 -0.30359,0.3036 -0.2277,0.2277 0.3795,-0.3795 0.759,-0.75899 1.13849,-1.13849 1.29029,-1.66978 2.42193,-3.47518 3.87086,-5.00934 2.29721,-2.43235 17.74146,-16.38496 18.67117,-17.30499 13.85131,-13.70703 7.09974,-7.42201 16.16651,-18.21578 1.3825,-1.64583 2.86591,-3.20448 4.32625,-4.78165 0.43755,-0.47256 0.8815,-0.94209 1.36618,-1.36618 0.12772,-0.11176 0.4554,-0.058 0.4554,-0.2277 0,-0.16971 -0.297,-0.16677 -0.4554,-0.22769 -0.82916,-0.31891 -1.63454,-0.73165 -2.50467,-0.91079 -1.7243,-0.35501 -3.50639,-0.36043 -5.23704,-0.68309 -2.7516,-0.51302 -5.44829,-1.29381 -8.1971,-1.82158 -18.3135,-3.51619 -20.03677,-3.55996 -37.57005,-6.37553 -4.6323,-0.74387 -9.22903,-1.73733 -13.88953,-2.27697 -2.56455,-0.29695 -5.16076,-0.16625 -7.74171,-0.2277 -0.60702,-0.0144 -1.21439,0 -1.82158,0 -0.1518,0 -0.60266,-0.0368 -0.45539,0 0.85994,0.21499 1.90849,0.20824 2.73236,0.4554 0.62114,0.18634 1.18854,0.54241 1.82158,0.68309 6.62339,1.47186 13.41075,2.15217 20.03736,3.64316 7.85723,2.06769 0.86859,0.35587 8.1971,1.82157 2.46106,0.49222 1.07632,0.4554 2.27698,0.4554 0.0759,0 -0.1518,0 -0.2277,0 -0.45539,0 -0.91079,0 -1.36618,0 -1.21439,0 -2.42878,0 -3.64316,0 -4.97796,0 -2.82416,-2.86709 -1.59388,-6.14783"
       id="path21" /><path
       style="fill:#fdb4d9;fill-opacity:1;stroke-width:1.00157;paint-order:stroke fill markers"
       d="m 1335.3862,209.9522 c 13.5559,-10.67078 28.9162,-19.01286 44.7597,-25.76101 9.9403,-4.23382 20.25,-7.54884 30.2692,-11.59245 92.2392,-38.61174 11.3832,-5.45555 56.3522,-22.86289 2.1954,-0.84982 4.207,-2.15368 6.4402,-2.89811 0.1441,-0.048 -0.2146,0.21467 -0.322,0.32201 -2.756,2.75603 0.3901,-0.1478 -4.8302,3.22012 -2.2019,1.42062 -4.1361,3.26011 -6.4402,4.50818 -2.8751,1.55737 -6.0067,2.58606 -9.0164,3.86415 -4.8259,2.04938 -9.6224,4.17101 -14.4905,6.11824 -16.4565,6.5826 -74.1451,27.72157 -75.029,28.01509 -10.3283,3.43007 -20.9911,5.76512 -31.5572,8.37233 -5.9683,1.47271 -12.0796,2.33079 -18.0327,3.86415 -1.1621,0.29934 -2.1276,1.11347 -3.2201,1.61007 -0.1223,0.0556 -1.4965,-0.20841 -0.644,0.64402 0.24,0.24001 0.6271,0.30208 0.966,0.32201 1.5001,0.0882 3.0088,0.1 4.5082,0 8.5497,-0.56998 14.0615,-1.25512 22.5409,-3.86415 4.2867,-1.31901 8.3686,-3.22959 12.5584,-4.83019 5.3633,-2.04888 10.6665,-4.26567 16.1007,-6.11824 6.1059,-2.08155 14.7606,-4.20631 21.2528,-5.79622 2.1103,-0.5168 9.1807,-1.96602 11.5925,-3.22013 2.038,-1.05978 3.5628,-2.91195 5.4742,-4.18616 2.3241,-1.54945 4.9129,-2.93947 7.4063,-4.18616 0.6452,-0.32265 2.0497,-0.43968 2.5761,-0.96604 0.076,-0.0759 -0.096,-0.27401 0,-0.32201 0.288,-0.14401 0.6981,0.17862 0.966,0 0.2526,-0.16841 0.3914,-0.47563 0.644,-0.64403 0.6315,-0.42101 1.5146,-0.15135 2.2541,-0.32201 3.3993,-0.78445 1.0544,-0.49774 3.8642,-0.96604 0.6196,-0.10328 3.7827,-0.43677 4.5081,-0.64403 1.0481,-0.29945 1.902,-1.31123 2.8981,-1.61006 3.4253,-1.02756 7.4188,-0.64402 10.9485,-0.64402"
       id="path22" /><path
       style="fill:#fdb4d9;fill-opacity:1;stroke-width:1.00157;paint-order:stroke fill markers"
       d="m 1318.9635,26.727044 c 9.127,3.10721 18.2372,6.248956 27.3711,9.338365 3.4406,1.163729 6.8146,2.535471 10.3044,3.542138 5.5625,1.604557 11.4301,1.899066 17.0667,3.220126 1.5168,0.355516 19.9634,5.87639 20.9308,6.118239 8.8388,2.209707 18.2729,3.468578 27.371,3.864151 2.3592,0.102574 4.7236,-0.05902 7.0843,0 28.7203,0.718007 9.7256,0.644025 25.117,0.644025 1.7174,0 3.4419,0.155486 5.1522,0 0.6761,-0.06146 1.2735,-0.479377 1.9321,-0.644025 0.8095,-0.202368 1.7609,0.181156 2.5761,0 0.7628,-0.169516 1.4795,-0.540749 2.2541,-0.644025 3.1946,-0.425948 7.6255,0 10.9484,0 0.7302,0 3.3091,0.233076 3.5421,0 0.076,-0.0759 0,-0.214675 0,-0.322013 0.2147,-0.644025 0.1273,-1.491856 0.6441,-1.932075 5.9867,-5.099806 11.7699,-7.667998 19.3207,-9.016353 2.1065,-0.376149 5.4008,-1.109532 7.7283,-0.644025 0.3825,0.0765 4.9777,2.00974 5.1522,2.254088 0.2623,0.367211 0.6436,4.505631 0.644,4.508176 0.2634,1.514113 0.6647,3.001181 0.9661,4.508177 0.322,1.610062 0.8297,3.193912 0.966,4.830188 0.6585,7.901521 -2.2104,21.815917 -7.7283,28.337107 -2.7477,3.247285 -1.2356,0.695417 -4.5082,4.186164 -1.307,1.394211 -2.1908,3.156831 -3.5421,4.508176 -1.8239,1.823939 -4.3176,3.029562 -6.1182,4.830188 -0.076,0.0759 0.2533,0.08246 0.322,0 0.4955,-0.59462 0.8348,-1.304592 1.288,-1.932075 2.573,-3.562548 5.0406,-6.556988 6.7623,-10.626415 3.6185,-8.55272 0.5638,-1.80958 4.5082,-14.168554 4.7302,-14.821266 0.601,1.502947 2.8981,-9.982389 0.5299,-2.649678 1.7862,-5.308147 -1.6101,-6.440252 -1.0384,-0.346153 -2.149,-0.418519 -3.2201,-0.644025 -7.999,-1.684001 2.2666,0.511738 -5.7962,-1.610063 -1.0586,-0.278577 -2.1676,-0.343307 -3.2202,-0.644025 -2.1164,-0.259061 -3.8148,-1.644439 -5.7962,-2.254088 -1.3906,-0.42789 -2.4398,-0.322013 -3.8641,-0.322013 -2.3217,0 -3.9475,-0.218042 -6.1183,0.966038 -0.3998,0.218066 -0.6017,0.692801 -0.966,0.966038 -0.5007,0.375528 -1.116,0.581784 -1.6101,0.966037 -1.5262,1.187096 -3.5421,4.793906 -3.5421,6.762264 0,1.644102 0.093,2.128958 0.966,3.220126 0.1897,0.237069 0.3914,0.47562 0.644,0.644025 0.089,0.05954 0.4294,0 0.3221,0 -6.4544,0 2.6928,0.157833 -14.1686,-3.864151 -4.7851,-1.141398 -51.809,-10.165676 -52.488,-10.304402 -21.8507,-4.464116 -36.5468,-8.550766 -58.6063,-11.27044 -9.0712,-1.118359 -17.9884,-0.966038 -27.0491,-0.966038 -0.1656,0 -1.288,-0.176997 -1.288,0.322013 0,0.562556 2.1864,5.988352 2.5761,6.118239 0.2036,0.06789 0.4293,0 0.644,0 0.322,0 0.7649,0.251449 0.966,0 0.3419,-0.427383 0.2542,-1.066974 0.322,-1.610063 0.1065,-0.85207 0.2468,-1.753615 0,-2.576101 -0.7056,-2.352046 -4.6733,-5.061456 -6.1182,-7.084277 -0.1973,-0.276206 -0.1337,-0.683614 -0.322,-0.966037 -0.06,-0.08931 -0.274,0.096 -0.322,0 -0.096,-0.192012 -0.1718,-0.515221 0,-0.644026 0.7533,-0.565011 3.6927,-0.960091 4.8302,-1.610063 0.2636,-0.150625 0.4293,-0.42935 0.644,-0.644025 0.1073,-0.107337 0.3899,-0.18624 0.322,-0.322012 -0.1073,-0.214675 -0.4193,-0.237738 -0.644,-0.322013 -0.6357,-0.238364 -1.3117,-0.368313 -1.9321,-0.644025 -0.1897,-0.0843 -1.9228,-1.03966 -2.2541,-0.966038 -0.798,0.177332 -1.5027,0.644025 -2.2541,0.966038 z"
       id="path23" /><path
       style="fill:#fdb4d9;fill-opacity:1;stroke-width:1.00157;paint-order:stroke fill markers"
       d="m 1841.1602,46.450245 c 4.389,-0.438897 7.6691,-0.829622 12.2956,-0.910789 22.7544,-0.3992 45.5496,0 68.3092,0 4.0986,0 8.1971,0 12.2957,0 4.0073,0 8.3341,-0.336908 12.2956,0.455394 7.0219,1.404365 13.8133,3.602629 20.9482,4.553946 4.2315,0.564197 8.5752,-0.141149 12.751,0.455394 4.839,0.691281 9.2814,2.346383 13.6619,4.098551 1.4968,0.598749 6.3705,1.361168 7.2863,2.276973 0.1073,0.107338 -0.3036,0 -0.4554,0 -0.759,0 -1.5268,0.11541 -2.277,0 -3.2486,-0.499781 -4.8903,-1.558111 -8.1971,-2.276973 -1.951,-0.424135 -3.9711,-0.477667 -5.9201,-0.910789 -2.1576,-0.479463 -4.2275,-1.300851 -6.3755,-1.821578 -9.8817,-2.395548 -20.4027,-4.473674 -30.5115,-5.464735 -6.0683,-0.594937 -15.681,-0.455394 -21.8589,-0.455394 -11.6885,0 -23.3769,0 -35.0654,0 -2.5806,0 -5.1662,-0.160972 -7.7417,0 -2.1426,0.13391 -4.2321,0.791709 -6.3755,0.910789 -4.3954,0.244187 -8.8043,0 -13.2065,0 -5.7277,0 -12.5207,0.569508 -18.2158,0 -1.2455,-0.124555 -2.4052,-1.096476 -3.6431,-0.910789 -1.9516,0.292731 -3.5926,1.652936 -5.4647,2.276972 -1.4746,0.491511 -3.4731,-0.0567 -5.0094,0.455395 -0.2036,0.06789 -0.2634,0.359389 -0.4554,0.455395 -0.5598,0.279902 -2.2641,0.897958 -1.8216,0.455394 1.5624,-1.562393 6.618,-3.859194 8.6525,-4.098551 1.3652,-0.160609 2.7449,0.694278 4.0986,0.455395 1.3371,-0.235953 2.4288,-1.214386 3.6431,-1.821579 3.9468,-0.455394 7.8996,-0.860967 11.8403,-1.366183 7.8323,-1.004145 15.3211,-3.633607 23.2251,-4.098551 3.534,-0.207879 11.5477,-0.435043 15.028,0 1.0966,0.137072 2.1072,0.679237 3.1878,0.910789 4.7761,1.023442 9.7679,1.874376 14.5726,2.732367 9.293,1.659457 3.3518,0.31396 12.2957,1.366184 2.0983,0.246862 4.2548,0.769405 6.3755,0.910789 11.2297,0.748645 -1.7551,-0.84556 8.6525,0.455395 3.0187,0.377335 5.694,1.283667 8.6525,1.821578 5.5238,1.004324 11.3177,-0.0475 16.8496,0.455394 3.4444,0.31313 1.9979,1.00077 6.3755,1.821579 2.3872,0.447594 4.8789,-0.320996 7.2863,0 0.9517,0.126884 1.7952,0.702523 2.7324,0.910789 2.1128,0.469502 4.4523,0.269706 6.3755,0.910789 1.2881,0.42935 2.3377,1.448582 3.6432,1.821578 1.8089,0.516828 4.4559,-0.098 5.9201,1.366184"
       id="path24" /><path
       style="fill:#fdb4d9;fill-opacity:1;stroke-width:1.00157;paint-order:stroke fill markers"
       d="m 1914.0233,149.82481 c 16.9079,-5.43564 35.1996,-6.47592 52.8258,-7.28631 5.9158,-0.272 11.8592,0.0423 17.7604,-0.4554 15.4384,-1.30203 19.0226,-1.43096 31.4222,-7.28631 1.7897,-0.84514 3.2909,-2.2058 5.0093,-3.18776 0.7712,-0.44065 1.923,-0.64098 2.7324,-0.91079 0.7073,-0.23575 5.464,-2.73191 5.4647,-2.73237 8.9969,-5.72528 -12.2152,4.88431 10.4741,-5.92013 0.4334,-0.20638 0.8862,-0.45539 1.3662,-0.45539 0.2147,0 -0.3036,0.30359 -0.4554,0.45539 -1.3333,1.33326 -1.7293,1.78425 -3.6432,3.18776 -1.9054,1.39736 -8.5156,5.56958 -10.0186,6.37553 -21.3198,11.43235 -25.8029,14.39036 -47.8165,21.40354 -27.4659,8.75022 -57.7906,16.35396 -86.5249,19.12657 -17.9294,1.73003 -36.2102,0.91079 -54.192,0.91079 -0.4554,0 0.9108,0 1.3662,0 2.579,0 0.1874,0.25261 2.7324,-0.91079 4.8221,-2.20439 9.7042,-4.27541 14.5726,-6.37552 2.8734,-1.23953 5.6695,-2.69732 8.6525,-3.64316 8.1657,-2.58913 13.3345,-2.42411 21.8589,-4.09855 17.9736,-3.53053 9.4416,-2.15647 26.4129,-8.1971 7.998,-2.84673 16.084,-4.85425 23.6805,-8.6525"
       id="path25" /><path
       style="fill:#fdb4d9;fill-opacity:1;stroke-width:1.00157;paint-order:stroke fill markers"
       d="m 1835.2401,227.69728 c 12.9886,0.27152 25.7814,-0.0118 38.7085,-1.82158 8.4038,-1.17653 16.6954,-3.04921 25.0467,-4.55395 14.1768,-2.55438 26.2812,-4.60423 40.0747,-7.28631 6.0784,-1.1819 12.1404,-2.44648 18.2158,-3.64316 7.2466,-1.42736 9.1535,-2.27697 14.5726,-2.27697 0.3036,0 -0.6472,-0.15062 -0.9108,0 -0.8439,0.48224 -1.4993,1.23839 -2.2769,1.82158 -2.1623,1.6217 -6.8073,4.78461 -8.6525,5.92013 -8.7882,5.40812 -4.5648,2.61234 -15.4834,6.83092 -3.6816,1.4224 -7.2078,3.24038 -10.9295,4.55394 -4.031,1.4227 -8.066,3.02419 -12.2957,3.64316 -14.3284,2.09685 -23.2507,1.82158 -36.4315,1.82158 -2.0818,0 -11.178,-0.58786 -14.1173,0 -2.3541,0.47082 -4.4354,1.79788 -6.8309,2.27697 -3.8672,0.77344 -14.6016,0.90789 -19.1266,0.4554 -3.972,-0.39721 -1.552,-0.38802 -5.4647,-1.36619 -0.4418,-0.11045 -0.9589,0.20366 -1.3662,0 -1.8952,-0.94762 0.4869,0.0314 -0.4554,-0.91079 -0.24,-0.24001 -0.6707,-0.21538 -0.9108,-0.45539 -1.2238,-1.22384 -3.0399,-4.56887 -1.3661,-5.00934 3.1382,-0.82585 6.3182,1.82158 9.5632,1.82158 3.0961,0 6.0692,-1.22865 9.1079,-1.82158 3.185,-0.62147 6.3865,-1.15973 9.5633,-1.82158 4.1103,-0.85631 8.1842,-1.88172 12.2957,-2.73237 1.5242,-0.31535 2.4002,0.16217 4.0985,-0.45539 3.1596,-1.14895 2.7191,-1.36429 5.9202,-1.82158 4.3206,-0.61724 11.4631,0 15.4834,0 7.2863,0 14.5726,0 21.8589,0 0.332,0 18.6354,-0.73095 21.4036,0.45539 2.414,1.03461 0.7561,1.10852 2.2769,3.64316 2.9553,4.9255 7.7793,9.02998 13.2065,10.92947 1.1551,0.40429 2.4243,0.34459 3.6431,0.45539 3.1675,0.28796 4.6051,-1.01301 5.9202,-3.64315 0.2146,-0.42935 0.1673,-0.98216 0.4553,-1.36619 0.2037,-0.27154 0.6393,-0.25173 0.9108,-0.45539 0.3435,-0.25761 0.5673,-0.65318 0.9108,-0.91079 5.1791,-3.88431 -0.091,-1.47444 -9.5633,-1.36618 -22.7687,0.26021 -45.5392,0.33363 -68.3091,0.45539 -15.4832,0.0828 -30.9669,0 -46.4503,0 -6.3755,0 -12.7518,0.0996 -19.1266,0 -3.3426,-0.0522 -6.6779,-0.33166 -10.0186,-0.45539 -1.67,-0.0618 -3.0644,0.28941 -4.554,-0.4554"
       id="path26" /></g><path
     style="fill:#fc8dc5;fill-opacity:1;stroke-width:1.00157;paint-order:stroke fill markers"
     d="m 198.52075,59.250314 c 0.87121,0.609986 -0.2376,1.541283 0,2.254089 0.0612,0.183575 0.24579,0.305159 0.32202,0.483018 0.0872,0.203391 0.0833,0.436833 0.161,0.644026 0.12999,0.346624 0.57846,0.894625 0.64403,1.28805 0.0353,0.211754 -0.0353,0.432271 0,0.644025 0.0598,0.358616 0.33455,0.347081 0.48302,0.644025 0.048,0.09601 -0.0759,0.246114 0,0.322013 0.0849,0.08486 0.23715,0.07615 0.32201,0.161006 0.15433,0.154332 0.37807,1.0221 0.64403,1.28805 0.15179,0.151799 0.43351,0.0421 0.64402,0 0.93348,-0.186696 1.01482,-0.491205 0.80503,-1.610063 -0.0938,-0.500426 -0.35183,-0.957101 -0.48302,-1.449056 -0.23681,-0.888051 -0.42323,-1.853951 -0.64402,-2.737107 -0.30405,-1.216185 0.10664,-2.738151 -0.64403,-3.864151 -0.0298,-0.04465 -0.137,0.048 -0.161,0 -0.072,-0.144008 -0.1562,-0.443969 0,-0.483019 0.20826,-0.05207 0.43446,0.04657 0.64402,0 0.28213,-0.0627 0.53085,-0.230618 0.80503,-0.322012 0.71552,-0.238506 1.66199,-0.05192 2.25409,-0.644026 0.0379,-0.03795 -0.024,-0.113003 0,-0.161006 0.0339,-0.06789 0.12706,-0.09312 0.16101,-0.161006 0.41588,-0.831757 -0.69838,-2.844786 -1.44906,-3.220126 -0.70623,-0.353118 -3.56251,0.535168 -4.02516,0.644025 -1.10587,0.260206 -2.3738,0.728426 -3.38113,1.288051 -0.23457,0.130319 -0.39881,0.374034 -0.64402,0.483018 -0.25008,0.111143 -0.5535,0.05321 -0.80503,0.161007 -0.38528,0.165117 -0.6021,0.597066 -0.96604,0.805031 -0.48413,0.276647 -0.73187,0.175687 -0.96604,0.644025 -0.0679,0.135773 -0.29224,0.173162 -0.32201,0.322013 -0.0421,0.210506 0.0237,0.430663 0,0.644025 -0.0957,0.861003 -0.3405,1.720968 -0.48302,2.576101 -0.023,0.138005 0.046,0.368014 0,0.483019 -0.0719,0.179665 -0.23548,0.309942 -0.32201,0.483018 -0.16658,0.333152 0.0752,2.411552 0.32201,2.576101 0.37501,0.250011 1.3707,-0.06091 1.77107,-0.161006 0.81203,-0.203008 1.73482,-0.756703 2.25409,-1.449057 0.29692,-0.395902 0.0515,-0.689144 0.161,-1.127044 0.24007,-0.960257 0.50125,-1.568548 1.28805,-2.093082 0.10093,-0.06728 0.15443,-0.254111 0.32201,-0.161006 0.4426,0.245886 0.8587,0.536688 1.28805,0.805031 z"
     id="path27" /><path
     style="fill:#fc8dc5;fill-opacity:1;stroke-width:1.00157;paint-order:stroke fill markers"
     d="m 193.20755,152.15094 c 0.0537,0.26835 0.0706,0.54674 0.161,0.80503 1.77661,5.07603 0.28927,-0.62382 1.93208,6.44026 0.22416,0.96388 0.47748,1.92262 0.64402,2.89811 0.33724,1.97521 0.58375,3.96569 0.80504,5.95723 0.0356,0.32005 -0.2277,0.73834 0,0.96604 0.20436,0.20436 0.27178,-0.52041 0.32201,-0.80503 0.25214,-1.42881 0.80503,-4.04548 0.80503,-5.47422 0,-3.19549 -0.49006,-6.45432 -1.93208,-9.33836 -0.91236,-1.82474 0.16101,0 -0.64402,-0.80503 -0.1279,-0.1279 -1.31465,-2.71051 -1.61006,-2.4151 -0.11385,0.11385 0.0463,0.32881 0,0.48302 -0.13177,0.43921 -0.32202,0.8587 -0.48302,1.28805 z"
     id="path28" /><path
     style="fill:#fc8dc5;fill-opacity:1;stroke-width:1.00157;paint-order:stroke fill markers"
     d="m 472.23145,87.748428 c 0.46698,2.334918 -0.18032,-0.370288 0.48302,1.28805 0.18664,0.466623 -0.15964,1.13117 0,1.610063 0.0237,0.07115 0.11647,0.554958 0.161,0.644025 0.034,0.06789 0.13701,0.089 0.16101,0.161006 0.046,0.137993 -0.15255,0.805032 0.161,0.805032 0.56125,0 1.45961,-2.877011 1.12705,-3.542139 -0.0679,-0.135772 -0.19571,-0.23781 -0.32201,-0.322012 -0.11172,-0.07448 -0.36193,0.06054 -0.48302,0 -0.0679,-0.03394 -0.10734,-0.107338 -0.16101,-0.161006 -0.37568,-0.161007 -0.75136,-0.322013 -1.12704,-0.483019 z"
     id="path29" /><path
     style="fill:#fc8dc5;fill-opacity:1;stroke-width:1.00157;paint-order:stroke fill markers"
     d="m 470.08103,92.331246 c 0.90996,-0.724677 2.08853,-0.812505 3.18776,-1.024637 0.49329,-0.09519 0.99614,-0.149582 1.48004,-0.284622 0.81621,-0.227781 0.75391,-0.322426 1.30925,-0.569243 0.29757,-0.13225 0.10431,0.04431 0.51232,-0.227697 0.067,-0.04466 0.10379,-0.126118 0.17078,-0.170773 0.0158,-0.01053 0.007,0.03931 0,0.05692 -0.0315,0.07879 -0.0759,0.151798 -0.11385,0.227697 -0.0569,0.151798 -0.11258,0.30408 -0.17078,0.455395 -0.20798,0.540765 -0.54401,0.93192 -1.02463,1.252335 -0.45323,0.302154 -0.93334,0.457043 -1.42311,0.683092 -0.11557,0.05334 -0.22005,0.132806 -0.34155,0.170773 -0.53538,0.167307 -1.1563,0.244234 -1.70773,0.341545 -0.303,0.05347 -0.90256,0.175707 -1.19541,0 -0.24865,-0.149191 -0.18897,-0.402154 -0.22769,-0.455394 -0.12627,-0.173616 -0.3036,-0.303596 -0.4554,-0.455395 z"
     id="path30" /><path
     style="fill:#fc8dc5;fill-opacity:1;stroke-width:1.00157;paint-order:stroke fill markers"
     d="m 911.58605,88.004998 c 0.0759,0.265647 0.16069,0.528913 0.2277,0.79694 0.0469,0.187728 0.0719,0.380346 0.11385,0.569244 0.0769,0.345893 0.19751,1.449848 0.45539,1.707729 0.0268,0.02683 0.087,-0.02683 0.11385,0 0.11384,0.113841 -0.17502,1.138487 -0.34154,1.138487 -0.16827,0 -0.45391,-0.762497 -0.56925,-0.910789 -0.42167,-0.542147 -0.8834,-0.997257 -1.36618,-1.480033 -0.19245,-0.19245 -0.69926,-0.621123 -0.79694,-0.79694 -0.65409,-1.177357 0.35652,-0.07311 -0.34155,-0.910789 -0.50234,-0.602808 -0.15461,-0.219738 -0.56924,-0.910789 -0.0455,-0.0759 -0.34155,-0.258057 -0.34155,-0.341546 0,-0.03795 0.0759,0 0.11385,0 0.1518,0 0.3036,0 0.4554,0 0.83301,0 1.1109,0.240021 1.82158,0.341546 0.15027,0.02147 0.33557,-0.0932 0.45539,0 0.25769,0.200423 0.3795,0.531293 0.56924,0.79694 z"
     id="path31" /><path
     style="fill:#fc8dc5;fill-opacity:1;stroke-width:1.00157;paint-order:stroke fill markers"
     d="m 960.99636,111.57167 c 2.16026,0.33674 3.96651,1.65916 5.80628,2.73236 0.48399,0.28233 1.01382,0.48614 1.48004,0.79694 0.31652,0.21102 2.45018,1.91141 2.84621,2.27698 0.52204,0.48188 0.7258,0.9962 1.02464,1.59388 0.0455,0.0909 1.32132,1.10259 1.36618,1.13848 0.11652,0.0932 1.51939,1.07946 1.70773,0.79694 0.40961,-0.6144 -0.66077,-2.43526 -0.79694,-2.73236 -0.17678,-0.38571 -0.42026,-0.74122 -0.56924,-1.13849 -0.0811,-0.21614 -0.0281,-0.46876 -0.11385,-0.68309 -0.0383,-0.0957 -0.69725,-1.16798 -0.79694,-1.25234 -1.22424,-1.03589 -2.53896,-1.5541 -3.9847,-2.27697 -0.6072,-0.3036 -1.18307,-0.68022 -1.82158,-0.91079 -0.77132,-0.27853 -3.60276,-0.85019 -4.4401,-1.02464 -0.37887,-0.0789 -0.76636,-0.12137 -1.13848,-0.22769 -0.0816,-0.0233 -0.1518,-0.0759 -0.2277,-0.11385 -0.11385,-0.038 -0.22512,-0.0847 -0.34155,-0.11385 -0.4749,-0.11873 -1.10897,0 -1.59388,0"
     id="path32" /><path
     style="fill:#fc8dc5;fill-opacity:1;stroke-width:1.00157;paint-order:stroke fill markers"
     d="m 976.13823,118.74413 c -0.61964,0.34855 -2.25241,1.1486 -2.84621,1.82158 -0.98174,1.11263 -1.27769,2.79597 -1.48004,4.2124 -0.0146,0.10251 -0.13401,1.07939 0.34155,0.68309 0.16999,-0.14166 0.24555,-0.36987 0.34154,-0.56924 0.39785,-0.8263 0.78576,-1.65813 1.13849,-2.50467 0.21699,-0.52077 0.24963,-1.12899 0.56924,-1.59388 0.53231,-0.77426 1.38106,-1.29067 1.93543,-2.04928 0.8915,-1.21994 -0.43578,-0.63597 0.79694,-1.25233 0.0899,-0.045 0.24553,0.032 0.34155,0 0.30274,-0.10092 0.61598,-0.0803 0.91079,-0.2277 0.003,-0.001 -0.56648,0.11246 -0.56925,0.11385 -1.02267,0.51133 -0.8531,0.48848 -1.48003,1.36618 z"
     id="path33" /><path
     style="fill:#fc8dc5;fill-opacity:1;stroke-width:1.00157;paint-order:stroke fill markers"
     d="m 1235.8843,141.52453 c -0.9117,-0.15708 -1.5548,0.13082 -2.4151,0.32201 -0.4097,0.091 -1.0283,0 -1.4491,0"
     id="path34" /><path
     style="fill:#fc8dc5;fill-opacity:1;stroke-width:1.00157;paint-order:stroke fill markers"
     d="m 1232.5031,139.10943 c -0.8736,1.74728 -0.8025,1.37519 -1.288,3.22013 -0.068,0.25916 -0.9281,3.70314 -0.644,3.70314 0.12,0 0.1148,-0.21123 0.161,-0.32201 0.2223,-0.53356 0.4163,-1.07877 0.644,-1.61006 0.6932,-1.61738 1.6499,-3.02629 2.5761,-4.50818 0.081,-0.47733 0.5725,-0.61727 0.805,-0.96603 0.089,-0.13265 0,-0.99681 0,-1.12705 0,-0.35195 0.01,-0.64509 0,-0.64402 -0.2834,0.0567 -0.5308,0.23061 -0.805,0.32201 -1.21,0.40335 -0.9191,0.51899 -1.4491,1.93207 z"
     id="path35" /><path
     style="fill:#fc8dc5;fill-opacity:1;stroke-width:1.00157;paint-order:stroke fill markers"
     d="m 1232.2407,141.51386 c 0.5693,-0.0379 1.1393,-0.0655 1.7078,-0.11385 0.476,-0.0405 0.9465,-0.13673 1.4231,-0.17077 0.2892,-0.0207 1.4817,-0.1222 1.3662,0.45539 -0.045,0.22483 -0.6717,0.59961 -0.797,0.68309 -0.4694,0.31294 -1.0265,0.48575 -1.5939,0.39847 -0.255,-0.0392 -0.4918,-0.15679 -0.74,-0.22769 -0.1328,-0.0379 -0.2709,-0.0607 -0.3984,-0.11385 -0.012,-0.005 -0.6812,-0.39606 -0.6831,-0.39847 -0.1237,-0.1512 -0.1898,-0.34155 -0.2847,-0.51232 z"
     id="path36" /><path
     style="fill:#fc8dc5;fill-opacity:1;stroke-width:1.00157;paint-order:stroke fill markers"
     d="m 1735.0533,63.527541 c -2.2668,0.298168 -4.098,-0.369793 -6.1479,-1.138487 -1.5155,-0.568314 -4.6272,-1.211788 -5.9201,-2.50467 -0.031,-0.03101 0.2922,0 0.9108,0 0.8298,0 1.5923,0.0032 2.0493,-0.910789 0.9847,-1.969381 0.3099,-5.154014 -2.5047,-4.098551 -0.7399,0.277471 -1.1293,1.036428 -1.5939,1.593881 -1.9111,2.293343 -2.546,3.777554 -3.4154,6.603221 -0.3437,1.116939 -0.5868,1.22595 -0.4554,2.276973 0.1893,1.514831 0.1308,0.392592 0.4554,1.366183 0.043,0.12878 -0.091,0.59164 0,0.683092 0.4672,0.467218 0.7564,-0.829847 1.1384,-1.593881 0.6832,-1.366322 1.2606,-2.924858 2.7324,-3.415459 0.5404,-0.180145 2.2778,0 2.5047,0 0.8349,0 1.6832,-0.149349 2.5047,0 0.4722,0.08587 0.903,0.329091 1.3661,0.455395 0.5178,0.141212 1.0956,0.02838 1.5939,0.227697 0.2541,0.101634 0.4235,0.368856 0.6831,0.455395 0.216,0.072 0.4585,-0.03743 0.6831,0 1.3431,0.223853 1.9589,0.208074 3.4155,0 z"
     id="path37" /></svg>
