<?xml version="1.0" encoding="UTF-8" standalone="no"?>
<!-- Created with Inkscape (http://www.inkscape.org/) -->

<svg
   width="16mm"
   height="16mm"
   viewBox="0 0 16 16"
   version="1.1"
   id="svg1"
   inkscape:version="1.4 (86a8ad7, 2024-10-11)"
   sodipodi:docname="Footstep.svg"
   xmlns:inkscape="http://www.inkscape.org/namespaces/inkscape"
   xmlns:sodipodi="http://sodipodi.sourceforge.net/DTD/sodipodi-0.dtd"
   xmlns="http://www.w3.org/2000/svg"
   xmlns:svg="http://www.w3.org/2000/svg">
  <sodipodi:namedview
     id="namedview1"
     pagecolor="#9282e4"
     bordercolor="#000000"
     borderopacity="0.25"
     inkscape:showpageshadow="2"
     inkscape:pageopacity="0.0"
     inkscape:pagecheckerboard="0"
     inkscape:deskcolor="#d1d1d1"
     inkscape:document-units="mm"
     inkscape:zoom="8.0126864"
     inkscape:cx="48.298408"
     inkscape:cy="46.61358"
     inkscape:window-width="1920"
     inkscape:window-height="991"
     inkscape:window-x="-9"
     inkscape:window-y="-9"
     inkscape:window-maximized="1"
     inkscape:current-layer="layer1" />
  <defs
     id="defs1">
    <rect
       x="4.6771655"
       y="3.9711781"
       width="46.595158"
       height="18.796909"
       id="rect1" />
    <rect
       x="4.6771655"
       y="3.9711781"
       width="46.595158"
       height="18.796909"
       id="rect1-4" />
    <rect
       x="4.6771655"
       y="3.9711781"
       width="46.595158"
       height="18.796909"
       id="rect1-5" />
    <rect
       x="4.6771655"
       y="3.9711781"
       width="46.595158"
       height="18.796909"
       id="rect1-52" />
    <rect
       x="4.6771655"
       y="3.9711781"
       width="46.595158"
       height="18.796909"
       id="rect1-3" />
    <rect
       x="4.6771655"
       y="3.9711781"
       width="46.595158"
       height="18.796909"
       id="rect1-7" />
    <rect
       x="4.6771655"
       y="3.9711781"
       width="46.595158"
       height="18.796909"
       id="rect1-9" />
    <rect
       x="4.6771655"
       y="3.9711781"
       width="46.595158"
       height="18.796909"
       id="rect1-4-5" />
    <rect
       x="4.6771655"
       y="3.9711781"
       width="46.595158"
       height="18.796909"
       id="rect1-5-4" />
    <rect
       x="4.6771655"
       y="3.9711781"
       width="46.595158"
       height="18.796909"
       id="rect1-52-3" />
    <rect
       x="4.6771655"
       y="3.9711781"
       width="46.595158"
       height="18.796909"
       id="rect1-3-1" />
    <rect
       x="4.6771655"
       y="3.9711781"
       width="46.595158"
       height="18.796909"
       id="rect1-7-2" />
    <rect
       x="4.6771655"
       y="3.9711781"
       width="46.595158"
       height="18.796909"
       id="rect1-2" />
    <rect
       x="4.6771655"
       y="3.9711781"
       width="46.595158"
       height="18.796909"
       id="rect1-4-7" />
    <rect
       x="4.6771655"
       y="3.9711781"
       width="46.595158"
       height="18.796909"
       id="rect1-5-7" />
    <rect
       x="4.6771655"
       y="3.9711781"
       width="46.595158"
       height="18.796909"
       id="rect1-52-9" />
    <rect
       x="4.6771655"
       y="3.9711781"
       width="46.595158"
       height="18.796909"
       id="rect1-3-3" />
    <rect
       x="4.6771655"
       y="3.9711781"
       width="46.595158"
       height="18.796909"
       id="rect1-7-1" />
    <rect
       x="4.6771655"
       y="3.9711781"
       width="46.595158"
       height="18.796909"
       id="rect1-0" />
    <rect
       x="4.6771655"
       y="3.9711781"
       width="46.595158"
       height="18.796909"
       id="rect1-4-0" />
    <rect
       x="4.6771655"
       y="3.9711781"
       width="46.595158"
       height="18.796909"
       id="rect1-5-6" />
    <rect
       x="4.6771655"
       y="3.9711781"
       width="46.595158"
       height="18.796909"
       id="rect1-52-1" />
    <rect
       x="4.6771655"
       y="3.9711781"
       width="46.595158"
       height="18.796909"
       id="rect1-3-38" />
    <rect
       x="4.6771655"
       y="3.9711781"
       width="46.595158"
       height="18.796909"
       id="rect1-7-9" />
  </defs>
  <g
     inkscape:label="Layer 1"
     inkscape:groupmode="layer"
     id="layer1">
    <path
       style="fill:#ffffff;fill-opacity:1;stroke-width:0.264583;paint-order:stroke fill markers"
       d="M 3.7041667,5.8746803 3.820912,6.5518029 4.8482704,6.3650105 5.3852988,8.1395387 6.4593552,7.85935 5.6421383,6.2015671 6.4593552,6.0381237 6.0857704,5.3843501 Z"
       id="path1" />
    <path
       id="path2"
       style="fill:#ffffff;fill-opacity:1;stroke-width:0.264583;paint-order:stroke fill markers"
       d="M 8.3741783,5.4544687 7.4631228,5.6647918 6.9029503,8.0460418 7.883769,8.2093393 8.0005577,7.2290374 H 8.4671959 L 8.7710533,8.396408 9.6583376,8.2563649 Z M 8.1989952,6.2947275 8.3741783,6.6569793 7.9189089,6.7386281 7.9535321,6.3882618 Z" />
    <path
       id="path3"
       style="fill:#ffffff;fill-opacity:1;stroke-width:0.264583;paint-order:stroke fill markers"
       d="m 11.207597,5.2922047 c -0.408486,0.014148 -0.778764,0.3023071 -0.778764,0.3023071 L 10.21851,8.2796193 h 0.723987 l 0.02325,-1.3306682 0.817004,-0.047025 c 0,0 0.724003,-0.023129 0.210323,-1.0738363 C 11.784397,5.4012393 11.487087,5.2825246 11.207597,5.2922047 Z m -0.03721,0.6097819 c 0.08277,-0.00136 0.179489,0.0192 0.250631,0.1012858 0.151768,0.175118 -0.03514,0.3033407 -0.03514,0.3033407 l -0.373621,0.058394 -0.01137,-0.4320149 c 0,0 0.0757,-0.029461 0.169499,-0.031006 z" />
  </g>
</svg>
