<?xml version="1.0" encoding="UTF-8" standalone="no"?>
<!-- Created with Inkscape (http://www.inkscape.org/) -->

<svg
   width="16mm"
   height="16mm"
   viewBox="0 0 16 16"
   version="1.1"
   id="svg1"
   inkscape:version="1.4 (86a8ad7, 2024-10-11)"
   sodipodi:docname="gUNSHOT.svg"
   xmlns:inkscape="http://www.inkscape.org/namespaces/inkscape"
   xmlns:sodipodi="http://sodipodi.sourceforge.net/DTD/sodipodi-0.dtd"
   xmlns="http://www.w3.org/2000/svg"
   xmlns:svg="http://www.w3.org/2000/svg">
  <sodipodi:namedview
     id="namedview1"
     pagecolor="#9282e4"
     bordercolor="#000000"
     borderopacity="0.25"
     inkscape:showpageshadow="2"
     inkscape:pageopacity="0.0"
     inkscape:pagecheckerboard="0"
     inkscape:deskcolor="#d1d1d1"
     inkscape:document-units="mm"
     inkscape:zoom="5.6658249"
     inkscape:cx="21.444362"
     inkscape:cy="9.0895855"
     inkscape:window-width="1920"
     inkscape:window-height="991"
     inkscape:window-x="-9"
     inkscape:window-y="-9"
     inkscape:window-maximized="1"
     inkscape:current-layer="layer1" />
  <defs
     id="defs1">
    <rect
       x="4.6771655"
       y="3.9711781"
       width="46.595158"
       height="18.796909"
       id="rect1" />
    <rect
       x="4.6771655"
       y="3.9711781"
       width="46.595158"
       height="18.796909"
       id="rect1-4" />
    <rect
       x="4.6771655"
       y="3.9711781"
       width="46.595158"
       height="18.796909"
       id="rect1-5" />
    <rect
       x="4.6771655"
       y="3.9711781"
       width="46.595158"
       height="18.796909"
       id="rect1-52" />
    <rect
       x="4.6771655"
       y="3.9711781"
       width="46.595158"
       height="18.796909"
       id="rect1-3" />
    <rect
       x="4.6771655"
       y="3.9711781"
       width="46.595158"
       height="18.796909"
       id="rect1-7" />
    <rect
       x="4.6771655"
       y="3.9711781"
       width="46.595158"
       height="18.796909"
       id="rect1-9" />
    <rect
       x="4.6771655"
       y="3.9711781"
       width="46.595158"
       height="18.796909"
       id="rect1-4-5" />
    <rect
       x="4.6771655"
       y="3.9711781"
       width="46.595158"
       height="18.796909"
       id="rect1-5-4" />
    <rect
       x="4.6771655"
       y="3.9711781"
       width="46.595158"
       height="18.796909"
       id="rect1-52-3" />
    <rect
       x="4.6771655"
       y="3.9711781"
       width="46.595158"
       height="18.796909"
       id="rect1-3-1" />
    <rect
       x="4.6771655"
       y="3.9711781"
       width="46.595158"
       height="18.796909"
       id="rect1-7-2" />
    <rect
       x="4.6771655"
       y="3.9711781"
       width="46.595158"
       height="18.796909"
       id="rect1-2" />
    <rect
       x="4.6771655"
       y="3.9711781"
       width="46.595158"
       height="18.796909"
       id="rect1-4-7" />
    <rect
       x="4.6771655"
       y="3.9711781"
       width="46.595158"
       height="18.796909"
       id="rect1-5-7" />
    <rect
       x="4.6771655"
       y="3.9711781"
       width="46.595158"
       height="18.796909"
       id="rect1-52-9" />
    <rect
       x="4.6771655"
       y="3.9711781"
       width="46.595158"
       height="18.796909"
       id="rect1-3-3" />
    <rect
       x="4.6771655"
       y="3.9711781"
       width="46.595158"
       height="18.796909"
       id="rect1-7-1" />
    <rect
       x="4.6771655"
       y="3.9711781"
       width="46.595158"
       height="18.796909"
       id="rect1-0" />
    <rect
       x="4.6771655"
       y="3.9711781"
       width="46.595158"
       height="18.796909"
       id="rect1-4-0" />
    <rect
       x="4.6771655"
       y="3.9711781"
       width="46.595158"
       height="18.796909"
       id="rect1-5-6" />
    <rect
       x="4.6771655"
       y="3.9711781"
       width="46.595158"
       height="18.796909"
       id="rect1-52-1" />
    <rect
       x="4.6771655"
       y="3.9711781"
       width="46.595158"
       height="18.796909"
       id="rect1-3-38" />
    <rect
       x="4.6771655"
       y="3.9711781"
       width="46.595158"
       height="18.796909"
       id="rect1-7-9" />
  </defs>
  <g
     inkscape:label="Layer 1"
     inkscape:groupmode="layer"
     id="layer1">
    <path
       id="path1"
       style="fill:#ffffff;stroke-width:0.264999;paint-order:stroke fill markers;fill-opacity:1"
       d="M 0.94206136 3.2587158 C 0.90135793 3.2601832 0.85972608 3.263711 0.81700439 3.2690511 C 0.82201239 3.558301 0.87916974 3.8439698 0.91053874 4.1325643 C 0.93338634 4.3427609 0.96325998 4.5523125 0.98081868 4.7630168 C 0.99827008 4.9724324 0.98081868 5.1833278 0.98081868 5.3934692 C 0.98081868 6.0586843 0.93794256 6.740309 1.0040731 7.4016154 C 1.0221771 7.58266 0.99131654 7.758479 1.0273275 7.9385335 C 1.0328275 7.9660495 1.0150825 8.0075769 1.0273275 8.0320679 C 1.0371675 8.0517579 1.0668753 8.0576917 1.0738363 8.0785767 C 1.1261293 8.2354553 1.0476903 8.0704196 1.0738363 8.1488566 C 1.0793363 8.1653666 1.0933864 8.1784814 1.0976074 8.1953654 C 1.1085984 8.2393274 1.0887074 8.2909203 1.0976074 8.3354085 C 1.1083974 8.3893595 1.1315482 8.4251784 1.1441162 8.4754517 C 1.1582802 8.5321077 1.1529292 8.7253225 1.2143962 8.7560547 C 1.2664512 8.7820817 1.3916353 8.7560547 1.4474569 8.7560547 L 2.1249349 8.7560547 C 2.235546 8.7560547 2.3666148 8.7740837 2.4747843 8.7560547 C 2.5233383 8.7479647 2.5675899 8.7209681 2.6153442 8.7090291 C 2.6612732 8.6975461 2.7108029 8.7016947 2.7553874 8.6857747 C 2.8578862 8.6491677 3.0973995 8.536275 3.1987712 8.4754517 L 3.3155599 8.4056885 C 3.3389099 8.3823395 3.3587888 8.3543445 3.3858398 8.3354085 C 3.4372458 8.2994245 3.5005726 8.282126 3.5491374 8.242391 C 3.5877084 8.210833 3.6095637 8.1628495 3.6426717 8.1256022 C 3.7545468 7.9997428 3.8348848 7.8984367 3.922758 7.7519816 C 3.954367 7.6992996 4.0201744 7.6165715 4.0395467 7.5649129 C 4.0477467 7.5430509 4.0372167 7.5183827 4.0395467 7.4951497 C 4.0450267 7.4403887 4.0529561 7.3859986 4.0628011 7.3318522 C 4.0942981 7.1586263 4.1453427 6.9513265 4.1093099 6.7711629 C 4.0905192 6.6772036 4.0924601 6.760718 4.0628011 6.7013997 C 3.8700752 6.3159479 3.9500035 6.4396229 3.5956462 6.3510335 C 3.5618788 6.3425906 3.5347021 6.3162294 3.5021118 6.304008 C 3.4537107 6.2542169 3.391731 6.2958718 3.3388143 6.2807536 C 3.3053463 6.2711936 3.2782999 6.2452508 3.2452799 6.2342448 C 3.1892419 6.2155648 3.1147657 6.2529248 3.058728 6.2342448 C 3.018966 6.2209918 2.9823756 6.198764 2.9419393 6.187736 C 2.8739443 6.169191 2.7993829 6.1833238 2.7316162 6.1639648 C 2.6981492 6.1544048 2.6720656 6.1270181 2.6385986 6.1174561 C 2.6161476 6.1110461 2.5912137 6.1220361 2.5683187 6.1174561 C 2.5512537 6.1140461 2.5386939 6.0984217 2.5218099 6.0942017 C 2.5176173 6.0931537 2.5128348 6.0927886 2.508374 6.0921346 C 2.566721 6.0898348 2.6249165 6.0848436 2.6851074 6.0709473 C 2.7259464 6.0615273 2.76066 6.0314187 2.8018962 6.0239217 C 2.8478412 6.0155717 2.8972108 6.0373417 2.9419393 6.0239217 C 2.9792133 6.0127407 3.0006666 5.9715615 3.0354736 5.9541585 C 3.0795006 5.9321455 3.1305353 5.927125 3.1755168 5.907133 C 3.2779145 5.861623 3.2199327 5.8572834 3.3155599 5.7903442 C 3.4029499 5.7291712 3.5177315 5.681707 3.5956462 5.6037923 C 3.6079522 5.5914863 3.6087856 5.5714455 3.6189006 5.5572835 C 3.724327 5.4096862 3.8188678 5.2514003 3.8995036 5.0901286 C 3.9630016 5.0701446 3.910839 5.0263892 3.922758 4.9965942 C 3.935686 4.9642772 3.9617158 4.9370379 3.9692668 4.9030599 C 3.9941938 4.790884 3.9773417 4.5693268 3.9460124 4.4596761 C 3.9104355 4.3351563 3.8151235 4.2622478 3.7356893 4.1563354 C 3.7084597 4.1200295 3.6954607 4.0740037 3.6659261 4.0395467 C 3.5591305 3.9149515 3.1922216 3.7654625 3.058728 3.6891805 C 2.9799221 3.6441484 2.9075614 3.5871731 2.8251506 3.5491374 C 2.8039496 3.5393574 2.7787364 3.5491374 2.7553874 3.5491374 C 2.7320374 3.5413574 2.7071204 3.53689 2.6851074 3.525883 C 2.6654174 3.516033 2.6594816 3.4858184 2.6385986 3.4788574 C 2.5421276 3.4467004 2.0568446 3.5113234 2.0081462 3.4788574 C 1.9898302 3.4666474 1.9808106 3.4421936 1.9611206 3.4323486 C 1.9471976 3.4253886 1.9297128 3.4361286 1.9146118 3.4323486 C 1.7907959 3.4013978 1.6657184 3.3828565 1.5409912 3.3620687 C 1.4567969 3.3480363 1.391083 3.3090393 1.3074137 3.2923055 C 1.1799704 3.2668168 1.0641717 3.2543137 0.94206136 3.2587158 z M 2.2153687 4.655013 C 2.2214057 4.6550691 2.2260205 4.655489 2.2288045 4.6560465 C 2.2681453 4.6639157 2.3603607 4.6637645 2.3941691 4.6891195 C 2.403986 4.6964821 2.5402897 4.8804661 2.5424805 4.8870402 C 2.5494405 4.9079242 2.5478205 4.931829 2.5424805 4.953186 C 2.5411455 4.958526 2.531054 4.951146 2.525944 4.953186 C 2.503092 4.962328 2.4806692 4.973215 2.4597982 4.986259 C 2.3423963 5.0596381 2.4399527 5.0061044 2.3445597 5.1014974 C 2.3203721 5.1256854 2.1487311 5.2182971 2.1135661 5.2007161 C 2.1119261 5.1998948 2.1135661 5.0274755 2.1135661 4.9697225 C 2.1135661 4.8523646 2.1222152 4.9129882 2.0804932 4.7878215 C 2.0749899 4.7492974 2.0639567 4.711498 2.0639567 4.672583 C 2.0639567 4.6656005 2.1731094 4.6546206 2.2153687 4.655013 z M 2.3879679 6.0936849 C 2.3860207 6.0937219 2.3836696 6.0942017 2.3817668 6.0942017 L 2.3585124 6.0942017 C 2.3685569 6.0942017 2.3780282 6.0936692 2.3879679 6.0936849 z M 2.1957316 7.2812093 C 2.283273 7.3062213 2.3742522 7.3254524 2.4597982 7.3468384 C 2.4704772 7.3495084 2.4824291 7.3433584 2.4928711 7.3468384 C 2.5504981 7.3660472 2.5590888 7.468201 2.5920898 7.512203 C 2.6381598 7.57363 2.6178327 7.5140783 2.6582357 7.5948853 C 2.6743477 7.6271093 2.6537972 7.6693912 2.6416992 7.6935872 C 2.6315492 7.7138832 2.6377498 7.7408521 2.6251628 7.7597331 C 2.5968635 7.8021821 2.4727735 7.8911652 2.4437785 7.9085612 C 2.4167443 7.9247802 2.280124 7.9648221 2.245341 7.9416341 C 2.155582 7.8817946 2.1957316 7.3940528 2.1957316 7.3633748 L 2.1957316 7.2812093 z " />
    <path
       id="path2"
       style="fill:#ffffff;stroke-width:0.264999;paint-order:stroke fill markers;fill-opacity:1"
       d="M 6.1711995 5.016748 C 6.1444595 5.017086 6.1175142 5.0198486 6.0942017 5.0198486 C 5.8897079 5.0198486 5.6905851 5.0436198 5.4870036 5.0436198 C 5.3791502 5.0436198 5.1440508 5.0178948 5.0668742 5.0436198 C 4.963092 5.0782138 4.8313997 5.1429354 4.7397624 5.1836629 C 4.7286499 5.431337 4.7656253 5.6853269 4.716508 5.9309041 C 4.7034667 5.9961109 4.6623562 6.0529432 4.646228 6.1174561 C 4.638678 6.1476581 4.649328 6.1800134 4.646228 6.2109904 C 4.624072 6.4325581 4.5887764 6.6722766 4.5299561 6.8879517 C 4.4902201 7.0336506 4.4787351 6.964861 4.4596761 7.0982747 C 4.4469631 7.1872717 4.4596761 7.2883355 4.4596761 7.378361 L 4.4596761 7.9152791 C 4.4596761 7.9875301 4.4739931 8.0772672 4.4596761 8.1488566 C 4.4463251 8.2156176 4.4230933 8.2659282 4.4131673 8.3354085 C 4.4098673 8.3585225 4.4205473 8.3835375 4.4131673 8.4056885 C 4.4042973 8.4323105 4.3786918 8.4503527 4.3661418 8.4754517 C 4.3498748 8.5079847 4.3595562 8.5382736 4.3893962 8.5457316 C 4.4132722 8.5517016 4.4363271 8.561202 4.4596761 8.568986 C 4.4908081 8.568986 4.5228204 8.562236 4.5532104 8.568986 C 4.5941254 8.578076 4.6293379 8.6058466 4.6699992 8.6160116 C 4.7098932 8.6259816 5.1588577 8.7105797 5.1836629 8.6857747 C 5.2289569 8.6404807 5.1532599 8.4114151 5.1836629 8.3354085 C 5.1940849 8.3093525 5.2197497 8.2917003 5.2301717 8.2656453 C 5.2534767 8.2073843 5.2382061 8.1394517 5.2534261 8.0785767 C 5.3037641 7.8772243 5.3702148 7.7022505 5.3702148 7.4951497 C 5.3702148 7.4350467 5.4172404 7.4044858 5.4172404 7.3551066 C 5.4172404 7.3317566 5.3940704 7.2877227 5.4172404 7.2848267 C 5.5796752 7.2645227 5.7660613 7.2848267 5.9309041 7.2848267 C 5.9465991 7.2848267 5.9868883 7.2779367 6.0006673 7.2848267 C 6.1014563 7.3352207 6.120841 7.7594148 6.1407104 7.845516 C 6.1485404 7.879431 6.180185 7.9045555 6.187736 7.9385335 C 6.196176 7.9765215 6.177044 8.017905 6.187736 8.0553223 C 6.201965 8.1051263 6.3037845 8.1706305 6.3277791 8.2186198 C 6.3691121 8.3012858 6.2581289 8.2347151 6.3742879 8.3121541 C 6.3872389 8.3207841 6.4052307 8.3121541 6.4207967 8.3121541 C 6.4961627 8.3121541 6.6313449 8.3355061 6.7013997 8.3121541 C 6.8705267 8.2557781 6.6643039 8.3190733 6.7711629 8.2656453 C 6.8084549 8.2470003 6.9066492 8.2934563 6.9344604 8.2656453 C 6.9496504 8.2504553 6.9344604 8.0331619 6.9344604 7.9855591 C 6.9344604 7.8934801 6.9353498 7.7429192 6.9112061 7.6584473 C 6.8873015 7.5747801 6.8297582 7.5043869 6.7944173 7.4248698 C 6.7533246 7.3324112 6.712206 7.2398713 6.6776286 7.1447835 C 6.6643306 7.1082115 6.6840286 7.0663801 6.6776286 7.0279948 C 6.6735786 7.0037168 6.6592022 6.9823656 6.6543742 6.9582316 C 6.6264182 6.8184493 6.6661952 6.6561758 6.6543742 6.5143311 C 6.6386443 6.325569 6.5745919 6.1391911 6.5375854 5.9541585 C 6.5283012 5.9077355 6.5221151 5.8608135 6.5143311 5.8141154 C 6.4987657 5.7596342 6.4801138 5.705613 6.4678223 5.6503011 C 6.4584023 5.6079231 6.4815223 5.5513585 6.4678223 5.510258 C 6.5145692 5.425436 6.4143968 5.4356057 6.3975423 5.3934692 C 6.3856229 5.3636742 6.3844373 5.3308949 6.3742879 5.3004517 C 6.3524968 5.2350742 6.302546 5.1787605 6.2807536 5.113383 C 6.2758336 5.098617 6.2877136 5.0807972 6.2807536 5.0668742 C 6.259048 5.0234629 6.2157663 5.0161848 6.1711995 5.016748 z M 5.4151733 6.1252075 C 5.4643977 6.1375145 5.5186195 6.1355894 5.5640015 6.1582804 C 5.5800735 6.1663163 5.6553302 6.29997 5.6632202 6.323645 C 5.6667002 6.334086 5.6591302 6.3459832 5.6632202 6.3562012 C 5.6933152 6.4314391 5.7312142 6.4294408 5.7619222 6.5215658 C 5.7684862 6.5412586 5.7535657 6.620957 5.7453857 6.637321 C 5.7429247 6.642241 5.7334293 6.634271 5.7288493 6.637321 C 5.6397803 6.696702 5.7406587 6.642048 5.6797567 6.70295 C 5.6455694 6.737138 5.4586728 6.7403396 5.4317098 6.6864136 C 5.4267898 6.6765676 5.4351898 6.6643004 5.4317098 6.6538574 C 5.4292488 6.6464774 5.4176333 6.644701 5.4151733 6.637321 C 5.4005843 6.5935497 5.4151733 6.4743735 5.4151733 6.4388835 L 5.4151733 6.1252075 z " />
    <path
       style="fill:#ffffff;stroke-width:0.264999;paint-order:stroke fill markers;fill-opacity:1"
       d="m 7.471698,4.9033019 c 0.030155,0.2385579 0.1145559,0.4658114 0.1634435,0.7004717 0.038623,0.1853885 0.056258,0.3746857 0.093396,0.5603772 0.045623,0.2281168 0.1325555,0.4454638 0.1634432,0.6771227 0.00514,0.038574 0,0.07783 0,0.1167453 0.00778,0.054481 0.013504,0.109297 0.023349,0.1634434 0.01148,0.063145 0.037622,0.1232572 0.046698,0.1867924 0.0033,0.023114 -0.00566,0.047395 0,0.070047 0.02621,0.1048404 0.072256,0.1978388 0.093396,0.3035379 0.024088,0.1204434 -0.00151,0.4624478 0.02335,0.5370283 0.028917,0.086751 0.1521775,0.023349 0.2101413,0.023349 0.039351,0 0.4617278,0.00525 0.4669811,0 0.033021,-0.03302 0.00333,-0.093515 0,-0.1400942 C 8.7357036,7.8194367 8.6623204,7.5406651 8.6158024,7.261557 8.6024409,7.1813967 8.5691042,7.1101111 8.5691042,7.0280664 c 0,-0.021132 -0.013094,-0.2269434 0,-0.2334906 0.1217737,-0.060887 0.2456447,0.1229824 0.3502359,0.2101417 0.23246,0.1937165 0.089018,0.09609 0.3502358,0.2568395 0.068244,0.041996 0.1485831,0.065447 0.2101416,0.1167452 0.021558,0.017965 0.026855,0.050204 0.046698,0.070047 0.012306,0.012306 0.032775,0.012906 0.046698,0.02335 0.3447806,0.2585855 -0.020434,0.00542 0.2334905,0.1867924 0.036929,0.026379 0.084655,0.037957 0.1167453,0.070047 0.0055,0.0055 -0.00696,0.019868 0,0.023349 0.07092,0.03546 0.5606357,-0.1470223 0.6304247,-0.1634434 0.105745,-0.024881 0.300458,0.00411 0.373585,-0.093396 0.0093,-0.012451 0.0049,-0.031931 0,-0.046698 C 10.904523,7.3798381 10.818211,7.2362435 10.787265,7.168162 10.763439,7.1157467 10.67981,6.8906373 10.670519,6.8646243 10.58795,6.6334303 10.500956,6.3842725 10.460378,6.1408034 c -0.0064,-0.038386 0.007,-0.078458 0,-0.1167453 -0.0088,-0.04843 -0.03563,-0.092131 -0.0467,-0.1400942 -0.01237,-0.053625 -0.0072,-0.110843 -0.02335,-0.1634434 -0.01535,-0.049901 -0.0557,-0.089893 -0.07005,-0.1400945 -0.01724,-0.060334 -0.01178,-0.1251183 -0.02335,-0.1867924 -0.01183,-0.063081 -0.03694,-0.1233583 -0.0467,-0.1867924 -0.0146,-0.094878 0.03409,-0.492202 0,-0.5603775 -0.03219,-0.06438 -0.2660926,-0.023349 -0.3268864,-0.023349 -0.054481,0 -0.1100201,0.010684 -0.1634432,0 -0.068517,-0.013703 -0.2219711,-0.081567 -0.2334905,-0.070047 -0.022664,0.022664 0.062857,0.1382783 0.070047,0.1634431 0.02835,0.099226 0.058641,0.2242328 0.070047,0.3268869 0.00344,0.030942 -0.00557,0.062766 0,0.093396 0.01511,0.083108 0.055926,0.2519461 0.093396,0.3268867 0.017642,0.035284 0,0.1234117 0,0.1634434 0,0.1089623 0,0.2179246 0,0.3268869 0,0.046698 0,0.093396 0,0.1400942 0,0.015566 0.015566,0.046698 0,0.046698 -0.079813,0 -0.4407754,-0.2281145 -0.5136792,-0.2801887 C 9.1828931,5.8153762 9.129047,5.7553267 9.0594338,5.7205199 9.0307312,5.7061689 8.9927381,5.7149716 8.9660374,5.6971705 8.942688,5.681605 8.9421747,5.6434341 8.9193393,5.6271233 8.8852334,5.6027632 8.840082,5.5991693 8.802594,5.5804252 8.7751747,5.5667171 8.713268,5.5007388 8.6858487,5.4870291 c -0.013922,-0.00696 -0.032245,0.00578 -0.046698,0 C 8.5970141,5.4701752 8.5568622,5.4465164 8.5224053,5.416982 8.4806202,5.3811661 8.4470776,5.336477 8.40566,5.3002367 8.3586314,5.2590866 8.2852304,5.226505 8.2422166,5.1834914 c -0.0055,-0.0055 0.00648,-0.019031 0,-0.023349 -0.057761,-0.038507 -0.1903638,-0.076777 -0.2568396,-0.093396 -0.034591,-0.00865 -0.084316,0.012973 -0.1167452,0 -0.030659,-0.012263 -0.038721,-0.059605 -0.070047,-0.070047 -0.014766,-0.00492 -0.031434,0.00305 -0.046698,0 C 7.6462818,4.9755768 7.5789366,4.9492619 7.471698,4.9033019 Z"
       id="path3" />
    <path
       id="path4"
       style="fill:#ffffff;stroke-width:0.264999;paint-order:stroke fill markers;fill-opacity:1"
       d="M 12.565125 5.5671021 C 12.512628 5.568054 12.46992 5.5723097 12.445235 5.5805379 C 12.383495 5.6011199 12.09601 5.9347229 12.071615 5.9774129 C 12.008725 6.0874692 12.04836 6.27681 12.04836 6.3975423 C 12.04836 6.7908422 12.040573 7.177244 12.118123 7.5649129 C 12.136813 7.6583699 12.168878 7.8458418 12.211658 7.9385335 C 12.237948 7.9955065 12.277122 8.0462236 12.305192 8.1023478 C 12.316202 8.1243608 12.315786 8.151006 12.328446 8.172111 C 12.339776 8.190989 12.362745 8.2003038 12.374955 8.2186198 C 12.394265 8.2475808 12.400584 8.2843091 12.421464 8.3121541 C 12.426164 8.3183841 12.440565 8.3059241 12.445235 8.3121541 C 12.496875 8.3810111 12.529414 8.4805517 12.585278 8.5457316 C 12.640518 8.6101756 12.857289 8.7531902 12.935645 8.7793091 C 13.019905 8.8073961 13.356532 8.7793091 13.472563 8.7793091 C 13.583263 8.7793091 13.774283 8.8089243 13.869438 8.7328003 C 13.914498 8.6967563 13.94693 8.63154 13.986226 8.5922404 C 14.029696 8.5487694 14.106152 8.518823 14.149524 8.4754517 C 14.237114 8.3878577 14.164524 8.432879 14.219804 8.3591797 C 14.283034 8.2748777 14.342538 8.1874373 14.406356 8.1023478 C 14.429976 8.0708488 14.448976 8.0132184 14.476636 7.9855591 C 14.482136 7.9800591 14.49557 7.9920391 14.49989 7.9855591 C 14.51354 7.9650801 14.509495 7.9357571 14.523145 7.9152791 C 14.527445 7.9087991 14.542919 7.9222391 14.546399 7.9152791 C 14.553399 7.9013571 14.541499 7.8835373 14.546399 7.8687703 C 14.571289 7.7940953 14.613563 7.7708785 14.639933 7.7049561 C 14.649833 7.6802891 14.653318 7.6133504 14.663188 7.5886841 C 14.739278 7.3984572 14.687438 7.6322374 14.733468 7.4481242 C 14.741868 7.4147072 14.718338 7.3621145 14.733468 7.3318522 C 14.740468 7.3179302 14.766056 7.3248922 14.779976 7.3318522 C 14.850776 7.3672522 14.847781 7.4816398 14.873511 7.5416585 C 14.986795 7.8059886 14.842048 7.3163139 14.966528 7.7519816 C 14.988588 7.8291756 14.968049 7.9309265 14.990299 8.0088135 C 14.999899 8.0422815 15.025798 8.0693278 15.036808 8.1023478 C 15.059448 8.1702618 15.001203 8.276548 15.060063 8.3354085 C 15.086063 8.3614115 15.289048 8.3354085 15.316895 8.3354085 L 15.527218 8.3354085 C 15.660506 8.3354085 15.661106 8.354615 15.596981 8.242391 C 15.579711 8.21217 15.570432 8.1773716 15.550472 8.1488566 C 15.515612 8.0990576 15.467398 8.059392 15.433683 8.0088135 C 15.371503 7.9155395 15.38195 7.7433731 15.36392 7.6351929 C 15.32425 7.3971578 15.289982 7.1425736 15.223877 6.9112061 C 15.210867 6.8656861 15.217656 6.8151191 15.200106 6.7711629 C 15.189686 6.7451069 15.164017 6.7274547 15.153597 6.7013997 C 15.134287 6.6531337 15.189863 6.5208386 15.130343 6.4910767 C 15.074923 6.4633657 14.710811 6.6224169 14.686442 6.6311198 C 14.51215 6.6933668 14.342192 6.7499061 14.172778 6.8176717 C 14.095768 6.8484767 13.968568 6.8606221 13.892692 6.9112061 C 13.886192 6.9155261 13.900092 6.9319994 13.892692 6.9344604 C 13.870542 6.9418404 13.845829 6.9298804 13.822929 6.9344604 C 13.728969 6.9532514 13.811969 6.951827 13.752649 6.981486 C 13.722529 6.996543 13.663255 6.9910414 13.63586 7.0047404 C 13.61617 7.0145904 13.609041 7.0414042 13.589351 7.0512492 C 13.575431 7.0582092 13.556776 7.0454692 13.542326 7.0512492 C 13.457876 7.0850292 13.220054 7.2402217 13.122196 7.1912923 C 13.115196 7.1878123 13.124096 7.1755899 13.122196 7.1680379 C 13.116196 7.1441619 13.109952 7.1202887 13.098942 7.0982747 C 13.045512 6.9914151 13.108317 7.1971218 13.051917 7.0279948 C 13.047017 7.0132288 13.056817 6.996253 13.051917 6.981486 C 13.031327 6.919728 12.993103 6.8600951 12.982153 6.7944173 C 12.967913 6.7089623 12.930279 6.0167712 12.958899 5.9309041 C 12.973929 5.8858081 12.998282 5.922323 13.028662 5.907133 C 13.048352 5.897283 13.055998 5.8704692 13.075688 5.8606242 C 13.122138 5.8373962 13.384064 5.9177218 13.308748 5.7670898 C 13.300948 5.7515238 13.27455 5.7561414 13.26224 5.7438354 C 13.2424 5.7239914 13.240261 5.6877003 13.215731 5.6740723 C 13.166201 5.6465553 13.106398 5.6426127 13.051917 5.6270467 C 12.965081 5.5906905 12.722613 5.5642461 12.565125 5.5671021 z M 13.984676 7.3401204 C 13.998104 7.3396004 14.009216 7.3414944 14.017232 7.3468384 C 14.027472 7.3536684 14.025059 7.3712083 14.033769 7.3799113 C 14.037669 7.3838013 14.046415 7.3760213 14.050305 7.3799113 C 14.105675 7.4352853 14.077475 7.4938824 14.050305 7.5618123 C 14.036595 7.5960893 14.023756 7.6316863 14.000696 7.6605143 C 14.075646 7.7546693 13.94415 7.7005227 13.93455 7.7101237 C 13.92585 7.7188237 13.926724 7.7344936 13.918014 7.7431966 C 13.905234 7.7559816 13.758258 7.8186699 13.736629 7.8258789 C 13.692049 7.8407379 13.632379 7.8110199 13.587801 7.8258789 C 13.582601 7.8276289 13.593001 7.8406744 13.587801 7.8424154 C 13.572141 7.8476354 13.554702 7.8424154 13.538192 7.8424154 C 13.521682 7.8424154 13.503259 7.8509154 13.489099 7.8424154 C 13.472079 7.8322074 13.467936 7.80868 13.456026 7.792806 C 13.391676 7.707005 13.406417 7.6163271 13.406417 7.512203 C 13.49789 7.5944424 13.854872 7.3451479 13.984676 7.3401204 z " />
  </g>
</svg>
