<?xml version="1.0" encoding="UTF-8" standalone="no"?>
<!-- Created with Inkscape (http://www.inkscape.org/) -->

<svg
   version="1.1"
   id="svg1"
   width="768"
   height="192"
   viewBox="0 0 768 192"
   sodipodi:docname="Knife.svg"
   inkscape:version="1.4 (86a8ad7, 2024-10-11)"
   xmlns:inkscape="http://www.inkscape.org/namespaces/inkscape"
   xmlns:sodipodi="http://sodipodi.sourceforge.net/DTD/sodipodi-0.dtd"
   xmlns:xlink="http://www.w3.org/1999/xlink"
   xmlns="http://www.w3.org/2000/svg"
   xmlns:svg="http://www.w3.org/2000/svg">
  <defs
     id="defs1">
    <linearGradient
       id="linearGradient52"
       inkscape:collect="always">
      <stop
         style="stop-color:#dedede;stop-opacity:0.80000001;"
         offset="0"
         id="stop53" />
      <stop
         style="stop-color:#dedede;stop-opacity:1;"
         offset="1"
         id="stop54" />
    </linearGradient>
    <linearGradient
       inkscape:collect="always"
       xlink:href="#linearGradient52"
       id="linearGradient50"
       x1="555"
       y1="90.125"
       x2="550.625"
       y2="99.75"
       gradientUnits="userSpaceOnUse" />
  </defs>
  <sodipodi:namedview
     id="namedview1"
     pagecolor="#e96499"
     bordercolor="#000000"
     borderopacity="0.25"
     inkscape:showpageshadow="2"
     inkscape:pageopacity="0.0"
     inkscape:pagecheckerboard="0"
     inkscape:deskcolor="#d1d1d1"
     inkscape:zoom="2"
     inkscape:cx="378"
     inkscape:cy="178.75"
     inkscape:window-width="1920"
     inkscape:window-height="991"
     inkscape:window-x="-9"
     inkscape:window-y="-9"
     inkscape:window-maximized="1"
     inkscape:current-layer="svg1" />
  <g
     inkscape:groupmode="layer"
     inkscape:label="Image"
     id="g1"
     style="display:inline">
    <path
       style="fill:#dddddd;fill-opacity:1"
       d="m 119.47855,146.96825 6.63176,-0.10697 0.85571,6.63176 0.10696,6.31086 -1.92535,6.31086 -5.98997,8.55711 -2.78106,1.49749 1.1766,-10.16156 z"
       id="path1" />
    <path
       style="fill:#dddddd;fill-opacity:1"
       d="m 306.0234,157.66462 c 1.01615,0.16045 6.7922,2.6741 6.7922,2.6741 l -0.42786,5.24122 -3.69025,6.95265 -3.47632,5.6156 -6.31086,4.81337 -4.75989,2.56713 -5.34819,1.28357 z"
       id="path2" />
    <path
       style="fill:#dedede;fill-opacity:1"
       d="m 526.11581,92.652655 15.50514,1.663966 7.86602,1.966505 7.56348,2.495949 6.12642,2.949755 4.46246,3.93301 -1.81524,-8.092922 -4.38682,-7.109673 c 0,0 -5.29444,-4.538089 -6.35332,-4.916263 -1.05889,-0.378175 -7.10968,-2.19341 -7.10968,-2.19341 l -10.28633,-0.831983 -7.10968,0.907618 -2.94975,0.983252 -1.2858,3.933011 -1.58833,3.781741 z"
       id="path3" />
    <path
       style="fill:#dedede;fill-opacity:1"
       d="m 718.45516,73.819584 10.13506,-1.89087 8.39547,-0.378174 9.22745,-1.663966 9.37871,-0.605079 3.10103,0.378174 -5.59698,-4.689358 -7.79038,-4.38682 -7.79039,-2.647219 c 0,0 -8.01729,0.983253 -8.31983,0.983253 -0.30254,0 -12.63101,6.12642 -12.63101,6.12642 l -1.21016,2.420315 0.90762,3.781741 0.75635,2.571583 z"
       id="path4" />
    <path
       style="fill:#dedede;fill-opacity:1"
       d="m 294.02384,180.31223 c -0.38273,-0.29803 -0.85266,-0.57709 -1.14905,-0.97227 -0.0593,-0.0791 -0.0745,-0.18525 -0.13258,-0.26517 -0.0613,-0.0842 -0.1597,-0.13672 -0.22097,-0.22097 -0.20044,-0.2756 -0.26717,-0.65551 -0.35356,-0.97227 -0.0567,-0.20806 -0.15269,-0.4139 -0.22097,-0.61872 -0.0753,-0.22586 -0.0757,-0.43523 -0.13258,-0.66291 -0.0167,-0.0669 -0.0717,-0.1541 -0.0884,-0.22097 -0.0552,-0.22065 -0.10033,-0.48138 -0.13258,-0.70711 -0.0343,-0.23982 0,-0.50819 0,-0.7513 0,-0.0147 -0.002,0.0296 0,0.0442 0.0168,0.11758 0.0209,0.2371 0.0442,0.35356 0.0381,0.19066 0.18997,0.50657 0.26517,0.7071 0.0279,0.0743 0.0589,0.14732 0.0884,0.22098 0.0442,0.0736 0.10068,0.14121 0.13258,0.22097 0.0279,0.0697 0.0236,0.14874 0.0442,0.22097 0.0571,0.19987 0.24313,0.36468 0.35356,0.53033 0.0772,0.11584 0.0165,0.0772 0.0884,0.22097 0.20842,0.41685 0.008,-0.01 0.13258,0.17678 0.0418,0.0627 0.12245,0.28111 0.17677,0.35355 0.0768,0.10232 0.28416,0.34095 0.39775,0.39775 0.0659,0.0329 0.14732,0 0.22097,0 0.0295,0 0.0955,0.0286 0.0884,0 -0.0746,-0.29824 -0.33578,-0.57658 -0.48613,-0.83969 -0.13654,-0.23895 0.0778,-0.0289 -0.13259,-0.30936 -0.009,-0.0118 -0.0353,0.0118 -0.0442,0 -0.0734,-0.0978 -0.24312,-0.48603 -0.17678,-0.61872 0.0687,-0.13743 0.12507,0.2097 0.13258,0.22097 0.0295,0.0442 0.095,0.0508 0.13259,0.0884 0.0376,0.0376 0.0508,0.095 0.0884,0.13258 0.1316,0.13161 0.0576,-0.0661 0.17677,0.13258 0.024,0.04 0.0163,0.0953 0.0442,0.13259 0.0198,0.0264 0.0627,0.0236 0.0884,0.0442 0.0488,0.039 0.0884,0.0884 0.13259,0.13258 0.113,0.11301 0.23018,0.16647 0.35355,0.26517 0.0488,0.039 0.0806,0.0979 0.13258,0.13258 0.16726,0.1115 0.42789,0.14867 0.53033,0.35355 0.0514,0.10288 0.0838,0.41137 0.0442,0.53033 -0.0234,0.0702 -0.0997,0.15513 -0.13258,0.22097 -0.0122,0.0245 -0.0377,0.15725 -0.0442,0.17678 -0.0874,0.26223 0.0329,0.59719 -0.0884,0.83969 -0.07,0.14006 -0.23465,0.20745 -0.35355,0.30936 z"
       id="path35" />
  </g>
  <g
     inkscape:groupmode="layer"
     id="layer5"
     inkscape:label="Handle"
     style="display:inline">
    <path
       style="fill:#8c8c8c;fill-opacity:1"
       d="m 118.97357,148.39552 h 8.39547 l -0.37818,-25.26203 -2.19341,-2.79849 -5.82388,-0.0756 -1.51269,4.00865 -0.15127,5.29444 z"
       id="path5" />
    <path
       style="fill:#8c8c8c;fill-opacity:1"
       d="m 305.91643,156.80891 11.76602,-24.92256 4.17159,-1.06964 2.99499,0.74875 1.1766,3.10195 -0.32089,3.63677 -12.08691,23.42507 z"
       id="path6" />
    <path
       style="fill:#8c8c8c;fill-opacity:1"
       d="m 502.08802,79.04624 c 0,0 -5.24122,-0.427856 -5.77604,-0.320892 -0.53482,0.106964 -3.95766,2.460167 -3.95766,2.460167 l -1.39053,2.888023 1.06964,3.850696 3.10195,2.460167 4.59944,0.427855 24.70863,2.781059 1.92535,0.213927 1.39053,-2.888022 1.81839,-4.385515 -0.10697,-4.385515 -0.21392,-2.460168 z"
       id="path7" />
    <path
       style="fill:#8c8c8c;fill-opacity:1"
       d="m 690.319,77.903865 4.91627,0.756348 5.52134,-0.831983 9.83253,-1.966505 6.27769,-0.680714 2.57158,-1.058887 -0.22691,-3.252298 0.15127,-6.504594 -1.81523,-2.344679 -3.32793,-0.529444 -10.74015,1.285792 -11.34522,5.218802 -4.00865,2.874123 -1.21015,2.420315 v 2.269044 z"
       id="path8" />
  </g>
  <g
     inkscape:groupmode="layer"
     id="layer6"
     inkscape:label="Skin"
     style="display:inline">
    <path
       style="fill:#ecd9c6;fill-opacity:1"
       d="m 109.02759,145.82393 5.18099,-1.43706 2.76067,-0.15127 2.23123,0.75635 5.2188,0.49163 2.30686,0.0756 2.68504,-1.0967 1.92869,-2.42032 1.3236,-4.00864 0.416,-3.78174 -0.83199,-3.47921 -1.13452,-2.6094 c 0,0 -3.02539,-1.70178 -3.17666,-1.7396 -0.15127,-0.0378 -4.80281,-0.60508 -4.80281,-0.60508 l -3.06321,0.75635 -3.55484,1.92869 -2.23123,1.85305 -0.56726,1.28579 h -1.36142 l -7.63912,1.43707 -1.89087,1.7396 -1.13452,2.23122 -0.68072,4.72718 1.62615,2.87412 2.3825,1.66397 z"
       id="path9" />
    <path
       style="fill:#ecd9c6;fill-opacity:1"
       d="m 108.68724,72.911967 5.59697,-1.285792 1.96651,3.857376 2.26904,1.815235 7.26095,0.15127 3.55483,-2.34468 2.57159,-2.949758 1.28579,-2.269044 -0.22691,-4.538089 -2.79848,-5.445707 -3.70611,-2.874124 -2.34468,-0.378174 -3.55484,0.226905 -1.81523,0.529443 -2.72286,0.378175 h -3.10102 -4.53809 l -4.46246,1.437061 -5.672609,4.840629 1.361427,3.857375 c 0,0 1.210162,3.252298 1.663962,3.327933 0.45381,0.07563 6.27769,1.663966 6.27769,1.663966 z"
       id="path10" />
    <path
       style="fill:#ecd9c6;fill-opacity:1"
       d="m 288.0174,68.222608 5.89951,4.462454 5.06753,4.991898 0.30254,1.739601 c 0,0 -0.30254,2.647219 -0.37817,3.025393 -0.0756,0.378174 -0.22691,3.706106 -0.22691,3.706106 0,0 0.0756,2.117775 0.37818,2.571584 0.30254,0.453809 1.36143,1.361427 1.66396,1.437062 0.30254,0.07563 3.93302,0.680713 3.93302,0.680713 l 3.10102,-0.605079 2.79849,-1.815235 2.34468,-4.23555 1.36143,-2.34468 -0.0756,-5.143167 -1.28579,-4.084281 c 0,0 -1.05889,-1.966505 -1.89087,-2.949758 -0.83198,-0.983252 -4.91626,-4.159915 -4.91626,-4.159915 l -4.84063,-3.025393 -5.59698,-4.159915 c 0,0 -3.10103,-0.453809 -3.85737,-0.302539 -0.75635,0.15127 -4.15992,1.588331 -4.15992,1.588331 l -2.19341,2.722854 0.15127,2.798488 z"
       id="path11" />
    <path
       style="fill:#ecd9c6;fill-opacity:1"
       d="m 290.29972,154.66964 8.77103,-0.32089 5.13426,-0.64179 3.10195,-0.21392 2.78106,0.42785 2.6741,1.39053 2.67409,1.71142 3.95766,0.42786 3.95766,-1.06964 2.99499,-2.78106 3.5298,-6.63175 1.17661,-4.59945 c 0,0 -0.42786,-3.95766 -1.06964,-4.49248 -0.64179,-0.53482 -3.95766,-2.46016 -3.95766,-2.46016 0,0 -5.66908,-1.28357 -6.73872,-1.06964 -1.06964,0.21393 -5.45515,2.24624 -5.45515,2.24624 0,0 -2.56714,0.96267 -3.95766,1.49749 -1.39053,0.53482 -4.06463,0.96267 -4.06463,0.96267 0,0 -3.31588,-0.74874 -3.74373,-0.74874 -0.42786,0 -5.88301,0 -5.88301,0 l -8.66407,2.24624 -2.46016,5.88301 1.1766,4.92033 3.31588,2.78106 z"
       id="path12" />
    <path
       style="fill:#ecd9c6;fill-opacity:1"
       d="m 487.54205,123.13349 9.07618,-5.74825 2.42031,-4.08428 3.78174,-5.89952 0.90762,-5.29443 -0.30254,-5.59698 -2.42031,-3.479201 -1.81524,-7.866022 1.5127,-6.353324 3.4792,-5.596977 5.14317,-5.294438 c 0,0 5.44571,-2.117775 6.20205,-1.815235 0.75635,0.302539 6.20206,3.327932 6.20206,3.327932 l 3.02539,5.899516 1.81524,7.714751 -2.72286,8.924909 -4.99189,4.23555 -1.21016,4.084279 c 0,0 -0.90762,11.79903 -0.90762,12.40411 0,0.60508 0,8.77364 0,8.77364 l -2.87412,8.16856 -6.35333,5.14317 c 0,0 -6.80713,4.38682 -7.56348,4.53809 -0.75635,0.15127 -7.41221,0.90762 -7.41221,0.90762 l -7.10967,-5.14317 -0.90762,-5.89952 z"
       id="path13" />
    <path
       style="fill:#ecd9c6;fill-opacity:1"
       d="m 493.21003,71.98663 1.49749,2.674094 1.28357,2.353204 1.49749,2.994986 1.81838,6.738718 0.85571,7.05961 1.81839,5.241226 0.74875,3.315882 -2.13928,4.17158 -8.23621,3.31588 -4.70641,-1.1766 -4.49248,-5.66908 0.74875,-6.310865 2.67409,-3.422842 2.56713,-2.56713 -2.88802,-5.562117 -3.10195,-4.599443 -4.06462,-6.524791 c 0,0 0.21393,-4.706407 0.74874,-5.027298 0.53482,-0.320892 3.95766,-2.460168 5.34819,-2.139276 1.39053,0.320891 4.92034,1.283565 4.92034,1.283565 z"
       id="path14" />
    <path
       style="fill:#ecd9c6;fill-opacity:1"
       d="m 685.40274,77.601325 c 0,0 2.26904,3.630472 3.63047,4.840629 1.36143,1.210157 3.63047,4.23555 4.08428,5.445707 0.45381,1.210157 2.42032,6.504594 2.42032,7.260943 0,0.756348 0.30254,6.050786 0.30254,6.050786 l -1.66397,7.71475 1.9665,5.59698 -0.30253,1.9665 -7.41222,4.68936 c 0,0 -1.36142,0.15127 -1.9665,0 -0.60508,-0.15127 -4.08428,-2.26904 -4.08428,-2.26904 0,0 -2.26905,-4.84063 -1.81524,-6.35333 0.45381,-1.51269 2.26905,-4.38682 2.26905,-4.38682 l 2.57158,-0.75635 0.75635,-3.17666 -1.36143,-8.168558 -3.4792,-6.050786 -5.29444,-3.025393 c 0,0 -2.42031,-5.899516 -1.9665,-7.109673 0.45381,-1.210157 5.4457,-5.294437 6.50459,-5.294437 1.05889,0 4.84063,3.025392 4.84063,3.025392 z"
       id="path15" />
    <path
       style="fill:#ecd9c6;fill-opacity:1"
       d="m 694.32765,60.507856 -0.60508,4.840629 c 0,0 -0.15127,3.479201 0.15127,4.08428 0.30254,0.605078 1.5127,4.23555 1.5127,4.23555 l 3.02539,5.294437 c 0,0 1.9665,2.722854 2.42031,3.479202 0.45381,0.756348 1.66397,3.479202 1.66397,4.08428 0,0.605079 -0.60508,9.983796 -0.60508,9.983796 l -0.15127,6.9584 -0.90762,3.47921 -5.89951,3.78174 -4.38682,2.11777 -2.11778,5.59698 c 0,0 -0.15127,3.32793 0.30254,4.38682 0.45381,1.05889 2.57159,4.38682 2.57159,4.38682 l 6.20205,2.87412 11.64776,1.96651 4.84063,-4.53809 2.11778,-5.89952 4.68936,-7.56348 1.51269,-4.38682 -2.57158,-8.77364 -4.53809,-13.462998 -1.5127,-5.899516 0.15127,-4.991898 0.45381,-5.899516 v -4.840629 l -2.57158,-5.294437 -5.74825,-5.143168 -5.74825,0.605079 c 0,0 -3.32793,1.210157 -3.93301,1.663966 -0.60507,0.453809 -1.9665,2.874123 -1.9665,2.874123 z"
       id="path16" />
  </g>
  <g
     inkscape:groupmode="layer"
     id="layer8"
     inkscape:label="ClothesShadow"
     style="display:inline">
    <path
       style="fill:#338a99;fill-opacity:1"
       d="m 478.02117,162.69192 4.27855,-1.39053 5.0273,-3.20891 5.88301,-6.95265 6.84568,-7.59443 4.38552,-4.06462 0.85571,-1.60446 c 0,0 0.32089,-9.51977 0.10696,-10.69638 -0.21393,-1.1766 -4.17159,-5.98997 -4.17159,-5.98997 l -6.2039,-5.98997 -3.95766,-2.24624 c 0,0 -7.27354,-1.92535 -8.02228,-1.39053 -0.74875,0.53482 -8.66407,5.45515 -8.66407,5.45515 l -8.77103,6.95265 -6.41783,7.59443 -4.38551,5.66908 -2.56713,4.70641 2.3532,5.98997 4.70641,5.98997 7.70139,6.52479 3.74373,1.92535 z"
       id="path21" />
    <path
       style="fill:#338a99;fill-opacity:1"
       d="m 481.7165,83.173435 6.09879,-4.419417 2.74004,-4.507806 2.38649,-6.098796 c 0,0 0.53033,-7.071068 0.0884,-7.689786 -0.44194,-0.618719 -3.62392,-7.51301 -3.62392,-7.51301 l -5.92202,-7.247844 c 0,0 -6.45235,-2.916816 -6.98268,-2.828427 -0.53033,0.08839 -10.16466,2.298097 -12.37437,3.447145 -2.2097,1.149049 -11.04854,9.280777 -11.04854,9.280777 l -4.33103,11.932427 0.53033,11.22532 c 0,0 9.72272,7.778175 10.16466,7.866563 0.44194,0.08839 11.84404,0.176777 12.28598,0.08839 0.44194,-0.08839 9.98789,-3.535534 9.98789,-3.535534 z"
       id="path22" />
    <path
       style="fill:#338a99;fill-opacity:1"
       d="M 696.875,157.625 703,145 l 14,-15.625 -1.875,-5.25 -8,-6.625 -9.125,-3.75 -7.375,-1.5 -11.125,3.625 -14.375,7.375 -6.625,12.125 -1.5,7.875 7.125,9.75 8.25,7 6.75,3 7.125,1.125 6.375,-3.875 z"
       id="path23" />
    <path
       style="fill:#338a99;fill-opacity:1"
       d="m 676,91.875 c 0,0 7.625,-4.375 8.5,-5.5 0.875,-1.125 5.125,-7.5 5.125,-7.5 v -4.5 l -2.5,-6.5 c 0,0 1.875,-7.875 1.875,-8.625 0,-0.75 -6.25,-11.875 -6.25,-11.875 l -12.875,-2.625 -16.375,8.625 -5.375,11.25 -2,11.75 4.25,13.375 c 0,0 9.5,4.125 11.375,4.375 1.875,0.25 14.25,-2.25 14.25,-2.25 z"
       id="path24" />
  </g>
  <g
     inkscape:groupmode="layer"
     id="layer7"
     inkscape:label="Clothes"
     style="display:inline">
    <path
       style="fill:#40aabf;fill-opacity:1"
       d="m 71.55054,121.62079 1.512696,11.19395 1.663966,8.92491 4.538089,10.89142 8.168561,8.31983 6.958403,3.93301 5.445708,0.45381 6.050787,-2.57159 4.9919,-6.35332 3.17666,-8.77364 -0.30254,-13.76554 -1.96651,-15.4295 -1.66396,-16.63966 0.60508,-14.824427 0.75634,-9.832526 0.45381,-11.496493 V 53.851992 l -5.4457,-8.62237 -9.9838,-3.781741 -14.521885,5.596977 -5.596977,8.62237 -3.93301,8.622369 v 14.219346 l -0.30254,11.193954 0.15127,12.555383 -0.605079,13.9168 z"
       id="path17" />
    <path
       style="fill:#40aabf;fill-opacity:1"
       d="m 267.44472,42.355499 -8.16856,12.101571 -3.93301,12.101572 c 0,0 -1.21015,16.63966 -1.21015,18.152356 0,1.512697 0,15.126964 0,15.126964 l -0.90762,16.639658 2.42031,12.10157 c 0,0 3.32793,8.4711 3.93301,10.89142 0.60508,2.42031 3.63047,8.16856 3.63047,8.16856 0,0 0.60508,3.02539 4.23555,5.44571 3.63048,2.42031 9.68126,5.74824 9.68126,5.74824 l 7.56348,1.5127 c 0,0 9.07618,-2.72285 9.37872,-3.93301 0.30254,-1.21016 4.23555,-8.16856 4.23555,-8.16856 l 0.60508,-7.86602 -3.02539,-10.58888 -0.60508,-6.35332 -3.0254,-11.4965 -1.81523,-11.49649 v -8.773638 l 3.02539,-13.311728 3.02539,-9.983797 2.72286,-8.16856 c 0,0 0,-9.076179 -1.5127,-10.286336 -1.51269,-1.210157 -8.77364,-9.378717 -8.77364,-9.378717 0,0 -8.16856,-2.117775 -10.28633,-2.117775 -2.11778,0 -11.19396,3.93301 -11.19396,3.93301 z"
       id="path18" />
    <path
       style="fill:#40aabf;fill-opacity:1"
       d="m 485.12174,117.23397 3.17666,8.4711 3.78174,8.92491 2.42031,5.89952 v 5.4457 l -1.66396,6.5046 -5.14317,5.59697 -6.65586,3.93301 -7.10968,0.90762 -8.16856,-2.57158 -9.37872,-8.92491 -5.4457,-10.43761 -3.78174,-11.9503 c 0,0 -1.66397,-9.07618 -1.81524,-9.98379 -0.15127,-0.90762 -1.9665,-14.82443 -1.66397,-15.88332 0.30254,-1.05888 0.30254,-11.799027 0.30254,-11.799027 0,0 3.78175,-23.446795 4.08428,-24.354412 0.30254,-0.907618 6.20206,-12.70665 6.20206,-12.70665 l 6.65586,-7.109673 9.22745,-3.327932 8.01729,1.058887 c 0,0 9.52999,5.596977 10.28634,6.655864 0.75635,1.058888 2.42031,7.714752 2.42031,8.319831 0,0.605078 -3.78174,11.799031 -3.78174,11.799031 0,0 -2.72285,10.891415 -2.87412,11.950302 -0.15127,1.058888 -2.11778,9.681257 -2.11778,9.681257 l -0.30254,9.378722 1.81524,10.58887 z"
       id="path19" />
    <path
       style="fill:#40aabf;fill-opacity:1"
       d="m 685.63788,72.521449 -4.27855,9.840668 -1.28356,7.487465 -0.42786,8.557103 3.8507,10.910305 4.7064,11.12424 5.56212,6.63175 4.49248,5.13426 2.99499,7.05961 0.85571,7.27354 -4.70641,9.62674 -8.12925,6.41783 -7.91532,1.06964 -8.77103,-3.63677 -10.05459,-7.05961 -8.12925,-14.33315 -8.55711,-14.33315 -1.71142,-15.40278 0.42786,-19.039558 0.42785,-12.621727 c 0,0 2.13928,-13.049582 2.78106,-14.11922 0.64179,-1.069638 9.62674,-13.477437 9.62674,-13.477437 l 11.76602,-5.989972 9.41281,1.925348 7.48747,4.706407 c 0,0 3.85069,8.77103 3.85069,10.696378 0,1.925349 -2.3532,9.412814 -2.3532,9.412814 z"
       id="path20" />
  </g>
  <g
     inkscape:groupmode="layer"
     id="layer9"
     inkscape:label="Hair">
    <path
       style="fill:#262626;fill-opacity:1"
       d="m 242.0073,108.89444 1.94454,4.77298 2.47487,4.15425 6.0988,4.24264 7.68979,3.27037 8.48528,1.76776 8.22011,-0.53033 7.95495,-1.5026 7.15946,-3.18198 2.03293,-1.76777 -8.92722,-0.61871 5.48008,-2.47488 c 0,0 5.65685,-0.26516 7.07107,-0.61872 1.41421,-0.35355 4.77297,-0.88388 4.77297,-0.88388 0,0 -2.82843,-3.71231 -3.71231,-4.50781 -0.88389,-0.79549 -3.62393,-3.0052 -3.62393,-3.0052 0,0 6.62913,-0.26516 7.51301,-0.44194 0.88389,-0.17678 7.86657,-2.56326 7.86657,-2.56326 0,0 -7.51301,-4.24264 -8.30851,-4.41942 -0.79549,-0.17678 -6.09879,-1.06066 -6.09879,-1.06066 l 10.6066,-4.949748 -4.33103,-4.861359 -9.01561,-2.474874 10.34143,-5.303301 -13.52341,-2.032932 -6.98268,-3.18198 9.19238,-0.618719 -7.42462,-5.745242 -11.04854,-2.474874 -9.63433,1.502602 -12.28598,5.922019 -6.45235,7.778175 -0.88388,7.424621 -2.91682,-2.563262 -2.03293,-1.944544 -3.0052,-6.717514 -2.20971,6.363961 0.97227,4.684582 1.06066,3.712311 2.74004,2.032932 1.41421,1.06066 -4.5078,2.916816 -1.94455,5.48008 -1.14905,5.65685 0.35356,3.44715 5.65685,-4.86136 z"
       id="path25" />
    <path
       style="fill:#262626;fill-opacity:1"
       d="m 61.1875,113.1875 c 0.8125,1.25 2.1875,5.375 2.1875,5.375 l 2.875,4.125 4.375,3.0625 L 76,128 c 0,0 3.1875,0.875 4.5625,1.375 1.375,0.5 5.3125,0.8125 5.3125,0.8125 l 7.125,0.9375 5.75,-0.5625 c 0,0 6,-1.25 6.9375,-1.875 0.9375,-0.625 4.6875,-2.8125 4.6875,-2.8125 l 1.75,-0.625 -7.5,-1.375 c 0,0 2.125,-1.75 2.4375,-1.75 0.3125,0 5.5625,-1.25 5.5625,-1.25 l 4.5625,-1 2.9375,0.5 1.75,0.5 -3.8125,-5.0625 -5,-3.25 c 0,0 7.1875,0.4375 9,-0.25 1.8125,-0.6875 3.375,-1.1875 3.375,-1.1875 l 4.5,-1.5625 -6.9375,-4.5 c 0,0 -3.25,-1.4375 -3.5625,-1.5 -0.3125,-0.0625 -3.6875,-0.75 -3.6875,-0.75 l 4.75,-2.375 5.0625,-1.875 h 2.125 L 123.125,94.4375 118.25,90.375 116,90 l 5.75,-2.3125 1.625,-0.5625 -11.5625,-3.5625 -5.5625,-1.375 -3.25,-1.5 4.25,-0.75 2.875,0.375 c 0,0 -4.1875,-4.375 -4.875,-4.75 C 104.5625,75.1875 97.125,72 97.125,72 l -7.5,0.25 -5.9375,1.1875 -7.125,2.375 -4,2.4375 -3.75,3.625 -2.125,3.1875 -1.4375,2.5 -0.875,1.8125 -0.3125,3.5625 -0.125,1 c 0,0 -1.0625,-0.1875 -1.875,-0.4375 C 61.25,93.25 59.125,91.125 59.125,91.125 L 58.375,88.5625 56.3125,84 l -0.5,-1.125 -1.5625,3.0625 -0.6875,3.4375 c 0,0 0.1875,2.5625 0.3125,2.8125 0.125,0.25 0.25,2.5625 0.25,2.5625 l 1.125,2.625 c 0,0 1.375,1.5625 1.625,1.8125 0.25,0.25 2.75,1.8125 2.75,1.8125 l -2.5,1.9375 c 0,0 -0.5625,1.0625 -0.9375,1.4375 -0.375,0.375 -1.625,2.25 -1.625,2.25 l -1,3.0625 -1.0625,2.625 v 2.0625 l 0.125,3.375 0.8125,1.5625 0.75,-2.25 2.5,-1.9375 2.8125,-1.5625 z"
       id="path26" />
    <path
       style="fill:#262626;fill-opacity:1"
       d="m 434.6497,112.2974 c 0.17678,0.30936 1.01647,3.57972 1.01647,3.57972 l 1.85615,3.13779 2.20971,3.09359 c 0,0 4.02167,2.16552 4.19845,2.25391 0.17677,0.0884 6.09879,2.69584 6.09879,2.69584 l 6.23138,1.37002 6.8059,0.7513 7.33624,0.39775 c 0,0 4.41941,-0.7513 4.59619,-0.88389 0.17678,-0.13258 8.79464,-4.41941 8.79464,-4.41941 l 1.41422,-0.44194 -8.79465,-1.01647 6.76171,-3.0052 4.77297,-0.39775 7.46882,-1.28163 -4.94975,-3.40295 -4.5078,-3.62393 4.99394,0.44194 c 0,0 2.69584,-0.30935 2.96101,-0.30935 0.26516,0 5.61266,-1.10486 5.61266,-1.10486 l 4.33103,-1.45841 c 0,0 -4.99394,-2.29809 -6.8501,-2.91681 -1.85616,-0.61872 -6.8059,-2.78423 -6.8059,-2.78423 l -1.98874,-0.44195 6.54074,-3.712307 5.03813,-0.972272 -3.7565,-4.110058 -4.11006,-2.032932 -3.84489,-1.502602 2.34229,-1.281631 5.03813,-1.502602 1.10486,-0.04419 c 0,0 -6.18719,-2.474874 -6.45235,-2.519068 -0.26517,-0.04419 -4.90555,-1.944544 -5.78944,-2.12132 -0.88388,-0.176777 -7.15945,-2.165515 -7.15945,-2.165515 l -1.63519,-1.06066 c 0,0 4.24264,-0.751305 4.5962,-0.751305 0.35355,0 3.53553,0 3.53553,0 l -7.73398,-5.303301 -6.76171,-2.077126 -17.4125,3.049398 -8.83884,5.656854 -4.33103,3.889087 -0.88388,4.242641 -0.53033,2.298097 0.26516,2.563262 h -1.59099 l -4.06586,-4.507805 -1.76777,-3.005204 -1.14905,-3.181981 -1.41421,2.298097 -0.61872,3.800699 v 3.358757 l 0.44194,2.298097 1.85616,2.298097 2.20971,1.944544 1.5026,1.414214 -2.12132,1.767765 -2.03293,1.67938 -1.59099,2.47487 -0.61872,3.27037 -0.61872,2.47488 -0.0884,3.88908 0.35355,1.94455 3.00521,-3.53554 3.44714,-1.59099 z"
       id="path27" />
    <path
       style="fill:#262626;fill-opacity:1"
       d="m 632.25,109.125 c 0,0 -3.4375,3.1875 -3.375,3.5 0.0625,0.3125 -1.125,4.3125 -1.125,4.3125 l -0.5,2.75 0.625,3.875 0.8125,1.625 2,-3.25 c 0,0 2.5,-2.9375 2.75,-3.1875 0.25,-0.25 1.9375,-1.375 1.9375,-1.375 l 1.375,2.875 3.25,5.4375 3.0625,2.0625 c 0,0 2.5,1.6875 3.25,1.8125 0.75,0.125 4.0625,0.9375 4.6875,0.9375 0.625,0 7.0625,1.375 7.4375,1.4375 0.375,0.0625 5.5,0.5 5.5,0.5 H 667.5 l 5.9375,-1.1875 7.8125,-2.75 6.375,-4 2.4375,-1.25 -10.5,0.25 7,-3.8125 6.1875,-1.75 5.9375,-2.3125 1.125,-0.4375 -8.75,-3.0625 5.1875,-2.8125 4.4375,-1.8125 2.125,-2.625 0.75,-0.625 -6.1875,-1.4375 -7.625,-0.75 -1.0625,-0.3125 2.0625,-2.5 2.375,-1.1875 L 697.25,97 698.625,96.9375 695.9375,93.125 692.5,91.3125 c 0,0 -3,-1.375 -3.4375,-1.4375 -0.4375,-0.0625 -3.1875,-0.5 -3.1875,-0.5 l -1.75,-0.0625 6.1875,-3.5625 1.3125,-0.625 c 0,0 -4.9375,-0.9375 -5.1875,-0.9375 -0.25,0 -7.0625,-1.4375 -7.0625,-1.4375 l -4.75,-1.75 3.5,-0.8125 3.625,0.375 -3.3125,-3.5 c 0,0 -5.9375,-2.5 -6.4375,-2.625 -0.5,-0.125 -8.0625,-1 -8.0625,-1 l -8.625,1.9375 -5,2.6875 -5.875,4.125 -5.9375,6.375 -0.8125,3.0625 -1.75,3.8125 -0.125,4.25 -1.9375,0.1875 -2.5,-3.5 -2.875,-2.0625 -0.5625,-3.875 V 89.125 L 624.75,93 624,97.3125 l 2,4.1875 3.375,4.375 3.4375,2.125 z"
       id="path28" />
  </g>
  <g
     inkscape:groupmode="layer"
     id="layer10"
     inkscape:label="Knife">
    <path
       style="fill:#ffffff;fill-opacity:1"
       d="m 125.6875,149.75 c 0,0 0.25,2.6875 0.25,3 0,0.3125 0.125,2.6875 0.125,2.6875 0,0 -0.3125,2.6875 -0.3125,2.9375 0,0.25 -0.5,3.6875 -0.6875,4.1875 -0.1875,0.5 -1.5625,3.8125 -1.5625,3.8125 l -0.8125,1.8125 -1.4375,2.5 -1.75,2.625 -2.3125,2 2.375,-2.3125 1.6875,-2.9375 2.125,-4.125 1,-3 1,-4.3125 0.375,-4 z"
       id="path29" />
    <path
       style="fill:#ffffff;fill-opacity:1"
       d="m 291.625,185.5625 c 0.6875,-0.25 3.75,-1.4375 3.75,-1.4375 0,0 3.125,-1.8125 3.4375,-2 0.3125,-0.1875 3.375,-2.5625 3.375,-2.5625 l 2.875,-2.875 c 0,0 3.5625,-5.9375 3.8125,-6.25 0.25,-0.3125 2.1875,-4.375 2.3125,-4.9375 0.125,-0.5625 0.75,-2.875 0.75,-2.875 l -0.5625,-0.75 -0.4375,0.4375 -0.125,1.4375 -1.1875,3.375 c 0,0 -1.5,2.9375 -1.625,3.1875 -0.125,0.25 -2.4375,4 -2.4375,4 l -2.4375,3.4375 -3.5,3 -4.3125,2.875 z"
       id="path30" />
    <path
       style="fill:#ffffff;fill-opacity:1"
       d="m 530.68364,85.736697 7.95495,-0.883883 c 0,0 2.56326,0.353553 4.15425,0.618718 1.59099,0.265165 3.8007,0.795495 4.41942,0.883884 0.61872,0.08839 5.56847,2.032932 5.56847,2.032932 0,0 3.71231,1.944543 4.33103,2.386485 0.61871,0.441942 4.24264,3.358757 4.59619,3.800699 0.35355,0.441942 3.35876,6.010408 3.35876,6.010408 l 1.23743,2.91682 c 0,0 -0.53033,-2.74004 -1.14904,-4.596199 -0.61872,-1.856155 -3.18198,-6.098796 -3.18198,-6.098796 l -4.24265,-3.623922 -5.03813,-2.386485 -8.30851,-2.209709 c 0,0 -5.39169,-0.441942 -6.36396,-0.441942 -0.97227,0 -6.36396,0.176777 -6.36396,0.176777 z"
       id="path31" />
    <path
       style="fill:#ffffff;fill-opacity:1"
       d="M 720.6302,64.258329 Z"
       id="path32" />
    <path
       style="fill:#ffffff;fill-opacity:1"
       d="m 720.98375,64.258329 c 0,0 -0.53033,0.795495 0,0.972272 0.53033,0.176776 0.88389,-0.265165 1.76777,-0.795495 0.88388,-0.530331 1.94454,-1.237437 2.65165,-1.502602 0.70711,-0.265165 7.15946,-1.856156 8.04334,-1.856156 0.88388,0 2.74004,-0.265165 3.44715,-0.176776 0.7071,0.08839 2.65165,0.08839 4.15425,0.618718 1.5026,0.53033 2.56326,0.883884 4.33103,1.59099 1.76776,0.707107 4.33103,2.209709 5.56846,2.828427 1.23744,0.618719 3.53554,2.032932 3.88909,2.209709 0.35355,0.176777 0.44194,-1.06066 0.0884,-1.149048 -0.35355,-0.08839 -2.91682,-1.590991 -2.91682,-1.590991 0,0 -2.29809,-1.59099 -3.35875,-2.032932 -1.06066,-0.441941 -2.38649,-1.414213 -3.62393,-1.944543 -1.23743,-0.53033 -2.91681,-1.325825 -5.03813,-1.767767 -2.12132,-0.441942 -8.04334,-0.265165 -8.04334,-0.265165 l -8.30851,2.65165 z"
       id="path33" />
  </g>
  <path
     style="fill:#ffffff;fill-opacity:0.80000001"
     d="m 561.26601,92.630988 c 0.0589,0.707107 0.11785,1.414214 0.17678,2.121321 0.0589,0.117851 0.15511,0.223584 0.17677,0.353553 0.13854,0.831254 0,1.80416 0,2.651651 0,2.12132 0,4.242637 0,6.363957 0,1.43014 -0.057,2.84018 0.17678,4.24264 0.19201,1.15209 0,2.54082 0,3.71231 0,2.71058 0,5.42116 0,8.13173 0,1.09388 0.21425,3.7392 0,4.5962 -0.032,0.12782 -0.15094,0.22435 -0.17678,0.35355 -0.0578,0.28891 0.0932,0.60438 0,0.88388 -0.0263,0.0791 -0.15042,0.0977 -0.17677,0.17678 -0.0745,0.22361 0.0875,0.48826 0,0.70711 -0.0789,0.19726 -0.27465,0.33306 -0.35356,0.53033 -0.11159,0.27897 -0.11785,0.58925 -0.17678,0.88388 -0.24219,1.211 -0.22944,2.79836 -0.88388,3.88909 -0.0857,0.14291 -0.2678,0.21064 -0.35355,0.35355 -0.524,0.87334 0.0192,0.19777 -0.17678,0.88389 -0.11785,0.29462 -0.2357,0.58925 -0.35355,0.88388 -0.0589,0 -0.15489,-0.0547 -0.17678,0 -0.11159,0.27897 -0.0713,0.60255 -0.17678,0.88388 -0.2199,0.58642 -1.13088,2.17944 -1.41421,2.65165 -0.21862,0.36437 -0.53972,0.6701 -0.70711,1.06066 -0.0957,0.22331 -0.0681,0.4898 -0.17677,0.70711 -0.16874,0.33747 -0.53837,0.54641 -0.70711,0.88388 -0.0833,0.16667 -0.0734,0.37529 -0.17678,0.53033 -1.25385,1.88079 0.22684,-1.01567 -1.06066,1.23744 -0.79142,1.38499 -1.49362,2.90784 -2.65165,4.06586 -0.15023,0.15024 -0.39431,0.19034 -0.53033,0.35356 -0.1687,0.20244 -0.21797,0.48113 -0.35355,0.7071 -0.45993,0.76655 -2.1942,2.15957 -2.82843,3.00521 -0.15811,0.21082 -0.20038,0.49267 -0.35355,0.7071 -0.48554,0.67976 -1.29199,0.93963 -1.94454,1.41422 -0.20219,0.14704 -0.31833,0.39783 -0.53033,0.53033 -0.26909,0.16818 -0.63003,0.16316 -0.88389,0.35355 -0.2357,0.17678 -0.35355,0.47141 -0.53033,0.70711 -0.2357,0.2357 -0.43586,0.51336 -0.7071,0.70711 -0.36518,0.26083 -0.85689,0.29248 -1.23744,0.53033 -1.49534,0.93458 -3.10524,1.70286 -4.5962,2.65165 -0.49713,0.31635 -0.90893,0.75749 -1.41421,1.06066 -3.77316,2.26389 1.25603,-0.89422 -1.94454,0.88388 -1.11925,0.6218 -0.31877,0.37166 -1.23744,1.06066 -1.07951,0.80963 -2.37401,1.28081 -3.53553,1.94454 -0.55964,0.31979 -1.01306,0.7717 -1.59099,1.06066 -0.98703,0.49351 -2.06513,1.00344 -3.00521,1.59099 -0.32029,0.20019 -0.86346,0.6969 -1.23743,0.88389 -0.26875,0.13437 -0.60256,0.0713 -0.88389,0.17677 -0.83336,0.31251 -1.88179,1.19426 -2.65165,1.41422 -2.31177,0.6605 0.75344,-0.492 -1.94454,0.7071 -0.43627,0.1939 -0.8103,0.13999 -1.23744,0.35356 -0.59401,0.297 -1.1395,0.63257 -1.76777,0.88388 -0.67606,0.27043 0.86875,-0.87379 -0.7071,0.17678 -0.049,0.0327 0.0527,0.15042 0,0.17677 -0.70711,0.35356 -0.0884,-0.17677 -0.53033,0 -0.46745,0.18698 -0.95146,0.33201 -1.41422,0.53033 -0.19528,0.0837 -0.33306,0.27465 -0.53033,0.35356 -0.18032,0.0721 -1.23743,0.003 -1.23743,0.53033 0,0.18715 1.01512,-0.15401 1.06066,-0.17678 0.61827,-0.30914 1.14726,-0.75041 1.76776,-1.06066 0.95969,-0.47984 2.01017,-1.0162 3.00521,-1.41421 0.22558,-0.0902 0.4898,-0.0681 0.7071,-0.17678 0.14908,-0.0745 0.21488,-0.2611 0.35356,-0.35355 0.34318,-0.22879 1.05007,-0.2079 1.41421,-0.35356 0.59231,-0.23692 0.9292,-0.69689 1.41421,-1.06066 0.2369,-0.17767 0.62924,-0.25169 0.88389,-0.35355 0.12234,-0.0489 0.2357,-0.11785 0.35355,-0.17678 0.11785,-0.11785 0.20448,-0.27901 0.35356,-0.35355 0.1054,-0.0527 0.25249,0.0606 0.35355,0 0.21437,-0.12862 0.31596,-0.40171 0.53033,-0.53033 0.10106,-0.0606 0.24814,0.0527 0.35355,0 0.35356,-0.17678 0.26517,-0.35355 0.53033,-0.53033 0.31093,-0.20729 0.52454,-0.20981 0.88389,-0.35355 0.52508,-0.21004 0.91522,-0.63439 1.41421,-0.88389 0.16667,-0.0833 0.37054,-0.0809 0.53033,-0.17677 0.63459,-0.38076 1.15095,-1.00301 1.76777,-1.41422 0.38161,-0.2544 1.45293,-0.62152 1.76776,-0.88388 0.16322,-0.13601 0.18359,-0.40285 0.35356,-0.53033 0.0943,-0.0707 0.24413,0.0438 0.35355,0 0.31902,-0.12761 0.598,-0.33974 0.88388,-0.53033 2.67913,-1.78608 -0.25942,0.25943 0.88389,-0.88388 0.0652,-0.0652 1.11264,-0.80901 1.23743,-0.88389 0.15979,-0.0959 0.38126,-0.065 0.53033,-0.17677 0.16399,-0.12299 1.6016,-2.31931 1.76777,-2.65165 0.20239,-0.40478 0.50064,-0.363 0.70711,-0.70711 0.23534,-0.39223 0.34377,-0.86433 0.53033,-1.23744 0.095,-0.19003 0.20332,-0.3801 0.35355,-0.53033 0.0417,-0.0417 0.15043,0.0527 0.17678,0 0.0527,-0.10541 -0.0527,-0.24814 0,-0.35355 0.0745,-0.14907 0.27902,-0.20448 0.35355,-0.35356 0.0527,-0.1054 -0.0654,-0.25549 0,-0.35355 0.11785,-0.17678 0.40286,-0.18358 0.53033,-0.35355 0.36937,-0.49249 0.7273,-1.4344 1.06066,-1.76777 0.15023,-0.15023 0.40286,-0.18358 0.53033,-0.35355 0.0707,-0.0943 -0.0438,-0.24413 0,-0.35356 0.2472,-0.618 0.35928,-0.4201 0.70711,-0.88388 0.58836,-0.78449 0.6367,-1.80374 1.06066,-2.65165 0.42014,-0.84028 0.93652,-1.7489 1.23744,-2.65165 0.29024,-0.87075 0.27549,-2.11328 0.53033,-3.0052 0.34266,-1.19934 0.95428,-2.30855 1.23743,-3.53554 0.40196,-1.74181 0.55537,-3.55122 0.88389,-5.3033 0.46879,-2.50022 0.24652,-0.13467 0.53033,-2.12132 0.20202,-1.41418 -0.73094,2.03986 0.17677,-1.59099 0.077,-0.30785 0.25321,-0.58284 0.35356,-0.88388 0.22769,-0.68309 0.24203,-1.42942 0.53033,-2.12132 1.57829,-3.78791 -1.10798,4.92844 1.41421,-3.35876 0.45807,-1.50509 0.28489,-1.53258 0.53033,-3.0052 0.16949,-1.01693 0.47631,-2.00508 0.70711,-3.00521 0.27856,-1.20712 0.0801,-1.30099 0.53033,-2.65165 0.0672,-0.20155 0.28636,-0.32877 0.35355,-0.53033 0.43825,-1.31473 0.3212,-2.88327 0.53033,-4.24264 0.0993,-0.64557 0.14814,-1.50509 0.35355,-2.12132 0.0264,-0.0791 0.16044,-0.0951 0.17678,-0.17678 0.10401,-0.52003 -0.0872,-1.06787 0,-1.59099 0.30283,-1.81698 0.36276,-0.61321 0.53033,-2.12132 0.11593,-1.04336 -0.006,-1.90658 0.17678,-3.005201 0.0217,-0.129968 0.16043,-0.222809 0.17677,-0.353553 0.091,-0.727601 0,-1.557373 0,-2.298097 0,-1.649916 0,-3.299832 0,-4.949747 0,-0.563535 0.0111,-2.839533 0.35356,-3.181981 0.0944,-0.09439 1.41766,-0.05777 1.59099,0 0.079,0.02635 0.10224,0.139509 0.17677,0.176777 0.36503,0.182513 1.04919,-0.0057 1.41422,0.176776 0.26824,0.134123 0.73353,0.543544 1.06066,0.707107 0.10541,0.0527 0.24814,-0.0527 0.35355,0 0.19304,0.09652 1.70107,0.817188 1.76777,0.883884 0.0417,0.04167 -0.0417,0.13511 0,0.176776 0.0417,0.04167 0.13511,-0.04167 0.17677,0 0.0932,0.09317 0.0836,0.260384 0.17678,0.353554 0.32563,0.325625 0.86761,0.127953 1.06066,0.707107 0.13176,0.395284 0.11785,0.824958 0.17678,1.237436 z"
     id="path46" />
  <path
     style="fill:#ffffff;fill-opacity:0.80000001"
     d="m 738.48465,60.280853 c 0.30136,0.34477 0.80098,0.475067 1.14904,0.707107 0.10401,0.06934 0.15337,0.209263 0.26517,0.265165 0.0263,0.01318 0.0648,-0.01768 0.0884,0 0.32401,0.243012 0.4935,0.563471 0.7071,0.883884 0.0884,0.132582 0.17678,0.08839 0.26517,0.265165 0.0543,0.108653 0.0259,0.249386 0.0884,0.353553 0.0339,0.05649 0.13562,0.03694 0.17677,0.08839 0.19818,0.24772 0.30265,0.6562 0.53033,0.883884 0.0466,0.04659 0.13563,0.03694 0.17678,0.08839 0.0823,0.102889 0.10369,0.243921 0.17678,0.353554 0.0462,0.06934 0.13055,0.107439 0.17677,0.176776 0.6433,0.96494 1.13641,2.12128 1.591,3.181981 0.31566,0.736552 0.95336,1.322744 1.23743,2.032932 0.0219,0.05471 -0.0116,0.118995 0,0.176776 0.0107,0.0533 0.25676,0.686082 0.26517,0.707107 0.18928,0.473208 0.40447,1.020556 0.61872,1.502602 0.10702,0.240811 0.26349,0.45945 0.35355,0.707107 0.21324,0.586416 0.3872,1.18898 0.61872,1.767767 0.0979,0.244675 0.25804,0.461502 0.35355,0.707107 0.11149,0.286685 0.15883,0.595248 0.26517,0.883883 0.10031,0.272284 0.25166,0.523796 0.35355,0.795495 0.0753,0.200836 0.0943,0.420726 0.17678,0.618719 0.0661,0.158581 0.19407,0.285544 0.26516,0.441941 0.29516,0.649349 0.41253,1.384862 0.70711,2.032932 0.21958,0.483077 0.52285,0.907528 0.7071,1.414214 0.10512,0.289081 0.15093,0.598284 0.26517,0.883883 0.10031,0.250775 0.26631,0.401746 0.35355,0.707107 0.0382,0.133506 0.0249,0.314908 0.0884,0.441942 0.10984,0.219679 0.26294,0.465465 0.35355,0.707107 0.0772,0.205751 0.0488,0.359719 0.17678,0.53033 0.05,0.06667 0.13055,0.107439 0.17678,0.176777 0.049,0.07354 -0.031,0.182404 0,0.265165 0.49962,0.999252 0.0992,0.08223 0.35355,0.972271 0.0441,0.154346 0.19986,0.311337 0.26517,0.441942 0.12856,0.257125 0.0635,0.335521 0.17677,0.618719 0.0734,0.183506 0.19177,0.346823 0.26517,0.53033 0.11424,0.2856 0.16004,0.594802 0.26516,0.883883 0.0767,0.210873 0.21075,0.401036 0.26517,0.618719 0.14454,0.578168 0.10838,1.192898 0.26516,1.767767 0.0835,0.306142 0.19612,0.608369 0.35356,0.883883 0.0413,0.07235 0.13951,0.102241 0.17677,0.176777 0.036,0.07192 0.0524,0.370021 0.0884,0.441941 0.0186,0.03727 0.0589,0.05893 0.0884,0.08839 0.0589,0.117851 0.13511,0.228553 0.17678,0.353553 0.0706,0.211765 -0.0706,0.141789 0,0.353554 0.172,0.516008 0.21538,0.2291 0.44194,0.795495 0.0558,0.139486 0.0409,0.29942 0.0884,0.441941 0.0891,0.267283 0.26918,0.454004 0.35355,0.707107 0.0659,0.197643 0.0225,0.421076 0.0884,0.618719 0.13557,0.406726 0.38152,0.752223 0.53033,1.149048 0.22831,0.608835 0.21326,1.313219 0.35355,1.944544 0.0761,0.342308 0.28764,0.752045 0.44194,1.06066 0.0186,0.03727 0.0802,0.04753 0.0884,0.08839 0.0124,0.06177 0.15664,1.472402 0.17678,1.502602 0.0462,0.0693 0.13055,0.10744 0.17678,0.17678 0.0797,0.11957 0,1.63594 0,1.85616 0,0.11785 0,-0.23571 0,-0.35356 0,-0.26516 0,-0.53033 0,-0.79549 0,-0.33449 0.11224,-0.56121 0.17677,-0.88389 0.036,-0.18004 0,-0.4389 0,-0.61872 0,-0.60418 0.0138,-1.17108 0.0884,-1.767765 0.043,-0.344277 -0.0679,-0.721219 0,-1.06066 -0.0307,-0.179839 0.14566,-0.286361 0.17678,-0.441942 0.0462,-0.231125 0,-0.471405 0,-0.707107 0,-0.707107 0,-1.414213 0,-2.12132 0,-0.342225 -0.082,-0.821116 0,-1.149049 0.0385,-0.153924 0.13829,-0.288017 0.17677,-0.441941 0.0686,-0.274307 0.0631,-1.805778 0,-2.121321 -0.0544,-0.272068 -0.0494,-0.52253 -0.0884,-0.795495 -0.0425,-0.297443 -0.14688,-0.584912 -0.17678,-0.883883 -0.0264,-0.263849 0.0264,-0.531646 0,-0.795495 -0.057,-0.569878 -0.2973,-1.116875 -0.35355,-1.679379 -0.0756,-0.75639 0.0943,-1.543974 0,-2.298097 -0.0331,-0.264737 -0.0445,-0.532328 -0.0884,-0.795495 -0.0459,-0.275706 -0.19738,-0.524332 -0.26517,-0.795495 -0.0286,-0.114333 0.0167,-0.236887 0,-0.353554 -0.0475,-0.332551 -0.17677,-0.648181 -0.26516,-0.972272 -0.18196,-0.667165 -0.15613,-0.951145 -0.44194,-1.767767 -0.0653,-0.186546 -0.19763,-0.344587 -0.26517,-0.53033 -0.15245,-0.419236 -0.13624,-0.896065 -0.26516,-1.325825 -0.28065,-0.935487 -0.67754,-1.846086 -1.06066,-2.740039 -0.23315,-0.543994 -0.34823,-1.133075 -0.53033,-1.679378 -0.0535,-0.160616 -0.18306,-0.40716 -0.26517,-0.53033 -0.0693,-0.104007 -0.22564,-0.14658 -0.26516,-0.265165 -0.0186,-0.0559 0.0264,-0.124072 0,-0.176777 -0.0844,-0.168737 -0.27924,-0.268542 -0.35356,-0.441942 -0.0734,-0.171272 -0.0934,-0.363663 -0.17678,-0.53033 -0.0373,-0.07454 -0.1395,-0.102241 -0.17677,-0.176777 -0.0263,-0.0527 0.0186,-0.120875 0,-0.176776 -0.0548,-0.16438 -0.20309,-0.344092 -0.26517,-0.53033 -0.0623,-0.186897 -0.0942,-0.365279 -0.17677,-0.53033 -0.0264,-0.05271 0.0263,-0.124073 0,-0.176777 -0.10173,-0.203461 -0.10369,0.03853 -0.26517,-0.176777 -0.12766,-0.170217 -0.16943,-0.515642 -0.26516,-0.707107 -0.0963,-0.19267 -0.67566,-1.117596 -0.7955,-1.237437 -0.0208,-0.02083 -0.0675,0.02083 -0.0884,0 -0.1089,-0.108898 -0.14084,-0.541341 -0.26516,-0.707106 -0.19174,-0.255656 -0.41567,-0.453294 -0.61872,-0.707107 -0.0184,-0.02301 0.0208,-0.06755 0,-0.08839 -0.0208,-0.02083 -0.0589,0 -0.0884,0 -0.0295,-0.02946 -0.0653,-0.05372 -0.0884,-0.08839 -0.22086,-0.331289 -0.36628,-0.611224 -0.7071,-0.883883 -0.31187,-0.249495 -0.66518,-0.461428 -0.97228,-0.707107 -0.0976,-0.07809 -0.15797,-0.200853 -0.26516,-0.265165 -0.0505,-0.03032 -0.12407,0.02635 -0.17678,0 -0.14907,-0.07454 -0.20448,-0.279018 -0.35355,-0.353553 -0.10865,-0.05433 -0.2449,-0.03406 -0.35355,-0.08839 -0.0745,-0.03727 -0.10532,-0.133902 -0.17678,-0.176777 -0.35944,-0.215665 -0.19506,0.07011 -0.53033,-0.265165 -0.19574,-0.195742 -0.14794,-0.353927 -0.44194,-0.53033 -0.0505,-0.03032 -0.12088,0.01863 -0.17678,0 -0.27589,-0.09196 0.0295,-0.05892 -0.0884,-0.176776 -0.0694,-0.06942 -0.60244,-0.283778 -0.7071,-0.353554 -0.0693,-0.04622 -0.0994,-0.145827 -0.17678,-0.176776 -0.0821,-0.03283 -0.18131,0.02795 -0.26517,0 -0.11858,-0.03953 -0.32335,-0.225637 -0.44194,-0.265165 -0.33766,-0.112556 -0.71819,-0.267938 -1.06066,-0.353554 -0.0572,-0.01429 -0.12087,0.01863 -0.17678,0 -0.11543,-0.03848 -0.22184,-0.212483 -0.35355,-0.265165 -0.2095,-0.0838 -0.42215,-0.111254 -0.61872,-0.176777 -0.21865,-0.07288 -0.38804,-0.207496 -0.61872,-0.265165 -0.24062,-0.06016 0.12634,0.199544 -0.35355,-0.08839 -0.25157,-0.150941 -0.0799,-0.196762 -0.35355,-0.265165 -0.11433,-0.02858 -0.23799,0.02311 -0.35356,0 -0.48089,-0.09618 -0.66018,-0.162589 -1.14904,-0.441942 z"
     id="path47" />
  <path
     style="fill:#dedede;fill-opacity:0.80000001"
     d="m 511.94531,172.88761 c -0.38098,-1.52392 -0.16157,0.13116 0.35355,-1.41422 0.0932,-0.2795 -0.0932,-0.60437 0,-0.88388 0.18162,-0.54485 1.27306,-1.72581 1.59099,-2.2981 0.15411,-0.27739 0.18538,-0.61479 0.35356,-0.88388 0.35333,-0.56533 1.0319,-0.86806 1.41421,-1.41421 2.10006,-3.00009 -2.49759,2.11647 1.41421,-2.12132 0.87017,-0.94269 1.80764,-1.89314 2.47488,-3.00521 0.32652,-0.5442 0.39889,-1.21298 0.7071,-1.76776 0.14309,-0.25756 0.38725,-0.44956 0.53034,-0.70711 0.4389,-0.43688 0.28033,-1.09099 0.53033,-1.59099 0.88615,-1.77231 0.1745,0.35809 1.06066,-1.41421 0.16666,-0.33334 0.18688,-0.72733 0.35355,-1.06066 0.13176,-0.26353 0.41067,-0.43788 0.53033,-0.70711 0.12203,-0.27457 0.0818,-0.59884 0.17678,-0.88389 0.14191,-0.42573 0.37939,-0.81481 0.53033,-1.23743 0.14428,-0.40399 0.17932,-0.84543 0.35355,-1.23744 0.0677,-0.1523 0.27261,-0.20786 0.35355,-0.35355 1.35539,-2.4397 -0.25994,-0.0971 1.06066,-2.2981 0.68232,-1.1372 1.34589,-2.33823 1.94455,-3.53553 0.31841,-0.63684 0.68828,-1.25994 0.88388,-1.94455 0.0486,-0.16997 -0.0486,-0.36035 0,-0.53033 0.11785,-0.2357 0.2357,-0.4714 0.35355,-0.7071 0.0589,0 0.15043,0.0527 0.17678,0 0.20448,-0.40895 0.006,-0.89661 0.17678,-1.23744 0.1118,-0.22361 0.46969,-0.28779 0.53033,-0.53033 0.0429,-0.1715 -0.0486,-0.36036 0,-0.53033 0.0724,-0.25338 0.24974,-0.46489 0.35355,-0.70711 0.16899,-0.3943 0.16171,-0.85374 0.35355,-1.23743 0.42665,-0.85331 0.29489,0.11694 0.53033,-0.70711 0.46594,-1.63079 1.12927,-3.17673 1.76777,-4.77297 0.16667,-0.41667 0.44232,-0.79739 0.53033,-1.23744 0.0347,-0.17334 -0.0486,-0.36035 0,-0.53033 0.35355,-1.23744 0.26517,-0.26516 0.53033,-1.06066 0.41516,-1.24549 0.40272,-2.43618 0.53033,-3.71231 0.0371,-0.37083 0.29229,-0.69305 0.35355,-1.06066 0.0291,-0.17437 -0.0429,-0.35883 0,-0.53033 0.16004,-0.64016 0.56013,-1.88131 0.88389,-2.47487 0.26619,-0.48803 0.70809,-0.88684 0.88388,-1.41422 0.11785,-0.35355 0.29229,-0.69305 0.35355,-1.06066 0.0678,-0.40686 -0.0895,-0.83478 0,-1.23743 0.19684,-0.88578 0.41542,-0.96338 0.53033,-1.76777 0.025,-0.175 -0.0429,-0.35883 0,-0.53033 0.15216,-0.60864 0.60335,-1.1452 0.70711,-1.76777 0.0539,-0.32354 0.0324,-0.7719 0.17678,-1.06066 0.0263,-0.0527 0.15042,0.0527 0.17677,0 0.18894,-0.37788 -1.3e-4,-1.76736 0.17678,-2.2981 0.28916,-0.86748 0.89218,-1.54821 1.06066,-2.47487 0.1936,-1.06477 0.16785,-1.02497 0.35355,-1.76777 0.12457,-0.49827 -0.10077,-1.08709 0,-1.59099 0.0517,-0.2584 0.31024,-0.44717 0.35356,-0.7071 0.12889,-0.77333 0.11583,-2.72474 0,-3.535537 -0.0683,-0.477942 -0.24029,-0.961155 -0.35356,-1.414214 -0.0953,-0.381047 -0.10892,-4.446198 0,-4.77297 0.42683,-1.280468 -0.051,0.278707 0.35356,-0.530331 0.0707,-0.141421 -0.0707,-0.388908 0,-0.53033 0.0111,-0.02213 1.28842,0 1.76777,0 0.8356,0 3.89673,0.09221 4.41941,0.353554 0.0745,0.03727 0.0977,0.150424 0.17678,0.176776 0.28807,0.09602 1.17667,0.01841 1.41421,0.176777 0.13868,0.09245 0.21488,0.261104 0.35356,0.353554 0.19611,0.130744 0.48826,-0.08754 0.7071,0 0.15475,0.0619 0.21488,0.261103 0.35356,0.353553 0.11381,0.07588 0.39835,-0.04399 0.53033,0 0.27923,0.09308 1.25612,0.469973 1.41421,0.707107 0.0654,0.09806 -0.0707,0.259272 0,0.353553 0.12748,0.169967 0.3801,0.203322 0.53033,0.353553 0.28364,0.283639 0.77351,1.083104 0.88388,1.414214 0.17323,0.519673 0.0985,1.043187 0.17678,1.59099 0.0607,0.424673 0.29289,0.812764 0.35355,1.237437 0.0959,0.671168 0,1.441644 0,2.121324 0,1.41421 0,2.82842 0,4.24264 0,1.21971 -0.50637,2.15434 -0.7071,3.35875 -0.0387,0.2325 0.0422,0.47521 0,0.70711 -0.11813,0.64971 -0.42065,1.28643 -0.53033,1.94454 -0.01,0.0593 -0.3013,2.49488 -0.35356,2.65166 -0.10865,0.32596 -0.40272,0.56486 -0.53033,0.88388 -0.17846,0.44616 -0.61852,2.7387 -0.7071,3.35876 -0.0333,0.23333 0.0648,0.48047 0,0.7071 -0.0754,0.26378 -0.45721,1.04858 -0.53033,1.41422 -0.47692,2.38459 0.18424,0.093 -0.53033,2.47487 -0.10709,0.35696 -0.21515,0.71464 -0.35356,1.06066 -0.0789,0.19726 -0.30202,0.32421 -0.35355,0.53033 -0.11522,0.46089 -3.4e-4,0.97312 -0.17678,1.41421 -0.33245,0.83113 -0.74451,1.63181 -1.06066,2.47488 -0.27934,0.7449 -0.35193,1.58774 -0.7071,2.29809 -0.38174,0.76347 -0.922,1.50951 -1.23744,2.2981 -0.0438,0.10942 0,0.2357 0,0.35356 -0.11785,0.2357 -0.22281,0.4783 -0.35355,0.7071 -1.15674,2.02428 0.57859,-1.13306 -0.88389,1.06066 -0.63909,0.95865 0.20879,0.0968 -0.17677,1.06066 -0.0619,0.15475 -0.27902,0.20448 -0.35356,0.35356 -0.18042,0.36083 -0.11118,1.18703 -0.35355,1.59099 -0.0857,0.14291 -0.26781,0.21063 -0.35355,0.35355 -0.53901,0.12514 -0.0681,0.4898 -0.17678,0.70711 -0.21528,0.43056 -0.52858,0.7911 -0.70711,1.23743 -0.0438,0.10942 0.0527,0.24815 0,0.35356 -0.14154,0.28309 -0.5213,0.60517 -0.7071,0.88388 -0.27716,0.41573 -0.26951,0.97951 -0.53033,1.41421 -0.25858,0.43097 -0.64663,0.76293 -0.88389,1.23744 -0.0589,0.17678 -0.11785,0.35355 -0.17678,0.53033 0,0.0589 0.0186,0.12088 0,0.17678 -0.1961,0.58831 -0.52483,1.25484 -0.88388,1.76776 -1.37844,1.9692 -0.37675,0.34603 -1.41421,1.59099 -0.60275,0.7233 -0.13077,0.37293 -0.70711,1.23744 -0.45618,0.68427 -0.32178,-0.0152 -0.70711,0.88388 -0.0957,0.22332 -0.0681,0.4898 -0.17677,0.70711 -0.13176,0.26352 -0.37418,0.45726 -0.53033,0.70711 -0.13967,0.22347 -0.20039,0.49267 -0.35356,0.7071 -0.24218,0.33906 -0.66951,0.5266 -0.88388,0.88389 -0.0959,0.15978 -0.065,0.38126 -0.17678,0.53033 -0.079,0.10541 -0.27696,0.0696 -0.35355,0.17678 -0.76815,0.36274 -0.35507,1.2397 -0.70711,1.76776 -0.23112,0.34669 -0.6095,0.57031 -0.88388,0.88389 -0.13991,0.15989 -0.20332,0.38009 -0.35355,0.53033 -0.0932,0.0932 -0.28047,0.0671 -0.35356,0.17677 -0.0654,0.0981 0.0438,0.24413 0,0.35356 -0.26072,0.65182 -2.18497,2.10718 -2.82842,2.47487 -0.50389,0.28793 -1.09886,0.39952 -1.59099,0.70711 -0.212,0.1325 -0.32232,0.39165 -0.53033,0.53033 -0.72391,0.4826 -1.56409,0.77034 -2.2981,1.23743 -0.82887,0.52746 -1.64191,1.07039 -2.47487,1.59099 -0.44694,0.27934 -0.97569,0.41476 -1.41422,0.70711 -0.13867,0.0924 -0.21488,0.2611 -0.35355,0.35355 -0.31443,0.39556 -0.85263,0.29945 -1.23744,0.53033 -0.14291,0.0858 -0.22022,0.25356 -0.35355,0.35356 -0.43369,0.32527 -0.98052,0.55861 -1.41422,0.88388 -0.13333,0.1 -0.20448,0.27902 -0.35355,0.35355 -0.10541,0.0527 -0.24175,-0.0373 -0.35355,0 -0.34803,0.11601 -0.72066,0.53711 -1.06066,0.70711 -0.28383,0.14191 -0.60837,0.19612 -0.88389,0.35355 -0.1447,0.0827 -0.22022,0.25356 -0.35355,0.35356 -0.53104,0.39828 -1.19833,0.71899 -1.76777,1.06066 -0.65145,0.39087 -0.41751,0.6507 -0.88388,0.88388 -0.10541,0.0527 -0.2555,-0.0654 -0.35355,0 -0.32793,0.21862 -0.35356,0.72204 -0.35356,1.06066 0,0.11785 -0.10232,0.29508 0,0.35355 0.37247,0.21284 0.82496,0.23571 1.23744,0.35356 z"
     id="path48" />
  <path
     style="fill:url(#linearGradient50);fill-opacity:1"
     d="m 732,68.125 c 0.19514,0.195137 0.55868,0.569762 0.75,0.6875 0.35707,0.219735 0.76645,0.345196 1.125,0.5625 0.33141,0.200854 0.62748,0.454987 0.9375,0.6875 2.37748,1.783109 0.26159,0.210406 2.5625,2 0.55256,0.429766 1.13495,0.820234 1.6875,1.25 0.43575,0.338919 0.78141,0.755823 1.1875,1.125 0.19742,0.179467 0.42422,0.324313 0.625,0.5 0.0665,0.0582 0.11558,0.136125 0.1875,0.1875 0.0758,0.05415 0.17926,0.06437 0.25,0.125 0.0791,0.06779 0.11928,0.171283 0.1875,0.25 0.20284,0.234044 0.41426,0.460547 0.625,0.6875 0.25583,0.275509 0.65356,0.465286 0.875,0.75 0.27382,0.352047 0.51413,0.726832 0.8125,1.0625 0.0783,0.08808 0.18463,0.151942 0.25,0.25 0.0622,0.09335 0.0655,0.217362 0.125,0.3125 0.0468,0.07495 0.13447,0.116789 0.1875,0.1875 0.0729,0.09718 0.125,0.208333 0.1875,0.3125 0.125,0.166667 0.24486,0.337319 0.375,0.5 0.11999,0.149985 0.26336,0.281203 0.375,0.4375 0.0976,0.136678 0.14922,0.303129 0.25,0.4375 0.1591,0.212132 0.42014,0.338791 0.5625,0.5625 0.59459,0.934357 -0.2848,-0.06677 0.5,0.875 0.23596,0.283151 0.51975,0.524688 0.75,0.8125 0.12278,0.153473 0.18308,0.352088 0.3125,0.5 0.0686,0.07839 0.18946,0.102736 0.25,0.1875 0.0499,0.0699 0.0132,0.17963 0.0625,0.25 0.10138,0.144821 0.26306,0.238183 0.375,0.375 0.30565,0.373565 0.59484,0.91227 0.875,1.3125 0.046,0.06569 0.38009,0.462028 0.4375,0.5625 0.0907,0.158703 0.14517,0.342753 0.25,0.5 0.0256,0.03842 0.27896,0.359236 0.3125,0.4375 0.0338,0.07895 0.0287,0.171047 0.0625,0.25 0.14785,0.34498 0.44902,0.673178 0.625,1 0.0532,0.09878 0.0705,0.214428 0.125,0.3125 0.25131,0.452348 0.59901,0.878807 0.875,1.3125 0.25222,0.396346 0.47003,0.814208 0.75,1.1875 0.13181,0.175751 0.1674,0.369768 0.25,0.5625 0.0194,0.04519 0.21628,0.455038 0.25,0.5 0.0354,0.04714 0.0947,0.07447 0.125,0.125 0.20032,0.333859 -0.0495,0.03902 0.0625,0.375 0.007,0.01976 0.0478,-0.01473 0.0625,0 0.0516,0.05164 0.10507,0.295268 0.125,0.375 0.087,0.348192 0.0106,0.04719 0.1875,0.3125 0.0289,0.04327 -0.0288,0.144231 0,0.1875 0.0327,0.04903 0.0947,0.07447 0.125,0.125 0.17948,0.299136 -0.0704,0.101357 0.0625,0.5 0.0693,0.208004 0.34,0.429997 0.4375,0.625 0.077,0.153935 -0.18142,-0.05642 0.0625,0.1875 0.0295,0.02946 0,-0.08333 0,-0.125 0,-0.118012 0.019,-0.261079 0,-0.375 -0.0217,-0.129969 -0.0992,-0.245797 -0.125,-0.375 -0.0465,-0.232593 0,-0.591182 0,-0.8125 0,-0.338218 0.0702,-1.406855 0,-1.6875 -0.0656,-0.262483 -0.13304,-0.54019 -0.1875,-0.8125 -0.0123,-0.06129 0.028,-0.131598 0,-0.1875 -0.0336,-0.06718 -0.0971,-0.117757 -0.125,-0.1875 -0.0624,-0.15595 -0.0218,-0.337051 -0.0625,-0.5 -0.032,-0.127827 -0.0903,-0.247881 -0.125,-0.375 -0.1508,-0.552954 -0.12944,-1.138325 -0.3125,-1.6875 -0.5581,-1.255728 -0.0578,-0.0035 -0.3125,-0.9375 -0.0295,-0.108238 -0.103,-0.202488 -0.125,-0.3125 -0.0635,-0.317542 0.0266,-0.610955 -0.0625,-0.9375 -0.17503,-0.641775 -0.048,-0.04539 -0.25,-0.5 -0.12578,-0.283016 -0.19338,-0.589114 -0.3125,-0.875 -0.0744,-0.178571 -0.25297,-0.461309 -0.3125,-0.625 -0.0363,-0.09983 -0.0185,-0.215792 -0.0625,-0.3125 -0.0622,-0.136765 -0.16934,-0.248255 -0.25,-0.375 -0.24404,-0.383493 -0.48451,-0.781533 -0.6875,-1.1875 -0.22005,-0.440107 -0.46702,-0.871543 -0.6875,-1.3125 -0.1807,-0.361406 -0.32019,-0.845861 -0.5,-1.1875 -0.0835,-0.158591 -0.21857,-0.28487 -0.3125,-0.4375 -0.13681,-0.222318 -0.2746,-0.446539 -0.375,-0.6875 -0.10898,-0.261567 -0.14476,-0.549403 -0.25,-0.8125 -0.21914,-0.547865 -0.0245,0.0135 -0.25,-0.4375 -0.14067,-0.281341 -0.21899,-0.656972 -0.3125,-0.9375 -0.0442,-0.132582 -0.13843,-0.244144 -0.1875,-0.375 -0.0302,-0.08043 -0.0287,-0.171047 -0.0625,-0.25 -0.10697,-0.249606 -0.11861,-0.105836 -0.1875,-0.3125 -0.11925,-0.357743 -0.23447,-0.711168 -0.375,-1.0625 -0.11896,-0.297394 -0.36146,-0.535421 -0.5,-0.8125 -0.16667,-0.333333 0.0726,-0.04734 -0.1875,-0.4375 -0.21596,-0.323937 -0.47719,-0.622039 -0.6875,-0.9375 C 746.1566,71.422416 746.09582,71.159703 746,71 c -0.14921,-0.248682 -0.3768,-0.464658 -0.5625,-0.6875 -0.28043,-0.336522 -0.54814,-0.819154 -0.9375,-1.0625 -0.0951,-0.05946 -0.21736,-0.06554 -0.3125,-0.125 -0.0749,-0.04685 -0.12098,-0.129296 -0.1875,-0.1875 -1.21166,-1.060201 0.384,0.334877 -0.5625,-0.375 -0.18949,-0.142115 -0.35595,-0.37607 -0.5625,-0.5 -0.0752,-0.04514 -0.37621,-0.104569 -0.4375,-0.125 -0.13684,-0.04561 -0.29641,-0.169863 -0.4375,-0.1875 -0.20672,-0.02584 -0.41667,0 -0.625,0 -0.87132,0 -1.82518,0.08623 -2.6875,0 -0.46991,-0.04699 -0.90179,-0.259921 -1.375,-0.3125 -0.38641,-0.04293 -0.79809,0 -1.1875,0 -0.28141,0 -0.59875,-0.04604 -0.875,0 -0.3101,0.05168 -0.6324,0.12648 -0.9375,0.1875 -0.6324,0.126481 0.37561,-0.01578 -0.4375,0.1875 -0.14148,0.03537 -0.29728,-0.04006 -0.4375,0 -0.0896,0.0256 -0.16349,0.0904 -0.25,0.125 -0.0523,0.02091 -0.13735,-0.02508 -0.1875,0 -0.15573,0.07786 -0.38258,0.235007 -0.5625,0.25 -0.1468,0.01223 -0.29167,-0.04167 -0.4375,-0.0625 z"
     id="path49" />
</svg>
