<?xml version="1.0" encoding="UTF-8" standalone="no"?>
<!-- Created with Inkscape (http://www.inkscape.org/) -->

<svg
   version="1.1"
   id="svg1"
   width="1152"
   height="192"
   viewBox="0 0 1152 192"
   sodipodi:docname="Rolling.svg"
   inkscape:version="1.4 (86a8ad7, 2024-10-11)"
   xmlns:inkscape="http://www.inkscape.org/namespaces/inkscape"
   xmlns:sodipodi="http://sodipodi.sourceforge.net/DTD/sodipodi-0.dtd"
   xmlns="http://www.w3.org/2000/svg"
   xmlns:svg="http://www.w3.org/2000/svg">
  <defs
     id="defs1">
    <inkscape:path-effect
       effect="spiro"
       id="path-effect44"
       is_visible="true"
       lpeversion="1" />
    <inkscape:path-effect
       effect="spiro"
       id="path-effect43"
       is_visible="true"
       lpeversion="1" />
    <inkscape:path-effect
       effect="spiro"
       id="path-effect42"
       is_visible="true"
       lpeversion="1" />
    <inkscape:path-effect
       effect="spiro"
       id="path-effect41"
       is_visible="true"
       lpeversion="1" />
    <inkscape:path-effect
       effect="spiro"
       id="path-effect22"
       is_visible="true"
       lpeversion="1" />
    <inkscape:path-effect
       effect="spiro"
       id="path-effect20"
       is_visible="true"
       lpeversion="1" />
    <inkscape:path-effect
       effect="spiro"
       id="path-effect19"
       is_visible="true"
       lpeversion="1" />
    <inkscape:path-effect
       effect="spiro"
       id="path-effect16"
       is_visible="true"
       lpeversion="1" />
    <inkscape:path-effect
       effect="spiro"
       id="path-effect15"
       is_visible="true"
       lpeversion="1" />
    <inkscape:path-effect
       effect="spiro"
       id="path-effect10"
       is_visible="true"
       lpeversion="1" />
    <inkscape:path-effect
       effect="spiro"
       id="path-effect9"
       is_visible="true"
       lpeversion="1" />
    <inkscape:path-effect
       effect="spiro"
       id="path-effect8"
       is_visible="true"
       lpeversion="1" />
    <inkscape:path-effect
       effect="spiro"
       id="path-effect7"
       is_visible="true"
       lpeversion="1" />
    <inkscape:path-effect
       effect="spiro"
       id="path-effect6"
       is_visible="true"
       lpeversion="1" />
    <inkscape:path-effect
       effect="spiro"
       id="path-effect5"
       is_visible="true"
       lpeversion="1" />
    <inkscape:path-effect
       effect="spiro"
       id="path-effect4"
       is_visible="true"
       lpeversion="1" />
    <inkscape:path-effect
       effect="spiro"
       id="path-effect3"
       is_visible="true"
       lpeversion="1" />
    <inkscape:path-effect
       effect="spiro"
       id="path-effect2"
       is_visible="true"
       lpeversion="1" />
    <inkscape:path-effect
       effect="spiro"
       id="path-effect1"
       is_visible="true"
       lpeversion="1" />
  </defs>
  <sodipodi:namedview
     id="namedview1"
     pagecolor="#f9c3f9"
     bordercolor="#000000"
     borderopacity="0.25"
     inkscape:showpageshadow="2"
     inkscape:pageopacity="0.0"
     inkscape:pagecheckerboard="0"
     inkscape:deskcolor="#d1d1d1"
     showgrid="true"
     inkscape:zoom="0.63344982"
     inkscape:cx="378.87768"
     inkscape:cy="155.49771"
     inkscape:window-width="1600"
     inkscape:window-height="829"
     inkscape:window-x="-8"
     inkscape:window-y="-8"
     inkscape:window-maximized="1"
     inkscape:current-layer="layer17">
    <inkscape:grid
       id="grid1"
       units="px"
       originx="0"
       originy="0"
       spacingx="192"
       spacingy="192"
       empcolor="#0099e5"
       empopacity="0.30196078"
       color="#0099e5"
       opacity="0.14901961"
       empspacing="5"
       enabled="true"
       visible="true" />
  </sodipodi:namedview>
  <g
     inkscape:groupmode="layer"
     id="layer16"
     inkscape:label="Layer 8"
     style="display:inline">
    <g
       inkscape:groupmode="layer"
       inkscape:label="Skin"
       id="g1"
       style="display:inline">
      <path
         style="fill:#ecd9c6;fill-opacity:1;paint-order:stroke fill markers"
         d="m 105.71042,70.14885 c 1.48663,1.023212 3.1928,1.725751 4.96888,2.046008 2.75679,0.497096 5.58303,0.07638 8.37889,-0.09743 3.0948,-0.192396 6.23407,-0.08355 9.25575,-0.779432 0.91898,-0.211639 1.82057,-0.496568 2.74466,-0.684679 0.92409,-0.188111 1.88368,-0.277765 2.80879,-0.09475 1.01461,0.200718 1.9604,0.734911 2.65613,1.500211 0.69573,0.765301 1.13763,1.757571 1.24103,2.786663 0.93772,1.661028 2.48959,2.966014 4.28687,3.604871 1.7162,0.610039 3.64239,0.610039 5.35859,0 l 3.11773,-3.7023 c 0.02,-0.314594 -0.053,-0.63453 -0.2076,-0.909275 -0.15454,-0.274746 -0.39003,-0.503309 -0.66926,-0.649588 -0.48099,-0.251973 -1.05315,-0.250611 -1.59321,-0.194221 -0.54006,0.05639 -1.08286,0.161827 -1.62195,0.09679 -0.53682,-0.06476 -1.06078,-0.310336 -1.40939,-0.723679 -0.1743,-0.206672 -0.30298,-0.452775 -0.36543,-0.715822 -0.0624,-0.263046 -0.0578,-0.54277 0.0211,-0.801365 0.0794,-0.260335 0.23268,-0.495836 0.42888,-0.684479 0.1962,-0.188643 0.43442,-0.331229 0.68853,-0.428752 0.50821,-0.195046 1.06914,-0.209444 1.6106,-0.153346 1.95876,0.202938 3.70536,1.268539 5.55345,1.948579 2.16792,0.797726 4.52802,1.067452 6.82003,0.779432 0.83506,0.247592 1.788,0.05259 2.45868,-0.503114 0.67068,-0.555708 1.0394,-1.455798 0.95133,-2.322326 -0.0461,-0.453482 -0.20825,-0.889135 -0.42233,-1.291553 -0.21408,-0.402418 -0.4798,-0.774747 -0.74681,-1.144171 -1.78914,-2.475346 -3.67467,-4.88102 -5.65088,-7.209743 -3.71524,-1.886052 -7.91813,-2.801197 -12.08119,-2.630582 -2.02545,0.08301 -4.03085,0.416981 -6.0406,0.682003 -0.61526,0.08113 -1.23179,0.155885 -1.85115,0.194858 -2.88253,0.181382 -5.81105,-0.431564 -8.37889,-1.753721 -3.7715,-1.326442 -7.70918,-2.179606 -11.69147,-2.533153 -4.09039,-0.363144 -8.2273,-0.198981 -12.27605,0.487145 -1.28226,0.951517 -2.31206,2.240117 -2.95741,3.700634 -0.64534,1.460517 -0.90472,3.089535 -0.74489,4.678256 0.16096,1.599959 0.74683,3.155228 1.68148,4.463741 0.93465,1.308513 2.21584,2.367122 3.67711,3.038289 z"
         id="path1"
         inkscape:path-effect="#path-effect1"
         inkscape:original-d="m 105.71042,70.14885 c 1.7862,2.500677 3.24763,1.364005 4.96888,2.046008 1.72124,0.682003 5.65088,-0.06495 8.37889,-0.09743 2.72801,-0.03248 6.1705,-0.519621 9.25575,-0.779432 3.08525,-0.25981 3.63735,-0.519621 5.55345,-0.779431 1.9161,-0.259811 5.16373,5.715832 3.89716,4.286874 1.16914,1.428958 2.82544,2.403248 4.28687,3.604871 1.46144,1.201624 7.14479,0.03248 5.35859,0 1.7862,0.129906 4.18945,-4.968877 3.11773,-3.7023 1.16915,-1.266577 -0.5521,-1.039242 -0.87686,-1.558863 -0.32476,-0.519621 -2.11096,-0.09743 -3.21516,-0.09743 -1.10419,0 -1.20162,-1.461435 -1.75372,-2.240866 -0.55209,-0.779432 1.81868,-0.844385 2.72801,-1.266577 0.90934,-0.422192 3.7023,1.299053 5.55345,1.948579 1.85115,0.649527 9.09337,1.071719 6.82003,0.779432 2.27334,0.389716 2.27334,-1.85115 3.41001,-2.82544 1.13668,-0.974289 -0.77943,-1.623816 -1.16914,-2.435724 -0.38972,-0.811908 -7.50203,-9.61299 -5.65088,-7.209743 -1.75372,-2.403247 -8.08661,-1.688768 -12.08119,-2.630582 -3.99459,-0.941813 -3.89716,0.389716 -6.0406,0.682003 -2.14344,0.292287 -1.29905,0.129905 -1.85115,0.194858 -0.5521,0.06495 -11.20433,-2.338295 -8.37889,-1.753721 -2.72801,-0.584574 -7.76184,-1.623816 -11.69147,-2.533153 -3.92964,-0.909337 -16.368069,0.682003 -12.27605,0.487145 -4.092019,0.09743 -2.4682,5.55345 -3.7023,8.37889 -1.234103,2.82544 3.57239,5.001353 5.35859,7.50203 z" />
      <path
         style="fill:#ecd9c6;fill-opacity:1;paint-order:stroke fill markers"
         d="m 108.57486,127.72702 c 1.83518,-0.65358 3.8488,-0.4719 5.78698,-0.27557 5.78239,0.58574 11.57909,1.23102 17.22317,2.61792 1.31397,0.32288 2.62105,0.68621 3.95842,0.89166 1.33737,0.20545 2.7171,0.24943 4.03313,-0.0649 1.68462,-0.40242 3.17071,-1.36333 4.68471,-2.20457 1.65963,-0.92216 3.40027,-1.71937 5.23584,-2.20457 2.19274,-0.57961 4.4886,-0.70415 6.75148,-0.55114 0.63253,0.0428 1.2748,0.10968 1.8593,0.3552 0.29225,0.12277 0.56757,0.29024 0.79741,0.50854 0.22984,0.21829 0.41326,0.48859 0.51235,0.78969 0.16255,0.49391 0.0878,1.04715 -0.13778,1.51564 -0.18704,0.38843 -0.47264,0.72519 -0.80673,0.99766 -0.3341,0.27246 -0.7161,0.48232 -1.11434,0.64744 -0.79648,0.33024 -1.65292,0.48283 -2.48806,0.69725 -0.88293,0.22669 -1.76683,0.5347 -2.48014,1.10228 -0.39034,0.3106 -0.72742,0.70376 -0.90219,1.17098 -0.0874,0.23361 -0.13298,0.48382 -0.12338,0.73305 0.01,0.24923 0.0752,0.49731 0.19886,0.71389 0.13909,0.24352 0.34962,0.44334 0.59268,0.58323 0.24307,0.13989 0.51783,0.221 0.79663,0.2513 0.55761,0.0606 1.11958,-0.0792 1.64197,-0.28339 1.01974,-0.39864 1.95326,-1.0486 3.03128,-1.24006 1.04374,-0.18537 2.12462,0.0839 3.08323,0.53642 0.95861,0.45257 1.82043,1.08206 2.70375,1.66814 0.88146,0.58484 1.79564,1.13414 2.56968,1.85517 0.77404,0.72102 1.40994,1.64518 1.56388,2.69175 0.11649,0.79198 -0.0518,1.60976 -0.39011,2.33525 -0.33834,0.72548 -0.84044,1.36472 -1.4011,1.93609 -1.08028,1.10091 -2.40101,1.97395 -3.85799,2.48014 -1.97633,0.68662 -4.11307,0.68304 -6.20034,0.82671 -2.80794,0.19327 -5.66919,0.66163 -8.40491,0 -2.24721,-0.54348 -4.26807,-1.83197 -5.92477,-3.44463 -0.59016,-0.57448 -1.16462,-1.20897 -1.92899,-1.51564 -0.52127,-0.20913 -1.09822,-0.24898 -1.65745,-0.19687 -0.55924,0.0521 -1.10597,0.19274 -1.6494,0.33465 -2.01564,0.52637 -4.0259,1.07759 -6.06256,1.51564 -2.78337,0.59866 -5.60791,0.98423 -8.4049,1.51564 -1.75975,0.33434 -3.51306,0.72708 -5.29669,0.89196 -1.78363,0.16489 -3.61574,0.0946 -5.31278,-0.4786 -1.72907,-0.58405 -3.2676,-1.6815 -4.45946,-3.06362 -1.19186,-1.38212 -2.04328,-3.04204 -2.5676,-4.79015 -0.67102,-2.23723 -0.80493,-4.68109 -0.0673,-6.89726 0.3688,-1.10809 0.95314,-2.14841 1.739,-3.01229 0.78587,-0.86388 1.77509,-1.54818 2.87525,-1.93999 z"
         id="path2"
         inkscape:path-effect="#path-effect2"
         inkscape:original-d="m 108.57486,127.72702 c 1.51564,-3.94984 3.76613,-0.18371 5.78698,-0.27557 2.02086,-0.0918 11.48212,1.74528 17.22317,2.61792 5.74106,0.87264 5.3277,0.55115 7.99155,0.82672 2.66385,0.27557 3.215,-1.46971 4.68471,-2.20457 1.46971,-0.73485 3.49056,-1.46971 5.23584,-2.20457 1.74528,-0.73485 4.50099,-0.32149 6.75148,-0.55114 2.2505,-0.22964 1.97492,1.14821 3.16906,1.65343 1.19414,0.50521 -0.0919,0.91857 -0.13778,1.51564 -0.0459,0.59707 -2.98535,1.65342 -4.40913,2.34235 -1.42378,0.68892 -1.56157,0.643 -2.48014,1.10228 -0.91857,0.45929 -0.55114,1.74528 -0.82671,2.61792 -0.27557,0.87264 2.11271,0.36743 3.03128,0.55114 0.91857,0.18372 1.92899,-0.82671 3.03128,-1.24006 1.10228,-0.41336 3.85798,1.46971 5.78698,2.20456 1.92899,0.73486 2.75571,3.03128 4.13356,4.54692 1.37785,1.51564 -1.286,2.84756 -1.79121,4.27134 -0.50521,1.42379 -2.52606,1.65343 -3.85799,2.48014 -1.33192,0.82671 -4.08763,0.55114 -6.20034,0.82671 -2.11271,0.27557 -5.60327,0 -8.40491,0 -2.80163,0 -3.94984,-2.29642 -5.92477,-3.44463 -1.97492,-1.14821 -1.19414,-1.05636 -1.92899,-1.51564 -0.73486,-0.45928 -2.38828,0.13778 -3.30685,0.13778 -0.91857,0 -3.94985,1.01043 -6.06256,1.51564 -2.1127,0.50522 -5.60327,1.01043 -8.4049,1.51564 -2.80164,0.50522 -7.07298,0.27557 -10.60947,0.41336 -3.5365,0.13778 -4.68471,-5.23584 -7.02706,-7.85377 -2.34235,-2.61792 3.03128,-7.89969 4.54692,-11.84954 z" />
      <path
         style="fill:#ecd9c6;fill-opacity:1;paint-order:stroke fill markers"
         d="m 332.62246,126.8525 c 4.67615,1.57292 9.51807,2.65254 14.41949,3.21516 1.13428,0.1302 2.29207,0.23184 3.41001,0 1.76127,-0.36526 3.24847,-1.51774 4.57916,-2.72801 1.15579,-1.05119 2.24728,-2.17166 3.41002,-3.21516 1.13938,-1.02253 2.3706,-1.98421 3.79973,-2.53315 1.11586,-0.42861 2.31556,-0.59103 3.50744,-0.682 0.73969,-0.0565 1.48609,-0.0865 2.22127,0.0128 0.73517,0.0992 1.46324,0.33366 2.0656,0.76666 0.50739,0.36473 0.91697,0.86252 1.46144,1.16915 0.36586,0.20604 0.77786,0.3167 1.19104,0.39147 0.41318,0.0748 0.83199,0.11565 1.24468,0.1931 1.17774,0.22102 2.32014,0.76199 3.11773,1.65629 0.96276,1.0795 1.34499,2.58983 1.27114,4.0344 -0.0738,1.44457 -0.56552,2.83726 -1.17374,4.14963 -1.16417,2.51195 -2.77226,4.81037 -4.67659,6.82003 -1.38129,1.45769 -2.91938,2.7667 -4.57916,3.89716 -1.20944,0.56299 -2.56841,0.80081 -3.89716,0.682 -1.29822,-0.11608 -2.54308,-0.562 -3.74921,-1.05605 -1.20614,-0.49405 -2.39645,-1.04213 -3.65539,-1.37967 -2.5902,-0.69448 -5.33268,-0.46407 -7.98918,-0.0974 -3.01746,0.4165 -6.01153,1.00229 -8.96346,1.75372 -1.50444,0.6181 -3.15111,0.88695 -4.77402,0.77943 -1.67903,-0.11123 -3.38932,-0.66128 -4.57916,-1.85115 -0.77872,-0.77874 -1.29621,-1.79459 -1.57771,-2.85929 -0.28151,-1.06471 -0.33589,-2.17921 -0.27344,-3.27873 0.20626,-3.63119 1.71493,-7.17483 4.18944,-9.84033 z"
         id="path3"
         inkscape:path-effect="#path-effect3"
         inkscape:original-d="m 332.62246,126.8525 c 1.39649,-3.2801 9.61299,2.14344 14.41949,3.21516 4.80649,1.07172 2.33829,-0.0325 3.41001,0 1.07172,0.0325 3.05278,-1.85115 4.57916,-2.72801 1.52639,-0.87686 2.24087,-2.11096 3.41002,-3.21516 1.16914,-1.10419 2.56563,-1.65629 3.79973,-2.53315 1.2341,-0.87686 2.27334,-0.45467 3.50744,-0.682 1.2341,-0.22734 2.89039,0.55209 4.28687,0.77943 1.39648,0.22733 0.94182,0.74695 1.46144,1.16915 0.51962,0.42219 1.68877,0.45466 2.43572,0.58457 0.74696,0.12991 2.07849,1.00677 3.11773,1.65629 1.03924,0.64953 -0.065,5.52098 0.0974,8.18403 0.16238,2.66306 -3.11773,4.57917 -4.67659,6.82003 -1.55887,2.24087 -6.13803,5.26117 -4.57916,3.89716 -1.46144,1.36401 -2.56563,0.45467 -3.89716,0.682 -1.33153,0.22734 -4.9364,-1.62381 -7.4046,-2.43572 -2.4682,-0.81191 -5.32612,-0.065 -7.98918,-0.0974 -2.66306,-0.0325 -11.91881,2.3383 -8.96346,1.75372 -2.85792,0.58458 -3.18268,0.45467 -4.77402,0.77943 -1.59134,0.32477 -3.0203,-1.2341 -4.57916,-1.85115 -1.55887,-0.61705 -1.2341,-4.02706 -1.85115,-6.13802 -0.61705,-2.11096 2.79296,-6.56022 4.18944,-9.84033 z" />
      <path
         style="fill:#ecd9c6;fill-opacity:1;paint-order:stroke fill markers"
         d="m 328.92016,77.943167 c 1.48246,0.320165 3.03817,-0.115716 4.38215,-0.818493 1.34398,-0.702776 2.53326,-1.662976 3.80189,-2.494092 2.7141,-1.778075 5.76907,-2.952229 8.7686,-4.189445 2.56684,-1.058744 5.12003,-2.176042 7.79432,-2.922869 1.01799,-0.284284 2.05613,-0.514822 3.11087,-0.582901 1.05474,-0.06808 2.13004,0.03028 3.12458,0.388043 1.06316,0.38245 1.99997,1.046135 2.89411,1.736854 0.89413,0.690719 1.76692,1.420686 2.75677,1.965447 1.8786,1.033884 4.10838,1.343058 6.23545,1.071718 2.86984,-0.366091 5.62489,-1.811093 7.40461,-4.092016 1.35716,-1.739362 2.12282,-3.931933 2.14343,-6.138025 l -4.18944,-7.014885 c -1.83909,-1.324462 -3.9359,-2.289657 -6.13803,-2.825439 -3.15067,-0.766561 -6.62178,-0.610652 -9.45061,0.974289 -0.88831,0.497704 -1.69712,1.124243 -2.55676,1.669976 -0.85965,0.545732 -1.79294,1.017849 -2.80183,1.155464 -1.10309,0.150463 -2.21479,-0.107097 -3.31258,-0.292287 -4.27548,-0.721245 -8.65654,-0.35011 -12.95805,0.194858 -2.77075,0.351033 -5.53246,0.773412 -8.28147,1.266577 -1.29051,2.161343 -2.36906,4.449174 -3.21515,6.820027 -1.33428,3.738811 -2.08841,7.788367 -1.36401,11.691475 0.0812,0.437543 0.18225,0.876273 0.37739,1.276224 0.19513,0.399951 0.49294,0.762104 0.88919,0.964642 0.18341,0.09375 0.38323,0.151374 0.58457,0.194858 z"
         id="path4"
         inkscape:path-effect="#path-effect4"
         inkscape:original-d="m 328.92016,77.943167 c 0.19486,0.06495 5.52098,-2.305819 8.18404,-3.312585 2.66305,-1.006766 5.81326,-2.728011 8.7686,-4.189445 2.95535,-1.461435 5.19621,-1.948579 7.79432,-2.922869 2.5981,-0.97429 4.15697,-0.129905 6.23545,-0.194858 2.07849,-0.06495 3.83221,2.435724 5.65088,3.702301 1.81868,1.266576 4.12449,0.682002 6.23545,1.071718 2.11097,0.389716 4.90393,-2.663058 7.40461,-4.092016 2.50067,-1.428958 2.85791,-8.151556 2.14343,-6.138025 0.71448,-1.916102 -5.55345,-9.385656 -4.18944,-7.014885 -1.26658,-2.370771 -4.05954,-1.883626 -6.13803,-2.825439 -2.07848,-0.941814 -6.3004,0.649526 -9.45061,0.974289 -3.1502,0.324763 -3.57239,1.883627 -5.35859,2.82544 -1.7862,0.941813 -2.27334,-0.259811 -3.31258,-0.292287 -1.03925,-0.03248 -8.6387,0.194858 -12.95805,0.194858 -4.31936,0 -11.10691,1.656292 -8.28147,1.266577 -2.82544,0.292286 -2.14343,4.579161 -3.21515,6.820027 -1.07172,2.240866 -0.84439,7.794316 -1.36401,11.691475 -0.51962,3.897158 0.77943,1.428958 1.26658,2.240866 0.48714,0.811908 0.38971,0.129905 0.58457,0.194858 z" />
      <path
         style="fill:#deb694;fill-opacity:1;paint-order:stroke fill markers"
         d="m 506.77453,47.122591 c -1.76673,-1.316974 -4.05182,-1.764652 -6.25529,-1.743272 -2.20348,0.02138 -4.37672,0.471335 -6.55875,0.778775 -4.06949,0.573376 -8.26134,0.666497 -12.12511,2.06678 -2.98037,1.080125 -5.7271,2.982026 -7.44041,5.649199 -1.84089,2.865782 -2.37144,6.378385 -2.48013,9.782761 -0.0295,0.922384 -0.0309,1.849532 0.0983,2.763287 0.12927,0.913756 0.39343,1.817763 0.86617,2.610341 0.50557,0.847621 1.237,1.545596 2.05273,2.101148 0.81574,0.555552 1.71644,0.974898 2.63197,1.343486 4.82081,1.940827 10.22166,2.507749 15.29417,1.377854 3.702,-0.824616 7.20885,-2.547633 10.07959,-5.026273 2.87075,-2.47864 5.09453,-5.713038 6.31687,-9.303404 0.72697,-2.135318 1.10235,-4.428058 0.76585,-6.658491 -0.3365,-2.230433 -1.43749,-4.394082 -3.24599,-5.742191 z"
         id="path5"
         inkscape:path-effect="#path-effect5"
         inkscape:original-d="m 506.77453,47.122591 c -0.82671,-4.133561 -8.54269,-0.551141 -12.81404,-0.964497 -4.27134,-0.413356 -8.0834,1.46971 -12.12511,2.06678 -4.0417,0.59707 -4.91434,3.674276 -7.44041,5.649199 -2.52606,1.974924 -1.60749,6.613697 -2.48013,9.782761 -0.87264,3.169063 0.68892,3.53649 0.9645,5.373628 0.27557,1.837138 3.03127,2.250494 4.6847,3.444634 1.65342,1.19414 10.19611,0.918569 15.29417,1.377854 5.09806,0.459284 10.93097,-9.553118 16.39646,-14.329677 5.46548,-4.776559 -1.65343,-8.267121 -2.48014,-12.400682 z" />
      <path
         style="fill:#deb694;fill-opacity:1;paint-order:stroke fill markers"
         d="m 501.46685,148.09202 c -0.2603,-0.0284 -0.52015,-0.0609 -0.77943,-0.0974 -2.42257,-0.34117 -4.78568,-1.03365 -7.20975,-1.36401 -2.78461,-0.3795 -5.63289,-0.27891 -8.37889,-0.87686 -2.31793,-0.50474 -4.52591,-1.50837 -6.43031,-2.92287 l -2.92287,-4.77402 c -0.88804,-2.6349 -0.8531,-5.57101 0.0974,-8.18403 0.89218,-2.45269 2.57038,-4.59673 4.67659,-6.13802 2.0156,-1.47499 4.40271,-2.40294 6.8586,-2.85777 2.45588,-0.45482 4.98212,-0.4475 7.46346,-0.16253 4.27028,0.49042 8.59285,1.89246 11.69147,4.87145 2.38023,2.28833 3.91106,5.44993 4.19092,8.73985 0.27985,3.28993 -0.70239,6.67819 -2.72948,9.2845 -1.64633,2.11676 -3.96083,3.70582 -6.52774,4.48174 z"
         id="path6"
         inkscape:path-effect="#path-effect6"
         inkscape:original-d="m 501.46685,148.09202 c -2.17592,1.49391 -0.51962,-0.065 -0.77943,-0.0974 -0.25981,-0.0325 -4.8065,-0.90934 -7.20975,-1.36401 -2.40324,-0.45467 -5.65088,-0.58457 -8.37889,-0.87686 -2.72801,-0.29229 -8.60622,-3.89716 -6.43031,-2.92287 -2.07848,-0.97429 -3.92963,-6.33288 -2.92287,-4.77402 -1.00676,-1.46143 0.065,-5.42354 0.0974,-8.18403 0.0325,-2.76049 3.18268,-4.09201 4.67659,-6.13802 1.49391,-2.04601 9.48309,-2.01353 14.32206,-3.0203 4.83897,-1.00677 7.79432,3.24763 11.69147,4.87145 3.89716,1.62381 0.97429,12.01624 1.46144,18.02435 0.48714,6.00812 -4.35183,2.98783 -6.52774,4.48174 z" />
      <path
         style="fill:#e7cab1;fill-opacity:1;paint-order:stroke fill markers"
         d="m 1029.3944,59.523273 c -1.2878,0.236364 -2.468,0.892194 -3.4983,1.700169 -1.0303,0.807975 -1.9281,1.769163 -2.8398,2.708962 -1.7451,1.798957 -3.6035,3.602824 -4.547,5.92477 -0.7787,1.916402 -0.8597,4.124075 -0.1377,6.062556 0.5692,1.528097 1.6014,2.843942 2.7557,3.995775 1.7556,1.75194 3.8529,3.19497 6.2003,3.995776 1.2137,0.41404 2.4948,0.654699 3.7765,0.61483 1.2818,-0.03987 2.5648,-0.367516 3.6639,-1.028186 1.7101,-1.027964 2.8769,-2.803569 3.5018,-4.698427 0.625,-1.894858 0.7556,-3.915838 0.7696,-5.911046 0.022,-3.15167 -0.2704,-6.426286 -1.8395,-9.159658 -0.7846,-1.366686 -1.8878,-2.568113 -3.2539,-3.353799 -1.366,-0.785686 -3.0016,-1.136202 -4.5516,-0.851722 z"
         id="path7"
         inkscape:path-effect="#path-effect7"
         inkscape:original-d="m 1029.3944,59.523273 c -3.215,-4.45506 -4.2714,2.939421 -6.3381,4.409131 -2.0668,1.469711 -2.8935,3.995776 -4.547,5.92477 -1.6534,1.928995 -0.1377,3.995776 -0.1377,6.062556 0,2.06678 1.8371,2.66385 2.7557,3.995775 0.9185,1.331925 4.0876,2.663851 6.2003,3.995776 2.1127,1.331925 4.9603,-0.367428 7.4404,-0.413356 2.4801,-0.04593 2.8476,-6.981125 4.2714,-10.609473 1.4237,-3.628347 -6.43,-8.910119 -9.645,-13.365179 z" />
      <path
         style="fill:#e7cab1;fill-opacity:1;paint-order:stroke fill markers"
         d="m 1030.0833,114.36184 c -1.2683,-0.15701 -2.5715,-0.11477 -3.8013,0.23249 -1.2299,0.34725 -2.3844,1.01012 -3.2257,1.97208 -1.0096,1.15447 -1.5152,2.65676 -1.929,4.13356 -0.429,1.53093 -0.7874,3.0953 -0.8268,4.6847 -0.054,2.19448 0.5101,4.38687 1.5157,6.33813 0.9194,1.78393 2.2192,3.38849 3.858,4.54692 2.1043,1.48745 4.7287,2.19263 7.3026,2.06678 2.8073,-0.13727 5.6188,-1.30412 7.4404,-3.44464 1.6873,-1.98272 2.4234,-4.68284 2.2353,-7.27951 -0.1881,-2.59666 -1.2513,-5.08518 -2.7864,-7.18795 -2.3263,-3.18659 -5.8673,-5.57783 -9.7828,-6.06256 z"
         id="path8"
         inkscape:path-effect="#path-effect8"
         inkscape:original-d="m 1030.0833,114.36184 c -3.2609,-2.02085 -4.7766,1.6075 -7.027,2.20457 -2.2505,0.59707 -1.2401,2.70978 -1.929,4.13356 -0.689,1.42378 -0.5053,3.16906 -0.8268,4.6847 -0.3215,1.51564 0.9645,4.13356 1.5157,6.33813 0.5511,2.20456 2.572,3.03128 3.858,4.54692 1.286,1.51563 4.9143,1.28599 7.3026,2.06678 2.3883,0.78078 4.8684,-2.2505 7.4404,-3.44464 2.572,-1.19414 -0.3215,-9.59904 -0.5511,-14.46746 -0.2297,-4.86842 -6.5219,-4.0417 -9.7828,-6.06256 z" />
      <path
         style="fill:#e7cab1;fill-opacity:1;paint-order:stroke fill markers"
         d="m 653.74831,83.20433 c -1.00059,0.951219 -1.6148,2.232084 -2.14344,3.507443 -0.70222,1.694114 -1.29566,3.446265 -1.55886,5.261163 -0.2825,1.948038 -0.1755,3.960216 0.38971,5.845738 0.42638,1.422392 1.14942,2.812596 2.3383,3.702296 0.73279,0.54838 1.6164,0.88276 2.52341,1.00545 0.907,0.12269 1.83655,0.0377 2.72042,-0.19997 1.76774,-0.47533 3.32299,-1.54104 4.69392,-2.754055 1.48245,-1.311685 2.80432,-2.832398 3.71211,-4.591402 0.90779,-1.759004 1.38576,-3.76962 1.15934,-5.736067 -0.24029,-2.086952 -1.28536,-4.064322 -2.84853,-5.467749 -1.56317,-1.403426 -3.62681,-2.227659 -5.72522,-2.326568 -0.94893,-0.04473 -1.90858,0.05506 -2.81473,0.340285 -0.90616,0.285222 -1.75792,0.758899 -2.44643,1.413436 z"
         id="path9"
         inkscape:path-effect="#path-effect9"
         inkscape:original-d="m 653.74831,83.20433 c -1.75372,0.584574 -1.49391,2.20839 -2.14344,3.507443 -0.64952,1.299053 -1.03924,3.507442 -1.55886,5.261163 -0.51962,1.753722 0.38971,4.027064 0.38971,5.845738 0,1.818674 1.42896,2.338296 2.3383,3.702296 0.90934,1.36401 6.62517,-1.42895 9.93775,-1.948575 3.31259,-0.519621 3.11773,-6.755074 4.87145,-10.327469 1.75372,-3.572395 -5.58593,-5.196211 -8.57375,-7.794317 -2.98782,-2.598106 -3.50744,1.169148 -5.26116,1.753721 z" />
      <path
         style="fill:#dfc0a0;fill-opacity:1;paint-order:stroke fill markers"
         d="m 653.35859,86.322057 c -1.33222,-0.06406 -2.65282,0.311491 -3.87263,0.850909 -1.21981,0.539417 -2.35932,1.241647 -3.53197,1.877102 -1.4144,0.766458 -2.90116,1.451549 -4.09201,2.533153 -1.88052,1.708005 -2.8328,4.281227 -2.92287,6.820027 -0.0549,1.548073 0.19952,3.140362 0.97429,4.481732 0.55392,0.95901 1.36158,1.76376 2.29952,2.35267 0.93794,0.5889 2.0036,0.9646 3.09727,1.13904 2.18733,0.34887 4.44535,-0.10566 6.48954,-0.95856 2.47191,-1.03135 4.72168,-2.67422 6.25903,-4.86753 1.53734,-2.1933 2.32079,-4.954344 1.925,-7.603374 -0.25002,-1.673411 -0.97414,-3.29022 -2.14314,-4.51344 -1.16899,-1.223221 -2.792,-2.030467 -4.48203,-2.111729 z"
         id="path10"
         inkscape:path-effect="#path-effect10"
         inkscape:original-d="m 653.35859,86.322057 c -2.20839,-2.20839 -5.00135,1.818674 -7.4046,2.728011 -2.40325,0.909337 -2.66306,1.753721 -4.09201,2.533153 -1.42896,0.779431 -1.88363,4.481732 -2.92287,6.820027 -1.03924,2.338292 0.64952,2.987822 0.97429,4.481732 0.32476,1.49391 7.92422,1.62382 11.88633,2.53315 3.96211,0.90934 5.45602,-8.248982 8.18403,-12.470904 2.72801,-4.221921 -4.41678,-4.416779 -6.62517,-6.625169 z" />
    </g>
    <path
       style="display:inline;fill:#262626;fill-opacity:1;paint-order:stroke fill markers"
       d="m 213.42951,115.7397 c -2.52234,-0.47561 -5.03715,-0.99113 -7.56417,-1.44184 -2.05336,0.60254 -5.51096,-0.51924 -6.45768,1.73531 -1.04597,1.89118 -1.70594,3.96563 -1.53472,6.14527 -0.14711,2.38316 0.86847,4.61814 1.4435,6.88575 0.72134,1.80227 1.29273,3.88972 3.09451,4.93372 1.82657,1.08479 4.09609,0.85008 6.12726,1.01289 1.67751,-0.35411 3.46843,-0.52157 5.04679,-1.13525 0.39509,-1.04307 0.49484,-2.24235 0.7768,-3.35343 0.51595,-2.4703 1.0319,-4.94061 1.54785,-7.41091 -0.82672,-2.45717 -1.65341,-4.91435 -2.48014,-7.37151 z"
       id="path11" />
    <path
       style="display:inline;fill:#262626;fill-opacity:1;paint-order:stroke fill markers"
       d="m 206.06225,70.928282 c -1.89281,-0.285511 -3.88163,-1.201728 -5.71752,-1.113287 -0.85465,0.501 -1.70929,1.002001 -2.56394,1.503002 -1.16112,2.297115 -2.6208,4.590244 -2.68031,7.240716 -0.17226,1.765825 -0.64749,3.65397 -0.0803,5.372007 1.19628,1.576098 1.93317,3.983594 3.91171,4.628103 2.56944,0.759251 5.29022,0.409374 7.93116,0.577411 1.46479,-0.132658 1.55109,-2.509706 2.4204,-3.611876 0.49621,-1.508649 2.2212,-2.992288 0.96821,-4.536537 -1.36401,-3.125846 -2.72802,-6.25169 -4.09202,-9.377537 l -0.0487,-0.341001 z"
       id="path12" />
    <path
       style="display:inline;fill:#262626;fill-opacity:1;paint-order:stroke fill markers"
       d="m 936.83721,55.813954 2.65116,-6 3.06977,-3.069768 3.34884,-1.395349 c 0,0 2.23256,1.953489 2.37209,2.511628 0.13954,0.55814 1.11628,5.023256 1.11628,5.023256 l 1.25581,6.697674 1.11628,6 -0.97674,6.139535 -1.95349,5.162791 -1.67442,2.372093 -3.76744,0.27907 -6.27907,-0.697675 -1.95349,-2.930232 -0.69767,-6.139535 z"
       id="path17" />
    <path
       style="display:inline;fill:#262626;fill-opacity:1;paint-order:stroke fill markers"
       d="m 935.86047,104.23256 4.18604,-5.302327 5.44186,-4.046512 2.65117,0.55814 2.09302,4.325581 c 0,0 1.25581,6.837208 1.53488,7.674418 0.27907,0.83721 0,15.06977 0,15.06977 l -0.83721,7.11628 -2.93023,3.76744 -2.93023,0.83721 -5.86047,-1.11628 c 0,0 -2.51162,-3.62791 -2.51162,-4.88372 0,-1.25582 -1.67442,-10.88372 -1.67442,-11.5814 0,-0.69767 0.83721,-12.4186 0.83721,-12.4186 z"
       id="path18" />
    <g
       inkscape:groupmode="layer"
       id="layer1"
       inkscape:label="Shoes"
       style="display:inline">
      <path
         style="fill:#262626;fill-opacity:1;paint-order:stroke fill markers"
         d="m 213.42951,115.7397 c -2.52234,-0.47561 -5.03715,-0.99113 -7.56417,-1.44184 -2.05336,0.60254 -5.51096,-0.51924 -6.45768,1.73531 -1.04597,1.89118 -1.70594,3.96563 -1.53472,6.14527 -0.14711,2.38316 0.86847,4.61814 1.4435,6.88575 0.72134,1.80227 1.29273,3.88972 3.09451,4.93372 1.82657,1.08479 4.09609,0.85008 6.12726,1.01289 1.67751,-0.35411 3.46843,-0.52157 5.04679,-1.13525 0.39509,-1.04307 0.49484,-2.24235 0.7768,-3.35343 0.51595,-2.4703 1.0319,-4.94061 1.54785,-7.41091 -0.82672,-2.45717 -1.65341,-4.91435 -2.48014,-7.37151 z"
         id="path47" />
      <path
         style="fill:#262626;fill-opacity:1;paint-order:stroke fill markers"
         d="m 206.06225,70.928282 c -1.89281,-0.285511 -3.88163,-1.201728 -5.71752,-1.113287 -0.85465,0.501 -1.70929,1.002001 -2.56394,1.503002 -1.16112,2.297115 -2.6208,4.590244 -2.68031,7.240716 -0.17226,1.765825 -0.64749,3.65397 -0.0803,5.372007 1.19628,1.576098 1.93317,3.983594 3.91171,4.628103 2.56944,0.759251 5.29022,0.409374 7.93116,0.577411 1.46479,-0.132658 1.55109,-2.509706 2.4204,-3.611876 0.49621,-1.508649 2.2212,-2.992288 0.96821,-4.536537 -1.36401,-3.125846 -2.72802,-6.25169 -4.09202,-9.377537 l -0.0487,-0.341001 z"
         id="path48" />
      <path
         style="fill:#262626;fill-opacity:1;paint-order:stroke fill markers"
         d="m 936.83721,55.813954 2.65116,-6 3.06977,-3.069768 3.34884,-1.395349 c 0,0 2.23256,1.953489 2.37209,2.511628 0.13954,0.55814 1.11628,5.023256 1.11628,5.023256 l 1.25581,6.697674 1.11628,6 -0.97674,6.139535 -1.95349,5.162791 -1.67442,2.372093 -3.76744,0.27907 -6.27907,-0.697675 -1.95349,-2.930232 -0.69767,-6.139535 z"
         id="path49" />
      <path
         style="fill:#262626;fill-opacity:1;paint-order:stroke fill markers"
         d="m 935.86047,104.23256 4.18604,-5.302327 5.44186,-4.046512 2.65117,0.55814 2.09302,4.325581 c 0,0 1.25581,6.837208 1.53488,7.674418 0.27907,0.83721 0,15.06977 0,15.06977 l -0.83721,7.11628 -2.93023,3.76744 -2.93023,0.83721 -5.86047,-1.11628 c 0,0 -2.51162,-3.62791 -2.51162,-4.88372 0,-1.25582 -1.67442,-10.88372 -1.67442,-11.5814 0,-0.69767 0.83721,-12.4186 0.83721,-12.4186 z"
         id="path50" />
    </g>
    <path
       style="display:inline;fill:#666666;fill-opacity:1;paint-order:stroke fill markers"
       d="m 208.60703,61.314483 -4.13356,3.169063 -1.24007,2.480136 -0.9645,5.235844 v 5.649199 l 1.37785,7.302624 1.37786,3.85799 2.06678,3.169063 c 0,0 1.79121,1.515639 2.34235,1.653424 0.55114,0.137785 3.03128,1.102283 3.7202,1.240068 0.68893,0.137786 3.99578,1.240068 6.33813,1.240068 2.34235,0 3.44463,-0.413356 7.30262,-0.137785 3.85799,0.275571 10.05833,0.275571 10.05833,0.275571 0,0 6.88927,1.377853 7.71598,1.791209 0.82672,0.413356 2.61793,1.928993 2.61793,1.928993 l 0.55114,2.75571 -5.6492,2.89349 -19.15217,5.09806 -9.50719,1.65342 -2.48013,2.06678 -3.16907,6.75149 v 6.06255 l 1.24007,6.47591 1.65343,4.27135 c 0,0 1.37785,0.68893 2.48013,1.24007 1.10229,0.55114 6.6137,0.55114 7.30263,0.55114 0.68892,0 10.47168,-3.03128 11.02282,-3.16906 0.55115,-0.13779 8.95605,-1.929 9.50719,-1.929 0.55115,0 7.02706,-0.82671 7.5782,-0.82671 0.55114,0 12.12511,-0.27557 12.12511,-0.27557 l 11.2984,-0.68893 c 0,0 4.40913,0.13779 4.96027,-0.27557 0.55114,-0.41335 4.27135,-6.75148 4.27135,-6.75148 l 5.92477,-25.62808 -1.929,-24.112434 -4.96027,-8.680477 -10.19612,-3.306849 c 0,0 -10.19611,-1.377853 -10.74725,-1.377853 -0.55115,0 -6.6137,0 -9.92055,0 -3.30685,0 -8.12934,0.27557 -8.12934,0.27557 h -9.64497 -11.57397 z"
       id="path13" />
    <path
       style="display:inline;fill:#666666;fill-opacity:1;paint-order:stroke fill markers"
       d="M 897.48837,102.83721 897.2093,90.418605 c 0,0 10.60465,-1.255814 11.16279,-1.255814 0.55814,0 10.88373,-1.534884 10.88373,-1.534884 l 14.65116,-5.162791 3.34884,-1.534883 -0.55814,-7.116279 c 0,0 0.13953,-15.209303 0.27907,-16.046512 0.13953,-0.837209 1.67441,-8.232558 1.67441,-8.232558 l -7.53488,-0.83721 -23.16279,1.813954 -17.30233,3.767442 -12.55814,3.209302 -2.65116,3.906977 -4.04651,7.534884 -2.65116,7.395349 -5.30233,17.581395 3.62791,21.069763 0.55814,17.86047 c 0,0 5.58139,9.76744 6.13953,9.90698 0.55814,0.13953 7.67442,1.81395 8.93024,1.81395 1.25581,0 6.27907,0 8.23255,-0.27907 1.95349,-0.27907 8.93024,-1.95349 10.32559,-2.23256 1.39534,-0.27907 17.30232,-4.18604 17.30232,-4.18604 0,0 10.32558,-1.25582 11.44186,-1.67442 1.11628,-0.41861 9.76744,-5.30233 9.76744,-5.30233 l -0.69767,-12.13953 -1.67442,-8.7907 0.4186,-11.162792 L 936,97.395349 922.32558,97.255814 901.67442,100.88372 Z"
       id="path14" />
    <path
       style="display:inline;fill:#666666;fill-opacity:1;paint-order:stroke fill markers"
       d="m 1072.6974,66.303594 c 2.4558,0.500883 4.7135,1.806403 6.512,3.551978 2.4492,2.377079 4.0886,5.664679 4.144,9.077278 0.037,2.289014 -0.6358,4.577578 -1.8636,6.509832 -1.2277,1.932253 -3.0011,3.505779 -5.0431,4.540767 -3.6899,1.87022 -8.1902,1.9157 -12.0372,0.394664 -2.8591,-1.130418 -5.407,-3.120944 -7.0133,-5.742337 -1.6064,-2.621392 -2.2207,-5.878373 -1.472,-8.86024 0.638,-2.540921 2.2307,-4.797099 4.2922,-6.413709 2.0615,-1.616611 4.5714,-2.613186 7.1531,-3.058233 1.7603,-0.303453 3.5777,-0.356984 5.3279,0 z"
       id="path15"
       inkscape:path-effect="#path-effect15"
       inkscape:original-d="m 1072.6974,66.303594 c 1.776,0 4.3413,2.433763 6.512,3.551978 2.1706,1.118216 2.6969,5.919964 4.144,9.077278 1.4471,3.157314 -4.6702,7.301289 -6.9067,11.050599 -2.2364,3.74931 -8.0248,0.26311 -12.0372,0.394664 -4.0124,0.131555 -5.5911,-9.735051 -8.4853,-14.602577 -2.8942,-4.867526 7.6302,-6.248851 11.4453,-9.471942 3.8151,-3.223091 3.5519,0 5.3279,0 z" />
    <path
       style="display:inline;fill:#666666;fill-opacity:1;paint-order:stroke fill markers"
       d="m 1069.9348,134.77784 c 2.7924,0.83377 5.815,0.9046 8.6315,0.15616 2.8165,-0.74844 5.4159,-2.31967 7.3524,-4.49747 2.1828,-2.45479 3.5059,-5.7419 3.2775,-9.01883 -0.1142,-1.63847 -0.6119,-3.25445 -1.4797,-4.64895 -0.8677,-1.39451 -2.1079,-2.56201 -3.5738,-3.30278 -2.3994,-1.21249 -5.2054,-1.2295 -7.8933,-1.18399 -3.3098,0.056 -6.7568,0.20267 -9.6693,1.77599 -2.8272,1.52726 -4.8967,4.37934 -5.4914,7.53719 -0.5948,3.15785 0.2906,6.55883 2.3341,9.03871 1.6604,2.01492 4.0103,3.39699 6.512,4.14397 z"
       id="path16"
       inkscape:path-effect="#path-effect16"
       inkscape:original-d="m 1069.9348,134.77784 c 2.1706,1.38133 10.5244,-2.8942 15.9839,-4.34131 5.4595,-1.4471 -1.3156,-11.37948 -1.776,-16.97056 -0.4604,-5.59107 -5.2622,-0.65777 -7.8933,-1.18399 -2.6311,-0.52622 -6.1831,1.24977 -9.6693,1.77599 -3.4862,0.52622 -2.2364,10.91904 -3.1573,16.5759 -0.9209,5.65685 4.3413,2.76265 6.512,4.14397 z" />
    <g
       inkscape:groupmode="layer"
       id="layer2"
       inkscape:label="Pants"
       style="display:inline">
      <path
         style="fill:#666666;fill-opacity:1;paint-order:stroke fill markers"
         d="m 208.60703,61.314483 -4.13356,3.169063 -1.24007,2.480136 -0.9645,5.235844 v 5.649199 l 1.37785,7.302624 1.37786,3.85799 2.06678,3.169063 c 0,0 1.79121,1.515639 2.34235,1.653424 0.55114,0.137785 3.03128,1.102283 3.7202,1.240068 0.68893,0.137786 3.99578,1.240068 6.33813,1.240068 2.34235,0 3.44463,-0.413356 7.30262,-0.137785 3.85799,0.275571 10.05833,0.275571 10.05833,0.275571 0,0 6.88927,1.377853 7.71598,1.791209 0.82672,0.413356 2.61793,1.928993 2.61793,1.928993 l 0.55114,2.75571 -5.6492,2.89349 -19.15217,5.09806 -9.50719,1.65342 -2.48013,2.06678 -3.16907,6.75149 v 6.06255 l 1.24007,6.47591 1.65343,4.27135 c 0,0 1.37785,0.68893 2.48013,1.24007 1.10229,0.55114 6.6137,0.55114 7.30263,0.55114 0.68892,0 10.47168,-3.03128 11.02282,-3.16906 0.55115,-0.13779 8.95605,-1.929 9.50719,-1.929 0.55115,0 7.02706,-0.82671 7.5782,-0.82671 0.55114,0 12.12511,-0.27557 12.12511,-0.27557 l 11.2984,-0.68893 c 0,0 4.40913,0.13779 4.96027,-0.27557 0.55114,-0.41335 4.27135,-6.75148 4.27135,-6.75148 l 5.92477,-25.62808 -1.929,-24.112434 -4.96027,-8.680477 -10.19612,-3.306849 c 0,0 -10.19611,-1.377853 -10.74725,-1.377853 -0.55115,0 -6.6137,0 -9.92055,0 -3.30685,0 -8.12934,0.27557 -8.12934,0.27557 h -9.64497 -11.57397 z"
         id="path51" />
      <path
         style="fill:#666666;fill-opacity:1;paint-order:stroke fill markers"
         d="M 897.48837,102.83721 897.2093,90.418605 c 0,0 10.60465,-1.255814 11.16279,-1.255814 0.55814,0 10.88373,-1.534884 10.88373,-1.534884 l 14.65116,-5.162791 3.34884,-1.534883 -0.55814,-7.116279 c 0,0 0.13953,-15.209303 0.27907,-16.046512 0.13953,-0.837209 1.67441,-8.232558 1.67441,-8.232558 l -7.53488,-0.83721 -23.16279,1.813954 -17.30233,3.767442 -12.55814,3.209302 -2.65116,3.906977 -4.04651,7.534884 -2.65116,7.395349 -5.30233,17.581395 3.62791,21.069763 0.55814,17.86047 c 0,0 5.58139,9.76744 6.13953,9.90698 0.55814,0.13953 7.67442,1.81395 8.93024,1.81395 1.25581,0 6.27907,0 8.23255,-0.27907 1.95349,-0.27907 8.93024,-1.95349 10.32559,-2.23256 1.39534,-0.27907 17.30232,-4.18604 17.30232,-4.18604 0,0 10.32558,-1.25582 11.44186,-1.67442 1.11628,-0.41861 9.76744,-5.30233 9.76744,-5.30233 l -0.69767,-12.13953 -1.67442,-8.7907 0.4186,-11.162792 L 936,97.395349 922.32558,97.255814 901.67442,100.88372 Z"
         id="path52" />
      <path
         style="fill:#666666;fill-opacity:1;paint-order:stroke fill markers"
         d="m 1072.6974,66.303594 c 2.4558,0.500883 4.7135,1.806403 6.512,3.551978 2.4492,2.377079 4.0886,5.664679 4.144,9.077278 0.037,2.289014 -0.6358,4.577578 -1.8636,6.509832 -1.2277,1.932253 -3.0011,3.505779 -5.0431,4.540767 -3.6899,1.87022 -8.1902,1.9157 -12.0372,0.394664 -2.8591,-1.130418 -5.407,-3.120944 -7.0133,-5.742337 -1.6064,-2.621392 -2.2207,-5.878373 -1.472,-8.86024 0.638,-2.540921 2.2307,-4.797099 4.2922,-6.413709 2.0615,-1.616611 4.5714,-2.613186 7.1531,-3.058233 1.7603,-0.303453 3.5777,-0.356984 5.3279,0 z"
         id="path53"
         inkscape:path-effect="#path-effect15"
         inkscape:original-d="m 1072.6974,66.303594 c 1.776,0 4.3413,2.433763 6.512,3.551978 2.1706,1.118216 2.6969,5.919964 4.144,9.077278 1.4471,3.157314 -4.6702,7.301289 -6.9067,11.050599 -2.2364,3.74931 -8.0248,0.26311 -12.0372,0.394664 -4.0124,0.131555 -5.5911,-9.735051 -8.4853,-14.602577 -2.8942,-4.867526 7.6302,-6.248851 11.4453,-9.471942 3.8151,-3.223091 3.5519,0 5.3279,0 z" />
      <path
         style="fill:#666666;fill-opacity:1;paint-order:stroke fill markers"
         d="m 1069.9348,134.77784 c 2.7924,0.83377 5.815,0.9046 8.6315,0.15616 2.8165,-0.74844 5.4159,-2.31967 7.3524,-4.49747 2.1828,-2.45479 3.5059,-5.7419 3.2775,-9.01883 -0.1142,-1.63847 -0.6119,-3.25445 -1.4797,-4.64895 -0.8677,-1.39451 -2.1079,-2.56201 -3.5738,-3.30278 -2.3994,-1.21249 -5.2054,-1.2295 -7.8933,-1.18399 -3.3098,0.056 -6.7568,0.20267 -9.6693,1.77599 -2.8272,1.52726 -4.8967,4.37934 -5.4914,7.53719 -0.5948,3.15785 0.2906,6.55883 2.3341,9.03871 1.6604,2.01492 4.0103,3.39699 6.512,4.14397 z"
         id="path54"
         inkscape:path-effect="#path-effect16"
         inkscape:original-d="m 1069.9348,134.77784 c 2.1706,1.38133 10.5244,-2.8942 15.9839,-4.34131 5.4595,-1.4471 -1.3156,-11.37948 -1.776,-16.97056 -0.4604,-5.59107 -5.2622,-0.65777 -7.8933,-1.18399 -2.6311,-0.52622 -6.1831,1.24977 -9.6693,1.77599 -3.4862,0.52622 -2.2364,10.91904 -3.1573,16.5759 -0.9209,5.65685 4.3413,2.76265 6.512,4.14397 z" />
    </g>
    <path
       style="fill:#e4c1a5;fill-opacity:1;paint-order:stroke fill markers"
       d="m 869.54401,83.668821 3.15731,10.162605 c 0,0 3.25598,9.175944 3.35465,9.570604 0.0987,0.39467 2.17065,6.51196 2.17065,6.51196 l 0.0987,5.03197 c 0,0 -7.59729,3.84798 -9.37328,3.84798 -1.77599,0 -11.0506,0 -11.54393,-0.888 -0.49333,-0.88799 -2.76265,-8.78127 -2.66398,-9.76794 0.0987,-0.98666 7.00529,-13.517246 7.39996,-14.207908 0.39466,-0.690663 7.39995,-10.261271 7.39995,-10.261271 z"
       id="path36" />
    <path
       style="fill:#e7cab1;fill-opacity:1;paint-order:stroke fill markers"
       d="m 852.96811,75.18354 -1.28266,38.0851 12.23459,0.78933 0.19734,-5.5253 1.47999,-5.91996 3.05865,-9.866611 4.24264,-11.247931 2.76265,-5.722632 0.0987,-5.130635 c 0,0 -4.83463,-6.314628 -5.42663,-6.314628 -0.592,0 -8.68261,-0.295998 -9.17594,0 -0.49334,0.295998 -6.51197,9.175944 -6.51197,9.175944 z"
       id="path35"
       inkscape:label="skin" />
    <g
       inkscape:groupmode="layer"
       id="layer7"
       inkscape:label="Pants 1">
      <path
         style="fill:#e4c1a5;fill-opacity:1;paint-order:stroke fill markers"
         d="m 869.54401,83.668821 3.15731,10.162605 c 0,0 3.25598,9.175944 3.35465,9.570604 0.0987,0.39467 2.17065,6.51196 2.17065,6.51196 l 0.0987,5.03197 c 0,0 -7.59729,3.84798 -9.37328,3.84798 -1.77599,0 -11.0506,0 -11.54393,-0.888 -0.49333,-0.88799 -2.76265,-8.78127 -2.66398,-9.76794 0.0987,-0.98666 7.00529,-13.517246 7.39996,-14.207908 0.39466,-0.690663 7.39995,-10.261271 7.39995,-10.261271 z"
         id="path55" />
      <path
         style="fill:#e7cab1;fill-opacity:1;paint-order:stroke fill markers"
         d="m 852.96811,75.18354 -1.28266,38.0851 12.23459,0.78933 0.19734,-5.5253 1.47999,-5.91996 3.05865,-9.866611 4.24264,-11.247931 2.76265,-5.722632 0.0987,-5.130635 c 0,0 -4.83463,-6.314628 -5.42663,-6.314628 -0.592,0 -8.68261,-0.295998 -9.17594,0 -0.49334,0.295998 -6.51197,9.175944 -6.51197,9.175944 z"
         id="path56"
         inkscape:label="skin" />
      <path
         style="fill:#404040;fill-opacity:1;paint-order:stroke fill markers"
         d="m 272.417,64.823603 -6.4133,-1.085327 -12.13592,15.095908 -2.46665,16.575899 0.88799,13.221257 4.43998,16.37856 c 0,0 5.62396,2.66399 6.21596,2.95998 0.59199,0.296 8.09061,2.95999 8.58394,3.05865 0.49333,0.0987 2.36799,2.26932 2.36799,2.26932 l 3.35465,-0.592 c 0,0 2.17065,-6.61062 -0.39467,-11.54393 -2.56532,-4.9333 -9.47194,-14.99724 -9.47194,-14.99724 0,0 -3.15731,-5.03197 -1.38133,-13.221249 1.77599,-8.189283 6.4133,-28.119828 6.4133,-28.119828 z"
         id="path86" />
      <path
         style="fill:#404040;fill-opacity:1;paint-order:stroke fill markers"
         d="m 206.21207,62.948948 10.26127,2.76265 4.73597,0.394664 c 0,0 14.60258,0 15.39191,0 0.78933,0 19.53588,0 19.53588,0 h 9.27461 l 1.28266,-2.170653 -8.18929,-0.986661 -15.0959,-0.09867 c 0,0 -1.67733,0.09867 -3.05865,0.295998 -1.38133,0.197332 -20.71987,-0.09867 -20.71987,-0.09867 l -11.3466,-1.874655 z"
         id="path87" />
      <path
         style="fill:#404040;fill-opacity:1;paint-order:stroke fill markers"
         d="m 272.65116,132.27907 -25.39535,0.55814 -15.76744,2.37209 -11.02325,3.76744 -9.90698,-0.8372 3.62791,1.67441 c 0,0 5.44186,0.69768 6.27907,0.55814 0.83721,-0.13953 9.90697,-3.48837 9.90697,-3.48837 l 15.34884,-2.65116 14.09302,-0.27907 14.93024,-0.97675 z"
         id="path88" />
      <path
         style="fill:#404040;fill-opacity:1;paint-order:stroke fill markers"
         d="m 260.93023,125.16279 -1.95349,8.37209 16.18605,-0.69767 z"
         id="path89" />
      <path
         style="fill:#404040;fill-opacity:1;paint-order:stroke fill markers"
         d="m 254.95311,65.810264 5.13063,6.807958 6.70929,-6.807958 z"
         id="path90" />
    </g>
    <path
       style="fill:#338999;fill-opacity:1;paint-order:stroke fill markers"
       d="m 68.67158,160.92435 2.663983,1.77599 c 0,0 0.493331,0.296 2.26932,0.296 1.775989,0 7.498621,-0.98667 7.498621,-0.98667 l 7.00529,-3.15731 4.538639,-2.46665 8.583947,-2.46665 9.47194,-1.28266 1.67733,-2.56532 1.77598,-7.99195 -0.69066,-7.39995 -0.19733,-7.89329 -1.77599,-3.15731 -7.89328,-0.888 -11.543934,-0.39466 -3.453312,-2.17066 -6.51196,3.84798 -9.76794,6.61063 -4.341307,13.81325 1.085327,12.53059 z"
       id="path27" />
    <path
       style="fill:#338999;fill-opacity:1;paint-order:stroke fill markers"
       d="m 88.010128,78.93285 2.959982,-3.946642 c 0,0 2.959982,0.591996 3.74931,0.591996 0.789329,0 9.86661,0.591996 10.85327,0.394664 0.98666,-0.197332 5.13063,-2.170653 5.13063,-2.170653 l 3.15732,-5.327968 c 0,0 1.18399,-10.655934 0.98666,-11.445263 -0.19734,-0.789328 -2.36799,-8.287949 -2.36799,-8.287949 l -4.73597,-2.170653 -18.549219,-2.959982 -9.471942,-0.591997 -6.906625,-0.394664 -9.669274,5.327967 0.197332,11.642596 6.117296,8.485281 12.826588,9.669274 z"
       id="path28" />
    <path
       style="fill:#338999;fill-opacity:1;paint-order:stroke fill markers"
       d="m 323.42735,40.84775 7.10396,7.103956 2.36799,3.946643 2.36798,6.906624 0.592,9.27461 -1.57866,9.669274 -6.1173,3.946643 c 0,0 -7.89328,-0.789329 -8.28794,-1.578657 -0.39467,-0.789329 -2.95999,-6.51196 -2.95999,-8.879946 0,-2.367985 3.94665,-19.53588 3.94665,-19.53588 z"
       id="path29" />
    <path
       style="fill:#338999;fill-opacity:1;paint-order:stroke fill markers"
       d="m 322.83536,116.82062 6.51196,1.77599 5.13063,2.17065 2.36799,3.35465 1.18399,5.32796 -0.98666,9.47195 -2.36799,7.49862 -1.97332,5.91996 -4.3413,2.56532 -11.24793,1.97332 -3.35465,-5.72263 c 0,0 -1.77599,-11.24793 -1.18399,-14.99724 0.59199,-3.74931 4.9333,-13.81325 4.9333,-13.81325 z"
       id="path30" />
    <path
       style="fill:#338999;fill-opacity:1;paint-order:stroke fill markers"
       d="m 1043.1628,45.209302 -10.3256,5.581396 -5.8605,8.093023 -1.6744,10.325581 1.9535,7.534884 5.5814,2.511628 9.7675,-1.674419 8.6511,-16.465116 z"
       id="path31" />
    <path
       style="fill:#338999;fill-opacity:1;paint-order:stroke fill markers"
       d="m 1031.7209,114.69767 -2.5116,9.76745 -1.1163,9.48837 1.9535,7.25581 7.5349,5.86047 c 0,0 6.4186,1.39535 8.3721,-0.55814 1.9535,-1.95349 5.0232,-10.32558 5.0232,-10.32558 l -7.5348,-18.69768 z"
       id="path32" />
    <g
       inkscape:groupmode="layer"
       id="layer5"
       inkscape:label="shirt 1">
      <path
         style="fill:#338999;fill-opacity:1;paint-order:stroke fill markers"
         d="m 68.67158,160.92435 2.663983,1.77599 c 0,0 0.493331,0.296 2.26932,0.296 1.775989,0 7.498621,-0.98667 7.498621,-0.98667 l 7.00529,-3.15731 4.538639,-2.46665 8.583947,-2.46665 9.47194,-1.28266 1.67733,-2.56532 1.77598,-7.99195 -0.69066,-7.39995 -0.19733,-7.89329 -1.77599,-3.15731 -7.89328,-0.888 -11.543934,-0.39466 -3.453312,-2.17066 -6.51196,3.84798 -9.76794,6.61063 -4.341307,13.81325 1.085327,12.53059 z"
         id="path57" />
      <path
         style="fill:#338999;fill-opacity:1;paint-order:stroke fill markers"
         d="m 88.010128,78.93285 2.959982,-3.946642 c 0,0 2.959982,0.591996 3.74931,0.591996 0.789329,0 9.86661,0.591996 10.85327,0.394664 0.98666,-0.197332 5.13063,-2.170653 5.13063,-2.170653 l 3.15732,-5.327968 c 0,0 1.18399,-10.655934 0.98666,-11.445263 -0.19734,-0.789328 -2.36799,-8.287949 -2.36799,-8.287949 l -4.73597,-2.170653 -18.549219,-2.959982 -9.471942,-0.591997 -6.906625,-0.394664 -9.669274,5.327967 0.197332,11.642596 6.117296,8.485281 12.826588,9.669274 z"
         id="path58" />
      <path
         style="fill:#338999;fill-opacity:1;paint-order:stroke fill markers"
         d="m 323.42735,40.84775 7.10396,7.103956 2.36799,3.946643 2.36798,6.906624 0.592,9.27461 -1.57866,9.669274 -6.1173,3.946643 c 0,0 -7.89328,-0.789329 -8.28794,-1.578657 -0.39467,-0.789329 -2.95999,-6.51196 -2.95999,-8.879946 0,-2.367985 3.94665,-19.53588 3.94665,-19.53588 z"
         id="path59" />
      <path
         style="fill:#338999;fill-opacity:1;paint-order:stroke fill markers"
         d="m 322.83536,116.82062 6.51196,1.77599 5.13063,2.17065 2.36799,3.35465 1.18399,5.32796 -0.98666,9.47195 -2.36799,7.49862 -1.97332,5.91996 -4.3413,2.56532 -11.24793,1.97332 -3.35465,-5.72263 c 0,0 -1.77599,-11.24793 -1.18399,-14.99724 0.59199,-3.74931 4.9333,-13.81325 4.9333,-13.81325 z"
         id="path60" />
      <path
         style="fill:#338999;fill-opacity:1;paint-order:stroke fill markers"
         d="m 1043.1628,45.209302 -10.3256,5.581396 -5.8605,8.093023 -1.6744,10.325581 1.9535,7.534884 5.5814,2.511628 9.7675,-1.674419 8.6511,-16.465116 z"
         id="path61" />
      <path
         style="fill:#338999;fill-opacity:1;paint-order:stroke fill markers"
         d="m 1031.7209,114.69767 -2.5116,9.76745 -1.1163,9.48837 1.9535,7.25581 7.5349,5.86047 c 0,0 6.4186,1.39535 8.3721,-0.55814 1.9535,-1.95349 5.0232,-10.32558 5.0232,-10.32558 l -7.5348,-18.69768 z"
         id="path62" />
    </g>
    <path
       style="display:inline;fill:#40aabf;fill-opacity:1;paint-order:stroke fill markers"
       d="m 49.744186,121.11628 c 0.01137,6.20862 0.284575,12.47106 1.813954,18.48837 0.726006,2.85646 1.732394,5.64158 3,8.30233 1.957105,3.39602 4.437066,6.49006 7.325581,9.13953 2.026262,1.85857 4.252514,3.49897 6.627907,4.88372 3.342188,0.55595 6.837041,0.16218 9.971727,-1.12353 3.134686,-1.28571 5.899501,-3.45938 7.888738,-6.20205 3.046937,-4.20098 4.181285,-9.53185 4.255814,-14.72093 0.09078,-6.32064 -1.270435,-12.58593 -1.325581,-18.90698 -0.02314,-2.65219 0.183922,-5.30131 0.209302,-7.95348 0.041,-4.28503 -0.392086,-8.55848 -0.627907,-12.83721 -0.506916,-9.197469 -0.102131,-18.417049 0,-27.62791 0.07522,-6.784155 -0.06,-13.793744 -2.822027,-19.990651 -1.38101,-3.098453 -3.426533,-5.938951 -6.127323,-7.991594 -2.700789,-2.052642 -6.080064,-3.278918 -9.469255,-3.134034 -2.841312,0.121462 -5.594921,1.191704 -7.947282,2.789893 -2.35236,1.59819 -4.323198,3.708361 -6.006206,6.000804 -3.462239,4.715951 -5.762885,10.271267 -6.697674,16.046512 -1.169397,7.224682 -0.223719,14.597287 0.139534,21.906977 0.544933,10.965611 -0.229407,21.951113 -0.209302,32.930233 z"
       id="path19"
       inkscape:path-effect="#path-effect19"
       inkscape:original-d="m 49.744186,121.11628 c -0.06977,10.97674 1.209302,12.30232 1.813954,18.48837 0.604651,6.18605 3.976744,11.04651 3,8.30233 0.906976,2.67442 4.906976,6.11628 7.325581,9.13953 2.418605,3.02326 8.906977,6.53489 6.627907,4.88372 2.348837,1.5814 11.930233,-4.90697 17.860465,-7.32558 5.930233,-2.4186 2.83721,-9.81395 4.255814,-14.72093 1.418605,-4.90698 -0.883721,-12.60465 -1.325581,-18.90698 -0.441861,-6.30232 0.186046,-5.30232 0.209302,-7.95348 0.02326,-2.65117 -0.418605,-8.55814 -0.627907,-12.83721 -0.209302,-4.279073 0,-18.418608 0,-27.62791 0,-9.209303 -12.325581,-20.790698 -18.418605,-31.116279 -6.093023,-10.325582 -9.255814,5.906976 -13.953488,8.790697 -4.697674,2.883721 -4.465116,10.790698 -6.697674,16.046512 -2.232559,5.255814 0.09302,14.511628 0.139534,21.906977 C 50,95.581396 49.813954,110.13954 49.744186,121.11628 Z" />
    <path
       style="display:inline;fill:#40aabf;fill-opacity:1;paint-order:stroke fill markers"
       d="m 317.60606,38.0851 h 0.98666 -1.08533 c -2.51485,0 -5.04438,0.03235 -7.51659,0.493473 -2.47221,0.461124 -4.87185,1.34831 -7.00292,2.683596 -2.13108,1.335287 -3.97897,3.100577 -5.50103,5.10253 -1.52206,2.001953 -2.72554,4.229461 -3.76592,6.519022 -2.0118,4.427377 -3.45403,9.166337 -3.69767,14.023256 -0.20705,4.127388 0.45079,8.241514 0.90697,12.348837 0.53235,4.793183 0.79154,9.624857 0.55814,14.441861 -0.32548,6.717185 -1.60394,13.346245 -2.79147,19.965625 -0.98226,5.47516 -1.90705,11.06052 -1.18399,16.5759 0.80041,6.10537 3.5848,11.78581 6.90662,16.97057 2.56546,4.00421 5.62372,7.91609 9.86661,10.06393 1.92109,0.9725 4.04912,1.5518 6.20152,1.61127 2.15239,0.0595 4.32663,-0.40795 6.2304,-1.41393 1.74338,-0.92123 3.23553,-2.27513 4.4623,-3.81885 1.22677,-1.54372 2.19739,-3.27666 3.03632,-5.0611 2.17516,-4.62667 3.49599,-9.68774 3.55198,-14.79991 0.0572,-5.22676 -1.19234,-10.37646 -1.57866,-15.58924 -0.39906,-5.38475 0.12547,-10.78843 0.39467,-16.18123 0.38458,-7.704324 0.25003,-15.45735 1.38132,-23.08786 0.74558,-5.028916 2.03605,-9.965548 2.76265,-14.997241 0.59514,-4.121321 0.8062,-8.346643 0,-12.431924 -0.4842,-2.453614 -1.34122,-4.85009 -2.68443,-6.959701 -1.34321,-2.109612 -3.18636,-3.9256 -5.40619,-5.077559 -1.55536,-0.807137 -3.2825,-1.281256 -5.03196,-1.381325 z"
       id="path20"
       inkscape:path-effect="#path-effect20"
       inkscape:original-d="m 317.60606,38.0851 h 0.98666 c -0.32889,0 -1.41422,0 -1.08533,0 0.32889,0 -15.90415,9.819236 -23.78646,14.798621 -7.88231,4.979385 -2.4186,9.348837 -3.69767,14.023256 -1.27907,4.674418 0.60465,8.232558 0.90697,12.348837 0.30233,4.116279 0.3721,9.627907 0.55814,14.441861 0.18605,4.813953 -1.7952,13.441975 -2.79147,19.965625 -0.99627,6.52366 -0.85511,10.91905 -1.18399,16.5759 -0.32889,5.65686 4.73597,11.31371 6.90662,16.97057 2.17065,5.65685 6.31463,6.77507 9.86661,10.06393 3.55198,3.28887 8.55106,0.0658 12.43192,0.19734 3.88087,0.13155 4.86753,-5.91997 7.49862,-8.87995 2.6311,-2.95998 2.36799,-9.86661 3.55198,-14.79991 1.18399,-4.9333 -1.05244,-10.4586 -1.57866,-15.58924 -0.52622,-5.13063 0.26311,-10.72171 0.39467,-16.18123 0.13155,-5.459523 0.92088,-15.391907 1.38132,-23.08786 0.46044,-7.695953 1.84177,-10.129716 2.76265,-14.997241 0.92089,-4.867526 0,-8.156395 0,-12.431924 0,-4.27553 -5.39374,-8.02484 -8.09062,-12.03726 -2.69687,-4.01242 -3.35464,-0.920883 -5.03196,-1.381325 z" />
    <path
       style="display:inline;fill:#40aabf;fill-opacity:1;paint-order:stroke fill markers"
       d="m 298.18605,46.465116 c -0.83721,1.116279 -7.11628,6.139535 -7.11628,6.139535 l -8.93023,5.441861 -15.20931,8.790697 -4.74418,5.302326 -4.18605,7.116279 -3.2093,6.976744 -0.83721,10.465117 0.27907,5.581395 1.67442,9.62791 4.60465,7.81395 4.04651,6.69767 6,3.62791 11.30233,6.41861 10.74418,9.90697 5.02326,5.72093 9.06976,3.62791 c 0,0 4.60466,-2.7907 4.74419,-6.4186 0.13954,-3.62791 4.60465,-29.16279 3.62791,-32.93024 C 314.09302,112.60465 312,102.4186 312,102.4186 l 1.39535,-45.906972 -7.11628,-10.744186 z"
       id="path21" />
    <path
       style="display:inline;fill:#40aabf;fill-opacity:1;paint-order:stroke fill markers"
       d="m 1032.4417,118.39928 c -0.2526,5.28804 -0.021,10.63152 1.184,15.78657 2.0252,8.66214 6.9556,16.75229 14.2079,21.90386 2.2864,1.62412 4.8148,2.96324 7.5469,3.59623 2.7322,0.63299 5.6859,0.52285 8.2397,-0.63625 2.6614,-1.20795 4.7409,-3.48366 6.1156,-6.06291 1.3747,-2.57925 2.0956,-5.45788 2.567,-8.34233 0.7449,-4.55812 0.8963,-9.1959 0.7893,-13.81325 -0.1453,-6.27232 -0.764,-12.52568 -1.5787,-18.74655 -1.2534,-9.57032 -2.9737,-19.259799 -1.5786,-28.810493 0.5333,-3.651291 1.5162,-7.22171 2.1706,-10.853267 1.0448,-5.798307 1.24,-11.802845 0,-17.562559 -0.8678,-4.030676 -2.518,-8.032749 -5.5253,-10.853267 -2.1762,-2.041013 -4.9847,-3.366513 -7.92,-3.900822 -2.9353,-0.534309 -5.9902,-0.293287 -8.8532,0.546176 -6.4208,1.882638 -11.8158,6.854161 -14.4052,13.02392 -1.54,3.669282 -2.1239,7.670746 -2.368,11.642595 -0.2543,4.137911 -0.1545,8.28909 0,12.431924 0.3459,9.273518 0.9659,18.56147 0.3946,27.823833 -0.264,4.28027 -0.782,8.54307 -0.9866,12.82659 z"
       id="path22"
       inkscape:path-effect="#path-effect22"
       inkscape:original-d="m 1032.4417,118.39928 c -0.3289,4.27552 0.8551,10.59015 1.184,15.78657 0.3289,5.19641 9.5377,14.40524 14.2079,21.90386 4.6702,7.49862 10.3928,2.10488 15.7866,2.95998 5.3937,0.85511 5.7884,-9.66927 8.6826,-14.40524 2.8942,-4.73597 0.5262,-9.27461 0.7893,-13.81325 0.2631,-4.53864 -1.0524,-12.36615 -1.5787,-18.74655 -0.5262,-6.38041 -1.1182,-19.338551 -1.5786,-28.810493 -0.4605,-9.471942 1.5129,-7.169734 2.1706,-10.853267 0.6578,-3.683533 -0.066,-11.642595 0,-17.562559 0.066,-5.919964 -3.6835,-7.169734 -5.5253,-10.853267 -1.8417,-3.683533 -11.1163,-2.302208 -16.7732,-3.354646 -5.6568,-1.052438 -9.6035,8.748391 -14.4052,13.02392 -4.8018,4.275529 -1.5787,7.827508 -2.368,11.642595 -0.7894,3.815088 0,8.156395 0,12.431924 0,4.27553 0.2631,18.54922 0.3946,27.823833 0.1316,9.27461 -0.6577,8.55106 -0.9866,12.82659 z" />
    <path
       style="display:inline;fill:#40abbf;fill-opacity:1;paint-order:stroke fill markers"
       d="m 854.84277,108.138 30.19181,7.30129 -3.35464,14.79991 -10.65594,18.74655 -9.47194,3.15732 -29.99448,-3.74931 -9.27461,-4.9333 -4.14398,-17.1679 0.19733,-18.54922 6.90663,-39.466425 0.39466,-14.799909 1.77599,-9.866606 6.31463,-4.735971 17.75989,-0.591997 15.39191,9.077278 14.20791,21.706534 1.38132,1.775989 -14.60257,2.76265 -12.62926,3.354646 z"
       id="path34" />
    <g
       inkscape:groupmode="layer"
       id="layer3"
       inkscape:label="shirt"
       style="display:inline">
      <path
         style="fill:#40aabf;fill-opacity:1;paint-order:stroke fill markers"
         d="m 49.744186,121.11628 c 0.01137,6.20862 0.284575,12.47106 1.813954,18.48837 0.726006,2.85646 1.732394,5.64158 3,8.30233 1.957105,3.39602 4.437066,6.49006 7.325581,9.13953 2.026262,1.85857 4.252514,3.49897 6.627907,4.88372 3.342188,0.55595 6.837041,0.16218 9.971727,-1.12353 3.134686,-1.28571 5.899501,-3.45938 7.888738,-6.20205 3.046937,-4.20098 4.181285,-9.53185 4.255814,-14.72093 0.09078,-6.32064 -1.270435,-12.58593 -1.325581,-18.90698 -0.02314,-2.65219 0.183922,-5.30131 0.209302,-7.95348 0.041,-4.28503 -0.392086,-8.55848 -0.627907,-12.83721 -0.506916,-9.197469 -0.102131,-18.417049 0,-27.62791 0.07522,-6.784155 -0.06,-13.793744 -2.822027,-19.990651 -1.38101,-3.098453 -3.426533,-5.938951 -6.127323,-7.991594 -2.700789,-2.052642 -6.080064,-3.278918 -9.469255,-3.134034 -2.841312,0.121462 -5.594921,1.191704 -7.947282,2.789893 -2.35236,1.59819 -4.323198,3.708361 -6.006206,6.000804 -3.462239,4.715951 -5.762885,10.271267 -6.697674,16.046512 -1.169397,7.224682 -0.223719,14.597287 0.139534,21.906977 0.544933,10.965611 -0.229407,21.951113 -0.209302,32.930233 z"
         id="path63"
         inkscape:path-effect="#path-effect19"
         inkscape:original-d="m 49.744186,121.11628 c -0.06977,10.97674 1.209302,12.30232 1.813954,18.48837 0.604651,6.18605 3.976744,11.04651 3,8.30233 0.906976,2.67442 4.906976,6.11628 7.325581,9.13953 2.418605,3.02326 8.906977,6.53489 6.627907,4.88372 2.348837,1.5814 11.930233,-4.90697 17.860465,-7.32558 5.930233,-2.4186 2.83721,-9.81395 4.255814,-14.72093 1.418605,-4.90698 -0.883721,-12.60465 -1.325581,-18.90698 -0.441861,-6.30232 0.186046,-5.30232 0.209302,-7.95348 0.02326,-2.65117 -0.418605,-8.55814 -0.627907,-12.83721 -0.209302,-4.279073 0,-18.418608 0,-27.62791 0,-9.209303 -12.325581,-20.790698 -18.418605,-31.116279 -6.093023,-10.325582 -9.255814,5.906976 -13.953488,8.790697 -4.697674,2.883721 -4.465116,10.790698 -6.697674,16.046512 -2.232559,5.255814 0.09302,14.511628 0.139534,21.906977 C 50,95.581396 49.813954,110.13954 49.744186,121.11628 Z" />
      <path
         style="fill:#40aabf;fill-opacity:1;paint-order:stroke fill markers"
         d="m 317.60606,38.0851 h 0.98666 -1.08533 c -2.51485,0 -5.04438,0.03235 -7.51659,0.493473 -2.47221,0.461124 -4.87185,1.34831 -7.00292,2.683596 -2.13108,1.335287 -3.97897,3.100577 -5.50103,5.10253 -1.52206,2.001953 -2.72554,4.229461 -3.76592,6.519022 -2.0118,4.427377 -3.45403,9.166337 -3.69767,14.023256 -0.20705,4.127388 0.45079,8.241514 0.90697,12.348837 0.53235,4.793183 0.79154,9.624857 0.55814,14.441861 -0.32548,6.717185 -1.60394,13.346245 -2.79147,19.965625 -0.98226,5.47516 -1.90705,11.06052 -1.18399,16.5759 0.80041,6.10537 3.5848,11.78581 6.90662,16.97057 2.56546,4.00421 5.62372,7.91609 9.86661,10.06393 1.92109,0.9725 4.04912,1.5518 6.20152,1.61127 2.15239,0.0595 4.32663,-0.40795 6.2304,-1.41393 1.74338,-0.92123 3.23553,-2.27513 4.4623,-3.81885 1.22677,-1.54372 2.19739,-3.27666 3.03632,-5.0611 2.17516,-4.62667 3.49599,-9.68774 3.55198,-14.79991 0.0572,-5.22676 -1.19234,-10.37646 -1.57866,-15.58924 -0.39906,-5.38475 0.12547,-10.78843 0.39467,-16.18123 0.38458,-7.704324 0.25003,-15.45735 1.38132,-23.08786 0.74558,-5.028916 2.03605,-9.965548 2.76265,-14.997241 0.59514,-4.121321 0.8062,-8.346643 0,-12.431924 -0.4842,-2.453614 -1.34122,-4.85009 -2.68443,-6.959701 -1.34321,-2.109612 -3.18636,-3.9256 -5.40619,-5.077559 -1.55536,-0.807137 -3.2825,-1.281256 -5.03196,-1.381325 z"
         id="path64"
         inkscape:path-effect="#path-effect20"
         inkscape:original-d="m 317.60606,38.0851 h 0.98666 c -0.32889,0 -1.41422,0 -1.08533,0 0.32889,0 -15.90415,9.819236 -23.78646,14.798621 -7.88231,4.979385 -2.4186,9.348837 -3.69767,14.023256 -1.27907,4.674418 0.60465,8.232558 0.90697,12.348837 0.30233,4.116279 0.3721,9.627907 0.55814,14.441861 0.18605,4.813953 -1.7952,13.441975 -2.79147,19.965625 -0.99627,6.52366 -0.85511,10.91905 -1.18399,16.5759 -0.32889,5.65686 4.73597,11.31371 6.90662,16.97057 2.17065,5.65685 6.31463,6.77507 9.86661,10.06393 3.55198,3.28887 8.55106,0.0658 12.43192,0.19734 3.88087,0.13155 4.86753,-5.91997 7.49862,-8.87995 2.6311,-2.95998 2.36799,-9.86661 3.55198,-14.79991 1.18399,-4.9333 -1.05244,-10.4586 -1.57866,-15.58924 -0.52622,-5.13063 0.26311,-10.72171 0.39467,-16.18123 0.13155,-5.459523 0.92088,-15.391907 1.38132,-23.08786 0.46044,-7.695953 1.84177,-10.129716 2.76265,-14.997241 0.92089,-4.867526 0,-8.156395 0,-12.431924 0,-4.27553 -5.39374,-8.02484 -8.09062,-12.03726 -2.69687,-4.01242 -3.35464,-0.920883 -5.03196,-1.381325 z" />
      <path
         style="fill:#40aabf;fill-opacity:1;paint-order:stroke fill markers"
         d="m 298.18605,46.465116 c -0.83721,1.116279 -7.11628,6.139535 -7.11628,6.139535 l -8.93023,5.441861 -15.20931,8.790697 -4.74418,5.302326 -4.18605,7.116279 -3.2093,6.976744 -0.83721,10.465117 0.27907,5.581395 1.67442,9.62791 4.60465,7.81395 4.04651,6.69767 6,3.62791 11.30233,6.41861 10.74418,9.90697 5.02326,5.72093 9.06976,3.62791 c 0,0 4.60466,-2.7907 4.74419,-6.4186 0.13954,-3.62791 4.60465,-29.16279 3.62791,-32.93024 C 314.09302,112.60465 312,102.4186 312,102.4186 l 1.39535,-45.906972 -7.11628,-10.744186 z"
         id="path65" />
      <path
         style="fill:#40aabf;fill-opacity:1;paint-order:stroke fill markers"
         d="m 1032.4417,118.39928 c -0.2526,5.28804 -0.021,10.63152 1.184,15.78657 2.0252,8.66214 6.9556,16.75229 14.2079,21.90386 2.2864,1.62412 4.8148,2.96324 7.5469,3.59623 2.7322,0.63299 5.6859,0.52285 8.2397,-0.63625 2.6614,-1.20795 4.7409,-3.48366 6.1156,-6.06291 1.3747,-2.57925 2.0956,-5.45788 2.567,-8.34233 0.7449,-4.55812 0.8963,-9.1959 0.7893,-13.81325 -0.1453,-6.27232 -0.764,-12.52568 -1.5787,-18.74655 -1.2534,-9.57032 -2.9737,-19.259799 -1.5786,-28.810493 0.5333,-3.651291 1.5162,-7.22171 2.1706,-10.853267 1.0448,-5.798307 1.24,-11.802845 0,-17.562559 -0.8678,-4.030676 -2.518,-8.032749 -5.5253,-10.853267 -2.1762,-2.041013 -4.9847,-3.366513 -7.92,-3.900822 -2.9353,-0.534309 -5.9902,-0.293287 -8.8532,0.546176 -6.4208,1.882638 -11.8158,6.854161 -14.4052,13.02392 -1.54,3.669282 -2.1239,7.670746 -2.368,11.642595 -0.2543,4.137911 -0.1545,8.28909 0,12.431924 0.3459,9.273518 0.9659,18.56147 0.3946,27.823833 -0.264,4.28027 -0.782,8.54307 -0.9866,12.82659 z"
         id="path66"
         inkscape:path-effect="#path-effect22"
         inkscape:original-d="m 1032.4417,118.39928 c -0.3289,4.27552 0.8551,10.59015 1.184,15.78657 0.3289,5.19641 9.5377,14.40524 14.2079,21.90386 4.6702,7.49862 10.3928,2.10488 15.7866,2.95998 5.3937,0.85511 5.7884,-9.66927 8.6826,-14.40524 2.8942,-4.73597 0.5262,-9.27461 0.7893,-13.81325 0.2631,-4.53864 -1.0524,-12.36615 -1.5787,-18.74655 -0.5262,-6.38041 -1.1182,-19.338551 -1.5786,-28.810493 -0.4605,-9.471942 1.5129,-7.169734 2.1706,-10.853267 0.6578,-3.683533 -0.066,-11.642595 0,-17.562559 0.066,-5.919964 -3.6835,-7.169734 -5.5253,-10.853267 -1.8417,-3.683533 -11.1163,-2.302208 -16.7732,-3.354646 -5.6568,-1.052438 -9.6035,8.748391 -14.4052,13.02392 -4.8018,4.275529 -1.5787,7.827508 -2.368,11.642595 -0.7894,3.815088 0,8.156395 0,12.431924 0,4.27553 0.2631,18.54922 0.3946,27.823833 0.1316,9.27461 -0.6577,8.55106 -0.9866,12.82659 z" />
      <path
         style="fill:#40abbf;fill-opacity:1;paint-order:stroke fill markers"
         d="m 854.84277,108.138 30.19181,7.30129 -3.35464,14.79991 -10.65594,18.74655 -9.47194,3.15732 -29.99448,-3.74931 -9.27461,-4.9333 -4.14398,-17.1679 0.19733,-18.54922 6.90663,-39.466425 0.39466,-14.799909 1.77599,-9.866606 6.31463,-4.735971 17.75989,-0.591997 15.39191,9.077278 14.20791,21.706534 1.38132,1.775989 -14.60257,2.76265 -12.62926,3.354646 z"
         id="path67" />
    </g>
    <path
       style="fill:#e6cdb2;fill-opacity:1;paint-order:stroke fill markers"
       d="m 818.53366,117.80728 4.53863,0.19733 4.34131,-2.36798 8.87995,-10.06394 3.55198,-7.498624 0.78932,-2.367985 -1.38132,-6.51196 -3.55198,-7.301289 -5.5253,-6.314628 -9.07728,-3.551978 -15.19457,0.789328 -11.83993,5.919964 -3.94664,12.629256 0.592,9.274606 4.53863,6.90663 16.18124,7.69595 z"
       id="path33" />
    <path
       style="fill:#bf997b;fill-opacity:1;paint-order:stroke fill markers"
       d="m 821.30233,72.139535 10.32558,4.744186 0.27907,1.534884 -9.76744,2.372093 -0.13954,7.255814 8.7907,5.44186 -10.04651,2.232558 6.55814,16.32558 -8.93024,-1.53488 2.51163,7.81395 -13.53488,-1.81395 c 0,0 -14.09302,-18.279072 -13.39535,-20.651165 0.69767,-2.372093 6,-19.953488 6,-19.953488 l 14.7907,-8.232558 z"
       id="path37" />
    <g
       inkscape:groupmode="layer"
       id="layer6"
       inkscape:label="skin">
      <path
         style="fill:#e6cdb2;fill-opacity:1;paint-order:stroke fill markers"
         d="m 818.53366,117.80728 4.53863,0.19733 4.34131,-2.36798 8.87995,-10.06394 3.55198,-7.498624 0.78932,-2.367985 -1.38132,-6.51196 -3.55198,-7.301289 -5.5253,-6.314628 -9.07728,-3.551978 -15.19457,0.789328 -11.83993,5.919964 -3.94664,12.629256 0.592,9.274606 4.53863,6.90663 16.18124,7.69595 z"
         id="path68" />
      <path
         style="fill:#bf997b;fill-opacity:1;paint-order:stroke fill markers"
         d="m 821.30233,72.139535 10.32558,4.744186 0.27907,1.534884 -9.76744,2.372093 -0.13954,7.255814 8.7907,5.44186 -10.04651,2.232558 6.55814,16.32558 -8.93024,-1.53488 2.51163,7.81395 -13.53488,-1.81395 c 0,0 -14.09302,-18.279072 -13.39535,-20.651165 0.69767,-2.372093 6,-19.953488 6,-19.953488 l 14.7907,-8.232558 z"
         id="path69" />
    </g>
    <path
       style="fill:#262626;fill-opacity:1;paint-order:stroke fill markers"
       d="m 40.465116,92.093023 c 0.27907,-1.906976 0.83721,-3.813953 1.116279,-5.72093 0.27907,-1.906977 1.255814,-2.930232 1.953489,-4.325581 0.697674,-1.395349 3.953488,-3.488372 6,-5.302326 2.046511,-1.813953 6.790697,-2.604651 10.186046,-3.906977 3.395349,-1.302325 7.069768,-0.930232 10.604652,-1.395348 3.534883,-0.465117 9.906976,1.255814 9.906976,1.255814 l 3.488372,3.488372 2.651163,1.534883 -7.534884,0.55814 4.744186,2.372093 2.930233,0.558139 12.55814,3.209303 2.372092,0.418604 -6.418604,2.372093 -1.395349,0.976745 6,3.209302 3.906973,5.581395 0.41861,2.093024 -3.48837,-0.697675 -3.627911,0.697675 -2.232558,2.232562 -0.558139,0.83721 8.511628,1.39534 2.51163,1.25582 3.76744,1.11628 -4.60465,2.79069 -5.023258,2.51163 -4.604651,0.83721 3.488372,3.90698 1.395349,1.67442 -2.930232,0.27907 -5.441861,0.83721 -5.16279,0.97674 -3.069768,1.25581 4.465116,2.23256 -2.930232,2.23256 -4.465117,2.51163 -2.372093,0.4186 -4.465116,0.97675 -8.511628,-0.27907 -5.860465,-1.11628 -6.697674,-2.09302 -3.906977,-1.67442 -4.325581,-2.65117 -3.488373,-3.90697 -1.534883,-3.90698 -0.976744,-3.48837 -4.604652,3.76744 -3.488372,3.76744 -0.837209,0.13954 -0.27907,-4.18605 0.697675,-4.04651 L 30,106.32558 32.790698,102 l 2.511628,-3.209302 -2.372093,-2.651163 -1.674419,-3.069767 -0.976744,-3.209303 0.139535,-5.581395 1.813953,-3.488372 2.372093,4.604651 4.046512,4.465116 z"
       id="path23" />
    <path
       style="fill:#262626;fill-opacity:1;paint-order:stroke fill markers"
       d="m 279.62791,85.534884 1.11628,-4.883721 2.23255,-3.488372 5.1628,-3.348837 7.39534,-3.767442 8.7907,-2.232558 5.30233,-0.27907 6.97674,0.139535 6.41861,3.767442 4.04651,3.488372 -6,-0.139535 1.67442,1.534884 7.53488,3.209302 5.16279,1.116279 4.74419,3.627907 -5.02326,1.674419 -1.67442,0.976744 5.86047,2.930232 3.06977,4.744186 0.97674,2.511628 -2.7907,-0.837209 -3.2093,0.697674 -3.2093,1.534884 -1.25582,1.255814 3.20931,0.139535 c 0,0 3.34883,0.976743 4.04651,1.255813 0.69767,0.27907 4.60465,2.93023 4.60465,2.93023 l 1.95349,1.39535 -6,2.3721 -5.86047,2.23255 -2.23256,0.55814 3.34884,3.48838 1.39535,3.48837 -6.27907,-0.41861 -10.18605,0.97675 4.32558,2.23255 -3.6279,2.93024 -5.86047,2.7907 h -11.16279 l -12.4186,-2.7907 -8.23256,-4.74419 -5.02326,-5.30232 -1.67442,-4.60466 -0.97674,-4.04651 -3.90698,1.95349 -3.76744,3.90698 -1.11628,1.39535 -0.83721,-2.7907 0.97675,-5.30233 1.39535,-4.325578 2.51162,-3.767442 2.23256,-2.372093 0.83721,-1.116279 -3.76744,-3.348837 -1.25581,-3.209302 V 81.906977 L 270,78.976744 l 2.23256,-3.627907 1.53488,-1.395349 1.53489,6.139535 c 0,0 0.83721,2.790698 1.39534,3.209303 0.55814,0.418604 2.93024,2.232558 2.93024,2.232558 z"
       id="path24" />
    <path
       style="fill:#262626;fill-opacity:1;paint-order:stroke fill markers"
       d="m 781.11628,104.37209 4.60465,6.97675 4.74419,5.30232 8.51163,6.83721 12,4.74419 3.48837,3.2093 -3.48837,-10.46512 10.74418,1.67442 9.34884,-0.13953 2.37209,-0.55814 L 819.34884,114 l -5.44186,-1.95349 -2.37209,-5.02325 13.11627,3.06976 -11.02325,-13.116276 -1.11628,-2.093023 2.23256,-0.697674 11.02325,-1.395349 h 2.3721 l -5.5814,-2.651163 -7.81395,-4.604651 -3.62791,-1.953489 c 0,0 2.7907,-2.093023 3.90698,-2.232558 1.11628,-0.139535 10.46511,-3.767442 10.46511,-3.767442 l 7.11628,-0.976744 -8.51163,-3.488372 -9.48837,-2.372093 20.65117,3.627907 -8.65117,-6.697674 -9.06976,-3.627907 -6.27907,-0.697675 c 0,0 -7.81396,0 -8.7907,0.27907 -0.97675,0.27907 -10.18605,5.302326 -10.18605,5.302326 l -5.16279,8.511628 -0.83721,5.16279 -1.67442,-4.883721 0.55814,-11.023255 L 786,63.767442 c 0,0 -3.90698,4.325581 -4.32558,5.162791 -0.4186,0.837209 -2.65116,5.302325 -2.65116,5.302325 l -0.83721,4.186047 1.11628,5.302325 1.67442,3.767442 -3.76745,3.906977 -3.2093,8.093023 -0.4186,5.999998 c 0,0 0.97674,4.74419 1.11628,5.30233 0.13953,0.55814 1.95348,4.74418 1.95348,4.74418 l -0.13953,-7.39534 2.37209,-4.74419 z"
       id="path25" />
    <path
       style="fill:#262626;fill-opacity:1;paint-order:stroke fill markers"
       d="m 1023.7674,90.27907 1.3954,-6.418605 2.093,-4.325581 3.6279,-3.488372 8.7907,-4.744186 4.3256,-0.976744 8.5116,-1.674419 c 0,0 4.7442,0 5.3024,0 0.5581,0 8.7907,3.209302 8.7907,3.209302 l 3.3488,3.069768 1.6744,1.534883 -4.7442,0.418605 -3.4883,0.139535 6,1.953488 c 0,0 6.5581,1.395349 7.6744,1.813954 1.1162,0.418604 4.186,0.697674 4.186,0.697674 l 4.7442,1.813954 -4.3256,1.255814 -4.7442,1.255814 3.907,1.953488 2.093,1.953488 2.7907,2.651163 1.2558,3.069768 0.2791,1.255814 -3.3488,-0.55814 -3.7675,0.27907 -2.6511,2.511628 0.279,0.976744 3.7675,0.279073 4.0465,1.67442 4.6046,1.81395 2.5117,1.11628 -5.5814,2.37209 -3.4884,1.81395 c 0,0 -2.6512,0.83721 -3.2093,0.83721 -0.5581,0 -6.6977,-0.83721 -6.6977,-0.83721 l 6.8372,4.18605 2.0931,1.67442 -5.5814,2.37209 -5.721,0.83721 -6.279,1.39535 6.4186,0.69768 -5.0233,3.6279 -7.3953,2.93023 H 1050 l -10.4651,-1.95348 -9.4884,-4.04652 -5.3023,-3.90697 -4.6047,-8.23256 -8.093,7.81395 -0.4186,-8.51162 0.9768,-3.34884 2.7907,-5.302328 3.4883,-2.372093 -2.7907,-2.511627 -2.093,-2.930233 -0.8372,-4.604651 0.4186,-3.767442 1.814,-5.441861 2.7906,7.11628 4.0466,4.465116 z"
       id="path26" />
    <g
       inkscape:groupmode="layer"
       id="layer4"
       inkscape:label="head">
      <path
         style="fill:#262626;fill-opacity:1;paint-order:stroke fill markers"
         d="m 40.465116,92.093023 c 0.27907,-1.906976 0.83721,-3.813953 1.116279,-5.72093 0.27907,-1.906977 1.255814,-2.930232 1.953489,-4.325581 0.697674,-1.395349 3.953488,-3.488372 6,-5.302326 2.046511,-1.813953 6.790697,-2.604651 10.186046,-3.906977 3.395349,-1.302325 7.069768,-0.930232 10.604652,-1.395348 3.534883,-0.465117 9.906976,1.255814 9.906976,1.255814 l 3.488372,3.488372 2.651163,1.534883 -7.534884,0.55814 4.744186,2.372093 2.930233,0.558139 12.55814,3.209303 2.372092,0.418604 -6.418604,2.372093 -1.395349,0.976745 6,3.209302 3.906973,5.581395 0.41861,2.093024 -3.48837,-0.697675 -3.627911,0.697675 -2.232558,2.232562 -0.558139,0.83721 8.511628,1.39534 2.51163,1.25582 3.76744,1.11628 -4.60465,2.79069 -5.023258,2.51163 -4.604651,0.83721 3.488372,3.90698 1.395349,1.67442 -2.930232,0.27907 -5.441861,0.83721 -5.16279,0.97674 -3.069768,1.25581 4.465116,2.23256 -2.930232,2.23256 -4.465117,2.51163 -2.372093,0.4186 -4.465116,0.97675 -8.511628,-0.27907 -5.860465,-1.11628 -6.697674,-2.09302 -3.906977,-1.67442 -4.325581,-2.65117 -3.488373,-3.90697 -1.534883,-3.90698 -0.976744,-3.48837 -4.604652,3.76744 -3.488372,3.76744 -0.837209,0.13954 -0.27907,-4.18605 0.697675,-4.04651 L 30,106.32558 32.790698,102 l 2.511628,-3.209302 -2.372093,-2.651163 -1.674419,-3.069767 -0.976744,-3.209303 0.139535,-5.581395 1.813953,-3.488372 2.372093,4.604651 4.046512,4.465116 z"
         id="path70" />
      <path
         style="fill:#262626;fill-opacity:1;paint-order:stroke fill markers"
         d="m 279.62791,85.534884 1.11628,-4.883721 2.23255,-3.488372 5.1628,-3.348837 7.39534,-3.767442 8.7907,-2.232558 5.30233,-0.27907 6.97674,0.139535 6.41861,3.767442 4.04651,3.488372 -6,-0.139535 1.67442,1.534884 7.53488,3.209302 5.16279,1.116279 4.74419,3.627907 -5.02326,1.674419 -1.67442,0.976744 5.86047,2.930232 3.06977,4.744186 0.97674,2.511628 -2.7907,-0.837209 -3.2093,0.697674 -3.2093,1.534884 -1.25582,1.255814 3.20931,0.139535 c 0,0 3.34883,0.976743 4.04651,1.255813 0.69767,0.27907 4.60465,2.93023 4.60465,2.93023 l 1.95349,1.39535 -6,2.3721 -5.86047,2.23255 -2.23256,0.55814 3.34884,3.48838 1.39535,3.48837 -6.27907,-0.41861 -10.18605,0.97675 4.32558,2.23255 -3.6279,2.93024 -5.86047,2.7907 h -11.16279 l -12.4186,-2.7907 -8.23256,-4.74419 -5.02326,-5.30232 -1.67442,-4.60466 -0.97674,-4.04651 -3.90698,1.95349 -3.76744,3.90698 -1.11628,1.39535 -0.83721,-2.7907 0.97675,-5.30233 1.39535,-4.325578 2.51162,-3.767442 2.23256,-2.372093 0.83721,-1.116279 -3.76744,-3.348837 -1.25581,-3.209302 V 81.906977 L 270,78.976744 l 2.23256,-3.627907 1.53488,-1.395349 1.53489,6.139535 c 0,0 0.83721,2.790698 1.39534,3.209303 0.55814,0.418604 2.93024,2.232558 2.93024,2.232558 z"
         id="path71" />
      <path
         style="fill:#262626;fill-opacity:1;paint-order:stroke fill markers"
         d="m 781.11628,104.37209 4.60465,6.97675 4.74419,5.30232 8.51163,6.83721 12,4.74419 3.48837,3.2093 -3.48837,-10.46512 10.74418,1.67442 9.34884,-0.13953 2.37209,-0.55814 L 819.34884,114 l -5.44186,-1.95349 -2.37209,-5.02325 13.11627,3.06976 -11.02325,-13.116276 -1.11628,-2.093023 2.23256,-0.697674 11.02325,-1.395349 h 2.3721 l -5.5814,-2.651163 -7.81395,-4.604651 -3.62791,-1.953489 c 0,0 2.7907,-2.093023 3.90698,-2.232558 1.11628,-0.139535 10.46511,-3.767442 10.46511,-3.767442 l 7.11628,-0.976744 -8.51163,-3.488372 -9.48837,-2.372093 20.65117,3.627907 -8.65117,-6.697674 -9.06976,-3.627907 -6.27907,-0.697675 c 0,0 -7.81396,0 -8.7907,0.27907 -0.97675,0.27907 -10.18605,5.302326 -10.18605,5.302326 l -5.16279,8.511628 -0.83721,5.16279 -1.67442,-4.883721 0.55814,-11.023255 L 786,63.767442 c 0,0 -3.90698,4.325581 -4.32558,5.162791 -0.4186,0.837209 -2.65116,5.302325 -2.65116,5.302325 l -0.83721,4.186047 1.11628,5.302325 1.67442,3.767442 -3.76745,3.906977 -3.2093,8.093023 -0.4186,5.999998 c 0,0 0.97674,4.74419 1.11628,5.30233 0.13953,0.55814 1.95348,4.74418 1.95348,4.74418 l -0.13953,-7.39534 2.37209,-4.74419 z"
         id="path72" />
      <path
         style="fill:#262626;fill-opacity:1;paint-order:stroke fill markers"
         d="m 1023.7674,90.27907 1.3954,-6.418605 2.093,-4.325581 3.6279,-3.488372 8.7907,-4.744186 4.3256,-0.976744 8.5116,-1.674419 c 0,0 4.7442,0 5.3024,0 0.5581,0 8.7907,3.209302 8.7907,3.209302 l 3.3488,3.069768 1.6744,1.534883 -4.7442,0.418605 -3.4883,0.139535 6,1.953488 c 0,0 6.5581,1.395349 7.6744,1.813954 1.1162,0.418604 4.186,0.697674 4.186,0.697674 l 4.7442,1.813954 -4.3256,1.255814 -4.7442,1.255814 3.907,1.953488 2.093,1.953488 2.7907,2.651163 1.2558,3.069768 0.2791,1.255814 -3.3488,-0.55814 -3.7675,0.27907 -2.6511,2.511628 0.279,0.976744 3.7675,0.279073 4.0465,1.67442 4.6046,1.81395 2.5117,1.11628 -5.5814,2.37209 -3.4884,1.81395 c 0,0 -2.6512,0.83721 -3.2093,0.83721 -0.5581,0 -6.6977,-0.83721 -6.6977,-0.83721 l 6.8372,4.18605 2.0931,1.67442 -5.5814,2.37209 -5.721,0.83721 -6.279,1.39535 6.4186,0.69768 -5.0233,3.6279 -7.3953,2.93023 H 1050 l -10.4651,-1.95348 -9.4884,-4.04652 -5.3023,-3.90697 -4.6047,-8.23256 -8.093,7.81395 -0.4186,-8.51162 0.9768,-3.34884 2.7907,-5.302328 3.4883,-2.372093 -2.7907,-2.511627 -2.093,-2.930233 -0.8372,-4.604651 0.4186,-3.767442 1.814,-5.441861 2.7906,7.11628 4.0466,4.465116 z"
         id="path73" />
    </g>
    <path
       style="display:inline;fill:#40aabf;fill-opacity:1;paint-order:stroke fill markers"
       d="m 633.83079,100.83672 13.41858,0.19733 4.34131,2.17065 -0.98666,5.72263 -0.39467,11.24793 -2.56531,10.45861 -4.34131,0.78933 -11.0506,-1.77599 -3.55198,-6.1173 -0.39466,-10.85327 z"
       id="path39" />
    <path
       style="display:inline;fill:#40aabf;fill-opacity:1;paint-order:stroke fill markers"
       d="m 684.34781,61.962287 c -0.78933,-1.973321 -2.36799,-5.130635 -2.36799,-5.130635 l -6.31462,-3.354646 -6.1173,-0.197332 -6.51196,3.354646 -6.90662,7.695953 -6.1173,8.287949 -3.55198,7.498621 9.47194,5.130635 8.87995,0.591996 c 0,0 11.83993,-5.525299 13.22125,-7.695952 1.38133,-2.170654 6.31463,-16.181235 6.31463,-16.181235 z"
       id="path38" />
    <g
       inkscape:groupmode="layer"
       id="layer8"
       inkscape:label="Layer 1"
       style="display:inline">
      <path
         style="fill:#40aabf;fill-opacity:1;paint-order:stroke fill markers"
         d="m 633.83079,100.83672 13.41858,0.19733 4.34131,2.17065 -0.98666,5.72263 -0.39467,11.24793 -2.56531,10.45861 -4.34131,0.78933 -11.0506,-1.77599 -3.55198,-6.1173 -0.39466,-10.85327 z"
         id="path74" />
      <path
         style="display:inline;fill:#40aabf;fill-opacity:1;paint-order:stroke fill markers"
         d="m 684.34781,61.962287 c -0.78933,-1.973321 -2.36799,-5.130635 -2.36799,-5.130635 l -6.31462,-3.354646 -6.1173,-0.197332 -6.51196,3.354646 -6.90662,7.695953 -6.1173,8.287949 -3.55198,7.498621 9.47194,5.130635 8.87995,0.591996 c 0,0 11.83993,-5.525299 13.22125,-7.695952 1.38133,-2.170654 6.31463,-16.181235 6.31463,-16.181235 z"
         id="path75" />
    </g>
    <path
       style="display:inline;fill:#666666;fill-opacity:1;paint-order:stroke fill markers"
       d="m 725.86047,66.139535 -7.81396,23.162791 -9.76744,12.000004 -5.86046,10.88372 -14.23256,21.48837 -11.16279,2.23256 L 660,134.51163 l -9.48837,-2.23256 -9.76744,-7.53488 -2.7907,-9.20931 3.34884,-9.48837 6.97674,-4.74418 12,-2.232562 6.41861,-8.930233 -11.1628,-12.27907 0.55814,-3.906977 7.81396,-7.534883 12.27907,-6.139535 15.6279,-3.348837 16.74419,0.837209 12.55814,0.558139 z"
       id="path40" />
    <g
       inkscape:groupmode="layer"
       id="layer9"
       inkscape:label="Layer 2"
       style="display:inline">
      <path
         style="fill:#666666;fill-opacity:1;paint-order:stroke fill markers"
         d="m 725.86047,66.139535 -7.81396,23.162791 -9.76744,12.000004 -5.86046,10.88372 -14.23256,21.48837 -11.16279,2.23256 L 660,134.51163 l -9.48837,-2.23256 -9.76744,-7.53488 -2.7907,-9.20931 3.34884,-9.48837 6.97674,-4.74418 12,-2.232562 6.41861,-8.930233 -11.1628,-12.27907 0.55814,-3.906977 7.81396,-7.534883 12.27907,-6.139535 15.6279,-3.348837 16.74419,0.837209 12.55814,0.558139 z"
         id="path76" />
    </g>
    <path
       style="display:inline;fill:#262626;fill-opacity:1;paint-order:stroke fill markers"
       d="m 704.93023,107.72093 c -3.22558,0.32924 -6.18432,1.90375 -8.93023,3.62791 -3.03738,1.90718 -6.00294,4.10658 -7.95349,7.11628 -1.95268,3.01298 -2.74911,6.62526 -3.2093,10.18604 -0.31255,2.4184 -0.48601,4.88023 -0.11109,7.28975 0.37491,2.40952 1.33564,4.78151 3.04132,6.52421 1.61471,1.64976 3.8155,2.64938 6.08347,3.07983 2.26797,0.43045 4.6088,0.32184 6.89328,-0.0101 4.01148,-0.58283 7.97029,-1.87753 11.30232,-4.18604 3.38748,-2.34693 6.04242,-5.70423 7.67442,-9.48837 1.21061,-2.80704 1.87222,-5.87968 1.67442,-8.93024 -0.26866,-4.14331 -2.1653,-8.15022 -5.16279,-11.02325 -1.4966,-1.43446 -3.26258,-2.59671 -5.19831,-3.33861 -1.93574,-0.74189 -4.0417,-1.05794 -6.10402,-0.84744 z"
       id="path41"
       inkscape:path-effect="#path-effect41"
       inkscape:original-d="m 704.93023,107.72093 c -3.76744,-1.39535 -6.04651,2.46512 -8.93023,3.62791 -2.88372,1.16279 -5.30232,4.60465 -7.95349,7.11628 -2.65116,2.51162 -2.04651,6.88372 -3.2093,10.18604 -1.16279,3.30233 2.04651,9.20931 2.93023,13.81396 0.88372,4.60465 8.55814,2.04651 12.97675,3.06976 4.4186,1.02326 7.58139,-2.88372 11.30232,-4.18604 3.72093,-1.30233 5.06977,-6.23256 7.67442,-9.48837 2.60465,-3.25582 1.02326,-5.95349 1.67442,-8.93024 0.65116,-2.97674 -3.34884,-7.34883 -5.16279,-11.02325 -1.81395,-3.67442 -7.53488,-2.7907 -11.30233,-4.18605 z" />
    <path
       style="display:inline;fill:#262626;fill-opacity:1;paint-order:stroke fill markers"
       d="m 701.72093,71.581395 c -2.26739,1.94947 -3.9389,4.558304 -4.88372,7.395349 -0.6399,1.921474 -0.95505,3.960757 -0.82125,5.981557 0.13381,2.020801 0.72459,4.022004 1.79799,5.739374 1.13953,1.823178 2.79228,3.286871 4.61757,4.42301 1.82529,1.136139 3.82609,1.961002 5.84755,2.693269 2.95597,1.070789 6.09499,1.965486 9.2093,1.534883 2.68285,-0.370948 5.18281,-1.73133 7.11628,-3.627907 2.7741,-2.721176 4.35997,-6.406698 5.72093,-10.046511 1.37831,-3.686221 2.60951,-7.506607 2.65117,-11.441861 0.0208,-1.960923 -0.26321,-3.944709 -1.02862,-5.750199 -0.76541,-1.805491 -2.03432,-3.426368 -3.71557,-4.435847 -1.20475,-0.723374 -2.59161,-1.118391 -3.99176,-1.237889 -1.40015,-0.119499 -2.81478,0.03039 -4.18485,0.34279 -2.74015,0.624793 -5.28567,1.883326 -7.8699,2.988122 -3.63162,1.552573 -7.47029,2.866951 -10.46512,5.44186 z"
       id="path42"
       inkscape:path-effect="#path-effect42"
       inkscape:original-d="m 701.72093,71.581395 c -3.48837,1.813954 -3.25581,4.83721 -4.88372,7.395349 -1.62791,2.55814 0.65116,7.813954 0.97674,11.720931 0.32559,3.906976 6.97675,4.744186 10.46512,7.116279 3.48837,2.372096 6.23256,0.930232 9.2093,1.534883 2.97675,0.604652 4.65117,-2.372093 7.11628,-3.627907 2.46512,-1.255814 3.81396,-6.651162 5.72093,-10.046511 1.90698,-3.395349 1.72093,-7.674419 2.65117,-11.441861 0.93023,-3.767442 -3.11628,-6.744186 -4.74419,-10.186046 -1.62791,-3.441861 -11.06977,1.860465 -16.04651,2.093023 -4.97675,0.232558 -6.97675,3.627907 -10.46512,5.44186 z" />
    <g
       inkscape:groupmode="layer"
       id="layer10"
       inkscape:label="Layer 3"
       style="display:inline">
      <path
         style="fill:#262626;fill-opacity:1;paint-order:stroke fill markers"
         d="m 704.93023,107.72093 c -3.22558,0.32924 -6.18432,1.90375 -8.93023,3.62791 -3.03738,1.90718 -6.00294,4.10658 -7.95349,7.11628 -1.95268,3.01298 -2.74911,6.62526 -3.2093,10.18604 -0.31255,2.4184 -0.48601,4.88023 -0.11109,7.28975 0.37491,2.40952 1.33564,4.78151 3.04132,6.52421 1.61471,1.64976 3.8155,2.64938 6.08347,3.07983 2.26797,0.43045 4.6088,0.32184 6.89328,-0.0101 4.01148,-0.58283 7.97029,-1.87753 11.30232,-4.18604 3.38748,-2.34693 6.04242,-5.70423 7.67442,-9.48837 1.21061,-2.80704 1.87222,-5.87968 1.67442,-8.93024 -0.26866,-4.14331 -2.1653,-8.15022 -5.16279,-11.02325 -1.4966,-1.43446 -3.26258,-2.59671 -5.19831,-3.33861 -1.93574,-0.74189 -4.0417,-1.05794 -6.10402,-0.84744 z"
         id="path77"
         inkscape:path-effect="#path-effect41"
         inkscape:original-d="m 704.93023,107.72093 c -3.76744,-1.39535 -6.04651,2.46512 -8.93023,3.62791 -2.88372,1.16279 -5.30232,4.60465 -7.95349,7.11628 -2.65116,2.51162 -2.04651,6.88372 -3.2093,10.18604 -1.16279,3.30233 2.04651,9.20931 2.93023,13.81396 0.88372,4.60465 8.55814,2.04651 12.97675,3.06976 4.4186,1.02326 7.58139,-2.88372 11.30232,-4.18604 3.72093,-1.30233 5.06977,-6.23256 7.67442,-9.48837 2.60465,-3.25582 1.02326,-5.95349 1.67442,-8.93024 0.65116,-2.97674 -3.34884,-7.34883 -5.16279,-11.02325 -1.81395,-3.67442 -7.53488,-2.7907 -11.30233,-4.18605 z" />
      <path
         style="fill:#262626;fill-opacity:1;paint-order:stroke fill markers"
         d="m 701.72093,71.581395 c -2.26739,1.94947 -3.9389,4.558304 -4.88372,7.395349 -0.6399,1.921474 -0.95505,3.960757 -0.82125,5.981557 0.13381,2.020801 0.72459,4.022004 1.79799,5.739374 1.13953,1.823178 2.79228,3.286871 4.61757,4.42301 1.82529,1.136139 3.82609,1.961002 5.84755,2.693269 2.95597,1.070789 6.09499,1.965486 9.2093,1.534883 2.68285,-0.370948 5.18281,-1.73133 7.11628,-3.627907 2.7741,-2.721176 4.35997,-6.406698 5.72093,-10.046511 1.37831,-3.686221 2.60951,-7.506607 2.65117,-11.441861 0.0208,-1.960923 -0.26321,-3.944709 -1.02862,-5.750199 -0.76541,-1.805491 -2.03432,-3.426368 -3.71557,-4.435847 -1.20475,-0.723374 -2.59161,-1.118391 -3.99176,-1.237889 -1.40015,-0.119499 -2.81478,0.03039 -4.18485,0.34279 -2.74015,0.624793 -5.28567,1.883326 -7.8699,2.988122 -3.63162,1.552573 -7.47029,2.866951 -10.46512,5.44186 z"
         id="path78"
         inkscape:path-effect="#path-effect42"
         inkscape:original-d="m 701.72093,71.581395 c -3.48837,1.813954 -3.25581,4.83721 -4.88372,7.395349 -1.62791,2.55814 0.65116,7.813954 0.97674,11.720931 0.32559,3.906976 6.97675,4.744186 10.46512,7.116279 3.48837,2.372096 6.23256,0.930232 9.2093,1.534883 2.97675,0.604652 4.65117,-2.372093 7.11628,-3.627907 2.46512,-1.255814 3.81396,-6.651162 5.72093,-10.046511 1.90698,-3.395349 1.72093,-7.674419 2.65117,-11.441861 0.93023,-3.767442 -3.11628,-6.744186 -4.74419,-10.186046 -1.62791,-3.441861 -11.06977,1.860465 -16.04651,2.093023 -4.97675,0.232558 -6.97675,3.627907 -10.46512,5.44186 z" />
    </g>
    <path
       style="fill:#262626;fill-opacity:1;paint-order:stroke fill markers"
       d="m 535.55939,73.407551 7.89328,4.341306 5.32797,3.946643 1.57866,4.933303 1.57865,7.301289 6.7093,-5.327968 1.97332,-3.74931 1.77599,4.933303 -1.57866,5.525299 -3.94664,4.341307 -1.38133,1.381327 2.56532,5.72263 0.98666,5.32797 -1.38132,7.30129 -0.19734,0.59199 -3.94664,-8.28795 -3.35464,-3.74931 -1.97333,8.48528 -2.95998,8.48529 -3.15731,2.36798 -8.28795,2.56532 -15.39191,-7.69595 -5.72263,-21.31187 10.4586,-24.469188 z"
       id="path79" />
    <g
       inkscape:groupmode="layer"
       id="layer15"
       inkscape:label="Layer 7">
      <path
         style="fill:#262626;fill-opacity:1;paint-order:stroke fill markers"
         d="m 535.55939,73.407551 7.89328,4.341306 5.32797,3.946643 1.57866,4.933303 1.57865,7.301289 6.7093,-5.327968 1.97332,-3.74931 1.77599,4.933303 -1.57866,5.525299 -3.94664,4.341307 -1.38133,1.381327 2.56532,5.72263 0.98666,5.32797 -1.38132,7.30129 -0.19734,0.59199 -3.94664,-8.28795 -3.35464,-3.74931 -1.97333,8.48528 -2.95998,8.48529 -3.15731,2.36798 -8.28795,2.56532 -15.39191,-7.69595 -5.72263,-21.31187 10.4586,-24.469188 z"
         id="path80" />
    </g>
    <path
       style="fill:#40aabf;fill-opacity:1;paint-order:stroke fill markers"
       d="m 482.51163,72.27907 3.90698,-5.581396 6.13953,-1.116279 h 1.95349 l 1.67442,-12.279069 6.4186,-10.325582 L 507.90698,36 526.60465,47.162791 538.88372,61.395349 539.16279,71.72093 536.09302,84 l 1.11628,13.395349 0.55814,12.279071 1.39535,14.23256 -0.55814,10.32558 -4.74418,8.93023 -16.18605,6.69768 -16.46512,1.95348 h -3.6279 l -0.83721,-24.83721 -1.11628,-2.23255 -7.81396,0.83721 -1.95348,-13.11628 -3.62791,-18.418608 z"
       id="path46" />
    <g
       inkscape:groupmode="layer"
       id="layer14"
       inkscape:label="Layer 6">
      <path
         style="fill:#40aabf;fill-opacity:1;paint-order:stroke fill markers"
         d="m 482.51163,72.27907 3.90698,-5.581396 6.13953,-1.116279 h 1.95349 l 1.67442,-12.279069 6.4186,-10.325582 L 507.90698,36 526.60465,47.162791 538.88372,61.395349 539.16279,71.72093 536.09302,84 l 1.11628,13.395349 0.55814,12.279071 1.39535,14.23256 -0.55814,10.32558 -4.74418,8.93023 -16.18605,6.69768 -16.46512,1.95348 h -3.6279 l -0.83721,-24.83721 -1.11628,-2.23255 -7.81396,0.83721 -1.95348,-13.11628 -3.62791,-18.418608 z"
         id="path81" />
    </g>
    <path
       style="fill:#666666;fill-opacity:1;paint-order:stroke fill markers"
       d="m 447.06977,101.02326 -5.5814,3.34883 -9.48837,1.95349 -8.65116,3.62791 -3.34884,5.30232 -0.83721,6.69768 0.83721,6.4186 4.18605,6.41861 6.69767,4.18604 h 9.76744 l 19.81396,-7.25581 17.58139,-4.46512 11.72093,-1.11627 5.02326,-7.81396 4.18604,-11.44186 4.18605,-11.16279 -0.55814,-9.209302 -8.09302,-11.72093 -4.46512,-4.186047 -10.32558,-2.511628 -10.32558,-2.232558 -22.04651,-2.232558 h -13.11628 l -7.81395,1.953488 -6.13954,5.302326 -3.62791,9.767442 -0.83721,8.651163 5.86047,5.302325 7.53488,2.790698 14.23256,3.069771 z"
       id="path45" />
    <g
       inkscape:groupmode="layer"
       id="layer12"
       inkscape:label="Layer 5">
      <path
         style="fill:#666666;fill-opacity:1;paint-order:stroke fill markers"
         d="m 447.06977,101.02326 -5.5814,3.34883 -9.48837,1.95349 -8.65116,3.62791 -3.34884,5.30232 -0.83721,6.69768 0.83721,6.4186 4.18605,6.41861 6.69767,4.18604 h 9.76744 l 19.81396,-7.25581 17.58139,-4.46512 11.72093,-1.11627 5.02326,-7.81396 4.18604,-11.44186 4.18605,-11.16279 -0.55814,-9.209302 -8.09302,-11.72093 -4.46512,-4.186047 -10.32558,-2.511628 -10.32558,-2.232558 -22.04651,-2.232558 h -13.11628 l -7.81395,1.953488 -6.13954,5.302326 -3.62791,9.767442 -0.83721,8.651163 5.86047,5.302325 7.53488,2.790698 14.23256,3.069771 z"
         id="path82" />
    </g>
    <path
       style="fill:#262626;fill-opacity:1;paint-order:stroke fill markers"
       d="m 474.41861,68.930233 c -2.37473,-1.290232 -5.12784,-1.655526 -7.81396,-1.953489 -2.96916,-0.32936 -5.9575,-0.604104 -8.94065,-0.445226 -2.98315,0.158879 -5.97764,0.766015 -8.64074,2.119645 -2.98268,1.516072 -5.49285,3.977925 -6.97675,6.976744 -0.66243,1.338699 -1.12396,2.786826 -1.25463,4.274727 -0.13068,1.4879 0.0777,3.017017 0.69649,4.376436 0.8354,1.835292 2.37962,3.281745 4.12425,4.292911 1.74464,1.011166 3.69088,1.621021 5.64319,2.125694 5.83244,1.50769 12.04565,2.132412 17.86047,0.558139 3.32271,-0.899572 6.54028,-2.583173 8.65116,-5.302326 2.01624,-2.597246 2.8786,-6.070016 2.26068,-9.299427 -0.61792,-3.22941 -2.7204,-6.154125 -5.60951,-7.723828 z"
       id="path43"
       inkscape:path-effect="#path-effect43"
       inkscape:original-d="m 474.41861,68.930233 c -1.11628,-5.674419 -5.30233,-1.302326 -7.81396,-1.953489 -2.51163,-0.651163 -11.62791,1.116279 -17.58139,1.674419 -5.95349,0.558139 -4.65117,4.651163 -6.97675,6.976744 -2.32558,2.325581 -0.18604,5.767442 -0.55814,8.651163 -0.37209,2.883721 6.41861,4.27907 9.76744,6.418605 3.34884,2.139534 11.81396,0.372093 17.86047,0.558139 6.04651,0.186047 5.76744,-3.534884 8.65116,-5.302326 2.88372,-1.767441 -2.23256,-11.348837 -3.34883,-17.023255 z" />
    <path
       style="fill:#262626;fill-opacity:1;paint-order:stroke fill markers"
       d="m 478.04651,108.83721 c -5.19021,-3.22586 -11.49818,-4.48927 -17.58139,-3.90698 -4.35519,0.41688 -8.74273,1.82329 -12,4.74419 -1.18628,1.06378 -2.21096,2.32201 -2.91712,3.75038 -0.70615,1.42837 -1.08608,3.03123 -0.98986,4.62171 0.14828,2.45116 1.41959,4.73813 3.14055,6.48984 1.72095,1.75171 3.8699,3.02154 6.06875,4.11481 3.47715,1.72884 7.29106,3.0894 11.16279,2.7907 4.49397,-0.3467 8.49052,-2.86043 12.27907,-5.30232 1.45525,-0.93797 2.92181,-1.88507 4.15573,-3.09957 1.23391,-1.2145 2.23401,-2.73158 2.54195,-4.43532 0.35906,-1.98658 -0.26488,-4.06723 -1.40014,-5.73655 -1.13525,-1.66931 -2.74575,-2.96523 -4.46033,-4.03089 z"
       id="path44"
       inkscape:path-effect="#path-effect44"
       inkscape:original-d="m 478.04651,108.83721 c -1.95349,-3.25581 -11.72093,-2.51163 -17.58139,-3.90698 -5.86047,-1.39535 -7.81396,3.25582 -12,4.74419 -4.18605,1.48837 -2.51163,5.39535 -3.90698,8.37209 -1.39535,2.97675 6.13953,7.06977 9.2093,10.60465 3.06977,3.53489 7.25582,1.86047 11.16279,2.7907 3.90698,0.93023 8.18605,-3.53488 12.27907,-5.30232 4.09303,-1.76745 4.46512,-5.02326 6.69768,-7.53489 2.23256,-2.51163 -3.90698,-6.51163 -5.86047,-9.76744 z" />
    <g
       inkscape:groupmode="layer"
       id="layer11"
       inkscape:label="Layer 4">
      <path
         style="display:inline;fill:#404040;fill-opacity:1;paint-order:stroke fill markers"
         d="m 465.50648,104.48736 c -9.8666,-0.78933 -12.43192,0.592 -12.43192,0.592 l -7.99195,5.2293 -1.28266,5.5253 -0.39466,4.24264 c 0,0 1.38132,3.74931 2.56531,4.24264 1.184,0.49333 3.55198,1.87465 7.20263,2.17065 3.65064,0.296 15.29324,-1.97332 16.97056,-2.66398 1.67732,-0.69066 10.85327,-12.13593 10.85327,-12.13593 0,0 -0.592,-2.36798 -1.57866,-3.15731 -0.98666,-0.78933 -13.91192,-4.04531 -13.91192,-4.04531 z"
         id="path96" />
      <path
         style="display:inline;fill:#404040;fill-opacity:1;paint-order:stroke fill markers"
         d="m 453.17323,92.252769 c -0.78933,-0.197333 -7.39996,-1.578657 -7.79462,-1.77599 -0.39467,-0.197332 -4.34131,-2.269319 -4.93331,-2.762649 -0.59199,-0.493331 -3.35464,-3.354646 -2.95998,-4.538639 0.39467,-1.183993 -1.18399,-5.229301 1.08533,-6.807958 2.26932,-1.578657 4.83464,-2.367986 6.41329,-2.861316 1.57866,-0.493331 14.40525,-1.775989 14.40525,-1.775989 l 10.06394,3.551978 1.47999,8.682613 c 0,0 -3.05865,6.906625 -4.73597,7.202623 -1.67733,0.295998 -13.02392,1.085327 -13.02392,1.085327 z"
         id="path95" />
      <path
         style="fill:#404040;fill-opacity:1;paint-order:stroke fill markers"
         d="m 445.32558,88.046512 c 0,0 2.30233,2.372093 2.93023,2.930232 0.62791,0.55814 6.90698,1.953489 6.90698,1.953489 l 8.72093,-0.06977 c 0,0 7.46512,-1.395349 8.16279,-1.674418 0.69768,-0.27907 7.39535,-3.55814 7.39535,-3.55814 l 0.90698,-6.906977 c 0,0 -3.90698,-4.046511 -6.2093,-4.046511 -2.30233,0 -22.04652,0.837209 -22.04652,0.837209 z"
         id="path94" />
      <path
         style="fill:#262626;fill-opacity:1;paint-order:stroke fill markers"
         d="m 474.41861,68.930233 c -2.37473,-1.290232 -5.12784,-1.655526 -7.81396,-1.953489 -2.96916,-0.32936 -5.9575,-0.604104 -8.94065,-0.445226 -2.98315,0.158879 -5.97764,0.766015 -8.64074,2.119645 -2.98268,1.516072 -5.49285,3.977925 -6.97675,6.976744 -0.66243,1.338699 -1.12396,2.786826 -1.25463,4.274727 -0.13068,1.4879 0.0777,3.017017 0.69649,4.376436 0.8354,1.835292 2.37962,3.281745 4.12425,4.292911 1.74464,1.011166 3.69088,1.621021 5.64319,2.125694 5.83244,1.50769 12.04565,2.132412 17.86047,0.558139 3.32271,-0.899572 6.54028,-2.583173 8.65116,-5.302326 2.01624,-2.597246 2.8786,-6.070016 2.26068,-9.299427 -0.61792,-3.22941 -2.7204,-6.154125 -5.60951,-7.723828 z"
         id="path83"
         inkscape:path-effect="#path-effect43"
         inkscape:original-d="m 474.41861,68.930233 c -1.11628,-5.674419 -5.30233,-1.302326 -7.81396,-1.953489 -2.51163,-0.651163 -11.62791,1.116279 -17.58139,1.674419 -5.95349,0.558139 -4.65117,4.651163 -6.97675,6.976744 -2.32558,2.325581 -0.18604,5.767442 -0.55814,8.651163 -0.37209,2.883721 6.41861,4.27907 9.76744,6.418605 3.34884,2.139534 11.81396,0.372093 17.86047,0.558139 6.04651,0.186047 5.76744,-3.534884 8.65116,-5.302326 2.88372,-1.767441 -2.23256,-11.348837 -3.34883,-17.023255 z" />
      <path
         style="fill:#262626;fill-opacity:1;paint-order:stroke fill markers"
         d="m 478.04651,108.83721 c -5.19021,-3.22586 -11.49818,-4.48927 -17.58139,-3.90698 -4.35519,0.41688 -8.74273,1.82329 -12,4.74419 -1.18628,1.06378 -2.21096,2.32201 -2.91712,3.75038 -0.70615,1.42837 -1.08608,3.03123 -0.98986,4.62171 0.14828,2.45116 1.41959,4.73813 3.14055,6.48984 1.72095,1.75171 3.8699,3.02154 6.06875,4.11481 3.47715,1.72884 7.29106,3.0894 11.16279,2.7907 4.49397,-0.3467 8.49052,-2.86043 12.27907,-5.30232 1.45525,-0.93797 2.92181,-1.88507 4.15573,-3.09957 1.23391,-1.2145 2.23401,-2.73158 2.54195,-4.43532 0.35906,-1.98658 -0.26488,-4.06723 -1.40014,-5.73655 -1.13525,-1.66931 -2.74575,-2.96523 -4.46033,-4.03089 z"
         id="path84"
         inkscape:path-effect="#path-effect44"
         inkscape:original-d="m 478.04651,108.83721 c -1.95349,-3.25581 -11.72093,-2.51163 -17.58139,-3.90698 -5.86047,-1.39535 -7.81396,3.25582 -12,4.74419 -4.18605,1.48837 -2.51163,5.39535 -3.90698,8.37209 -1.39535,2.97675 6.13953,7.06977 9.2093,10.60465 3.06977,3.53489 7.25582,1.86047 11.16279,2.7907 3.90698,0.93023 8.18605,-3.53488 12.27907,-5.30232 4.09303,-1.76745 4.46512,-5.02326 6.69768,-7.53489 2.23256,-2.51163 -3.90698,-6.51163 -5.86047,-9.76744 z" />
      <path
         style="fill:#404040;fill-opacity:1;paint-order:stroke fill markers"
         d="m 468.27907,99.069768 c -23.44186,0.418604 -16.74419,2.372092 -16.74419,2.372092 l 17.5814,0.83721 z"
         id="path97" />
      <path
         style="fill:#404040;fill-opacity:1;paint-order:stroke fill markers"
         d="m 470.30233,96.627907 -1.04652,7.674423 -1.11627,-2.72093 v -3.627911 z"
         id="path98" />
    </g>
  </g>
  <g
     inkscape:groupmode="layer"
     id="layer17"
     inkscape:label="Layer 9">
    <path
       style="fill:#404040;fill-opacity:1;paint-order:stroke fill markers"
       d="m 246.97674,96 0.97675,9.06977 -0.55814,3.76744 -31.67442,7.25581 -7.67442,5.30233 2.51163,-6.27907 3.06977,-2.93023 c 0,0 10.04651,-1.39535 11.44186,-1.81396 1.39535,-0.4186 9.6279,-2.79069 9.6279,-2.79069 l 8.09303,-2.23256 4.88372,-2.65117 -0.55814,-2.65116 -7.81395,-3.209301 -15.48838,-0.418604 -7.95348,-0.55814 -7.81396,-2.511628 -2.09302,-2.790697 0.69767,-1.116279 L 215.44186,90 c 0,0 9.06977,0.55814 11.30233,0.837209 2.23255,0.27907 13.11628,1.255814 13.11628,1.255814 z"
       id="path85" />
    <path
       style="fill:#404040;fill-opacity:1;paint-order:stroke fill markers"
       d="m 470.09302,100.46512 -31.95348,4.32558"
       id="path91" />
    <path
       style="fill:#404040;fill-opacity:1;paint-order:stroke fill markers"
       d="m 440.86047,104.51163 11.02325,-2.16279 17.37209,-1.81396 -30.34883,-1.116275 8.02325,1.604655 z"
       id="path92" />
    <path
       style="fill:#404040;fill-opacity:1;paint-order:stroke fill markers"
       d="m 468.56513,98.024733 0.49333,5.278637 -0.93733,-2.17066 z"
       id="path93" />
    <path
       style="fill:#404040;fill-opacity:1;paint-order:stroke fill markers"
       d="m 660.41861,99.209302 21.6279,2.372098 3.06977,-6.139539 -18.27907,-5.302326 z"
       id="path99" />
    <path
       style="fill:#404040;fill-opacity:1;paint-order:stroke fill markers"
       d="m 695.69441,111.54198 -3.50265,1.97333 -2.86131,2.56531 -2.31866,2.91065 -1.67732,4.19331 -1.08532,4.14397 -0.0493,4.29198 0.0493,2.56532 0.14799,0.24666 -3.25598,0.74 c 0,0 -1.52932,-4.09465 -1.52932,-4.68664 0,-0.592 -0.0493,-4.78531 0.39466,-5.8213 0.444,-1.03599 0.98666,-5.62397 2.56532,-7.99195 1.57866,-2.36799 6.06796,-7.64662 6.46263,-7.74529 0.39466,-0.0987 7.64662,-1.72665 7.64662,-1.72665 l 1.03599,2.07198 z"
       id="path100" />
    <path
       style="fill:#404040;fill-opacity:1;paint-order:stroke fill markers"
       d="m 695.96574,110.55532 c 0.91266,-0.17266 3.79864,-1.62799 3.79864,-1.62799 l 2.95999,-0.91266 2.21998,-0.51799 0.19733,-0.39467 c 0,0 -1.38132,-0.0247 -1.47999,-0.0247 -0.0987,0 -3.08331,-0.34533 -3.45331,-0.34533 -0.37,0 -3.00931,0.32067 -3.00931,0.32067 l -1.47999,0.51799 -1.35666,2.29399 z"
       id="path101" />
    <path
       style="fill:#404040;fill-opacity:1;paint-order:stroke fill markers"
       d="m 897.26917,90.476779 -15.49057,0.295999 0.296,7.794619 4.43997,7.301293 11.24793,-3.15732 z"
       id="path102" />
    <path
       style="fill:#404040;fill-opacity:1;paint-order:stroke fill markers"
       d="m 710.16279,98.72093 c -0.27907,-0.139534 -4.53488,-1.813953 -4.95349,-1.813953 -0.4186,0 -5.16279,-3.069767 -5.16279,-3.069767 l -3.69767,-4.883721 -0.76744,-5.093024 1.11628,-6.697674 1.88372,-3.139535 6.6279,-5.651163 8.51163,-3.558139 6.97675,-2.232559 3.13953,0.06977 -1.88372,-2.860465 -12.48837,2.372093 -11.02326,5.44186 c 0,0 -4.81395,7.186047 -4.81395,7.534884 0,0.348837 -0.69768,10.744186 -0.69768,10.744186 0,0 2.7907,7.116279 3.13954,7.674419 0.34884,0.558139 12.06977,6.418604 12.06977,6.418604 0,0 1.04651,0.627904 1.11628,0.348834 0.0698,-0.27907 0.90697,-1.604648 0.90697,-1.604648 z"
       id="path103" />
    <path
       style="fill:#338799;fill-opacity:1;paint-order:stroke fill markers"
       d="m 854.4481,108.53267 -8.48528,17.16789 1.18399,-63.935605 7.69596,15.589238 z"
       id="path104" />
    <path
       style="fill:#338799;fill-opacity:1;paint-order:stroke fill markers"
       d="m 846.55482,78.340854 -5.5253,1.578657 2.36798,14.405245 -2.95998,13.023924 1.18399,4.9333 5.5253,1.18399 4.53864,-11.83993 z"
       id="path105" />
  </g>
</svg>
