<?xml version="1.0" encoding="UTF-8" standalone="no"?>
<!-- Created with Inkscape (http://www.inkscape.org/) -->

<svg
   version="1.1"
   id="svg1"
   width="768"
   height="192"
   viewBox="0 0 768 192"
   sodipodi:docname="Throw.svg"
   inkscape:version="1.4 (86a8ad7, 2024-10-11)"
   xmlns:inkscape="http://www.inkscape.org/namespaces/inkscape"
   xmlns:sodipodi="http://sodipodi.sourceforge.net/DTD/sodipodi-0.dtd"
   xmlns="http://www.w3.org/2000/svg"
   xmlns:svg="http://www.w3.org/2000/svg">
  <defs
     id="defs1" />
  <sodipodi:namedview
     id="namedview1"
     pagecolor="#ffffff"
     bordercolor="#000000"
     borderopacity="0.25"
     inkscape:showpageshadow="2"
     inkscape:pageopacity="0.0"
     inkscape:pagecheckerboard="0"
     inkscape:deskcolor="#d1d1d1"
     inkscape:zoom="1.1686198"
     inkscape:cx="370.52256"
     inkscape:cy="52.626184"
     inkscape:window-width="1920"
     inkscape:window-height="991"
     inkscape:window-x="-9"
     inkscape:window-y="-9"
     inkscape:window-maximized="1"
     inkscape:current-layer="svg1" />
  <g
     inkscape:groupmode="layer"
     id="layer1"
     inkscape:label="Image 1"
     style="display:inline">
    <path
       style="display:inline;fill:#40abbf;fill-opacity:0.996078;paint-order:stroke fill markers"
       d="m 121.18589,73.951945 c -0.25211,20.723941 -1.22907,59.467875 -1.22907,59.467875 l 8.77364,6.20206 4.9919,5.14317 5.29444,6.35332 1.05889,8.62237 -5.29444,6.20206 -11.04268,1.81523 h -10.43761 l -11.49649,-1.05889 -7.260945,-2.72285 -7.563482,-6.35332 -4.386819,-11.4965 -1.512697,-8.31983 -0.756348,-10.89141 v -13.76554 l 1.210157,-17.093468 -1.361427,-21.32902 1.512697,-12.252841 4.991898,-12.706649 6.655864,-4.689359 6.655864,-3.630472 10.588878,-1.663966 h 7.10967 l 7.56348,1.058888 6.20206,1.058887 3.93301,2.269045 2.26904,3.479202 0.75635,7.563482 -7.56348,10.740144"
       id="path1"
       sodipodi:nodetypes="cccccccccccccccccccccccccccccc" />
    <path
       style="display:inline;fill:#dfbf9f;fill-opacity:0.996078;paint-order:stroke fill markers"
       d="m 315.3972,133.41982 4.68936,-3.4792 5.74825,-4.23555 6.05078,0.15127 5.74825,3.4792 0.45381,5.29444 -4.53809,9.37872 -4.9919,5.89951 -8.16856,6.80714 -4.53809,0.60508 -6.05079,-6.05079 v -10.13507 z"
       id="path2" />
    <path
       style="display:inline;fill:#dfbf9f;fill-opacity:0.996078;paint-order:stroke fill markers"
       d="m 316.75863,50.37279 c 1.05888,0.605079 6.05078,3.933011 6.05078,3.933011 l 5.59698,4.538089 3.63047,4.38682 3.32793,6.504594 -1.81523,5.596977 -6.80714,3.781741 -6.9584,-0.15127 -8.31983,-3.479202 -5.14317,-15.278233 z"
       id="path3" />
  </g>
  <g
     inkscape:groupmode="layer"
     id="layer2"
     inkscape:label="Image 2"
     style="display:inline">
    <path
       style="display:inline;fill:#ecd9c6;fill-opacity:1;paint-order:stroke fill markers"
       d="m 331.58305,60.810395 h 4.84063 l 4.9919,6.050786 5.44571,5.899516 3.4792,2.722853 2.42031,4.689359 1.21016,7.260943 -3.4792,8.773639 -8.4711,3.781741 -10.28634,-3.781741 -8.01729,-6.958403 -4.23555,-10.891414 3.93301,-11.950302 z"
       id="path4" />
    <path
       style="fill:#ecd9c6;fill-opacity:1;paint-order:stroke fill markers"
       d="m 320.54037,132.96601 2.72285,-13.76553 6.5046,-6.65587 12.10157,-4.84063 7.41221,2.26905 3.63047,4.38682 1.66397,4.38682 0.15127,5.29443 -0.45381,6.20206 -5.44571,3.4792 -6.80713,5.89952 -2.72286,5.14317 -1.36142,2.42031 -5.59698,0.45381 c 0,0 -3.78174,-2.11778 -4.38682,-2.42032 -0.60508,-0.30253 -7.56348,-8.4711 -7.56348,-8.4711 z"
       id="path5" />
    <path
       style="fill:#e6ccb1;fill-opacity:0.634483;paint-order:stroke fill markers"
       d="m 325.53227,89.702897 8.31983,-1.815236 7.26094,-8.4711 3.63047,-2.722853 -7.10967,9.076178 -2.57159,4.538089 -2.57158,1.815236 v 4.386819 z"
       id="path6" />
    <path
       style="fill:#e6ccb1;fill-opacity:0.634483;paint-order:stroke fill markers"
       d="m 324.17084,118.74667 5.14317,-1.05889 4.23555,0.90762 5.89951,6.20205 c 0,0 6.05079,7.86602 5.59698,6.20206 -0.45381,-1.66397 -2.42031,-4.38682 -2.42031,-4.38682 l 5.59697,-3.63047 -6.35332,2.57158 -3.0254,-3.4792 4.84063,-5.29444 -5.89951,4.08428 -2.72286,-2.57158 2.26905,-5.14317 -3.4792,3.4792 -6.65587,0.15127 z"
       id="path7" />
  </g>
  <g
     inkscape:groupmode="layer"
     id="layer3"
     inkscape:label="Layer 1"
     style="display:inline">
    <path
       style="fill:#ecd9c6;fill-opacity:1;paint-order:stroke fill markers"
       d="m 503.79944,73.805014 28.02452,2.353203 c 0,0 10.9103,5.34819 11.76601,5.776045 0.85571,0.427855 6.2039,2.567131 6.2039,2.567131 0,0 5.13426,0.641783 5.98997,0.427855 0.85571,-0.213928 4.92034,-7.273538 4.92034,-7.273538 l 1.71142,-6.845682 -1.92535,-3.422841 -6.41783,-2.353204 -19.03955,-2.139275 -8.77103,-2.994987 -12.83566,-5.776044 -8.98495,-2.139276 -5.34819,0.641783 -4.27856,1.283565 -3.85069,3.850697 v 4.706406 l 2.56713,4.49248 z"
       id="path8" />
    <path
       style="fill:#ecd9c6;fill-opacity:1;paint-order:stroke fill markers"
       d="m 499.52089,134.56045 c 2.78106,0 18.82563,-3.8507 18.82563,-3.8507 l 10.69638,-1.06964 4.7064,-1.06964 14.11922,-6.84568 c 0,0 5.56212,-1.06964 6.41783,-1.06964 0.85571,0 4.27855,5.13427 4.27855,5.13427 l 3.8507,8.12924 0.42785,4.49248 -1.06963,3.42284 -3.8507,-1.06963 c 0,0 -3.20891,-0.85571 -5.13426,-0.85571 -1.92535,0 -10.69638,0.85571 -10.69638,0.85571 l -6.84568,0.64178 -22.4624,10.26852 -8.98496,1.49749 c 0,0 -9.41281,-1.92534 -9.62674,-2.99498 -0.21393,-1.06964 1.4975,-12.83566 1.4975,-12.83566 z"
       id="path9" />
    <path
       style="fill:#ecd9c6;fill-opacity:1;paint-order:stroke fill markers"
       d="m 668.95153,134.13259 10.69638,-12.83565 h -3.8507 l 1.71143,-6.63176 11.33816,-2.13927 4.27855,2.78105 -1.92535,7.91532 -6.84568,11.12424 -7.91532,13.26351 c 0,0 -8.12925,0.42785 -8.55711,-0.64178 -0.42785,-1.06964 1.06964,-12.83566 1.06964,-12.83566 z"
       id="path10" />
    <path
       style="fill:#ecd9c6;fill-opacity:1;paint-order:stroke fill markers"
       d="m 671.94652,75.088579 6.84568,9.198886 v 3.850697 l 0.85571,5.348189 4.06463,0.641783 c 0,0 6.41782,1.069638 6.84568,-0.213928 0.42785,-1.283565 2.78106,-4.920334 2.78106,-4.920334 l -3.42285,-7.91532 -4.27855,-5.776045 -5.34819,-10.482451 -3.63676,-7.273538 -6.84569,0.85571 c 0,0 -5.77604,9.626741 -4.7064,11.338162 1.06963,1.711421 6.84568,5.348189 6.84568,5.348189 z"
       id="path11" />
  </g>
  <g
     inkscape:groupmode="layer"
     id="layer4"
     inkscape:label="Layer 2"
     style="display:inline">
    <path
       style="fill:#262626;fill-opacity:1;paint-order:stroke fill markers"
       d="m 63.07944,119.65429 3.630471,-4.765 2.874124,-1.51269 4.159915,9.22744 3.93301,4.9919 c 0,0 7.034039,4.91626 7.336578,4.91626 0.302539,0 11.345223,1.81524 11.345223,1.81524 0,0 8.395469,-1.28579 8.924909,-1.43706 0.52944,-0.15127 9.22745,-2.72285 9.22745,-2.72285 l 3.32793,-2.49595 -11.11832,0.0756 6.7315,-3.7061 c 0,0 7.10967,-3.0254 7.48785,-3.0254 0.37817,0 5.2188,0.0756 5.2188,0.0756 l 2.34468,0.52944 -5.29444,-5.2188 c 0,0 4.46246,-3.02539 4.765,-3.02539 0.30253,0 4.68935,-2.87413 4.68935,-2.87413 l -7.10967,-4.68936 -2.34468,-2.04214 8.84928,-5.218799 1.13452,-1.134523 -8.2442,-4.462454 -2.57158,-0.453809 6.9584,-5.899516 -10.58887,-1.512696 -8.16856,-3.403567 6.05078,-0.907618 2.19341,-0.453809 c 0,0 -9.52998,-4.462454 -10.2107,-4.916263 -0.68071,-0.453809 -11.420856,-3.554837 -11.723395,-3.554837 -0.30254,0 -15.505139,5.596977 -15.505139,5.596977 l -7.336577,7.563482 -3.025393,6.27769 -0.756348,3.025393 -4.991898,-2.647219 -2.798489,-5.294437 -1.588331,4.613724 0.15127,4.538089 1.739601,4.462454 3.93301,2.949758 1.210157,1.36143 -4.159915,2.57158 -2.420314,4.00865 -0.680713,4.76499 0.831983,2.42031 0.907618,2.57159 z"
       id="path12" />
  </g>
  <g
     inkscape:groupmode="layer"
     id="layer6"
     inkscape:label="Layer 4"
     style="display:inline">
    <path
       style="fill:#338999;fill-opacity:1;paint-order:stroke fill markers"
       d="m 287.10978,163.97629 26.16964,-0.90762 h 3.0254 l 3.17666,-4.53809 0.15127,-14.97569 -1.05889,-13.16046 -11.64776,-6.35333 -11.34522,-4.08428 -10.89142,7.86603 c 0,0 -4.68936,15.27823 -4.53809,17.24473 0.15127,1.96651 5.74825,18.90871 6.95841,18.90871 z"
       id="path14" />
    <path
       style="fill:#338999;fill-opacity:1;paint-order:stroke fill markers"
       d="m 302.23674,86.072425 c 0.75635,-0.756348 6.9584,-4.23555 9.9838,-5.143167 3.02539,-0.907618 5.89951,-2.117775 5.89951,-2.117775 l -0.45381,-12.252841 c 0,0 0.90762,-8.62237 0.90762,-9.529988 0,-0.907617 0.30254,-8.924908 0.30254,-8.924908 l -4.08428,-3.630472 c 0,0 -14.37061,0 -15.27823,0 -0.90762,0 -9.9838,0.453809 -9.9838,0.453809 l -6.50459,11.042684 3.4792,19.059975 c 0,0 5.74824,9.227448 7.10967,9.832526 1.36143,0.605079 8.62237,1.210157 8.62237,1.210157 z"
       id="path15" />
    <path
       style="fill:#338999;fill-opacity:1;paint-order:stroke fill markers"
       d="m 478.61714,125.40253 c 0,0 18.75744,-1.05889 19.66505,-1.05889 0.90762,0 8.92491,-0.30254 8.92491,-0.30254 l 1.96651,9.68126 0.30254,9.83253 -2.87412,9.07618 -7.10968,8.77364 -23.9006,0.60507 c 0,0 -5.14317,-9.22744 -4.9919,-11.64776 0.15127,-2.42031 8.01729,-24.95949 8.01729,-24.95949 z"
       id="path16" />
    <path
       style="fill:#338999;fill-opacity:1;paint-order:stroke fill markers"
       d="m 480.43238,82.593224 c 0.60508,-0.15127 14.21934,-0.15127 15.12696,-0.15127 0.90762,0 9.83253,-0.302539 9.83253,-0.302539 0,0 2.11777,1.058887 2.11777,0.151269 0,-0.907618 1.96651,-15.429503 1.96651,-15.429503 l -3.17666,-13.765537 -8.0173,-9.378718 -26.32091,-0.605079 2.26904,9.983797 z"
       id="path17" />
    <path
       style="fill:#338999;fill-opacity:1;paint-order:stroke fill markers"
       d="m 665.43515,128.12539 c 4.53809,0.75634 7.86602,3.32793 7.86602,3.32793 0,0 2.87412,4.38682 2.87412,10.74014 0,6.35333 2.57159,8.01729 -2.11777,12.70665 -4.68936,4.68936 -1.81524,4.23555 -8.4711,5.59698 -6.65587,1.36143 -6.80714,0.75635 -6.80714,0.75635 0,0 0.15127,-15.73205 0.15127,-17.09347 0,-1.36143 6.5046,-16.03458 6.5046,-16.03458 z"
       id="path18" />
    <path
       style="fill:#338999;fill-opacity:1;paint-order:stroke fill markers"
       d="m 663.92245,84.710999 c 0,0 8.01729,-7.563482 8.31983,-8.168561 0.30254,-0.605079 3.02539,-6.050786 3.02539,-6.050786 0,0 1.36143,-7.714751 1.21016,-9.076178 -0.15127,-1.361427 -1.9665,-8.62237 -1.9665,-8.62237 l -11.79904,-6.807133 -14.37061,5.445707 c 0,0 3.78174,15.732042 4.68936,16.63966 0.90761,0.907618 10.89141,16.639661 10.89141,16.639661 z"
       id="path19" />
  </g>
  <g
     inkscape:groupmode="layer"
     id="layer5"
     inkscape:label="Layer 3"
     style="display:inline">
    <path
       style="fill:#40abbf;fill-opacity:1;paint-order:stroke fill markers"
       d="m 282.91922,165.15209 7.91532,-0.42786 8.66407,-3.74373 4.38551,-8.5571 0.21393,-9.09192 -0.32089,-17.64903 0.21393,-9.09192 -0.21393,-38.186073 0.64178,-8.022284 -0.53482,-10.696379 -0.85571,-5.883008 -2.99498,-4.171588 -5.66908,-5.455153 -8.02229,-1.283566 -8.98496,0.85571 -5.02729,4.49248 -4.17159,6.845682 -2.46017,5.883008 -2.24624,8.557103 0.21393,7.701393 v 10.803343 l 0.53482,13.477442 0.85571,14.761 -0.85571,13.79833 -0.21393,7.05961 2.46017,13.79833 5.02729,8.5571 5.34819,3.42284 z"
       id="path13" />
    <path
       style="fill:#40abbf;fill-opacity:1;paint-order:stroke fill markers"
       d="m 446.69925,120.71317 c 0,0 -0.90762,10.28634 -0.45381,12.25284 0.45381,1.96651 0.15127,7.26095 0.15127,7.26095 l 1.9665,8.92491 c 0,0 5.74825,9.52998 6.80714,9.98379 1.05888,0.45381 6.05078,4.23555 6.05078,4.23555 0,0 7.86602,1.36143 9.52999,0.90762 1.66397,-0.45381 4.84063,-1.96651 6.9584,-3.02539 2.11778,-1.05889 4.23555,-2.87413 4.9919,-3.78174 0.75635,-0.90762 2.72286,-4.68936 2.87413,-5.29444 0.15126,-0.60508 1.05888,-13.76554 1.05888,-13.76554 0,0 -1.36142,-18.9087 -1.36142,-19.81632 0,-0.90762 -1.96651,-17.39601 -1.96651,-17.39601 l 1.81524,-19.362515 1.66396,-18.454896 c 0,0 -1.21015,-11.345223 -1.66396,-12.101571 -0.45381,-0.756348 -7.41222,-6.655864 -7.41222,-6.655864 l -13.00919,-2.722854 -11.34522,4.991898 -6.65586,14.824425 c 0,0 -1.36143,11.193954 -1.21016,12.101571 0.15127,0.907618 0.75635,14.521886 0.75635,15.126964 0,0.605079 1.81523,13.009192 2.11777,14.219342 0.30254,1.21016 -1.66396,17.54728 -1.66396,17.54728 z"
       id="path20" />
    <path
       style="fill:#40abbf;fill-opacity:1;paint-order:stroke fill markers"
       d="m 637.50418,48.989415 -4.27855,7.273538 -2.99499,9.198885 -1.06964,10.910307 0.42786,10.268524 1.28356,18.397771 0.64179,15.61671 -1.71142,14.11922 c 0,0 1.71142,11.55209 1.92534,12.62173 0.21393,1.06964 3.63677,10.26852 5.34819,11.76602 1.71142,1.49749 10.26853,5.77604 10.26853,5.77604 l 11.12423,-1.06964 7.27354,-5.13426 3.42284,-5.77604 1.06964,-7.27354 c 0,0 0,-15.61671 -0.64178,-20.10919 -0.64179,-4.49248 -1.28357,-10.48245 -1.28357,-10.48245 l -0.64178,-17.11421 1.92535,-19.895264 0.64178,-14.547076 -0.42786,-8.557103 -5.34819,-8.984958 -15.61671,-3.850696 z"
       id="path21" />
  </g>
  <g
     inkscape:groupmode="layer"
     id="layer7"
     inkscape:label="Layer 5">
    <path
       style="fill:#262626;fill-opacity:1;paint-order:stroke fill markers"
       d="m 253.71811,113.91643 3.31587,7.48747 c 0,0 3.95766,5.13426 5.56212,6.09694 1.60446,0.96267 11.65905,5.02729 12.19387,5.24122 0.53482,0.21393 12.62173,1.06964 12.62173,1.06964 l 11.44512,-4.49248 3.63677,-1.49749 -8.5571,-1.1766 10.91031,-4.38552 7.80835,-0.42785 -5.77604,-6.09694 8.12925,-5.0273 1.1766,-1.60446 c 0,0 -7.59443,-4.17158 -8.02229,-4.59944 -0.42785,-0.42785 7.27354,-5.776043 7.27354,-5.776043 l 2.24624,-1.176602 -10.37549,-5.241226 5.0273,-4.81337 1.4975,-2.032312 -6.95265,0.641783 -11.44513,-4.492479 3.31588,-1.283566 h 2.88802 c 0,0 -6.31086,-4.278551 -7.48746,-4.599443 -1.1766,-0.320891 -6.63176,-1.925348 -7.59443,-1.925348 -0.96267,0 -12.62173,0.85571 -12.62173,0.85571 l -14.33315,7.166574 -4.92033,9.519777 -0.42785,3.636769 -7.38051,-6.952646 -2.3532,-2.674095 c 0,0 0,5.027298 0.10696,5.562117 0.10697,0.534819 1.4975,5.883009 1.4975,5.883009 l 2.24624,4.064621 2.24624,2.24624 -2.88803,4.70641 c 0,0 -1.49749,4.06462 -1.60445,5.24122 -0.10697,1.17661 -0.21393,2.35321 -0.21393,3.20892 0,0.85571 0.42785,3.63677 0.42785,3.63677 l 0.96268,1.28356 3.42284,-6.2039 z"
       id="path22" />
    <path
       style="fill:#262626;fill-opacity:1;paint-order:stroke fill markers"
       d="m 435.55655,113.16769 c 0.42785,0.53482 2.24624,5.34819 2.24624,5.34819 0,0 2.46016,4.06462 2.99498,4.7064 0.53482,0.64179 2.88802,2.88803 4.17159,3.52981 1.28357,0.64178 5.66908,2.56713 8.34318,3.5298 2.67409,0.96268 2.78105,1.39053 6.84568,2.03232 4.06462,0.64178 8.98496,0.32089 9.94763,0.32089 0.96267,0 8.12925,-2.6741 9.09192,-2.88802 0.96268,-0.21393 4.59944,-2.46017 4.59944,-2.46017 l -6.73871,-2.24624 c 0,0 9.84066,-4.92034 10.48245,-4.92034 0.64178,0 6.95264,-0.10696 6.95264,-0.10696 l -4.7064,-4.06462 7.05961,-5.88301 1.81838,-1.39053 -9.30585,-4.70641 8.45014,-7.273535 -8.66407,-5.669081 6.41783,-5.883008 -8.02228,-0.748747 -11.44513,-3.850696 5.45516,-1.069638 1.49749,0.106964 -8.77103,-5.669081 -11.55209,-0.962674 -7.70139,1.818384 -8.23622,3.529805 -5.883,4.064624 -4.27856,6.952646 -0.85571,3.95766 -6.41782,-4.920334 -1.28357,-2.032312 -0.96267,6.2039 c 0,0 0.96267,3.850696 1.60445,5.027298 0.64179,1.176602 2.6741,4.385515 2.6741,4.385515 l 1.60446,1.28357 -4.70641,4.49247 c 0,0 -0.85571,5.56212 -0.85571,6.2039 0,0.64179 0.85571,5.66909 0.85571,5.66909 0,0 1.71142,-3.31588 2.56713,-3.74374 0.85571,-0.42785 4.70641,-2.67409 4.70641,-2.67409 z"
       id="path23" />
    <path
       style="fill:#262626;fill-opacity:1;paint-order:stroke fill markers"
       d="m 611.43189,120.71317 c 0.52944,-0.45381 7.41221,-6.88277 7.41221,-6.88277 l 0.90762,-0.2269 c 0,0 3.78174,10.05943 4.38682,10.28634 0.60507,0.2269 10.81578,6.73149 10.81578,6.73149 0,0 15.20259,3.85738 16.11021,3.40357 0.90762,-0.45381 10.28634,-2.04214 10.28634,-2.04214 0,0 7.33657,-4.23555 6.88277,-4.23555 -0.45381,0 -9.30309,-1.58833 -9.30309,-1.58833 l 15.2026,-5.82388 5.97515,-0.83198 -8.24419,-4.84063 11.04268,-3.85738 -10.05943,-6.42896 10.36197,-6.580228 -10.36197,-5.143167 5.97515,-6.353325 -13.08482,-1.663966 -6.35333,-2.798489 6.05079,-1.134522 1.13452,1.058888 c 0,0 -4.46245,-5.672612 -4.84063,-5.672612 -0.37817,0 -12.63101,-1.285792 -13.08482,-1.285792 -0.45381,0 -10.89142,1.285792 -10.89142,1.285792 l -12.25284,6.655864 -2.26904,6.504595 -2.26905,4.613724 -0.0756,1.134522 c 0,0 -5.29444,-2.949758 -5.74825,-3.479202 -0.45381,-0.529443 -3.7061,-6.428959 -3.7061,-6.428959 l -0.98326,5.445707 1.43707,5.521342 c 0,0 1.66396,3.706106 2.26904,4.538088 0.60508,0.83198 1.5127,2.11778 1.5127,2.11778 l 2.79848,1.7396 c 0,0 -5.2188,4.08428 -5.29443,4.68936 -0.0756,0.60507 -1.89087,4.76499 -2.04214,5.14316 -0.15127,0.37818 -0.68072,3.17667 -0.52945,3.63047 0.15127,0.45381 0.83199,2.79849 0.83199,2.79849 z"
       id="path24" />
  </g>
  <g
     inkscape:groupmode="layer"
     id="layer8"
     inkscape:label="Layer 6">
    <path
       style="fill:#ecd9c6;fill-opacity:1;paint-order:stroke fill markers"
       d="m 87.585122,108.00652 6.353325,2.57159 3.025392,4.53809 4.538091,5.89951 0.90762,1.21016 3.17666,-6.35333 3.02539,-4.84062 2.87412,2.42031 c 0,0 -0.4538,6.05079 -0.90761,7.41221 -0.45381,1.36143 -1.96651,7.41221 -1.96651,7.41221 l 3.78174,3.93302 17.39601,10.74014 7.86602,5.59698 3.17667,8.77364 0.15126,5.89951 c 0,0 -4.99189,4.23555 -5.59697,4.23555 -0.60508,0 -10.28634,0.90762 -10.28634,0.90762 l -9.07618,-9.52999 -13.00919,-15.12696 -5.748241,-4.08428 -7.714752,-0.75635 -5.899516,-5.89952 -4.23555,-8.92491 0.756348,-2.72285 0.907618,0.90762 -0.605078,-4.38682 0.907617,-3.93301 1.210158,0.45381 v -3.02539 l 1.512696,-3.17667 3.025393,2.11778 z"
       id="path25" />
    <path
       style="fill:#ecd9c6;fill-opacity:1;paint-order:stroke fill markers"
       d="m 84.559729,99.535423 3.025393,0.756347 7.412212,-5.294436 3.781741,-5.445707 4.084285,-3.781741 3.32793,7.260943 2.57158,3.327932 h 1.36143 l 2.42031,-6.202055 -3.32793,-7.866022 -0.60508,-3.93301 13.31173,-9.076179 14.37062,-9.681257 4.99189,-9.832526 -0.4538,-7.412213 -14.37062,-3.327932 -9.22745,8.168561 c 0,0 -14.97569,19.816323 -15.58077,20.270132 -0.60508,0.453808 -5.294439,0.907617 -6.202057,0.907617 -0.907618,0 -6.050786,1.058888 -6.050786,1.058888 l -6.504594,5.143168 -3.479202,7.714751 -1.815236,6.353325 1.361427,2.571584 1.966506,0.15127 c 0,0 -0.605079,2.117775 -0.30254,2.722853 0.30254,0.605079 3.933011,5.445707 3.933011,5.445707 z"
       id="path26" />
  </g>
</svg>
