<?xml version="1.0" encoding="UTF-8" standalone="no"?>
<!-- Created with Inkscape (http://www.inkscape.org/) -->

<svg
   width="256"
   height="256"
   viewBox="0 0 256 256"
   version="1.1"
   id="svg1"
   inkscape:version="1.4 (86a8ad7, 2024-10-11)"
   sodipodi:docname="Bush.svg"
   xmlns:inkscape="http://www.inkscape.org/namespaces/inkscape"
   xmlns:sodipodi="http://sodipodi.sourceforge.net/DTD/sodipodi-0.dtd"
   xmlns="http://www.w3.org/2000/svg"
   xmlns:svg="http://www.w3.org/2000/svg">
  <sodipodi:namedview
     id="namedview1"
     pagecolor="#f45e5e"
     bordercolor="#000000"
     borderopacity="0.25"
     inkscape:showpageshadow="2"
     inkscape:pageopacity="0.0"
     inkscape:pagecheckerboard="0"
     inkscape:deskcolor="#d1d1d1"
     inkscape:document-units="mm"
     inkscape:zoom="0.35355339"
     inkscape:cx="-59.39697"
     inkscape:cy="247.48737"
     inkscape:window-width="1398"
     inkscape:window-height="981"
     inkscape:window-x="-8"
     inkscape:window-y="0"
     inkscape:window-maximized="0"
     inkscape:current-layer="layer1" />
  <defs
     id="defs1" />
  <g
     inkscape:label="Layer 1"
     inkscape:groupmode="layer"
     id="layer1">
    <path
       style="fill:#628857;fill-opacity:1;stroke-width:0.264999;paint-order:stroke fill markers"
       d="M 49.068525,10.492543 C 45.409888,8.4333255 41.449054,8.9050426 37.426858,8.9050426 c -1.234723,0 -2.469443,0 -3.704166,0 -1.597574,0 -2.839142,0.2218185 -4.233334,1.0583334 -4.388224,2.632934 -3.189275,5.763729 -2.116666,10.054166 0.08556,0.342245 -0.157767,0.742799 0,1.058333 0.223116,0.446233 0.781591,0.643221 1.058333,1.058334 0.16447,0.246705 0.223378,4.009955 0,4.233333 -0.256561,0.256561 -3.68128,1.049178 -3.704167,1.058333 -0.463219,0.185288 -0.64322,0.781593 -1.058333,1.058334 -2.653122,1.768747 -5.34353,3.278727 -6.879166,6.35 -0.198988,0.397975 0.244772,1.22034 0,1.5875 -1.20568,1.808519 -1.544289,1.414655 -2.116667,3.704166 -1.063386,4.253545 1.968747,6.819043 4.233333,10.054167 1.165841,0.266485 0.279715,1.088596 0.529167,1.5875 0.223116,0.446233 1.2161,0.585033 1.058333,1.058333 -0.929279,2.787838 -7.491811,4.400288 -8.995833,7.408333 -1.117323,2.234645 1.365772,5.531096 2.116667,7.408333 0.510184,1.275461 0.637728,2.442351 1.058333,3.704167 0.148757,0.446273 -0.208942,1.169617 0,1.5875 0.284419,0.568838 0.773915,1.018662 1.058333,1.5875 0.08351,0.167032 0.114464,2.002203 0,2.116667 -0.278895,0.278894 -0.779438,0.250272 -1.058333,0.529166 -0.124726,0.124725 0.124726,0.404442 0,0.529167 -1.094865,1.094864 0.0428,-1.673098 -1.058333,0.529167 -0.07888,0.157765 0.124726,0.404442 0,0.529166 -0.124726,0.124725 -0.3714,-0.07888 -0.529167,0 -1.332782,0.666391 -3.062127,2.949253 -3.7041666,4.233334 -0.5299045,1.059809 0.8088216,1.897298 1.0583336,2.645833 0.111558,0.334674 -0.181503,0.75583 0,1.058333 0.901049,1.501749 2.716475,2.751797 3.704166,4.233334 0.09784,0.146764 -0.124726,0.404442 0,0.529166 0.278896,0.278895 0.83955,0.200991 1.058334,0.529167 0.710287,1.065432 -1.674935,3.658169 -2.116667,4.7625 -0.866659,2.166646 -1.102208,7.687992 0,9.525002 0.406403,0.67734 4.030213,3.98924 4.7625,4.23333 1.706511,0.56884 3.546554,0.62206 5.291666,1.05834 0.352778,0.0882 1.411111,-0.17639 1.5875,0 0.802973,0.80297 -0.318335,1.16583 -0.529166,1.5875 -0.47983,0.95965 -0.189876,2.15712 -0.529167,3.175 -0.293748,0.88124 -2.569277,1.73724 -3.175,2.64583 -0.547432,0.82115 0.898912,0.34429 -0.529166,1.05833 -0.157768,0.0789 -0.352778,0 -0.529167,0 -0.352778,0.35278 -0.643221,0.78159 -1.058333,1.05834 -0.578649,0.38576 -3.541481,-0.32538 -4.7625,2.11666 -2.349822,4.69964 -0.82333,8.48105 1.5875,12.7 0.315534,0.55219 0.857219,0.98416 1.058333,1.5875 0.122678,0.36804 -2.709143,-0.46586 -3.175,0 -0.498903,0.49891 0,1.41111 0,2.11667 0,2.19195 -0.310546,4.70534 0,6.87916 0.0663,0.46408 0.99396,2.47781 0.529167,3.175 -0.03285,1.49 -1.193083,0.13475 -1.5875,0.52917 -0.883252,0.88325 0.72747,3.57161 1.058333,4.23333 0.72488,1.44977 -0.392534,4.2507 0,5.82084 0.354815,1.41926 3.399293,5.37225 2.645833,6.87916 -0.868318,1.73664 -4.71662,1.33465 -5.8208329,3.175 -0.6352594,1.05877 0,2.46945 0,3.70417 0,2.99922 1.3680189,4.33656 4.2333329,5.29167 0.177427,0.0591 1.51902,-0.13696 1.5875,0 0.157767,0.31553 0.111558,0.72366 0,1.05833 -0.586635,1.75991 -2.294046,3.67658 -3.175,5.29167 -1.210214,2.21872 -4.4792537,12.4914 -3.7041663,14.81666 0.8287102,2.48613 3.9935693,1.54948 5.8208333,2.64584 0.427806,0.25668 0.612101,0.83522 1.058333,1.05833 0.315534,0.15777 0.742799,-0.15776 1.058334,0 0.842398,0.4212 -1.5875,9.22144 -1.5875,10.58333 0,2.39447 1.642142,4.51058 3.175,6.35 0.223183,0.26783 1.404785,0.32748 1.5875,1.05834 0.60968,2.43872 0,5.96218 0,8.46666 0,2.62273 1.031024,4.37503 1.587499,6.87917 1.030471,4.63712 -1.64935,-0.65287 1.058334,4.7625 1.101132,2.20226 -0.03653,-0.5657 1.058333,0.52917 0.623629,0.62363 1.133743,1.3604 1.5875,2.11666 0.153681,0.25614 1.813313,3.59126 2.645833,3.175 1.115582,-0.55779 1.630898,-1.92088 2.645834,-2.64583 0.856487,-0.61178 5.426085,-2.57862 6.35,-2.11667 0.85376,0.42689 0.343125,6.70399 3.175,6.35 1.106966,-0.13837 2.089073,-0.80282 3.175,-1.05833 1.919663,-0.45169 3.900334,-0.61022 5.820833,-1.05833 2.906612,-0.67821 15.682425,-4.29801 19.05,-4.7625 2.096815,-0.28922 4.233333,0 6.349999,0 0.844521,0 3.633367,-0.1416 3.704167,0 0.157766,0.31553 -0.06919,0.7124 0,1.05833 0.299646,1.49823 1.160502,2.67989 2.645833,3.175 1.862691,0.6209 4.004789,-0.16596 5.820834,-0.52917 0.974725,-0.19494 4.207219,0.54658 4.233333,0.52917 0.795935,-0.53062 0.649766,-3.01256 2.116667,-2.64583 0.632253,0.15806 4.044931,2.7151 4.7625,1.5875 1.805252,-2.83683 1.978808,-8.56196 6.350002,-7.9375 2.4623,0.35176 4.18186,1.77857 6.35,2.64583 0.32754,0.13102 0.71912,-0.0969 1.05833,0 0.91334,0.26095 1.69897,0.98259 2.64583,1.05833 3.51654,0.28133 7.05556,0 10.58334,0 0.448,0 3.86761,-0.36572 4.23333,0 0.79863,0.79864 1.5812,1.6514 2.11667,2.64584 1.26526,2.34978 1.169,6.27002 4.7625,5.82083 0.89246,-0.11156 1.86894,-0.076 2.64583,-0.52917 1.4047,-0.8194 2.45486,-2.13391 3.70416,-3.175 1.9259,-1.60491 3.82942,-3.23964 5.82084,-4.7625 3.22571,-2.46671 6.80554,-4.4427 10.05416,-6.87916 0.43965,-0.32973 1.1391,-1.91336 2.11667,-1.5875 4.88862,1.62954 7.29541,4.34403 11.64167,6.35 7.69357,3.55088 14.76288,5.30444 23.28333,5.82083 2.46492,0.14939 4.93889,0 7.40833,0 0.52917,0 1.14721,0.29353 1.5875,0 0.36734,-0.24489 -0.39095,-3.04468 0,-3.175 2.54195,-0.84731 8.52477,2.3051 11.64167,1.05833 3.03158,-1.21263 1.41724,-4.25172 2.11667,-6.35 0.3682,-1.10461 2.40993,-0.3379 3.175,-0.52916 2.56074,-0.64019 0.49252,-2.89209 2.11666,-3.70417 0.56884,-0.28442 0.99701,-0.82214 1.5875,-1.05833 0.61546,-0.24618 2.67718,0.46647 3.175,-0.52917 0.23666,-0.4733 -0.19652,-1.09618 0,-1.5875 0.18529,-0.46322 0.79686,-0.63344 1.05834,-1.05833 1.15833,-1.88229 1.94903,-3.98188 3.175,-5.82084 0.87578,-1.31366 4.84324,-0.31192 5.82083,-0.52916 0.83264,-0.18503 2.95415,-1.55415 3.70417,-2.11667 0.75867,-0.569 5.93781,-10.49422 7.40833,-12.7 1.95491,-2.93237 5.06555,-4.69026 5.82083,-8.46667 0.60859,-3.04294 -3.09872,-3.51466 -4.7625,-4.7625 -1.04379,-0.78284 1.81089,-4.16284 1.05834,-5.29166 -1.05834,-1.58751 -3.52822,-0.41275 -4.7625,-3.70417 -0.5248,-1.39945 -0.082,-7.85548 1.05833,-8.99583 0.99323,-0.99323 0.29455,2.3787 1.05833,-1.05834 0.27057,-1.21755 0.27222,-2.48366 0.52917,-3.70416 1.90005,-9.02523 1.46659,-4.2184 3.70417,-14.2875 0.60602,-2.72712 -0.92885,-2.09525 -2.11667,-4.23334 -0.33121,-0.59618 -0.84098,-4.12465 -2.11667,-4.7625 -1.42064,-0.71032 -5.40253,-0.85337 -6.35,-2.11666 -0.21166,-0.28222 0.0692,-0.71241 0,-1.05834 -0.43258,-2.1629 -1.08093,-4.86653 0.52917,-6.87916 0.60381,-0.75476 2.11667,-0.81345 2.11667,-2.11667 0,-1.4951 -5.69547,-2.21431 -4.7625,-6.87916 0.49626,-2.48133 2.82327,-4.46993 4.23333,-6.35 0.21167,-0.28223 -0.13102,-0.73079 0,-1.05834 1.20381,-3.00952 1.19637,-1.24236 1.5875,-4.7625 0.45863,-4.12764 0,-8.5392 0,-12.7 0,-1.0953 -0.22899,-2.63554 0,-3.70417 1.41803,-6.617455 1.32596,-5.696144 3.70417,-11.641662 0.7093,-1.773267 2.81458,-4.785405 2.11666,-6.879167 -4.38516,-13.155504 -8.3038,-7.991787 -17.99166,-4.7625 -1.21824,0.406078 -2.48594,0.652256 -3.70417,1.058334 -0.37418,0.124724 -0.66392,0.529166 -1.05833,0.529166 -0.35906,0 0.98374,-3.455548 1.05833,-3.704166 0.35762,-1.192078 0.84477,-11.007299 0.52917,-11.1125 -1.26009,-0.420031 -9.4074,-0.138594 -10.05417,0 -1.30332,0.279283 -8.69396,3.629591 -9.525,5.291666 -0.0789,0.157766 0.43132,0.146765 0.52917,0 0.3094,-0.46411 0.30262,-1.077785 0.52916,-1.5875 1.86404,-4.194069 1.61806,-2.831597 4.23334,-7.408333 2.78148,-4.86759 5.34635,-10.884098 6.35,-16.404166 0.22087,-1.214805 -0.13636,-2.476998 0,-3.704167 0.0721,-0.648655 1.04002,-5.839145 0.52916,-6.35 -1.31001,-1.310018 -12.34568,2.368431 -14.2875,2.645834 -1.23005,0.175723 -0.52916,-5.626786 -0.52916,-6.35 0,-3.215843 0.13258,-6.129034 -1.5875,-8.995834 -0.0447,-0.07455 -4.15465,0 -5.29167,0 -3.13654,0 -6.45596,-0.238093 -9.525,0.529167 -1.71122,0.427806 -2.80681,2.13753 -4.23333,3.175 -1.71653,1.24838 -6.82691,5.309087 -6.87917,5.291667 -0.37418,-0.124725 -0.36898,-0.69791 -0.52917,-1.058334 -0.77156,-1.736028 -1.13924,-3.66263 -2.11666,-5.291666 -0.25669,-0.427806 -0.83522,-0.612101 -1.05834,-1.058334 -0.15776,-0.315534 0.24946,-0.808881 0,-1.058333 -0.24945,-0.249451 -0.70555,0 -1.05833,0 -0.70556,0 -1.41111,0 -2.11667,0 -5.39644,0 -10.56032,-0.0046 -15.875,1.058333 -0.88194,0.176389 -1.81914,0.174872 -2.64583,0.529167 -0.63922,0.273954 -2.74607,2.259644 -3.175,2.116667 -1.65981,-0.55327 -1.47104,-2.000205 -2.64583,-3.175 -0.12473,-0.124726 -0.3714,0.07888 -0.52917,0 -1.05865,-0.529325 -1.61646,-2.05762 -2.64583,-2.645834 -1.50834,-0.861906 -3.24389,-1.272993 -4.7625,-2.116666 -4.05766,-2.254257 -9.80877,-4.85709 -14.2875,-6.35 -2.98376,-0.994586 -6.92321,0.573203 -8.99583,2.645833 -0.60381,0.603809 -0.90707,2.116667 -2.11667,2.116667 -1.24919,0 -5.42268,-4.43674 -5.82083,-4.7625 -4.42047,-3.6167477 -6.72809,-3.9214887 -12.700002,-3.1749997 -2.467089,0.3083862 -4.118563,1.9020208 -6.35,2.6458337 -0.689949,0.229983 -1.548765,0.07484 -2.116667,0.529166 -0.732793,0.586235 -0.04029,5.780545 -1.5875,4.233333 -2.807586,-2.807587 0.560221,-1.361889 -2.116667,-3.704166 -1.43587,-1.256386 -3.055987,-2.3217444 -4.7625,-3.175 -1.428112,-0.7140557 -7.140905,0.3007561 -8.466666,1.0583333 -0.765741,0.4375669 -1.604047,0.8698317 -2.116667,1.5874997 -0.422717,0.591804 -0.242681,1.4482 -0.529166,2.116667 -0.237572,0.554332 -4.657688,5.326604 -4.7625,5.291666 -2.402748,-0.800915 -2.978857,-5.095523 -4.7625,-6.879166 -1.175475,-1.175475 -9.722842,-1.058333 -11.1125,-1.058333 z"
       id="path1" />
    <path
       style="fill:#7ca166;fill-opacity:1;stroke-width:0.264999;paint-order:stroke fill markers"
       d="m 70.886302,47.405811 c 0,-1.5875 -0.311335,-3.205829 0,-4.7625 0.232056,-1.160275 1.132404,-2.082765 1.5875,-3.175 1.53049,-3.673178 2.082099,-7.670522 4.233334,-11.1125 5.174272,-8.27883 1.201893,-1.201893 4.762502,-4.7625 0.4497,-0.449705 0.55632,-1.197046 1.05833,-1.5875 2.56216,-1.992788 5.74098,-2.6758 8.46667,-4.233333 2.02873,-1.159275 1.97092,-1.999432 4.23333,-2.645833 1.52877,-0.436792 8.403702,-1.07932 10.054172,-0.529167 0.16733,0.05578 0,0.352778 0,0.529167 0,2.469444 0,4.938889 0,7.408333 0,0.557791 0.21976,-1.12339 0.52916,-1.5875 0.34283,-0.514239 2.19359,-1.890542 2.64584,-2.116667 0.9978,-0.498903 2.15941,-0.596702 3.175,-1.058333 2.63562,-1.19801 4.60093,-3.43122 7.40833,-4.233333 4.85036,-1.385817 0.0591,0.489741 3.175,-1.5875 0.81035,-0.540237 7.48959,0.138335 8.46666,0.529167 0.86376,0.345501 1.41102,5.174204 2.11667,4.233333 0.16069,-0.214249 2.21985,-4.020339 2.64583,-4.233333 0.4733,-0.236651 1.0787,0.145373 1.5875,0 0.75849,-0.21671 1.34662,-0.887211 2.11667,-1.058334 0.81457,-0.181014 10.50175,-0.379972 11.64167,0 0.23665,0.07888 0.30605,0.417609 0.52916,0.529167 0.41331,0.206652 2.18347,0.595961 2.64584,1.058333 1.80801,1.808015 2.82858,6.041753 3.175,8.466667 0.0748,0.523848 -0.12834,1.074133 0,1.5875 0.14272,0.570909 1.28548,2.418687 0.52916,3.175 -0.12472,0.124724 -0.40444,-0.124725 -0.52916,0 -0.24945,0.249451 0.15776,0.742799 0,1.058333 -0.67219,1.344372 -0.63245,-0.54193 -1.05834,1.5875 -0.41129,2.056484 0,4.773475 0,6.879167 0,0.845727 -1.37053,2.021424 -1.05833,2.645833 0.11156,0.223115 0.27972,0.529167 0.52917,0.529167 1.62622,0 3.14295,-0.911101 4.7625,-1.058334 2.10797,-0.191635 4.24628,-0.233746 6.35,0 4.95953,0.551058 11.41781,1.800093 15.34583,5.291667 1.94935,1.732753 1.19831,6.896147 1.05833,8.995833 -0.10624,1.593731 -0.21591,3.196249 -0.52916,4.7625 -0.0489,0.244607 -0.52917,0.778618 -0.52917,0.529167 0,-2.550989 7.37546,-4.575154 7.9375,-4.7625 9.43888,-3.146293 18.12841,-2.645834 28.04583,-2.645834 1.23473,0 2.55776,-0.458565 3.70417,0 0.66645,0.266579 6.17465,4.58715 7.40833,5.820834 0.4065,0.406492 0,3.771262 0,4.233333 0,3.939765 0.14964,7.246985 -1.05833,11.1125 -0.40068,1.282189 -1.20149,2.417482 -1.5875,3.704166 -0.15206,0.506849 0.27225,1.133743 0,1.5875 -0.32721,0.545349 -1.09088,0.661041 -1.5875,1.058334 -2.23464,1.787713 -6.3286,3.958047 -8.99583,5.291666 -2.60856,1.304277 -2.68084,0.564169 -4.7625,2.645834 -1.3825,1.382498 7.80862,0.331298 8.99583,0.529166 8.35207,1.392013 8.99583,8.960019 8.99583,15.875003 0,2.13395 -0.0898,9.95427 -2.11666,11.1125 -3.38531,1.93446 -9.57318,1.10652 -12.17084,3.70417 -0.12472,0.12472 0.35414,-0.0219 0.52917,0 1.23763,0.1547 2.50241,0.19534 3.70417,0.52917 1.98926,0.55257 3.91507,1.32259 5.82083,2.11666 2.23206,0.93003 -2.08004,6.82162 -2.11667,6.87917 -2.03415,3.19653 -4.90271,5.68264 -7.40833,8.46666 -1.51111,1.67902 -2.63606,3.6944 -4.23333,5.29167 -1.16136,1.16136 -3.44601,2.12951 -4.23334,3.70417 -0.29363,0.58727 -0.0331,9.35928 0,9.525 0.40836,2.04176 0.83899,2.71028 -0.52916,4.7625 -2.9604,4.44059 -9.72926,5.75079 -14.2875,7.40833 -0.8927,0.32462 -1.71127,0.88841 -2.64584,1.05833 -1.04126,0.18932 -2.11666,0 -3.175,0 -0.17639,0 -0.45028,-0.15776 -0.52916,0 -0.86006,1.72012 2.00164,5.16128 0.52916,6.87917 -0.72601,0.84701 -2.16209,0.59084 -3.175,1.05833 -2.44464,1.1283 -4.34356,3.32777 -6.87916,4.23334 -1.33925,0.4783 -2.81513,0.42411 -4.23334,0.52916 -3.34685,0.24792 -6.69967,0.42752 -10.05416,0.52917 -4.64851,0.14087 -9.24438,0.67269 -13.22917,-2.11667 -4.27103,-2.98972 -4.52973,-9.10287 -4.7625,-13.75833 -0.0329,-0.65875 0.2868,-7.12154 0,-7.40833 -0.24945,-0.24945 -0.73079,-0.13102 -1.05833,0 -2.49452,0.99781 -4.89272,2.23164 -7.40834,3.175 -4.90781,1.84043 -14.39747,4.26481 -19.04999,0 -3.5759,-3.2779 -7.46943,-10.44858 -9.525,-14.81667 -0.57199,-1.21548 -1.2015,-2.41748 -1.5875,-3.70417 -0.20274,-0.67579 0.70555,-2.11666 0,-2.11666 -0.24946,0 -0.28456,0.48024 -0.52917,0.52916 -1.21075,0.24215 -2.46945,0 -3.70417,0 -5.338492,0 -7.291572,-0.62315 -11.112502,-4.7625 -2.56429,-2.77798 -4.99265,-6.85652 -5.82083,-10.58333 -0.17499,-0.78747 0.68546,-3.40051 -0.52917,-3.70416 -1.8901,-0.47253 -3.897409,-0.21894 -5.820829,-0.52917 -4.065302,-0.65569 -8.207618,-0.99884 -12.170833,-2.11667 -3.758531,-1.0601 -16.384625,-6.72977 -19.579167,-9.525 -1.351862,-1.18288 -1.058333,-1.65453 -1.058333,-3.175 0,-4.62574 1.997051,-5.706964 5.820833,-7.937503 0.88841,-0.518239 1.627656,-1.442045 2.645833,-1.5875 1.5875,0.17639 3.175,0.352777 4.7625,0.529167 0,0.17639 -0.176389,0.529166 0,0.529166 0.353502,0 -0.966737,-3.455548 -1.058333,-3.704166 -0.849334,-2.305333 -2.049968,-4.495708 -2.645833,-6.879167 -1.75333,-7.013318 -2.116667,-14.495798 -2.116667,-21.695833 0,-5.783593 9.767983,-0.642551 10.054167,-2.645833 1.0825,-7.577497 -2.640203,-20.29129 2.645833,-26.458333 2.00478,-2.338909 18.653449,-2.513216 21.166669,0 0.0149,0.01487 -1.55033,-0.219102 -2.64584,0 -1.56488,0.312978 -1.83708,0.69556 -3.174996,1.5875 -2.596192,1.730796 -3.311194,3.345243 -5.291666,5.820833 -1.326854,1.658567 -2.822224,3.175 -4.233334,4.7625 z"
       id="path2" />
    <path
       style="fill:#7ca166;fill-opacity:1;stroke-width:0.264999;paint-order:stroke fill markers"
       d="m 24.983653,134.94396 c 0.176389,-1.05834 -0.03315,-2.26123 0.529167,-3.175 5.596161,-9.09377 20.675465,-10.58123 30.162499,-10.05417 5.1782,0.28768 5.291667,1.62107 5.291667,6.35 0,1.76389 0.427805,3.58044 0,5.29167 -0.04278,0.17112 -0.473387,0.16733 -0.529167,0 -0.175619,-0.52687 0.01778,-2.79147 0.529167,-3.175 0.423333,-0.3175 1.063651,0.0748 1.5875,0 0.01611,-0.002 3.212663,-1.02067 3.704167,-0.52917 1.430438,1.43044 1.903613,5.07168 2.116666,6.35 0.306192,1.83716 -0.734012,5.94031 0,7.40833 0.749329,1.49866 7.949465,2.41331 8.995833,2.64584 4.247478,0.94388 9.262999,1.81649 12.7,4.7625 0.482873,0.41389 0.608629,1.13779 1.058334,1.5875 0.124724,0.12472 0.404442,-0.12473 0.529166,0 0.70326,0.70325 -0.119782,4.86256 0,5.82083 0.09021,0.72165 0.386538,1.40352 0.529167,2.11666 0.06919,0.34593 -0.157766,0.7428 0,1.05834 0.698569,1.39714 3.755025,-1.94731 4.7625,-1.5875 1.893977,0.67642 3.398381,2.22637 4.762501,3.70416 3.24,3.51 1.31019,8.13847 2.11667,12.17084 0.22392,1.1196 4.59465,1.41965 5.29166,2.11666 0.51426,0.51426 0.39907,1.40113 0.52917,2.11667 1.36956,7.53257 -0.15518,12.24843 -7.40833,15.875 -0.40096,0.20048 -3.573808,0.40651 -3.704171,1.05833 -0.138372,0.69186 0.185645,1.43598 0,2.11667 -0.864256,3.16894 -3.316642,7.33383 -5.820833,9.525 -0.593659,0.51945 -1.485599,0.58503 -2.116667,1.05833 -0.02661,0.0199 1.030502,1.92185 1.058333,2.11667 0.371168,2.59818 -0.153402,2.60291 -2.116666,4.7625 -8.291648,9.12081 -21.258948,9.525 -32.808333,9.525 -6.34723,0 -11.554645,-0.22107 -17.4625,-3.175 -1.232199,-0.6161 -2.087556,-1.80004 -3.175,-2.64583 -0.502012,-0.39046 -1.137795,-0.60863 -1.5875,-1.05834 -0.278895,-0.27889 -0.134749,-1.05833 -0.529167,-1.05833 -0.352777,0 0.131019,0.73079 0,1.05833 -0.56283,1.40708 -1.160942,1.95168 -2.645833,2.11667 -5.910955,0.65677 -13.644415,-3.53329 -16.933333,-8.46667 -1.631481,-2.44722 -0.963274,-4.91143 -1.5875,-7.40833 -0.154247,-0.61699 -0.883616,-0.97599 -1.058333,-1.5875 -1.495206,-5.23322 -0.83303,-12.09227 1.5875,-16.93333 0.07888,-0.15777 0.450283,0.15776 0.529166,0 0.236651,-0.4733 0.02935,-1.05915 0,-1.5875 -0.16662,-2.99917 -0.953967,-6.02223 -0.529166,-8.99584 0.141111,-0.98777 1.467303,-1.35907 2.116666,-2.11666 1.366217,-1.59392 0.783667,-1.45017 2.116667,-2.11667 1.400585,-0.70029 2.819501,-8.9795 3.175,-11.1125 0.231985,-1.39191 -0.140411,-2.82922 0,-4.23333 0.113725,-1.13725 0.647442,-2.01913 1.5875,-2.64584 0.207556,-0.13837 0.778618,0.52917 0.529167,0.52917 -1.404742,0 -2.116667,-3.92033 -2.116667,-4.7625 0,-6.92347 -0.216765,-8.14152 4.233333,-14.81666 z"
       id="path3" />
    <path
       style="fill:#7ca166;fill-opacity:1;stroke-width:0.264999;paint-order:stroke fill markers"
       d="m 146.1252,162.74212 c -5.11647,3.06988 -3.38261,1.11649 -4.23333,11.1125 -1.0424,12.24816 -3.1872,17.98191 7.40833,26.45833 5.57832,4.46265 11.79508,4.27652 17.99167,2.64583 0.99465,-0.26175 2.02873,-0.76468 2.64583,-1.5875 0.53965,-0.71953 0.40198,-1.75546 0.52917,-2.64583 0.52504,-3.67527 -2.64389,2.48262 -3.175,3.70417 -1.383,3.18089 -5.0873,19.20327 -1.05833,22.225 5.23069,3.92302 9.30784,-0.87204 13.75833,-3.70417 1.79194,-1.14032 4.27156,0.0916 6.35,0.52917 2.94948,0.62094 5.5685,2.34695 8.46667,3.175 1.03165,0.29475 2.11285,0.37743 3.175,0.52916 0.37041,0.0529 1.37583,-0.10583 1.5875,0 2.79095,1.39548 4.0717,5.51585 7.40833,6.35 0.85561,0.21391 1.76389,0 2.64583,0 5.07305,0 3.73438,-1.07343 7.9375,-3.175 1.76389,-0.88194 3.93852,-0.47011 5.82084,-1.05833 3.44608,-1.0769 6.51165,-3.94664 8.46666,-6.87917 1.28715,-1.93072 2.37999,-4.14724 1.05834,-6.35 -0.30247,-0.50412 -3.175,-2.15165 -3.175,-1.5875 0,0.17639 0.35277,0 0.52916,0 1.23473,0 2.47185,0.077 3.70417,0 1.59416,-0.0996 3.2472,-0.0241 4.7625,-0.52916 1.72284,-0.57428 3.17126,-1.77066 4.7625,-2.64584 1.93657,-1.06511 4.31281,-1.55926 5.82083,-3.175 3.78933,-4.05998 0.0149,-10.86622 -2.64583,-13.75833 -2.03023,-2.20677 -5.30084,-2.80514 -7.9375,-4.23333 -6.06061,-3.28283 -12.16272,-6.26046 -19.05,-7.40834 -1.75283,-0.29214 -4.17549,-0.0492 -4.23333,0.52917 -0.15894,1.58934 -0.008,3.25829 0.52916,4.7625 0.64531,1.80685 5.80301,4.7625 1.5875,4.7625 -1.94027,0 -3.90492,0.30655 -5.82083,0 -10.06373,-1.6102 -19.0193,-7.92727 -28.575,-11.1125 -0.61778,-0.20593 -5.03672,-0.39206 -5.82083,0 -1.62232,0.81116 -0.40413,1.18982 -1.5875,1.05833 -4.92787,-0.54754 -7.98969,-2.13406 -12.7,-3.70416 -0.85326,-0.28442 -1.79258,-0.24475 -2.64584,-0.52917 -0.83668,-0.27889 -1.30603,-1.24009 -2.11666,-1.5875 -2.60328,-1.11569 -7.90605,-0.15542 -10.05417,-1.5875 -0.49983,-0.33322 0,-3.52715 0,-4.23333 0,-3.32473 0.21492,-1.10394 -2.11667,-6.35 z"
       id="path4" />
    <path
       style="fill:#7ca166;fill-opacity:1;stroke-width:0.264999;paint-order:stroke fill markers"
       d="m 107.80602,190.93837 c -3.33332,1.63769 -5.91426,4.35605 -8.995829,6.35 -3.362854,2.17597 -4.85784,1.39203 -5.820833,4.7625 -2.059393,7.20788 8.446682,13.22917 14.287502,13.22917 0.35277,0 -0.70556,0 -1.05834,0 -1.04389,0 -3.52127,-0.10378 -4.23333,0.52917 -1.11118,0.98771 -4.619923,9.25411 -4.762499,9.525 -0.775026,1.47254 -1.901648,2.74496 -2.645833,4.23333 -3.016711,6.03342 1.94891,4.14946 5.291666,5.82083 0.157766,0.0789 -0.06193,0.36401 0,0.52917 1.058126,2.82168 2.426266,5.39265 2.645836,8.46667 0.1131,1.58346 -0.34438,3.2128 0,4.7625 0.0765,0.34437 0.70555,0 1.05833,0 2.99861,0 5.99722,0 8.99583,0 2.31138,0 4.38476,-0.34541 6.35,1.05833 0.91906,0.65647 1.63563,1.61157 2.64584,2.11667 1.26454,0.63227 4.41213,-0.17881 5.29166,-1.05834 0.37418,-0.37417 -0.37417,-1.21332 0,-1.5875 0.0817,-0.0817 10.22255,2.74892 14.2875,1.5875 1.29165,-0.36904 2.44636,-1.11582 3.70417,-1.5875 0.16516,-0.0619 0.45028,0.15777 0.52916,0 0.31554,-0.63106 -0.17112,-1.43217 0,-2.11666 0.57747,-2.30988 2.02305,-2.07598 1.05834,-5.29167 -0.30068,-1.00228 -6.4786,-7.6299 -7.40834,-8.46667 -1.05703,-0.95133 -2.69859,-1.11109 -3.70416,-2.11666 -0.17639,-0.17639 0.29251,-0.60805 0.52917,-0.52917 0.37417,0.12473 0.70555,0.70556 1.05833,0.52917 0.31553,-0.15777 0,-0.70556 0,-1.05834 0,-1.05833 0.0704,-2.11901 0,-3.175 -0.24782,-3.71721 -0.94913,-7.46711 -3.175,-10.58333 -0.43497,-0.60896 -1.25283,-0.91815 -1.5875,-1.5875 -0.11156,-0.22311 0.35278,-0.35278 0.52917,-0.52917 0.35277,-0.35277 0.65485,-0.76489 1.05833,-1.05833 1.54302,-1.1222 3.35606,-1.88576 4.7625,-3.175 2.05863,-1.88708 2.35006,-5.37018 2.11666,-7.9375 -0.0971,-1.06852 0.0861,-2.29602 -0.52916,-3.175 -1.7672,-2.52457 -6.33091,-3.21689 -8.99583,-2.64583 -1.15699,0.24792 -2.19048,0.93115 -3.175,1.5875 -0.47038,0.31358 0.64675,0.92114 -0.52917,0.52916 -3.2,-1.06666 -2.49343,-5.8568 -4.23333,-8.46666 -0.55349,-0.83023 -1.22421,-1.67044 -2.11667,-2.11667 -2.32294,-1.16147 -10.81335,1.9556 -13.22917,2.64583 z"
       id="path5" />
    <path
       style="fill:#96b773;fill-opacity:1;stroke-width:0.264999;paint-order:stroke fill markers"
       d="m 98.666216,77.347233 c 2.830514,-5.00196 8.554314,-11.1125 14.816664,-11.1125 0.70556,0 1.4856,-0.31554 2.11667,0 2.38046,1.19023 -0.16845,3.53572 1.05833,4.7625 0.50733,0.50733 6.05094,-0.49694 6.87917,0 2.87315,1.72389 2.11666,8.31808 2.11666,11.1125 0,0.17639 -0.10583,-0.38806 0,-0.52917 0.44902,-0.59868 0.8868,-1.32473 1.5875,-1.5875 0.82579,-0.30967 1.76389,0 2.64584,0 4.48385,0 8.13909,-0.0252 10.05416,4.7625 1.41603,3.540067 1.5875,7.890047 1.5875,11.641667 0,0.52916 0,1.05833 0,1.5875 0,0.17639 -0.17639,0.52916 0,0.52916 0.24945,0 0.32161,-0.39079 0.52917,-0.52916 0.85577,-0.57052 1.69088,-1.20552 2.64583,-1.5875 1.80606,-0.72243 7.43289,-1.19519 8.99583,0 2.18869,1.67369 3.83138,4.01352 5.29167,6.35 0.52256,0.8361 -0.71721,6.35 0.52917,6.35 1.42209,0 2.81369,-0.44566 4.23333,-0.52917 5.10645,-0.30038 10.27352,-0.66161 15.34583,0 3.54688,0.46264 2.64584,13.21858 2.64584,15.875 0,0.55779 -0.012,-1.45221 0.52916,-1.5875 0.54114,-0.13528 1.26329,0.0753 1.5875,0.52917 0.64842,0.90778 0.83955,2.08108 1.05834,3.175 0.4843,2.42149 0.16426,4.94436 0,7.40833 -0.0965,1.44726 -1.05,3.72916 -0.52917,5.29167 0.24945,0.74835 0.97122,1.33265 1.05833,2.11666 0.26972,2.42746 0.22636,10.53133 -1.05833,13.22917 -2.3567,4.94908 -7.79203,8.01645 -12.17083,10.58333 -1.66577,0.97649 -12.22071,6.07542 -14.2875,6.87917 -1.89572,0.73723 -7.40834,1.47939 -7.40834,-1.5875 0,-0.17639 -0.15776,-0.45028 0,-0.52917 3.29745,-1.64872 -0.98926,4.5339 -1.5875,5.29167 -2.68981,3.4071 -10.49729,14.46428 -15.34583,15.34583 -11.01261,2.0023 -14.60128,-7.5375 -18.52083,-14.81666 -1.27436,-2.36667 -2.12166,-3.72912 -2.64584,-6.35 -0.0346,-0.17297 -0.14111,-0.635 0,-0.52917 0.79825,0.59868 1.41112,1.41111 2.11667,2.11667 0.17639,0.17639 0.75228,0.41761 0.52917,0.52916 -1.87816,0.93908 -9.76545,-1.09677 -10.58333,-1.5875 -2.33338,-1.40002 -8.175779,-7.89992 -10.054167,-10.58333 -0.815517,-1.16502 -1.771758,-2.32453 -2.116667,-3.70417 -0.128341,-0.51336 0.4733,-1.82415 0,-1.5875 -0.446233,0.22312 -0.672203,0.74241 -1.058333,1.05834 -2.456291,2.00969 -5.53874,5.29166 -8.995833,5.29166 -0.529167,0 -1.243124,0.40178 -1.5875,0 -2.309477,-2.69439 -2.884689,-9.24389 -2.116667,-12.7 0.206058,-0.92726 0.569622,-1.83131 1.058333,-2.64583 0.09075,-0.15125 0.705557,0 0.529167,0 -0.939112,0 -3.014882,0.29797 -3.704166,-0.52917 -1.755429,-2.10651 -3.041238,-8.33878 -2.116667,-11.1125 0.669266,-2.0078 4.420574,-2.14921 4.7625,-3.175 0.836483,-2.50945 -1.278231,-6.55617 1.5875,-8.46666 1.643494,-1.09567 4.009874,0.11173 4.233333,0 0.315534,-0.15777 -0.06311,-0.71125 0,-1.05834 0.711735,-3.91453 0.997328,-10.64699 4.233333,-14.2875 1.158426,-1.30322 4.269944,-1.36851 5.820834,-1.05833 0.489214,0.0978 1.41111,1.41111 1.058333,1.05833 -1.59103,-1.59102 -5.664832,-8.92344 -3.175,-10.58333 0.293529,-0.19568 0.742799,0.15777 1.058333,0 0.157766,-0.0789 0.01257,-0.35323 0,-0.52917 -0.163856,-2.29398 -0.429268,-4.5815 -0.529166,-6.87916 -0.07662,-1.762217 0,-3.527777 0,-5.291667 0,-1.05833 0,-2.11666 0,-3.175 0,-0.17639 -0.17639,-0.52916 0,-0.52916 2.425075,0 1.769417,4.11754 3.175,1.5875 0.690628,-1.24314 1.41111,-2.46945 2.116666,-3.70417 z"
       id="path6" />
    <path
       style="fill:#96b773;fill-opacity:1;stroke-width:0.264999;paint-order:stroke fill markers"
       d="m 132.88959,18.611623 c 0.70556,-0.529167 2.64583,-0.881944 2.11667,-1.5875 -0.52917,-0.705556 -2.98661,1.732491 -2.11667,1.5875 1.87392,-0.31232 3.48939,-1.515908 5.29167,-2.116667 1.14046,-0.380152 5.48694,-0.333888 6.35,0.529167 0.27889,0.278896 0.25027,0.779438 0.52916,1.058333 0.35681,0.356809 1.68703,-0.28643 2.11667,0 1.25828,0.838855 2.08533,3.11233 2.64583,4.233334 0.29752,0.595028 1.37856,0.960676 1.5875,1.5875 0.11156,0.334674 -0.15776,0.742799 0,1.058333 0.0789,0.157766 0.35278,0 0.52917,0 0.17639,0.17639 0.45029,0.292515 0.52917,0.529167 0.67512,2.025374 0,8.686969 0,11.1125 0,0.406487 -0.39489,2.203539 0.52916,1.5875 0.41512,-0.276741 0.92128,-0.578626 1.05834,-1.058334 0.24229,-0.848011 -0.12473,-1.772753 0,-2.645833 0.23506,-1.645449 1.05833,-3.184864 1.05833,-5.291667 0,-2.019607 -0.24945,-0.15499 1.05833,-2.116666 0.15788,-0.23681 0,-1.29222 0,-1.5875 0,-1.055978 0.46599,-6.47636 0,-7.408334 -0.91309,-1.826196 -4.58323,-4.642993 -6.35,-5.820833 -0.0746,-0.0497 -5.49405,-1.546652 -5.82083,-1.5875 -0.73121,-0.0914 -7.92327,-0.271696 -8.46667,0 -1.27578,0.637893 -1.57302,1.930629 -2.64583,2.645833 -0.32817,0.218784 -0.77944,0.250272 -1.05833,0.529167 -0.2789,0.278896 -0.61473,0.673308 -0.52917,1.058333 1.17499,5.28747 3.95779,3.111596 -2.64583,4.7625"
       id="path7" />
    <path
       style="fill:#96b773;fill-opacity:1;stroke-width:0.264999;paint-order:stroke fill markers"
       d="m 149.38455,41.365789 c 2.07625,-0.534283 10.01417,-2.073232 12.17083,-1.058333 5.21722,2.455161 5.97144,5.340964 8.46667,10.054167 0.55363,1.045744 1.12139,2.087419 1.5875,3.175 0.13896,0.324254 -0.24945,0.808881 0,1.058333 0.24945,0.249452 0.80888,-0.249452 1.05833,0 0.44971,0.449704 0.77392,1.018662 1.05833,1.5875 0.15777,0.315534 -0.24945,0.808881 0,1.058333 0.35278,0.352777 1.76389,-0.352777 2.11667,0 0.89941,0.899412 0.84471,3.175 2.11667,3.175 0.39441,0 0.20099,-0.839549 0.52916,-1.058333 0.85578,-0.570518 1.6628,-1.285028 2.64584,-1.5875 3.58306,-1.102482 13.93371,-1.589013 16.40416,2.116667 1.02321,1.534808 1.32092,3.700163 2.11667,5.291666 0.28037,0.56074 -0.19986,1.517084 0,2.116667 0.51235,1.537044 0.55377,0.738357 1.5875,2.116666 0.89581,1.194414 1.42252,3.192119 2.11667,4.233334 0.27674,0.415112 0.83522,0.6121 1.05833,1.058333 0.38246,0.764929 0.34725,5.655493 0,6.35 -0.28414,0.568283 -3.12099,2.170673 -2.64583,2.645833 1.00349,1.003496 5.26726,-0.841785 6.35,-1.058333 3.98418,-0.796838 13.39683,-3.871833 16.40416,-6.879167 0.2789,-0.278894 0.25028,-0.779438 0.52917,-1.058333 0.12472,-0.124725 0.35278,0 0.52917,0 0.35277,-0.529167 0.80781,-1.002943 1.05833,-1.5875 1.24248,-2.899106 1.05833,-9.110514 1.05833,-12.170833 0,-3.12729 0.0666,-5.180745 -1.5875,-7.9375 -0.25668,-0.427805 -0.80165,-0.630529 -1.05833,-1.058333 -0.28698,-0.478301 -0.27971,-1.088597 -0.52917,-1.5875 -0.3237,-0.647409 -1.07188,-0.671624 -1.5875,-1.058334 -5.86523,-4.398928 -12.19123,-2.730627 -19.05,-1.5875 -0.88194,0.146992 -1.76389,-0.220485 -2.64583,0 -0.242,0.0605 -0.28716,0.468667 -0.52917,0.529167 -0.51336,0.128341 -1.05833,0 -1.5875,0 -0.52916,0.17639 -1.05323,0.368887 -1.5875,0.529167 -2.08979,0.626938 -4.3446,0.728043 -6.35,1.5875 -0.45856,0.196527 -0.64322,0.781592 -1.05833,1.058333 -3.93755,2.625037 -0.65462,0.428236 -3.175,1.058333 -1.28192,0.320482 -2.37433,1.255043 -3.70417,1.5875 -0.17112,0.04278 -0.40444,-0.124724 -0.52916,0 -0.12473,0.124725 0,0.705557 0,0.529167 0,-3.442361 0.69521,-7.847481 -0.52917,-11.1125 -0.63371,-1.689883 -3.32472,-1.577499 -4.7625,-2.116667 -3.13129,-1.174234 -6.35972,-2.541944 -9.525,-3.174999 -2.78789,-0.557578 -6.16923,0 -8.99583,0 -0.59902,0 -4.09802,-0.33224 -4.7625,0 -1.70651,0.853254 -3.175,2.116666 -4.7625,3.174999 z"
       id="path8" />
    <path
       style="fill:#96b773;fill-opacity:1;stroke-width:0.264999;paint-order:stroke fill markers"
       d="m 30.986067,126.69647 c -0.899426,1.6617 -2.981008,1.55005 -4.233333,2.64584 -1.818671,1.59133 -6.344048,7.73532 -6.879166,10.05416 -0.277639,1.2031 0,2.46945 0,3.70417 0,0.80268 -0.830225,11.26766 0.529166,15.34583 0.201114,0.60334 0.608628,1.1378 1.058334,1.5875 0.298495,0.2985 1.693764,-0.14097 2.116666,0 2.279775,0.75993 4.266259,1.06492 6.879167,1.5875 0.172963,0.0346 0.529166,-0.17639 0.529166,0 0,1.78782 -6.731424,8.12291 -6.35,12.7 0.291182,3.49418 0.213319,4.55331 2.116667,7.40833 0.415113,0.62267 1.152528,0.97854 1.5875,1.5875 0.458501,0.6419 0.500543,1.55888 1.058333,2.11667 0.394418,0.39442 1.109199,0.24219 1.5875,0.52917 0.427806,0.25668 0.659211,0.75899 1.058334,1.05833 1.188841,0.89163 2.101878,-0.007 3.175,0.52917 1.438838,0.71942 0.415454,2.53212 1.058333,3.175 0.42236,0.42236 2.090663,-0.27759 2.645833,0 1.690037,0.84502 1.461855,3.81834 2.116667,5.29166 0.413951,0.9314 2.518955,5.22823 3.704167,5.82084 0.894987,0.44749 9.212635,0.87184 10.583333,0.52916 0.541136,-0.13528 2.145292,-0.52916 1.5875,-0.52916 -3.683966,0 -7.125811,-0.0508 -10.583333,-1.5875 -0.581166,-0.2583 -0.997009,-0.82214 -1.5875,-1.05834 -0.327547,-0.13101 -0.7428,0.15777 -1.058334,0 -0.631068,-0.31553 0,-1.41111 0,-2.11666 0,-2.90639 -0.485177,-6.61393 0,-9.525 0.0057,-0.034 1.30546,-3.05144 1.058334,-3.175 -1.533346,-0.76667 -5.662539,-0.18001 -7.408334,-0.52917 -0.172963,-0.0346 0.105834,-0.38806 0,-0.52917 -0.449013,-0.59868 -1.394677,-0.86441 -1.5875,-1.5875 -0.830312,-3.11367 -0.529166,-7.72449 -0.529166,-11.1125 0,-0.70555 0.315534,-1.48559 0,-2.11666 -0.157766,-0.31554 -0.709101,0.0499 -1.058334,0 -0.89037,-0.1272 -1.803689,-0.21336 -2.645833,-0.52917 -0.797004,-0.29887 -2.800661,-1.99074 -3.175,-2.64583 -2.537604,-4.44081 2.736348,-6.14365 5.291667,-8.46667 0.835718,-0.75974 1.318032,-1.8472 2.116666,-2.64583 0.0975,-0.0975 1.489996,-0.43166 1.5875,-0.52917 0.394417,-0.39442 -1.058333,-0.35278 -1.5875,-0.52916 -1.020937,-1.02094 -0.02019,-0.26963 -1.058333,-0.52917 -0.765282,-0.19132 -1.351384,-0.86701 -2.116667,-1.05833 -1.93144,-0.48286 -4.540079,-0.50155 -6.35,-1.5875 -0.33821,-0.20293 -0.250271,-0.77944 -0.529166,-1.05834 -1.775958,-1.77596 -2.419385,-0.83661 -2.645834,-4.23333 -0.501101,-7.51653 2.087543,-13.23858 7.9375,-17.99167 1.480777,-1.20313 3.126458,-2.19337 4.7625,-3.175 1.62914,-0.97748 -1.20627,2.26461 1.5875,-0.52916 0.05353,-0.0535 -0.822682,-0.3335 -2.116666,0.52916 -1.467645,0.97843 -2.797998,2.14976 -4.233334,3.175 z"
       id="path9" />
    <path
       style="fill:#aec881;fill-opacity:1;stroke-width:0.264999;paint-order:stroke fill markers"
       d="m 120.08967,157.31104 c 1.05833,0.70555 1.93685,1.82534 3.175,2.11666 1.88869,0.4444 3.8821,0.0775 5.82083,0 7.12395,-0.28495 13.66401,-2.10215 20.6375,-3.175 1.60703,-0.24723 3.75107,0.51354 5.29166,0 0.23666,-0.0789 0.28456,-0.48024 0.52917,-0.52916 0.69186,-0.13837 1.46158,0.26204 2.11667,0 0.36621,-0.14649 0.28277,-0.75035 0.52916,-1.05834 2.67189,-3.33985 1.12931,0.39906 4.23334,-5.29166 0.45485,-0.8339 0.20873,-3.07064 1.05833,-2.64584 0.35278,0.17639 0.45182,0.67158 0.52917,1.05834 0.34027,1.70134 1.11467,6.71016 0.52916,8.46666 -1.33662,4.00988 0.19108,-0.19108 -1.05833,1.05834 -0.4497,0.4497 -0.60863,1.13779 -1.05833,1.5875 -3.85967,3.85967 -1.30222,0.7324 -4.23334,3.175 -1.22031,1.01693 -1.65905,2.03945 -3.175,2.64583 -0.32754,0.13102 -0.71608,-0.0856 -1.05833,0 -11.57389,2.89347 6.16322,-0.89311 -6.87916,2.11667 -3.16901,0.73131 -6.30502,0.52916 -9.525,0.52916 -1.93935,0 -5.0089,0.62343 -6.87917,0 -3.83298,-1.27765 0.83429,0.15257 -1.5875,-1.05833 -0.31554,-0.15776 -0.76481,0.19569 -1.05833,0 -0.41512,-0.27674 -0.61211,-0.83522 -1.05834,-1.05833 -0.78883,-0.39442 -1.80914,0.27889 -2.64583,0 -0.16734,-0.0558 0.15776,-0.45029 0,-0.52917 -1.08159,-0.54079 -3.62095,0.19026 -4.7625,0 -1.03519,-0.17253 -4.02536,-2.48524 -4.7625,-2.11667 -2.34844,1.17422 -4.32646,4.03316 -6.87916,4.7625 -1.18721,0.33921 -2.46944,0 -3.70416,0 -0.52917,0 -1.09019,0.18084 -1.5875,0 -4.336817,-1.57702 -6.55793,-4.12002 -8.466669,-7.9375 -0.767789,-1.53557 -2.141442,-2.36886 -1.5875,-2.64583 0.981321,-0.49066 10.061749,-0.0834 10.583329,0 3.04181,0.48669 5.91684,2.02045 8.99583,2.11667 18.66333,0.58323 -1.34033,-4.74885 13.75833,1.05833 0.82316,0.3166 1.94028,0.52917 2.64583,0 0.69441,-0.5208 1.31163,-7.85307 1.05834,-7.9375 -1.84878,-0.61626 -8.37194,4.571 -9.525,5.29167 z"
       id="path10" />
  </g>
</svg>
